<svg width="360" height="320" viewBox="0 0 360 320" fill="#D6E4FF" xmlns="http://www.w3.org/2000/svg">
<g clip-path="url(#clip0)">
<path d="M243.922 285.406L399.375 67.7188H359.23L203.777 285.406H243.922Z" fill="white"/>
<path d="M127.955 403.25L450.912 -49H367.511L44.5537 403.25H127.955Z" fill="white"/>
<path d="M141.338 651.875L464.296 199.625H380.895L57.9374 651.875H141.338Z" fill="white"/>
<path d="M165.163 150.375L320.616 -67.3125H280.472L125.019 150.375H165.163Z" fill="white"/>
<path d="M88.6631 223.5L244.116 5.8125H203.972L48.5186 223.5H88.6631Z" fill="white"/>
<path d="M104.413 343.031L259.866 125.344H219.722L64.2686 343.031H104.413Z" fill="white"/>
<path d="M-25.4395 241.875L130.014 24.1875H89.8692L-65.584 241.875H-25.4395Z" fill="white"/>
<path d="M0.282814 174.938L155.736 -42.75H115.592L-39.8617 174.938H0.282814Z" fill="white"/>
<path d="M-24.9616 323.156L130.492 105.469H90.3471L-65.1061 323.156H-24.9616Z" fill="white"/>
</g>
<defs>
<clipPath id="clip0">
<rect width="360" height="320" fill="white"/>
</clipPath>
</defs>
</svg>
