<svg width="364" height="275" viewBox="0 0 364 275" fill="none" xmlns="http://www.w3.org/2000/svg">
<path d="M579.05 354.045L575.491 353.245C589.339 291.134 582.562 227.674 555.871 169.706C514.521 79.9048 431.3 18.091 333.248 4.35328L333.761 0.739258C433.044 14.6233 517.307 77.2334 559.184 168.18C586.204 226.86 593.061 291.147 579.05 354.045Z" fill="#D6E4FF"/>
<path d="M415.817 556.251C269.286 623.722 95.1727 559.398 27.7016 412.868C-39.7694 266.338 24.554 92.224 171.084 24.7529L172.61 28.0662C27.9067 94.696 -35.5839 266.625 31.0317 411.297C97.6615 556.001 269.59 619.491 414.263 552.876C457.986 532.743 496.229 501.847 524.826 463.534L527.745 465.717C498.81 504.6 460.067 535.875 415.817 556.251Z" fill="#D6E4FF"/>
<path d="M261.891 552.965C169.993 541.836 92.0421 485.027 53.3731 401.047L60.0308 397.982C97.6303 479.639 173.421 534.853 262.78 545.687L261.891 552.965Z" fill="#D6E4FF"/>
<path d="M404.013 530.61C377.692 542.73 349.882 550.393 321.336 553.442L320.578 546.172C348.344 543.22 375.384 535.761 400.993 523.969C521.233 468.604 579.62 332.54 536.719 207.499L543.659 205.129C587.698 333.7 527.691 473.662 404.013 530.61Z" fill="#D6E4FF"/>
<path d="M506.733 147.107C473.094 96.9542 422.43 60.1201 364.041 43.4319C305.034 26.5408 241.787 31.4178 185.987 57.1116C140.931 77.8577 103.125 110.842 76.6465 152.533C45.7977 201.116 31.9693 259.277 37.7019 316.312L30.4178 317.039C24.508 258.397 38.7402 198.586 70.4569 148.628C97.7053 105.756 136.579 71.8299 182.904 50.4992C240.315 24.064 305.35 19.0766 366.036 36.4334C426.072 53.6017 478.197 91.4896 512.797 143.076L506.733 147.107Z" fill="#D6E4FF"/>
<path d="M373.302 463.909C277.679 507.939 164.075 465.97 120.045 370.348C102.222 331.64 97.8479 289.292 107.354 247.909L114.486 249.542C105.35 289.366 109.564 330.061 126.703 367.282C169.036 459.22 278.298 499.585 370.236 457.251C386.555 449.737 401.605 439.955 414.918 428.195L419.775 433.69C405.911 445.966 390.24 456.109 373.302 463.909Z" fill="#D6E4FF"/>
<path d="M469.455 364.463L462.712 361.638C482.6 314.273 481.694 260.383 460.22 213.748C445.106 180.925 420.94 153.545 390.356 134.563L394.216 128.357C426.042 148.081 451.165 176.558 466.892 210.714C489.176 259.19 490.135 315.232 469.455 364.463Z" fill="#D6E4FF"/>
<path d="M337.072 112.184C296.406 102.197 254.756 106.213 216.668 123.75C183.256 139.135 155.555 163.826 136.548 195.171L130.294 191.37C150.043 158.783 178.873 133.122 213.617 117.124C253.253 98.873 296.556 94.6972 338.84 105.102L337.072 112.184Z" fill="#D6E4FF"/>
<path d="M359.581 434.122C336.232 444.873 310.401 449.824 284.911 448.425L285.105 444.77C310.016 446.135 335.233 441.317 358.024 430.823C420.978 401.835 457.101 333.897 445.873 265.58L449.476 265.01C461.019 334.907 424.021 404.45 359.581 434.122Z" fill="#D6E4FF"/>
<path d="M238.696 438.854C199.08 424.219 167.512 395.03 149.846 356.664C113.387 277.484 148.124 183.386 227.335 146.913C306.515 110.454 400.626 145.222 437.085 224.402L433.772 225.928C398.154 148.575 306.258 114.625 228.906 150.243C151.553 185.861 117.604 277.757 153.221 355.109C170.474 392.578 201.285 421.102 240.028 435.389L238.696 438.854Z" fill="#D6E4FF"/>
<path d="M334.586 379.838C285.32 402.523 226.799 380.904 204.114 331.637C181.429 282.371 203.048 223.85 252.315 201.165L255.381 207.823C209.799 228.811 189.783 282.99 210.772 328.572C231.76 374.153 285.939 394.169 331.521 373.18C377.103 352.192 397.118 298.013 376.13 252.431L382.787 249.366C405.442 298.647 383.822 357.167 334.586 379.838Z" fill="#D6E4FF"/>
<path d="M313.898 334.906C289.404 346.185 260.325 335.442 249.047 310.948L252.36 309.422C262.783 332.058 289.691 341.999 312.327 331.576C334.963 321.154 344.904 294.245 334.481 271.609C324.058 248.973 297.15 239.032 274.514 249.455C261.942 255.244 252.832 266.269 249.501 279.738L245.944 278.861C249.524 264.302 259.38 252.37 272.974 246.111C297.468 234.832 326.547 245.575 337.826 270.069C349.104 294.563 338.361 323.642 313.898 334.906Z" fill="#D6E4FF"/>
</svg>
