<svg width="290" height="317" viewBox="0 0 290 317" fill="none" xmlns="http://www.w3.org/2000/svg">
<path fill-rule="evenodd" clip-rule="evenodd" d="M287.981 201.856V526.142C287.981 545.338 285.983 552.298 282.23 559.316C278.477 566.334 272.969 571.841 265.952 575.594C258.934 579.347 251.973 581.346 232.778 581.346H57.2224C38.0268 581.346 31.066 579.347 24.0484 575.594C17.0308 571.841 11.5233 566.334 7.77028 559.316C4.01722 552.298 2.01856 545.338 2.01856 526.142V215.986C0.903741 215.986 0 215.082 0 213.968V174.942C0 173.827 0.903741 172.923 2.01856 172.923V162.831C0.903741 162.831 0 161.927 0 160.812V121.787C0 120.672 0.903741 119.768 2.01856 119.768V101.601C0.903741 101.601 0 100.697 0 99.5824V80.7425C0 79.6277 0.903741 78.7239 2.01856 78.7239V55.2038C2.01856 36.0083 4.01722 29.0475 7.77028 22.0299C11.5233 15.0122 17.0308 9.50478 24.0484 5.75172C31.066 1.99866 38.0268 0 57.2224 0H232.778C251.973 0 258.934 1.99866 265.952 5.75172C272.969 9.50478 278.477 15.0122 282.23 22.0299C285.983 29.0475 287.981 36.0083 287.981 55.2038V133.898C289.096 133.898 290 134.802 290 135.917V199.838C290 200.952 289.096 201.856 287.981 201.856ZM18.1671 59.0766C18.1671 44.7569 18.1671 37.5971 20.9538 32.1277C23.4052 27.3167 27.3167 23.4052 32.1277 20.9539C37.5971 18.1671 44.7569 18.1671 59.0766 18.1671L69.3039 18.1671C71.7826 18.1736 73.8334 20.0948 74.0129 22.5296C74.1083 25.8758 74.7541 28.3316 75.8878 30.4513C77.1192 32.7539 78.9264 34.5611 81.229 35.7925C83.5317 37.024 86.231 37.6798 90.0375 37.6798H198.59C202.396 37.6798 205.096 37.024 207.398 35.7925C209.701 34.5611 211.508 32.7539 212.74 30.4513C213.871 28.3351 214.517 25.8838 214.614 22.546C214.786 20.1034 216.84 18.1737 219.324 18.1671L229.578 18.1671C243.897 18.1671 251.057 18.1671 256.527 20.9539C261.338 23.4052 265.249 27.3167 267.7 32.1277C270.487 37.5971 270.487 44.7569 270.487 59.0766V523.615C270.487 537.935 270.487 545.094 267.7 550.564C265.249 555.375 261.338 559.286 256.527 561.738C251.057 564.524 243.897 564.524 229.578 564.524H59.0766C44.7569 564.524 37.5971 564.524 32.1277 561.738C27.3167 559.286 23.4052 555.375 20.9538 550.564C18.1671 545.094 18.1671 537.935 18.1671 523.615V59.0766Z" fill="#8C8C8C"/>
<g opacity="0.3">
<path fill-rule="evenodd" clip-rule="evenodd" d="M175.616 28.2598C178.217 28.2598 180.326 26.1511 180.326 23.5498C180.326 20.9486 178.217 18.8398 175.616 18.8398C173.015 18.8398 170.906 20.9486 170.906 23.5498C170.906 26.1511 173.015 28.2598 175.616 28.2598Z" fill="white"/>
<rect x="127.17" y="20.8584" width="34.9884" height="5.38283" rx="2.69141" fill="white"/>
</g>
</svg>
