<svg width="253" height="299" viewBox="0 0 253 299" fill="none" xmlns="http://www.w3.org/2000/svg">
<g clip-path="url(#clip0)">
<rect width="252.32" height="546.357" transform="translate(0.166016 0.16748)" fill="#FAFAFA"/>
<rect x="10.7664" y="178.978" width="204.884" height="19.1763" rx="2.18677" fill="white"/>
<rect x="62.7441" y="184.529" width="100.928" height="8.07425" fill="#D9D9D9"/>
<rect x="10.7664" y="178.978" width="204.884" height="19.1763" rx="2.18677" stroke="#DADADA" stroke-width="1.00928"/>
<rect x="222.714" y="178.978" width="19.1763" height="19.1763" rx="2.18677" fill="white" stroke="#DADADA" stroke-width="1.00928"/>
<path d="M228.937 187.894L232.302 190.585L235.666 187.894" stroke="black" stroke-opacity="0.85" stroke-width="1.00928" stroke-linecap="round" stroke-linejoin="round"/>
<g clip-path="url(#clip1)">
<path d="M50.9674 228.601C50.9674 239.006 42.5325 247.441 32.1275 247.441C21.7225 247.441 13.2876 239.006 13.2876 228.601C13.2876 218.196 21.7225 209.761 32.1275 209.761C42.5325 209.761 50.9674 218.196 50.9674 228.601Z" fill="#D6E4FF" stroke="#EDEDED" stroke-width="0.672854"/>
<circle cx="32.1295" cy="228.601" r="21.5313" stroke="#C7C7C7" stroke-width="0.672854"/>
<rect x="18.6719" y="255.179" width="26.9142" height="8.07425" fill="#D9D9D9"/>
<path d="M104.797 228.601C104.797 239.006 96.3626 247.441 85.9576 247.441C75.5526 247.441 67.1177 239.006 67.1177 228.601C67.1177 218.196 75.5526 209.761 85.9576 209.761C96.3626 209.761 104.797 218.196 104.797 228.601Z" fill="#D6E4FF" stroke="#EDEDED" stroke-width="0.672854"/>
<circle cx="85.9576" cy="228.601" r="21.5313" stroke="#C7C7C7" stroke-width="0.672854"/>
<rect x="72.5" y="255.179" width="26.9142" height="8.07425" fill="#D9D9D9"/>
<path d="M158.624 228.601C158.624 239.006 150.189 247.441 139.784 247.441C129.379 247.441 120.944 239.006 120.944 228.601C120.944 218.196 129.379 209.761 139.784 209.761C150.189 209.761 158.624 218.196 158.624 228.601Z" fill="#D6E4FF" stroke="#EDEDED" stroke-width="0.672854"/>
<circle cx="139.786" cy="228.601" r="21.5313" stroke="#C7C7C7" stroke-width="0.672854"/>
<rect x="126.328" y="255.179" width="26.9142" height="8.07425" fill="#D9D9D9"/>
</g>
<rect x="0.169922" y="298.915" width="63.0801" height="0.672854" fill="black" fill-opacity="0.85"/>
<path fill-rule="evenodd" clip-rule="evenodd" d="M24.3906 276.71H39.5298V291.849H24.3906V276.71ZM33.8106 290.84V287.139H30.1099V290.84H33.8106ZM34.8199 286.13H38.5206V282.429H34.8199V286.13ZM33.8106 286.13V282.429H30.1099V286.13H33.8106ZM34.8199 290.84H38.5206V287.139H34.8199V290.84ZM38.5206 277.719V281.42H34.8199V277.719H38.5206ZM33.8106 277.719V281.42H30.1099V277.719H33.8106ZM29.1006 282.429V286.13H25.3999V282.429H29.1006ZM29.1006 287.139V290.84H25.3999V287.139H29.1006ZM29.1006 281.42H25.3999V277.719H29.1006V281.42Z" fill="black" fill-opacity="0.85"/>
<path fill-rule="evenodd" clip-rule="evenodd" d="M219.035 278.945H219.558L219.944 278.591L220.87 277.743L221.796 278.591L222.182 278.945H222.705H226.251C226.623 278.945 226.924 279.246 226.924 279.618V289.374C226.924 289.746 226.623 290.047 226.251 290.047H226.124C225.676 288.306 224.095 287.019 222.214 287.019H219.522C217.641 287.019 216.06 288.306 215.612 290.047H215.485C215.114 290.047 214.813 289.746 214.813 289.374V279.618C214.813 279.246 215.114 278.945 215.485 278.945H219.035ZM217.027 290.047H224.71C224.31 289.061 223.343 288.365 222.214 288.365H219.522C218.393 288.365 217.426 289.061 217.027 290.047ZM226.251 277.599H222.705L221.097 276.126C220.969 276.008 220.771 276.008 220.643 276.126L219.035 277.599H215.485C214.371 277.599 213.467 278.503 213.467 279.618V289.374C213.467 290.489 214.371 291.393 215.485 291.393H226.251C227.366 291.393 228.27 290.489 228.27 289.374V279.618C228.27 278.503 227.366 277.599 226.251 277.599ZM224.233 282.982C224.233 284.84 222.727 286.346 220.869 286.346C219.011 286.346 217.505 284.84 217.505 282.982C217.505 281.124 219.011 279.618 220.869 279.618C222.727 279.618 224.233 281.124 224.233 282.982ZM222.887 282.982C222.887 284.097 221.984 285.001 220.869 285.001C219.754 285.001 218.85 284.097 218.85 282.982C218.85 281.867 219.754 280.963 220.869 280.963C221.984 280.963 222.887 281.867 222.887 282.982Z" fill="#9A9A9A"/>
<path fill-rule="evenodd" clip-rule="evenodd" d="M94.5028 277.383H95.5793C95.7202 277.383 95.8565 277.383 95.9884 277.383L97.4565 280.074H94.2794L92.8152 277.39C93.2951 277.383 93.8496 277.383 94.5028 277.383ZM91.3209 277.461C90.7421 277.521 90.4041 277.62 90.1494 277.75C89.5164 278.072 89.0017 278.587 88.6792 279.22C88.5751 279.424 88.491 279.682 88.4308 280.074H92.7465L91.3209 277.461ZM98.9894 280.074H101.651C101.591 279.682 101.507 279.424 101.403 279.22C101.08 278.587 100.566 278.072 99.9327 277.75C99.6502 277.606 99.2654 277.5 98.5632 277.443C98.2602 277.418 97.9203 277.403 97.5278 277.395L98.9894 280.074ZM88.3296 281.42C88.313 281.999 88.3125 282.697 88.3125 283.573V284.65C88.3125 285.991 88.3136 286.916 88.3722 287.634C88.4296 288.336 88.5353 288.721 88.6792 289.003C89.0017 289.636 89.5164 290.151 90.1494 290.473C90.4319 290.617 90.8167 290.723 91.5188 290.78C92.2367 290.839 93.1616 290.84 94.5028 290.84H95.5793C96.9204 290.84 97.8454 290.839 98.5632 290.78C99.2654 290.723 99.6502 290.617 99.9327 290.473C100.566 290.151 101.08 289.636 101.403 289.003C101.547 288.721 101.653 288.336 101.71 287.634C101.769 286.916 101.77 285.991 101.77 284.65V283.573C101.77 282.697 101.769 281.999 101.752 281.42H88.3296ZM86.9668 283.573C86.9668 280.935 86.9668 279.616 87.4802 278.609C87.9317 277.723 88.6522 277.002 89.5385 276.55C90.546 276.037 91.8649 276.037 94.5028 276.037H95.5793C98.2172 276.037 99.5361 276.037 100.544 276.55C101.43 277.002 102.15 277.723 102.602 278.609C103.115 279.616 103.115 280.935 103.115 283.573V284.65C103.115 287.287 103.115 288.606 102.602 289.614C102.15 290.5 101.43 291.221 100.544 291.672C99.5361 292.186 98.2172 292.186 95.5793 292.186H94.5028C91.8649 292.186 90.546 292.186 89.5385 291.672C88.6522 291.221 87.9317 290.5 87.4802 289.614C86.9668 288.606 86.9668 287.287 86.9668 284.65V283.573ZM92.7929 283.556C92.7929 283.047 93.3362 282.722 93.7845 282.963L97.5161 284.97C97.9882 285.224 97.9882 285.902 97.5161 286.156L93.7845 288.163C93.3362 288.404 92.7929 288.079 92.7929 287.57V283.556Z" fill="#9A9A9A"/>
<path fill-rule="evenodd" clip-rule="evenodd" d="M156.579 275.394C156.317 275.131 155.891 275.131 155.628 275.394C155.365 275.657 155.365 276.083 155.628 276.345L156.498 277.215H155.431C152.829 277.215 150.721 279.324 150.721 281.925V287.308C150.721 289.909 152.829 292.018 155.431 292.018H160.814C163.415 292.018 165.523 289.909 165.523 287.308V281.925C165.523 279.324 163.415 277.215 160.814 277.215H159.747L160.616 276.345C160.879 276.083 160.879 275.657 160.616 275.394C160.354 275.131 159.928 275.131 159.665 275.394L158.122 276.937L156.579 275.394ZM152.066 281.925C152.066 280.067 153.573 278.561 155.431 278.561H158.122H160.814C162.672 278.561 164.178 280.067 164.178 281.925V287.308C164.178 289.166 162.672 290.672 160.814 290.672H155.431C153.573 290.672 152.066 289.166 152.066 287.308V281.925ZM158.797 283.944C158.797 283.728 158.693 283.525 158.517 283.398C158.342 283.272 158.116 283.237 157.911 283.306L153.874 284.651C153.521 284.769 153.331 285.15 153.448 285.503C153.566 285.855 153.947 286.046 154.299 285.928L157.451 284.878V285.963C157.451 286.179 157.555 286.382 157.73 286.508C157.906 286.635 158.131 286.669 158.337 286.601L162.374 285.255C162.726 285.138 162.917 284.757 162.799 284.404C162.682 284.052 162.301 283.861 161.948 283.979L158.797 285.029V283.944Z" fill="#9A9A9A"/>
<rect x="10.2617" y="130.701" width="67.2854" height="8.07425" fill="#D9D9D9"/>
<rect x="10.2598" y="157.615" width="67.2854" height="8.07425" fill="#D9D9D9"/>
<rect x="10.2598" y="144.158" width="232.135" height="8.07425" fill="#D9D9D9"/>
<path d="M228.264 39.6975C228.264 39.4188 228.49 39.1929 228.768 39.1929H241.889C242.168 39.1929 242.394 39.4188 242.394 39.6975C242.394 39.9762 242.168 40.2022 241.889 40.2022H228.768C228.49 40.2022 228.264 39.9762 228.264 39.6975Z" fill="black" fill-opacity="0.85"/>
<path d="M228.264 45.0803C228.264 44.8016 228.49 44.5757 228.768 44.5757H241.889C242.168 44.5757 242.394 44.8016 242.394 45.0803C242.394 45.359 242.168 45.585 241.889 45.585H228.768C228.49 45.585 228.264 45.359 228.264 45.0803Z" fill="black" fill-opacity="0.85"/>
<path d="M228.768 49.9585C228.49 49.9585 228.264 50.1845 228.264 50.4632C228.264 50.7419 228.49 50.9678 228.768 50.9678H241.889C242.168 50.9678 242.394 50.7419 242.394 50.4632C242.394 50.1845 242.168 49.9585 241.889 49.9585H228.768Z" fill="black" fill-opacity="0.85"/>
<path d="M14.3225 47.6036L15.8995 42.297H18.3438L14.9139 52.1533L14.7246 52.6027C14.2147 53.7172 13.3737 54.2744 12.2014 54.2744C11.8703 54.2744 11.5338 54.2244 11.1921 54.1245V52.3977L11.5391 52.4056C11.9701 52.4056 12.2908 52.3399 12.5011 52.2085C12.7166 52.0771 12.8848 51.8589 13.0057 51.554L13.2738 50.8523L10.2854 42.297H12.7376L14.3225 47.6036ZM18.0889 46.484C18.0889 45.6377 18.2519 44.8833 18.5778 44.221C18.9037 43.5586 19.3715 43.0461 19.9813 42.6834C20.5963 42.3207 21.3086 42.1393 22.1181 42.1393C23.2693 42.1393 24.2077 42.4915 24.9331 43.1959C25.6638 43.9003 26.0712 44.857 26.1553 46.0661L26.171 46.6496C26.171 47.9585 25.8057 49.0098 25.075 49.8036C24.3443 50.5921 23.364 50.9863 22.1339 50.9863C20.9038 50.9863 19.9208 50.5921 19.1849 49.8036C18.4542 49.0151 18.0889 47.9427 18.0889 46.5865V46.484ZM20.3677 46.6496C20.3677 47.4591 20.5201 48.0794 20.825 48.5104C21.1299 48.9362 21.5662 49.1491 22.1339 49.1491C22.6859 49.1491 23.1169 48.9388 23.427 48.5183C23.7372 48.0925 23.8923 47.4144 23.8923 46.484C23.8923 45.6902 23.7372 45.0752 23.427 44.6389C23.1169 44.2026 22.6806 43.9844 22.1181 43.9844C21.5609 43.9844 21.1299 44.2026 20.825 44.6389C20.5201 45.0699 20.3677 45.7402 20.3677 46.6496ZM32.0112 49.9613C31.4487 50.6446 30.6707 50.9863 29.6772 50.9863C28.7626 50.9863 28.0634 50.7235 27.5798 50.1978C27.1015 49.6721 26.857 48.902 26.8465 47.8875V42.297H29.1253V47.8087C29.1253 48.697 29.53 49.1412 30.3396 49.1412C31.1123 49.1412 31.6432 48.8731 31.9323 48.337V42.297H34.219V50.8286H32.0743L32.0112 49.9613ZM40.0591 44.4339C39.749 44.3918 39.4757 44.3708 39.2391 44.3708C38.377 44.3708 37.8119 44.6625 37.5438 45.246V50.8286H35.2651V42.297H37.4177L37.4808 43.3142C37.9381 42.531 38.5715 42.1393 39.381 42.1393C39.6334 42.1393 39.8699 42.1735 40.0907 42.2418L40.0591 44.4339ZM46.8061 52.6106H39.6228V50.8286H46.8061V52.6106ZM52.1337 49.9613C51.5713 50.6446 50.7933 50.9863 49.7998 50.9863C48.8851 50.9863 48.186 50.7235 47.7023 50.1978C47.224 49.6721 46.9796 48.902 46.969 47.8875V42.297H49.2478V47.8087C49.2478 48.697 49.6526 49.1412 50.4621 49.1412C51.2348 49.1412 51.7658 48.8731 52.0549 48.337V42.297H54.3415V50.8286H52.1968L52.1337 49.9613ZM60.0082 48.471C60.0082 48.1924 59.8689 47.9742 59.5903 47.8165C59.317 47.6536 58.8754 47.509 58.2656 47.3829C56.2366 46.9571 55.222 46.095 55.222 44.7966C55.222 44.0396 55.5348 43.4088 56.1603 42.9042C56.7911 42.3943 57.6138 42.1393 58.6283 42.1393C59.7112 42.1393 60.5759 42.3943 61.2225 42.9042C61.8743 43.4141 62.2002 44.0764 62.2002 44.8912H59.9215C59.9215 44.5653 59.8163 44.2972 59.6061 44.0869C59.3958 43.8714 59.0673 43.7636 58.6205 43.7636C58.2367 43.7636 57.9397 43.8504 57.7294 44.0239C57.5192 44.1973 57.414 44.4181 57.414 44.6862C57.414 44.9385 57.5323 45.1435 57.7689 45.3012C58.0107 45.4537 58.4154 45.5877 58.9832 45.7034C59.5509 45.8138 60.0292 45.9399 60.4182 46.0818C61.622 46.5234 62.2239 47.2882 62.2239 48.3764C62.2239 49.1544 61.8901 49.7852 61.2225 50.2688C60.5549 50.7471 59.6928 50.9863 58.6362 50.9863C57.9213 50.9863 57.2853 50.8602 56.728 50.6078C56.1761 50.3503 55.7424 50.0007 55.427 49.5591C55.1116 49.1123 54.9539 48.6313 54.9539 48.1162H57.1144C57.1354 48.5209 57.2853 48.8311 57.5639 49.0466C57.8425 49.2621 58.2157 49.3699 58.6835 49.3699C59.1198 49.3699 59.4484 49.2884 59.6692 49.1255C59.8952 48.9572 60.0082 48.7391 60.0082 48.471ZM66.9523 50.9863C65.7012 50.9863 64.6814 50.6026 63.8929 49.8351C63.1096 49.0676 62.718 48.0452 62.718 46.7678V46.5471C62.718 45.6902 62.8836 44.9254 63.2148 44.2525C63.5459 43.5744 64.0138 43.054 64.6183 42.6913C65.2281 42.3233 65.922 42.1393 66.7 42.1393C67.8669 42.1393 68.7842 42.5073 69.4518 43.2432C70.1247 43.9792 70.4611 45.0226 70.4611 46.3736V47.304H65.0283C65.1019 47.8612 65.3227 48.308 65.6907 48.6445C66.0639 48.9809 66.5344 49.1491 67.1021 49.1491C67.9799 49.1491 68.6659 48.8311 69.1601 48.195L70.2797 49.4487C69.9381 49.9324 69.4755 50.3108 68.892 50.5842C68.3085 50.8523 67.6619 50.9863 66.9523 50.9863ZM66.6921 43.9844C66.24 43.9844 65.872 44.1369 65.5882 44.4418C65.3096 44.7466 65.1308 45.183 65.052 45.7507H68.2218V45.5693C68.2112 45.0647 68.0746 44.6757 67.8117 44.4023C67.5489 44.1237 67.1757 43.9844 66.6921 43.9844ZM75.8834 44.4339C75.5732 44.3918 75.2999 44.3708 75.0633 44.3708C74.2012 44.3708 73.6361 44.6625 73.368 45.246V50.8286H71.0893V42.297H73.2419L73.305 43.3142C73.7623 42.531 74.3957 42.1393 75.2052 42.1393C75.4576 42.1393 75.6941 42.1735 75.9149 42.2418L75.8834 44.4339ZM78.4118 42.297L78.4828 43.2827C79.0925 42.5204 79.91 42.1393 80.935 42.1393C81.8392 42.1393 82.512 42.4048 82.9536 42.9357C83.3951 43.4666 83.6212 44.2604 83.6317 45.317V50.8286H81.3529V45.3722C81.3529 44.8886 81.2478 44.539 81.0375 44.3235C80.8272 44.1027 80.4777 43.9923 79.9888 43.9923C79.3475 43.9923 78.8665 44.2657 78.5459 44.8124V50.8286H76.2671V42.297H78.4118ZM89.6374 50.8286C89.5323 50.6236 89.4561 50.3687 89.4088 50.0638C88.8568 50.6788 88.1393 50.9863 87.2562 50.9863C86.4203 50.9863 85.7265 50.7445 85.1745 50.2609C84.6278 49.7773 84.3545 49.1675 84.3545 48.4316C84.3545 47.5274 84.6883 46.8335 85.3559 46.3499C86.0287 45.8663 86.9986 45.6219 88.2654 45.6166H89.3141V45.1278C89.3141 44.7335 89.2116 44.4181 89.0066 44.1816C88.8069 43.945 88.4888 43.8267 88.0525 43.8267C87.6688 43.8267 87.3666 43.9187 87.1458 44.1027C86.9302 44.2867 86.8225 44.539 86.8225 44.8597H84.5437C84.5437 44.3655 84.6962 43.9082 85.001 43.4877C85.3059 43.0671 85.737 42.7386 86.2942 42.502C86.8514 42.2602 87.4769 42.1393 88.1708 42.1393C89.2222 42.1393 90.0553 42.4048 90.6704 42.9357C91.2907 43.4614 91.6008 44.2026 91.6008 45.1593V48.8574C91.6061 49.6669 91.7191 50.2793 91.9399 50.6946V50.8286H89.6374ZM87.7529 49.2437C88.0893 49.2437 88.3995 49.1701 88.6833 49.0229C88.9672 48.8705 89.1775 48.6681 89.3141 48.4158V46.9492H88.4626C87.3219 46.9492 86.7147 47.3434 86.6411 48.1319L86.6332 48.266C86.6332 48.5498 86.7331 48.7838 86.9329 48.9678C87.1326 49.1517 87.406 49.2437 87.7529 49.2437ZM94.8152 42.297L94.8862 43.2511C95.4907 42.5099 96.3081 42.1393 97.3384 42.1393C98.4371 42.1393 99.1914 42.573 99.6014 43.4404C100.201 42.573 101.055 42.1393 102.164 42.1393C103.089 42.1393 103.778 42.4101 104.23 42.9515C104.682 43.4877 104.908 44.2972 104.908 45.3801V50.8286H102.621V45.388C102.621 44.9043 102.527 44.5521 102.338 44.3314C102.148 44.1053 101.815 43.9923 101.336 43.9923C100.653 43.9923 100.18 44.3182 99.9168 44.9701L99.9247 50.8286H97.646V45.3958C97.646 44.9017 97.5487 44.5443 97.3542 44.3235C97.1597 44.1027 96.8286 43.9923 96.3607 43.9923C95.7141 43.9923 95.2463 44.2604 94.9572 44.7966V50.8286H92.6784V42.297H94.8152ZM109.92 50.9863C108.669 50.9863 107.649 50.6026 106.861 49.8351C106.078 49.0676 105.686 48.0452 105.686 46.7678V46.5471C105.686 45.6902 105.852 44.9254 106.183 44.2525C106.514 43.5744 106.982 43.054 107.586 42.6913C108.196 42.3233 108.89 42.1393 109.668 42.1393C110.835 42.1393 111.752 42.5073 112.42 43.2432C113.093 43.9792 113.429 45.0226 113.429 46.3736V47.304H107.996C108.07 47.8612 108.291 48.308 108.659 48.6445C109.032 48.9809 109.502 49.1491 110.07 49.1491C110.948 49.1491 111.634 48.8311 112.128 48.195L113.248 49.4487C112.906 49.9324 112.443 50.3108 111.86 50.5842C111.277 50.8523 110.63 50.9863 109.92 50.9863ZM109.66 43.9844C109.208 43.9844 108.84 44.1369 108.556 44.4418C108.278 44.7466 108.099 45.183 108.02 45.7507H111.19V45.5693C111.179 45.0647 111.043 44.6757 110.78 44.4023C110.517 44.1237 110.144 43.9844 109.66 43.9844Z" fill="#2F54EB"/>
<path fill-rule="evenodd" clip-rule="evenodd" d="M200.819 38.3721H200.844H200.869C201.943 38.3721 202.784 38.3721 203.46 38.4247C204.147 38.4782 204.714 38.5889 205.229 38.8371C206.188 39.2986 206.961 40.0719 207.423 41.0304C207.671 41.5458 207.782 42.1125 207.835 42.8002C207.888 43.4762 207.888 44.3165 207.888 45.3905V45.3905V45.4156V45.4406V45.4406C207.888 46.5146 207.888 47.3549 207.835 48.031C207.782 48.7186 207.671 49.2853 207.423 49.8008C206.961 50.7592 206.188 51.5325 205.229 51.994C204.714 52.2423 204.147 52.3529 203.46 52.4064C202.784 52.4591 201.943 52.4591 200.869 52.4591H200.869H200.844H200.819H200.819C199.745 52.4591 198.905 52.4591 198.229 52.4064C197.541 52.3529 196.975 52.2423 196.459 51.994C195.501 51.5325 194.727 50.7592 194.266 49.8008C194.018 49.2853 193.907 48.7186 193.853 48.031C193.801 47.3549 193.801 46.5146 193.801 45.4406V45.4156V45.3905C193.801 44.3165 193.801 43.4762 193.853 42.8002C193.907 42.1125 194.018 41.5458 194.266 41.0304C194.727 40.0719 195.501 39.2986 196.459 38.8371C196.975 38.5889 197.541 38.4782 198.229 38.4247C198.905 38.3721 199.745 38.3721 200.819 38.3721ZM198.32 39.5951C197.701 39.6433 197.298 39.7361 196.968 39.8947C196.25 40.2409 195.67 40.8209 195.323 41.5397C195.165 41.8692 195.072 42.2725 195.024 42.8913C194.975 43.5164 194.975 44.3111 194.975 45.4156C194.975 46.52 194.975 47.3147 195.024 47.9398C195.072 48.5586 195.165 48.9619 195.323 49.2914C195.67 50.0102 196.25 50.5902 196.968 50.9364C197.298 51.095 197.701 51.1879 198.32 51.236C198.945 51.2847 199.74 51.2851 200.844 51.2851C201.949 51.2851 202.743 51.2847 203.369 51.236C203.987 51.1879 204.391 51.095 204.72 50.9364C205.439 50.5902 206.019 50.0102 206.365 49.2914C206.524 48.9619 206.617 48.5586 206.665 47.9398C206.713 47.3147 206.714 46.52 206.714 45.4156C206.714 44.3111 206.713 43.5164 206.665 42.8913C206.617 42.2725 206.524 41.8692 206.365 41.5397C206.019 40.8209 205.439 40.2409 204.72 39.8947C204.391 39.7361 203.987 39.6433 203.369 39.5951C202.743 39.5464 201.949 39.546 200.844 39.546C199.74 39.546 198.945 39.5464 198.32 39.5951ZM200.844 41.8945C201.169 41.8945 201.431 42.1573 201.431 42.4815V44.8291H203.78C204.104 44.8291 204.367 45.0919 204.367 45.4161C204.367 45.7403 204.104 46.0031 203.78 46.0031H201.431V48.3511C201.431 48.6752 201.169 48.938 200.844 48.938C200.52 48.938 200.257 48.6752 200.257 48.3511V46.0031H197.911C197.586 46.0031 197.324 45.7403 197.324 45.4161C197.324 45.0919 197.586 44.8291 197.911 44.8291H200.257V42.4815C200.257 42.1573 200.52 41.8945 200.844 41.8945Z" fill="black" fill-opacity="0.85"/>
<rect x="146.85" y="80.9097" width="26.9142" height="8.07425" fill="#D9D9D9"/>
<rect x="93.0195" y="80.9097" width="26.9142" height="8.07425" fill="#D9D9D9"/>
<rect x="200.676" y="80.9097" width="26.9142" height="8.07425" fill="#D9D9D9"/>
<rect x="146.85" y="94.3672" width="26.9142" height="8.07425" fill="#D9D9D9"/>
<rect x="200.676" y="94.3672" width="26.9142" height="8.07425" fill="#D9D9D9"/>
<rect x="93.0195" y="94.3672" width="26.9142" height="8.07425" fill="#D9D9D9"/>
<path d="M10.2617 91.6754C10.2617 75.6963 23.2153 62.7427 39.1944 62.7427C55.1735 62.7427 68.1271 75.6963 68.1271 91.6754C68.1271 107.654 55.1735 120.608 39.1944 120.608C23.2153 120.608 10.2617 107.654 10.2617 91.6754Z" fill="#D6E4FF"/>
</g>
<defs>
<clipPath id="clip0">
<rect width="252.32" height="546.357" fill="white" transform="translate(0.166016 0.16748)"/>
</clipPath>
<clipPath id="clip1">
<rect width="151.392" height="56.5202" fill="white" transform="translate(10.2617 206.733)"/>
</clipPath>
</defs>
</svg>
