<svg width="879" height="318" viewBox="0 0 879 318" fill="none" xmlns="http://www.w3.org/2000/svg">
<g clip-path="url(#clip0)">
<g clip-path="url(#clip1)">
<rect width="252.32" height="546.357" transform="translate(304.167 18.1673)" fill="#FAFAFA"/>
<rect x="314.766" y="196.978" width="204.884" height="19.1763" rx="2.18677" fill="white"/>
<rect x="366.744" y="202.529" width="100.928" height="8.07425" fill="#D9D9D9"/>
<rect x="314.766" y="196.978" width="204.884" height="19.1763" rx="2.18677" stroke="#DADADA" stroke-width="1.00928"/>
<rect x="526.714" y="196.978" width="19.1763" height="19.1763" rx="2.18677" fill="white" stroke="#DADADA" stroke-width="1.00928"/>
<path d="M532.938 205.893L536.302 208.585L539.666 205.893" stroke="black" stroke-width="1.00928" stroke-linecap="round" stroke-linejoin="round"/>
<g clip-path="url(#clip2)">
<path d="M354.967 246.601C354.967 257.006 346.532 265.441 336.127 265.441C325.722 265.441 317.287 257.006 317.287 246.601C317.287 236.196 325.722 227.761 336.127 227.761C346.532 227.761 354.967 236.196 354.967 246.601Z" fill="#D6E4FF" stroke="#EDEDED" stroke-width="0.672854"/>
<circle cx="336.129" cy="246.601" r="21.5313" stroke="#C7C7C7" stroke-width="0.672854"/>
<rect x="322.671" y="273.179" width="26.9142" height="8.07425" fill="#D9D9D9"/>
<path d="M408.797 246.601C408.797 257.006 400.363 265.441 389.958 265.441C379.553 265.441 371.118 257.006 371.118 246.601C371.118 236.196 379.553 227.761 389.958 227.761C400.363 227.761 408.797 236.196 408.797 246.601Z" fill="#D6E4FF" stroke="#EDEDED" stroke-width="0.672854"/>
<circle cx="389.957" cy="246.601" r="21.5313" stroke="#C7C7C7" stroke-width="0.672854"/>
<rect x="376.5" y="273.179" width="26.9142" height="8.07425" fill="#D9D9D9"/>
<path d="M462.624 246.601C462.624 257.006 454.189 265.441 443.784 265.441C433.379 265.441 424.945 257.006 424.945 246.601C424.945 236.196 433.379 227.761 443.784 227.761C454.189 227.761 462.624 236.196 462.624 246.601Z" fill="#D6E4FF" stroke="#EDEDED" stroke-width="0.672854"/>
<circle cx="443.786" cy="246.601" r="21.5313" stroke="#C7C7C7" stroke-width="0.672854"/>
<rect x="430.329" y="273.179" width="26.9142" height="8.07425" fill="#D9D9D9"/>
</g>
<path fill-rule="evenodd" clip-rule="evenodd" d="M328.391 294.71H343.53V309.849H328.391V294.71ZM337.811 308.84V305.139H334.11V308.84H337.811ZM338.82 304.13H342.521V300.429H338.82V304.13ZM337.811 304.13V300.429H334.11V304.13H337.811ZM338.82 308.84H342.521V305.139H338.82V308.84ZM342.521 295.719V299.42H338.82V295.719H342.521ZM337.811 295.719V299.42H334.11V295.719H337.811ZM333.101 300.429V304.13H329.4V300.429H333.101ZM333.101 305.139V308.84H329.4V305.139H333.101ZM333.101 299.42H329.4V295.719H333.101V299.42Z" fill="black"/>
<path fill-rule="evenodd" clip-rule="evenodd" d="M523.034 296.945H523.557L523.943 296.592L524.869 295.743L525.795 296.592L526.181 296.945H526.704H530.25C530.622 296.945 530.923 297.247 530.923 297.618V307.374C530.923 307.746 530.622 308.047 530.25 308.047H530.123C529.675 306.306 528.094 305.019 526.213 305.019H523.521C521.64 305.019 520.06 306.306 519.611 308.047H519.484C519.113 308.047 518.812 307.746 518.812 307.374V297.618C518.812 297.247 519.113 296.945 519.484 296.945H523.034ZM521.026 308.047H528.709C528.31 307.061 527.342 306.365 526.213 306.365H523.521C522.392 306.365 521.425 307.061 521.026 308.047ZM530.25 295.6H526.704L525.096 294.126C524.968 294.008 524.77 294.008 524.642 294.126L523.034 295.6H519.484C518.37 295.6 517.466 296.503 517.466 297.618V307.374C517.466 308.489 518.37 309.393 519.484 309.393H530.25C531.365 309.393 532.269 308.489 532.269 307.374V297.618C532.269 296.503 531.365 295.6 530.25 295.6ZM528.232 300.982C528.232 302.84 526.726 304.346 524.868 304.346C523.01 304.346 521.504 302.84 521.504 300.982C521.504 299.124 523.01 297.618 524.868 297.618C526.726 297.618 528.232 299.124 528.232 300.982ZM526.887 300.982C526.887 302.097 525.983 303.001 524.868 303.001C523.753 303.001 522.849 302.097 522.849 300.982C522.849 299.867 523.753 298.963 524.868 298.963C525.983 298.963 526.887 299.867 526.887 300.982Z" fill="#9A9A9A"/>
<path fill-rule="evenodd" clip-rule="evenodd" d="M398.503 295.383H399.58C399.721 295.383 399.857 295.383 399.989 295.383L401.457 298.074H398.28L396.816 295.39C397.296 295.383 397.85 295.383 398.503 295.383ZM395.321 295.461C394.743 295.521 394.405 295.62 394.15 295.75C393.517 296.072 393.002 296.587 392.68 297.22C392.576 297.424 392.492 297.682 392.431 298.074H396.747L395.321 295.461ZM402.99 298.074H405.652C405.592 297.682 405.507 297.424 405.403 297.22C405.081 296.587 404.566 296.072 403.933 295.75C403.651 295.606 403.266 295.5 402.564 295.443C402.261 295.418 401.921 295.403 401.528 295.395L402.99 298.074ZM392.33 299.42C392.313 299.999 392.313 300.697 392.313 301.573V302.65C392.313 303.991 392.314 304.916 392.373 305.634C392.43 306.336 392.536 306.721 392.68 307.003C393.002 307.636 393.517 308.151 394.15 308.473C394.432 308.617 394.817 308.723 395.519 308.78C396.237 308.839 397.162 308.84 398.503 308.84H399.58C400.921 308.84 401.846 308.839 402.564 308.78C403.266 308.723 403.651 308.617 403.933 308.473C404.566 308.151 405.081 307.636 405.403 307.003C405.547 306.721 405.653 306.336 405.71 305.634C405.769 304.916 405.77 303.991 405.77 302.65V301.573C405.77 300.697 405.77 299.999 405.753 299.42H392.33ZM390.967 301.573C390.967 298.935 390.967 297.616 391.481 296.609C391.932 295.723 392.653 295.002 393.539 294.551C394.546 294.037 395.865 294.037 398.503 294.037H399.58C402.218 294.037 403.537 294.037 404.544 294.551C405.43 295.002 406.151 295.723 406.602 296.609C407.116 297.616 407.116 298.935 407.116 301.573V302.65C407.116 305.288 407.116 306.607 406.602 307.614C406.151 308.5 405.43 309.221 404.544 309.672C403.537 310.186 402.218 310.186 399.58 310.186H398.503C395.865 310.186 394.546 310.186 393.539 309.672C392.653 309.221 391.932 308.5 391.481 307.614C390.967 306.607 390.967 305.288 390.967 302.65V301.573ZM396.793 301.556C396.793 301.047 397.337 300.722 397.785 300.963L401.517 302.971C401.989 303.225 401.989 303.902 401.517 304.156L397.785 306.163C397.337 306.404 396.793 306.08 396.793 305.571V301.556Z" fill="#9A9A9A"/>
<path fill-rule="evenodd" clip-rule="evenodd" d="M460.578 293.394C460.316 293.131 459.89 293.131 459.627 293.394C459.364 293.656 459.364 294.082 459.627 294.345L460.497 295.215H459.43C456.828 295.215 454.72 297.324 454.72 299.925V305.308C454.72 307.909 456.828 310.018 459.43 310.018H464.813C467.414 310.018 469.523 307.909 469.523 305.308V299.925C469.523 297.324 467.414 295.215 464.813 295.215H463.746L464.615 294.345C464.878 294.082 464.878 293.656 464.615 293.394C464.353 293.131 463.927 293.131 463.664 293.394L462.121 294.936L460.578 293.394ZM456.065 299.925C456.065 298.067 457.572 296.561 459.43 296.561H462.121H464.813C466.671 296.561 468.177 298.067 468.177 299.925V305.308C468.177 307.166 466.671 308.672 464.813 308.672H459.43C457.572 308.672 456.065 307.166 456.065 305.308V299.925ZM462.796 301.944C462.796 301.728 462.692 301.524 462.516 301.398C462.341 301.271 462.115 301.237 461.91 301.305L457.873 302.651C457.52 302.769 457.33 303.15 457.447 303.502C457.565 303.855 457.946 304.045 458.298 303.928L461.45 302.877V303.962C461.45 304.179 461.554 304.382 461.729 304.508C461.905 304.635 462.13 304.669 462.336 304.601L466.373 303.255C466.725 303.137 466.916 302.756 466.798 302.404C466.681 302.051 466.3 301.861 465.947 301.978L462.796 303.029V301.944Z" fill="#9A9A9A"/>
<rect x="314.261" y="148.701" width="67.2854" height="8.07425" fill="#D9D9D9"/>
<rect x="314.259" y="175.615" width="67.2854" height="8.07425" fill="#D9D9D9"/>
<rect x="314.259" y="162.158" width="232.135" height="8.07425" fill="#D9D9D9"/>
<path d="M532.265 57.6972C532.265 57.4185 532.491 57.1926 532.769 57.1926H545.89C546.169 57.1926 546.395 57.4185 546.395 57.6972C546.395 57.9759 546.169 58.2019 545.89 58.2019H532.769C532.491 58.2019 532.265 57.9759 532.265 57.6972Z" fill="black"/>
<path d="M532.265 63.0801C532.265 62.8014 532.491 62.5754 532.769 62.5754H545.89C546.169 62.5754 546.395 62.8014 546.395 63.0801C546.395 63.3588 546.169 63.5847 545.89 63.5847H532.769C532.491 63.5847 532.265 63.3588 532.265 63.0801Z" fill="black"/>
<path d="M532.769 67.9583C532.491 67.9583 532.265 68.1842 532.265 68.4629C532.265 68.7416 532.491 68.9675 532.769 68.9675H545.89C546.169 68.9675 546.395 68.7416 546.395 68.4629C546.395 68.1842 546.169 67.9583 545.89 67.9583H532.769Z" fill="black"/>
<path d="M318.322 65.6037L319.899 60.2971H322.343L318.913 70.1533L318.724 70.6028C318.214 71.7172 317.373 72.2744 316.201 72.2744C315.87 72.2744 315.533 72.2245 315.192 72.1246V70.3978L315.539 70.4057C315.97 70.4057 316.29 70.34 316.501 70.2085C316.716 70.0771 316.884 69.859 317.005 69.5541L317.273 68.8523L314.285 60.2971H316.737L318.322 65.6037ZM322.088 64.484C322.088 63.6377 322.251 62.8834 322.577 62.221C322.903 61.5587 323.371 61.0462 323.981 60.6834C324.596 60.3207 325.308 60.1394 326.118 60.1394C327.269 60.1394 328.207 60.4916 328.933 61.196C329.663 61.9004 330.071 62.8571 330.155 64.0661L330.171 64.6496C330.171 65.9585 329.805 67.0099 329.075 67.8036C328.344 68.5921 327.363 68.9864 326.133 68.9864C324.903 68.9864 323.92 68.5921 323.184 67.8036C322.454 67.0151 322.088 65.9427 322.088 64.5865V64.484ZM324.367 64.6496C324.367 65.4591 324.52 66.0794 324.825 66.5105C325.129 66.9363 325.566 67.1492 326.133 67.1492C326.685 67.1492 327.116 66.9389 327.427 66.5184C327.737 66.0926 327.892 65.4145 327.892 64.484C327.892 63.6903 327.737 63.0752 327.427 62.6389C327.116 62.2026 326.68 61.9845 326.118 61.9845C325.56 61.9845 325.129 62.2026 324.825 62.6389C324.52 63.07 324.367 63.7402 324.367 64.6496ZM336.011 67.9613C335.448 68.6447 334.67 68.9864 333.677 68.9864C332.762 68.9864 332.063 68.7235 331.579 68.1979C331.101 67.6722 330.857 66.9021 330.846 65.8876V60.2971H333.125V65.8087C333.125 66.6971 333.53 67.1413 334.339 67.1413C335.112 67.1413 335.643 66.8732 335.932 66.337V60.2971H338.219V68.8287H336.074L336.011 67.9613ZM344.059 62.4339C343.749 62.3919 343.475 62.3708 343.239 62.3708C342.377 62.3708 341.811 62.6626 341.543 63.2461V68.8287H339.265V60.2971H341.417L341.48 61.3142C341.938 60.531 342.571 60.1394 343.381 60.1394C343.633 60.1394 343.869 60.1736 344.09 60.2419L344.059 62.4339ZM350.806 70.6107H343.622V68.8287H350.806V70.6107ZM356.133 67.9613C355.571 68.6447 354.793 68.9864 353.799 68.9864C352.885 68.9864 352.185 68.7235 351.702 68.1979C351.224 67.6722 350.979 66.9021 350.969 65.8876V60.2971H353.247V65.8087C353.247 66.6971 353.652 67.1413 354.462 67.1413C355.234 67.1413 355.765 66.8732 356.054 66.337V60.2971H358.341V68.8287H356.196L356.133 67.9613ZM364.008 66.471C364.008 66.1924 363.868 65.9743 363.59 65.8166C363.316 65.6536 362.875 65.5091 362.265 65.3829C360.236 64.9571 359.222 64.095 359.222 62.7966C359.222 62.0397 359.534 61.4089 360.16 60.9042C360.791 60.3943 361.613 60.1394 362.628 60.1394C363.711 60.1394 364.575 60.3943 365.222 60.9042C365.874 61.4141 366.2 62.0765 366.2 62.8913H363.921C363.921 62.5653 363.816 62.2972 363.606 62.087C363.395 61.8715 363.067 61.7637 362.62 61.7637C362.236 61.7637 361.939 61.8504 361.729 62.0239C361.519 62.1974 361.414 62.4182 361.414 62.6862C361.414 62.9386 361.532 63.1436 361.768 63.3013C362.01 63.4537 362.415 63.5878 362.983 63.7034C363.55 63.8138 364.029 63.94 364.418 64.0819C365.622 64.5234 366.223 65.2883 366.223 66.3764C366.223 67.1544 365.89 67.7852 365.222 68.2688C364.554 68.7472 363.692 68.9864 362.636 68.9864C361.921 68.9864 361.285 68.8602 360.728 68.6079C360.176 68.3503 359.742 68.0007 359.427 67.5592C359.111 67.1124 358.953 66.6314 358.953 66.1162H361.114C361.135 66.521 361.285 66.8311 361.563 67.0466C361.842 67.2622 362.215 67.3699 362.683 67.3699C363.119 67.3699 363.448 67.2885 363.669 67.1255C363.895 66.9573 364.008 66.7391 364.008 66.471ZM370.952 68.9864C369.701 68.9864 368.681 68.6026 367.892 67.8351C367.109 67.0677 366.718 66.0453 366.718 64.7679V64.5471C366.718 63.6903 366.883 62.9254 367.214 62.2526C367.545 61.5745 368.013 61.054 368.618 60.6913C369.228 60.3234 369.921 60.1394 370.699 60.1394C371.866 60.1394 372.784 60.5074 373.451 61.2433C374.124 61.9792 374.461 63.0227 374.461 64.3736V65.3041H369.028C369.101 65.8613 369.322 66.3081 369.69 66.6445C370.063 66.9809 370.534 67.1492 371.102 67.1492C371.979 67.1492 372.665 66.8311 373.16 66.1951L374.279 67.4488C373.938 67.9324 373.475 68.3109 372.891 68.5842C372.308 68.8523 371.661 68.9864 370.952 68.9864ZM370.692 61.9845C370.24 61.9845 369.872 62.1369 369.588 62.4418C369.309 62.7467 369.13 63.183 369.051 63.7507H372.221V63.5694C372.211 63.0647 372.074 62.6757 371.811 62.4024C371.548 62.1238 371.175 61.9845 370.692 61.9845ZM379.883 62.4339C379.573 62.3919 379.299 62.3708 379.063 62.3708C378.201 62.3708 377.636 62.6626 377.368 63.2461V68.8287H375.089V60.2971H377.241L377.304 61.3142C377.762 60.531 378.395 60.1394 379.205 60.1394C379.457 60.1394 379.694 60.1736 379.914 60.2419L379.883 62.4339ZM382.411 60.2971L382.482 61.2827C383.092 60.5205 383.909 60.1394 384.935 60.1394C385.839 60.1394 386.512 60.4048 386.953 60.9358C387.395 61.4667 387.621 62.2605 387.631 63.317V68.8287H385.352V63.3722C385.352 62.8886 385.247 62.5391 385.037 62.3235C384.827 62.1028 384.477 61.9924 383.988 61.9924C383.347 61.9924 382.866 62.2657 382.545 62.8124V68.8287H380.267V60.2971H382.411ZM393.637 68.8287C393.532 68.6236 393.456 68.3687 393.408 68.0638C392.856 68.6788 392.139 68.9864 391.256 68.9864C390.42 68.9864 389.726 68.7446 389.174 68.2609C388.627 67.7773 388.354 67.1676 388.354 66.4316C388.354 65.5275 388.688 64.8336 389.355 64.35C390.028 63.8664 390.998 63.6219 392.265 63.6167H393.314V63.1278C393.314 62.7336 393.211 62.4182 393.006 62.1816C392.806 61.9451 392.488 61.8268 392.052 61.8268C391.668 61.8268 391.366 61.9188 391.145 62.1028C390.93 62.2867 390.822 62.5391 390.822 62.8597H388.543C388.543 62.3656 388.696 61.9083 389.001 61.4877C389.305 61.0672 389.736 60.7386 390.294 60.5021C390.851 60.2603 391.476 60.1394 392.17 60.1394C393.222 60.1394 394.055 60.4048 394.67 60.9358C395.29 61.4614 395.6 62.2026 395.6 63.1593V66.8574C395.606 67.6669 395.719 68.2793 395.939 68.6946V68.8287H393.637ZM391.752 67.2438C392.089 67.2438 392.399 67.1702 392.683 67.023C392.967 66.8705 393.177 66.6682 393.314 66.4158V64.9492H392.462C391.321 64.9492 390.714 65.3435 390.641 66.132L390.633 66.266C390.633 66.5499 390.733 66.7838 390.932 66.9678C391.132 67.1518 391.405 67.2438 391.752 67.2438ZM398.815 60.2971L398.886 61.2512C399.49 60.51 400.308 60.1394 401.338 60.1394C402.437 60.1394 403.191 60.5731 403.601 61.4404C404.2 60.5731 405.054 60.1394 406.164 60.1394C407.089 60.1394 407.777 60.4101 408.229 60.9515C408.682 61.4877 408.908 62.2972 408.908 63.3801V68.8287H406.621V63.388C406.621 62.9044 406.526 62.5522 406.337 62.3314C406.148 62.1054 405.814 61.9924 405.336 61.9924C404.652 61.9924 404.179 62.3183 403.916 62.9701L403.924 68.8287H401.645V63.3959C401.645 62.9018 401.548 62.5443 401.354 62.3235C401.159 62.1028 400.828 61.9924 400.36 61.9924C399.714 61.9924 399.246 62.2605 398.957 62.7966V68.8287H396.678V60.2971H398.815ZM413.92 68.9864C412.669 68.9864 411.649 68.6026 410.86 67.8351C410.077 67.0677 409.686 66.0453 409.686 64.7679V64.5471C409.686 63.6903 409.851 62.9254 410.182 62.2526C410.513 61.5745 410.981 61.054 411.586 60.6913C412.196 60.3234 412.889 60.1394 413.667 60.1394C414.834 60.1394 415.752 60.5074 416.419 61.2433C417.092 61.9792 417.429 63.0227 417.429 64.3736V65.3041H411.996C412.069 65.8613 412.29 66.3081 412.658 66.6445C413.031 66.9809 413.502 67.1492 414.07 67.1492C414.947 67.1492 415.633 66.8311 416.128 66.1951L417.247 67.4488C416.906 67.9324 416.443 68.3109 415.86 68.5842C415.276 68.8523 414.629 68.9864 413.92 68.9864ZM413.66 61.9845C413.208 61.9845 412.84 62.1369 412.556 62.4418C412.277 62.7467 412.098 63.183 412.02 63.7507H415.189V63.5694C415.179 63.0647 415.042 62.6757 414.779 62.4024C414.516 62.1238 414.143 61.9845 413.66 61.9845Z" fill="#2F54EB"/>
<path fill-rule="evenodd" clip-rule="evenodd" d="M504.819 56.3721H504.844H504.869C505.943 56.3721 506.784 56.3721 507.46 56.4247C508.147 56.4783 508.714 56.5889 509.229 56.8371C510.188 57.2987 510.961 58.072 511.423 59.0304C511.671 59.5458 511.782 60.1125 511.835 60.8002C511.888 61.4762 511.888 62.3165 511.888 63.3905V63.3905V63.4156V63.4406V63.4406C511.888 64.5146 511.888 65.3549 511.835 66.031C511.782 66.7186 511.671 67.2853 511.423 67.8008C510.961 68.7592 510.188 69.5325 509.229 69.9941C508.714 70.2423 508.147 70.3529 507.46 70.4064C506.784 70.4591 505.943 70.4591 504.869 70.4591H504.869H504.844H504.819H504.819C503.745 70.4591 502.905 70.4591 502.229 70.4064C501.541 70.3529 500.975 70.2423 500.459 69.9941C499.501 69.5325 498.727 68.7592 498.266 67.8008C498.018 67.2853 497.907 66.7186 497.853 66.031C497.801 65.3549 497.801 64.5146 497.801 63.4406V63.4156V63.3905C497.801 62.3165 497.801 61.4762 497.853 60.8002C497.907 60.1125 498.018 59.5458 498.266 59.0304C498.727 58.072 499.501 57.2987 500.459 56.8371C500.975 56.5889 501.541 56.4783 502.229 56.4247C502.905 56.3721 503.745 56.3721 504.819 56.3721ZM502.32 57.5951C501.701 57.6433 501.298 57.7361 500.968 57.8948C500.25 58.2409 499.67 58.8209 499.323 59.5397C499.165 59.8692 499.072 60.2725 499.024 60.8913C498.975 61.5165 498.975 62.3112 498.975 63.4156C498.975 64.52 498.975 65.3147 499.024 65.9398C499.072 66.5586 499.165 66.962 499.323 67.2914C499.67 68.0103 500.25 68.5902 500.968 68.9364C501.298 69.0951 501.701 69.1879 502.32 69.2361C502.945 69.2847 503.74 69.2852 504.844 69.2852C505.949 69.2852 506.743 69.2847 507.369 69.2361C507.987 69.1879 508.391 69.0951 508.72 68.9364C509.439 68.5902 510.019 68.0103 510.365 67.2914C510.524 66.962 510.617 66.5586 510.665 65.9398C510.713 65.3147 510.714 64.52 510.714 63.4156C510.714 62.3112 510.713 61.5165 510.665 60.8913C510.617 60.2725 510.524 59.8692 510.365 59.5397C510.019 58.8209 509.439 58.2409 508.72 57.8948C508.391 57.7361 507.987 57.6433 507.369 57.5951C506.743 57.5464 505.949 57.546 504.844 57.546C503.74 57.546 502.945 57.5464 502.32 57.5951ZM504.844 59.8945C505.169 59.8945 505.431 60.1573 505.431 60.4815V62.8292H507.78C508.104 62.8292 508.367 63.092 508.367 63.4161C508.367 63.7403 508.104 64.0031 507.78 64.0031H505.431V66.3511C505.431 66.6752 505.169 66.938 504.844 66.938C504.52 66.938 504.257 66.6752 504.257 66.3511V64.0031H501.911C501.586 64.0031 501.324 63.7403 501.324 63.4161C501.324 63.092 501.586 62.8292 501.911 62.8292H504.257V60.4815C504.257 60.1573 504.52 59.8945 504.844 59.8945Z" fill="black"/>
<rect x="450.849" y="98.9097" width="26.9142" height="8.07425" fill="#D9D9D9"/>
<rect x="397.02" y="98.9097" width="26.9142" height="8.07425" fill="#D9D9D9"/>
<rect x="504.677" y="98.9097" width="26.9142" height="8.07425" fill="#D9D9D9"/>
<rect x="450.849" y="112.367" width="26.9142" height="8.07425" fill="#D9D9D9"/>
<rect x="504.677" y="112.367" width="26.9142" height="8.07425" fill="#D9D9D9"/>
<rect x="397.02" y="112.367" width="26.9142" height="8.07425" fill="#D9D9D9"/>
<path d="M314.261 109.675C314.261 93.6963 327.215 80.7426 343.194 80.7426C359.173 80.7426 372.127 93.6963 372.127 109.675C372.127 125.654 359.173 138.608 343.194 138.608C327.215 138.608 314.261 125.654 314.261 109.675Z" fill="#D6E4FF"/>
</g>
<path fill-rule="evenodd" clip-rule="evenodd" d="M573.981 201.856V526.142C573.981 545.338 571.983 552.298 568.23 559.316C564.477 566.334 558.969 571.841 551.952 575.594C544.934 579.347 537.973 581.346 518.778 581.346H343.222C324.027 581.346 317.066 579.347 310.048 575.594C303.031 571.841 297.523 566.334 293.77 559.316C290.017 552.298 288.019 545.338 288.019 526.142V215.986C286.904 215.986 286 215.082 286 213.968V174.942C286 173.827 286.904 172.923 288.019 172.923V162.831C286.904 162.831 286 161.927 286 160.812V121.787C286 120.672 286.904 119.768 288.019 119.768V101.601C286.904 101.601 286 100.697 286 99.5824V80.7425C286 79.6277 286.904 78.7239 288.019 78.7239V55.2038C288.019 36.0083 290.017 29.0475 293.77 22.0299C297.523 15.0122 303.031 9.50478 310.048 5.75172C317.066 1.99866 324.027 0 343.222 0H518.778C537.973 0 544.934 1.99866 551.952 5.75172C558.969 9.50478 564.477 15.0122 568.23 22.0299C571.983 29.0475 573.981 36.0083 573.981 55.2038V133.898C575.096 133.898 576 134.802 576 135.917V199.838C576 200.952 575.096 201.856 573.981 201.856ZM304.167 59.0766C304.167 44.7569 304.167 37.5971 306.954 32.1277C309.405 27.3167 313.317 23.4052 318.128 20.9539C323.597 18.1671 330.757 18.1671 345.077 18.1671L355.304 18.1671C357.783 18.1736 359.833 20.0948 360.013 22.5296C360.108 25.8758 360.754 28.3316 361.888 30.4513C363.119 32.7539 364.926 34.5611 367.229 35.7925C369.532 37.024 372.231 37.6798 376.038 37.6798H484.59C488.396 37.6798 491.096 37.024 493.398 35.7925C495.701 34.5611 497.508 32.7539 498.74 30.4513C499.871 28.3351 500.517 25.8838 500.614 22.546C500.786 20.1034 502.84 18.1737 505.324 18.1671L515.578 18.1671C529.897 18.1671 537.057 18.1671 542.527 20.9539C547.338 23.4052 551.249 27.3167 553.7 32.1277C556.487 37.5971 556.487 44.7569 556.487 59.0766V523.615C556.487 537.935 556.487 545.094 553.7 550.564C551.249 555.375 547.338 559.286 542.527 561.738C537.057 564.524 529.897 564.524 515.578 564.524H345.077C330.757 564.524 323.597 564.524 318.128 561.738C313.317 559.286 309.405 555.375 306.954 550.564C304.167 545.094 304.167 537.935 304.167 523.615V59.0766Z" fill="#8C8C8C"/>
<g opacity="0.3">
<path fill-rule="evenodd" clip-rule="evenodd" d="M461.615 28.2599C464.216 28.2599 466.325 26.1512 466.325 23.55C466.325 20.9487 464.216 18.84 461.615 18.84C459.014 18.84 456.905 20.9487 456.905 23.55C456.905 26.1512 459.014 28.2599 461.615 28.2599Z" fill="white"/>
<rect x="413.169" y="20.8587" width="34.9884" height="5.38283" rx="2.69141" fill="white"/>
</g>
</g>
<path fill-rule="evenodd" clip-rule="evenodd" d="M769.37 105.236C764.543 108.145 759.801 109.55 757.575 108.977C751.994 107.538 751.481 87.1187 755.799 79.0688C760.118 71.0189 782.32 67.5102 783.439 83.4596C783.828 88.9952 781.504 93.9353 778.069 97.9664L784.227 126.667H766.34L769.37 105.236Z" fill="#D6E4FF"/>
<path fill-rule="evenodd" clip-rule="evenodd" d="M779.444 101.557C781.689 91.569 788.085 84.7608 787.108 80.2968C786.131 75.8327 781.901 74.7447 781.901 74.7447C781.901 74.7447 779.713 65.8945 767.79 67.216C755.866 68.5375 748.588 73.4894 751.731 84.3855C754.62 84.3855 758.108 83.3407 762.93 85.1308C765.226 85.9828 766.214 90.415 766.214 90.415H768.393C768.393 90.415 771.566 85.1552 774.65 86.5493C777.734 87.9434 776.052 93.322 776.052 93.322L777.125 101.557H779.444Z" fill="#434343"/>
<path fill-rule="evenodd" clip-rule="evenodd" d="M834.162 219.828C840.748 219.828 846.086 225.166 846.086 231.752V300.318C846.086 306.904 840.748 312.243 834.162 312.243H748.454C741.868 312.243 736.529 306.904 736.529 300.318V231.752C736.529 225.166 741.868 219.828 748.454 219.828H834.162ZM822.237 240.696C823.884 240.696 825.218 242.03 825.218 243.677V288.394C825.218 290.04 823.884 291.375 822.237 291.375H760.379C758.732 291.375 757.397 290.04 757.397 288.394V243.677C757.397 242.03 758.732 240.696 760.379 240.696H822.237Z" fill="#F0F0F0"/>
<path fill-rule="evenodd" clip-rule="evenodd" d="M662.627 308.517C677.321 290.573 687.263 277.271 692.454 268.609C701.342 253.779 708.616 240.583 710.911 235.542C716.385 223.521 698.309 217.892 694.218 223.499C688.027 231.985 674.803 258.689 654.548 303.611L662.627 308.517Z" fill="#D6E4FF"/>
<path fill-rule="evenodd" clip-rule="evenodd" d="M692.738 303.3L720.084 234.463C725.933 221.914 697.688 213.666 693.389 219.506C683.631 232.764 660.436 285.066 657.529 289.016L692.738 303.3Z" fill="#BFBFBF"/>
<path fill-rule="evenodd" clip-rule="evenodd" d="M765.57 289.495C760.243 281.724 740.867 255.582 730.314 244.766C727.281 241.658 724.322 238.674 721.523 235.894C713.204 227.631 696.638 241.52 704.942 249.046C725.621 267.79 755.794 293.094 758.314 295.351C761.848 298.513 768.918 294.378 765.57 289.495Z" fill="#D6E4FF"/>
<path fill-rule="evenodd" clip-rule="evenodd" d="M762.119 286.296C762.635 285.592 763.635 285.426 764.303 285.988C765.521 287.012 767.273 288.591 767.906 289.686C768.914 291.432 770.266 295.117 770.266 295.117C768.24 296.287 733.862 316.135 733.862 316.135C733.862 316.135 729.735 312.263 732.576 310.124C735.417 307.985 737.265 306.516 737.265 306.516L749.83 289.204C750.077 288.864 750.556 288.795 750.888 289.051L753.499 291.062C753.499 291.062 757.092 290.748 758.861 289.727C759.938 289.105 761.254 287.476 762.119 286.296Z" fill="#D9D9D9"/>
<path fill-rule="evenodd" clip-rule="evenodd" d="M666.882 305.002C667.68 304.65 668.63 305.006 668.927 305.827C669.47 307.323 670.198 309.566 670.198 310.831C670.198 312.847 669.526 316.715 669.526 316.715C667.188 316.715 627.491 316.715 627.491 316.715C627.491 316.715 625.852 311.298 629.383 310.866C632.913 310.434 635.248 310.086 635.248 310.086L654.786 301.376C655.169 301.205 655.618 301.384 655.778 301.773L657.034 304.819C657.034 304.819 660.302 306.344 662.345 306.344C663.589 306.344 665.543 305.591 666.882 305.002Z" fill="#D9D9D9"/>
<path fill-rule="evenodd" clip-rule="evenodd" d="M729.924 237.901C729.924 237.901 764.018 232.347 775.597 230.305C797.6 226.425 804.016 214.585 800.222 188.751L759.682 188.751C751.635 191.075 692.432 217.496 692.432 217.496C685.331 221.021 686.654 231.415 687.952 234.839C688.031 235.049 723.865 296.378 723.865 296.378L757.029 275.251L729.862 240.39C729.862 240.39 728.786 238.223 729.924 237.901Z" fill="#D9D9D9"/>
<path fill-rule="evenodd" clip-rule="evenodd" d="M698.251 103.535L726.5 112.015L719.288 124.031L697.323 111.104C687.07 110.494 682.226 109.483 682.79 108.071C683.266 106.88 684.398 106.678 685.441 106.491C686.253 106.345 687.011 106.209 687.363 105.624C688.165 104.287 685.352 100.807 682.541 97.6182C679.731 94.4297 681.98 94.2812 683.339 94.5369C688.01 96.4334 692.981 99.4329 698.251 103.535ZM705.223 179.278L728.996 161.821L734.252 174.812L710.71 184.574C704.052 192.395 700.329 195.655 699.541 194.355C698.876 193.259 699.396 192.232 699.874 191.287C700.247 190.551 700.595 189.863 700.339 189.23C699.754 187.785 695.281 187.937 691.043 188.263C686.805 188.589 688.04 186.703 689.062 185.772C693.388 183.183 698.775 181.018 705.223 179.278Z" fill="#D6E4FF"/>
<path fill-rule="evenodd" clip-rule="evenodd" d="M765.923 114.807C752.977 138.947 734.256 157.452 707.116 176.688L717.392 188.275C747.695 177.013 763.688 170.219 771.542 147.412C773.513 141.688 774.891 123.441 776.073 113.84L765.923 114.807Z" fill="#597EF7"/>
<path fill-rule="evenodd" clip-rule="evenodd" d="M802.114 195.233H744.727C744.727 195.233 764.226 135.766 764.649 113.604C764.663 112.85 766.054 111.523 766.67 111.697C773.421 113.604 781.118 110.271 781.118 110.271C794.723 132.151 799.428 159.091 802.114 195.233Z" fill="#F0F0F0"/>
<path fill-rule="evenodd" clip-rule="evenodd" d="M766.724 143.653C757.761 182.099 758.174 213.572 777.962 213.572H808.56C813.42 180.912 800.648 135.628 788.807 112.788C788.355 111.915 787.392 110.271 785.124 110.271H776.233C776.229 110.283 776.225 110.295 776.222 110.306C773.546 110.328 770.6 110.426 767.409 110.532C750.982 111.077 728.077 111.838 702.304 103.563L699.265 118.748C722.528 133.709 746.083 145.299 766.724 143.653Z" fill="#85A5FF"/>
<path fill-rule="evenodd" clip-rule="evenodd" d="M114.891 114.117C119.525 116.91 124.079 118.26 126.217 117.709C131.577 116.328 132.07 96.7181 127.923 88.9874C123.775 81.2568 102.453 77.8872 101.379 93.2041C101.006 98.5201 103.238 103.264 106.536 107.136L100.622 134.698H117.8L114.891 114.117Z" fill="#D6E4FF"/>
<path fill-rule="evenodd" clip-rule="evenodd" d="M135.532 78.2705C135.176 77.0201 134.22 75.9496 132.93 75.632C132.618 75.5549 132.295 75.5238 131.973 75.5368C131.857 75.5414 131.825 75.5747 131.771 75.494C131.731 75.4341 131.73 75.288 131.714 75.2176C131.663 74.999 131.598 74.7831 131.519 74.5727C131.25 73.8553 130.796 73.2204 130.25 72.6855C129.227 71.6849 127.846 70.9944 126.411 70.8694C125.626 70.8011 124.846 70.9287 124.103 71.1842C123.719 71.3165 123.346 71.4812 122.983 71.6633C122.874 71.7181 122.519 71.9865 122.409 71.9691C122.288 71.9499 122.045 71.6488 121.946 71.5733C120.728 70.639 119.225 70.2716 117.708 70.2829C115.996 70.2955 114.347 70.3811 112.919 71.4247C112.617 71.6457 112.329 71.8876 112.055 72.1423C111.911 72.2764 111.771 72.4156 111.638 72.5605C111.557 72.6479 111.479 72.7373 111.404 72.8291C111.276 72.9849 111.296 73.0361 111.117 72.9274C110.43 72.5099 109.634 72.3146 108.831 72.4132C108.355 72.4718 107.892 72.6148 107.452 72.803C107.302 72.867 106.955 73.1226 106.796 73.1251C106.637 73.1275 106.295 72.8906 106.132 72.8304C105.251 72.5051 104.301 72.4249 103.375 72.5752C102.419 72.7303 101.481 73.1115 100.671 73.6383C100.282 73.8917 99.9423 74.1724 99.6694 74.5492C99.5516 74.7119 99.4451 74.884 99.3116 75.0348C99.2334 75.1231 99.0786 75.2137 99.0367 75.3255C99.0618 75.2586 97.9918 74.8461 97.8908 74.8197C97.3529 74.6792 96.8051 74.7077 96.2784 74.8811C95.2879 75.207 94.4361 75.938 93.736 76.6875C93.3764 77.0724 93.0617 77.498 92.7946 77.9513C92.6666 78.1685 92.5496 78.3918 92.4424 78.6199C92.3905 78.7304 92.3562 78.8687 92.2878 78.9682C92.1996 79.0965 92.1404 79.0989 91.9808 79.1549C91.1702 79.4389 90.4312 79.9196 89.8685 80.5691C89.2992 81.2263 88.9299 82.0355 88.775 82.8877C88.7659 82.9379 88.7605 83.146 88.7311 83.1731C88.6908 83.2105 88.5278 83.194 88.4661 83.2012C88.2526 83.2263 88.0406 83.2636 87.8313 83.3131C87.4457 83.4044 87.0703 83.5387 86.7152 83.7144C85.331 84.3993 84.3411 85.6833 83.8566 87.1281C83.3482 88.6443 83.3573 90.3814 83.9648 91.8693C84.063 92.1096 84.1797 92.3429 84.3169 92.5636C84.4011 92.6991 84.4283 92.6994 84.3736 92.8415C84.3127 92.9996 84.2013 93.1533 84.1289 93.3078C83.8928 93.812 83.7277 94.3468 83.6234 94.8929C83.4523 95.7889 83.3675 96.7304 83.5363 97.6331C83.6147 98.0523 83.7512 98.4621 83.9595 98.8354C84.0658 99.0258 84.19 99.2063 84.3304 99.3733C84.4032 99.46 84.4806 99.5429 84.5615 99.6222C84.6078 99.6675 84.6685 99.7072 84.7078 99.7578C84.8039 99.8812 84.8241 99.7798 84.7745 99.961C84.7053 100.214 84.5482 100.464 84.4521 100.711C84.353 100.965 84.2634 101.223 84.1815 101.483C84.0156 102.009 83.8754 102.546 83.7877 103.091C83.6192 104.139 83.6488 105.254 84.1442 106.216C84.356 106.627 84.6598 106.987 85.0284 107.268C85.2087 107.405 85.4041 107.523 85.6091 107.621C85.7144 107.671 85.8489 107.692 85.8969 107.794C85.9486 107.903 85.8719 108.121 85.8543 108.243C85.702 109.309 85.6257 110.427 85.9423 111.471C86.2339 112.432 86.876 113.281 87.7097 113.843C89.327 114.933 91.507 114.872 93.2063 113.999C93.6493 113.772 94.0637 113.489 94.4334 113.156C95.3747 114.423 97.3118 114.383 98.6876 114.022C100.402 113.572 101.777 112.38 102.569 110.814C103.653 112.133 105.927 111.705 106.678 110.274C106.862 109.924 106.971 109.538 107.025 109.148C107.053 108.942 107.035 108.735 107.057 108.531C107.084 108.272 107.257 108.019 107.357 107.768C107.551 107.279 107.671 106.774 107.677 106.247C107.679 105.972 107.644 105.703 107.618 105.43C107.595 105.185 107.663 104.955 107.702 104.713C107.262 104.785 106.726 104.667 106.312 104.539C105.906 104.414 105.525 104.085 105.238 103.784C104.572 103.085 104.165 102.169 103.887 101.258C103.276 99.2571 103.527 96.8568 105.539 95.7588C106.476 95.2473 109.285 95.249 110.401 95.5018C111.575 95.7676 112.906 98.358 112.972 98.6015C113.012 98.7522 112.992 98.9387 113.13 99.0391C113.434 99.2599 113.936 98.8767 114.161 98.6876C114.548 98.3613 114.824 97.9271 115.063 97.4869C115.584 96.5281 116.005 95.4998 116.301 94.4501C116.53 93.6408 116.677 92.8062 116.976 92.0176C117.273 91.2328 117.742 90.5314 118.472 90.0868C119.266 89.6032 120.175 89.3485 121.046 89.0446C121.91 88.7434 122.759 88.3752 123.428 87.7361C123.575 87.5956 123.718 87.4463 123.836 87.2808C123.93 87.1502 124.022 86.9001 124.165 86.8173C124.386 86.6885 124.71 87.0235 124.901 87.1452C125.846 87.7454 126.635 88.5825 127.271 89.497C127.903 90.4065 128.422 91.2817 128.844 92.2973C129.157 93.0505 129.352 94.0152 129.902 94.6324C130.147 94.9081 131.973 95.0748 132.564 94.8342C133.155 94.5935 133.818 93.9687 134.017 93.5771C134.22 93.1763 134.268 92.7361 134.182 92.2973C134.13 92.0391 134.026 91.798 133.969 91.5445C133.921 91.3315 133.878 91.1302 133.774 90.9351C133.577 90.5654 133.242 90.2996 132.837 90.1885C133.258 89.8001 133.607 89.3355 133.849 88.8161C134.1 88.2765 134.312 87.6203 134.373 87.028C134.422 86.547 134.346 86.0486 134.083 85.6352C133.807 85.2016 133.317 84.9187 132.894 84.6482C133.541 84.1421 134.094 83.5267 134.549 82.8454C135.434 81.5203 135.982 79.8501 135.532 78.2705Z" fill="#434343"/>
<path fill-rule="evenodd" clip-rule="evenodd" d="M52.6684 224.164C46.3439 224.164 41.2168 229.291 41.2168 235.616V301.462C41.2168 307.787 46.3439 312.914 52.6684 312.914H134.977C141.302 312.914 146.429 307.787 146.429 301.462V235.616C146.429 229.291 141.302 224.164 134.977 224.164H52.6684ZM64.1203 244.204C62.5392 244.204 61.2574 245.486 61.2574 247.067V290.011C61.2574 291.592 62.5392 292.874 64.1203 292.874H123.526C125.107 292.874 126.389 291.592 126.389 290.011V247.067C126.389 245.486 125.107 244.204 123.526 244.204H64.1203Z" fill="#F0F0F0"/>
<path fill-rule="evenodd" clip-rule="evenodd" d="M179.145 263.228C181.807 272.553 188.439 290.226 197.609 310.523L206.323 307.981C198.7 261.276 192.355 230.355 188.721 220.944C186.319 214.726 168.153 215.455 170.243 227.966C171.119 233.213 174.587 247.262 179.145 263.228ZM143.327 230.148C129.116 233.092 99.6508 243.5 91.2369 246.826C85.9491 248.916 89.3579 256.005 93.869 255.385C94.6331 255.28 97.3357 254.977 101.368 254.526C114.321 253.077 140.997 250.093 161.228 247.181C171.881 245.648 166.15 225.694 155.09 227.805C151.368 228.516 147.41 229.302 143.327 230.148Z" fill="#D6E4FF"/>
<path fill-rule="evenodd" clip-rule="evenodd" d="M189.278 215.674C187.825 210.933 121.78 194.103 121.78 194.103H116.368V199.147L161.879 222.315C161.819 223.062 161.856 223.852 162.002 224.686C161.674 241.861 169.025 254.692 176.302 267.395C181.062 275.702 185.79 283.955 188.318 293.333L205.039 290.838C204.552 289.593 203.782 283.976 202.729 276.297C200.074 256.934 195.62 224.456 189.372 215.864C189.35 215.834 189.328 215.804 189.305 215.774C189.297 215.74 189.288 215.707 189.278 215.674Z" fill="#597EF7"/>
<path fill-rule="evenodd" clip-rule="evenodd" d="M120.149 236.074C115.985 235.24 112.15 234.496 108.869 233.921C87.6736 230.203 81.4929 218.858 85.1473 194.103H124.199C130.578 195.936 163.73 209.838 180.931 217.233C192.315 222.127 188.726 239.77 182.279 244.361C182.244 244.643 182.128 244.834 181.922 244.92C157.479 255.051 136.635 254.295 123.251 253.809C117.645 253.606 113.347 253.45 110.642 254.162L106.402 240.789L120.149 236.074Z" fill="#85A5FF"/>
<path fill-rule="evenodd" clip-rule="evenodd" d="M95.7024 246.133C95.6696 245.295 94.9629 244.626 94.1295 244.714C92.6094 244.876 90.3664 245.192 89.2748 245.724C87.5347 246.573 84.4792 248.781 84.4792 248.781C85.4638 250.8 102.176 285.064 102.176 285.064C102.176 285.064 107.541 284.198 106.428 280.969C105.314 277.74 104.632 275.578 104.632 275.578L103.925 255.047C103.911 254.644 103.567 254.332 103.164 254.357L100.006 254.556C100.006 254.556 97.3142 252.377 96.454 250.613C95.9304 249.54 95.7575 247.536 95.7024 246.133Z" fill="#D9D9D9"/>
<path fill-rule="evenodd" clip-rule="evenodd" d="M195.42 305.96C194.653 305.622 193.741 305.964 193.455 306.752C192.934 308.189 192.235 310.344 192.235 311.558C192.235 313.494 192.88 317.208 192.88 317.208C195.126 317.208 233.248 317.208 233.248 317.208C233.248 317.208 234.822 312.006 231.432 311.591C228.041 311.177 225.799 310.842 225.799 310.842L207.036 302.478C206.668 302.314 206.237 302.486 206.083 302.859L204.877 305.784C204.877 305.784 201.738 307.249 199.776 307.249C198.582 307.249 196.705 306.526 195.42 305.96Z" fill="#D9D9D9"/>
<path fill-rule="evenodd" clip-rule="evenodd" d="M186.677 163.115L160.743 174.505L169.024 185.113L188.447 170.222C198.148 168.44 202.647 166.909 201.944 165.629C201.352 164.55 200.249 164.489 199.233 164.433C198.441 164.389 197.703 164.349 197.299 163.832C196.378 162.651 198.652 159.005 200.958 155.637C203.264 152.268 201.103 152.39 199.838 152.793C195.607 155.147 191.22 158.588 186.677 163.115ZM70.5611 180.552L55.8946 177.642C45.9479 203.858 40.0178 218.225 38.1046 220.741C36.7015 222.587 28.0488 227.34 22.1921 229.878C19.8414 230.897 20.3461 232.883 21.0356 233.519C25.3846 237.528 29.4277 236.123 33.8288 234.593C35.1029 234.15 36.407 233.697 37.7573 233.362C41.2522 232.494 42.3157 234.291 43.3208 235.989C44.2107 237.493 45.0547 238.92 47.4999 238.35C47.3887 237.871 47.252 237.333 47.1046 236.753C46.1514 233.002 44.7457 227.471 46.8312 224.257C47.9015 222.608 55.8115 208.039 70.5611 180.552Z" fill="#D6E4FF"/>
<path fill-rule="evenodd" clip-rule="evenodd" d="M110.424 122.768L116.613 121.707C130.093 134.783 135.594 166.199 144.578 170.357C153.071 174.289 165.112 170.484 179.423 165.347L183.806 175.14C170.803 189.208 143.1 201.094 131.871 194.308C113.918 183.46 109.773 144.714 110.424 122.768Z" fill="#8C8C8C"/>
<path fill-rule="evenodd" clip-rule="evenodd" d="M83.4443 200.545C83.4443 200.545 120.668 200.545 138.206 200.545C140.708 200.545 140.236 196.932 139.875 195.108C135.7 174.066 119.403 151.383 119.403 121.429L103.608 118.952C90.5425 139.965 86.0244 165.835 83.4443 200.545Z" fill="#BFBFBF"/>
<path fill-rule="evenodd" clip-rule="evenodd" d="M120.57 215.575H71.2766C72.0565 203.811 74.5569 191.371 77.9817 179.241C66.8186 199.377 57.4353 213.874 49.8319 222.732L38.3535 220.484C45.7474 174.629 67.1591 140.785 102.589 118.952H102.769C102.769 118.952 102.769 118.952 102.769 118.952H108.843C108.843 118.952 130.113 191.459 120.57 215.575Z" fill="#D9D9D9"/>
<defs>
<clipPath id="clip0">
<rect width="290" height="316.914" fill="white" transform="translate(286)"/>
</clipPath>
<clipPath id="clip1">
<rect width="252.32" height="546.357" fill="white" transform="translate(304.167 18.1673)"/>
</clipPath>
<clipPath id="clip2">
<rect width="151.392" height="56.5202" fill="white" transform="translate(314.261 224.733)"/>
</clipPath>
</defs>
</svg>
