<svg width="1011" height="793" viewBox="0 0 1011 793" fill="none" xmlns="http://www.w3.org/2000/svg">
<path fill-rule="evenodd" clip-rule="evenodd" d="M871.374 247.478C900.645 247.478 924.374 223.749 924.374 194.478C924.374 165.206 900.645 141.478 871.374 141.478C842.102 141.478 818.374 165.206 818.374 194.478C818.374 223.749 842.102 247.478 871.374 247.478Z" fill="#F0F0F0"/>
<path fill-rule="evenodd" clip-rule="evenodd" d="M871.374 155.478C873.03 155.478 874.374 154.134 874.374 152.478C874.374 150.821 873.03 149.478 871.374 149.478C869.717 149.478 868.374 150.821 868.374 152.478C868.374 154.134 869.717 155.478 871.374 155.478Z" fill="black" fill-opacity="0.1"/>
<path fill-rule="evenodd" clip-rule="evenodd" d="M829.374 197.478C831.03 197.478 832.374 196.134 832.374 194.478C832.374 192.821 831.03 191.478 829.374 191.478C827.717 191.478 826.374 192.821 826.374 194.478C826.374 196.134 827.717 197.478 829.374 197.478Z" fill="black" fill-opacity="0.1"/>
<path fill-rule="evenodd" clip-rule="evenodd" d="M913.374 197.478C915.03 197.478 916.374 196.134 916.374 194.478C916.374 192.821 915.03 191.478 913.374 191.478C911.717 191.478 910.374 192.821 910.374 194.478C910.374 196.134 911.717 197.478 913.374 197.478Z" fill="black" fill-opacity="0.1"/>
<path fill-rule="evenodd" clip-rule="evenodd" d="M871.374 239.478C873.03 239.478 874.374 238.134 874.374 236.478C874.374 234.821 873.03 233.478 871.374 233.478C869.717 233.478 868.374 234.821 868.374 236.478C868.374 238.134 869.717 239.478 871.374 239.478Z" fill="black" fill-opacity="0.1"/>
<path fill-rule="evenodd" clip-rule="evenodd" d="M871.374 158.478L873.374 193.478H869.374L871.374 158.478Z" fill="#D9D9D9"/>
<path fill-rule="evenodd" clip-rule="evenodd" d="M889.072 212.176L870.687 196.62L873.516 193.791L889.072 212.176Z" fill="#D9D9D9"/>
<path fill-rule="evenodd" clip-rule="evenodd" d="M871.374 198.478C873.583 198.478 875.374 196.687 875.374 194.478C875.374 192.268 873.583 190.478 871.374 190.478C869.164 190.478 867.374 192.268 867.374 194.478C867.374 196.687 869.164 198.478 871.374 198.478Z" fill="#D9D9D9"/>
<path fill-rule="evenodd" clip-rule="evenodd" d="M47.258 484.651C50.1225 484.301 53.1799 484.424 55.8439 485.555C61.5085 487.96 63.1187 494.652 63.041 500.091C62.9573 505.946 61.7141 512.34 66.1651 517.057C68.2112 519.226 70.7563 520.886 72.7654 523.094C74.9122 525.454 76.5966 528.155 77.8438 531.054C80.1339 536.381 81.2578 542.644 79.1637 548.232C77.3199 553.151 72.6811 557.591 73.6834 563.185C74.729 569.02 80.6122 573.482 84.2904 577.828C88.4532 582.747 92.2859 589.034 92.9155 595.484C93.5193 601.666 90.8284 607.918 86.6988 612.591C78.4477 621.928 66.0452 626.506 53.5396 626.477C48.23 626.465 42.2186 626.225 37.6366 623.372C36.2204 622.49 35.4733 621.501 34.6315 620.125C33.8767 618.892 32.8796 618.09 31.7255 617.217C29.1899 615.3 27.3587 612.716 26.1901 609.824C21.6522 598.592 25.2792 584.695 31.6312 574.72C33.1364 572.357 34.3686 570.083 33.6374 567.266C32.8744 564.326 30.999 561.674 29.3403 559.146C27.7011 556.648 25.8299 554.265 24.5488 551.564C23.207 548.735 22.8292 545.772 23.0662 542.675C23.5118 536.859 26.0227 531.491 29.5777 526.813C33.0017 522.307 37.0221 517.996 37.0311 512.092C37.041 505.835 32.8577 500.268 34.6399 493.907C35.3778 491.272 36.86 488.569 39.2486 486.99C41.5393 485.475 44.5639 484.98 47.258 484.651Z" fill="#D9D9D9"/>
<path fill-rule="evenodd" clip-rule="evenodd" d="M45.3862 494.654C45.4399 493.814 46.4367 493.31 47.2215 493.529C48.2545 493.818 48.2346 494.783 48.2073 495.643C48.1237 498.286 48.5063 500.854 49.1417 503.419C50.4622 508.751 52.9027 513.664 54.8362 518.785C56.768 523.903 57.6748 529.187 56.5416 534.602C55.4732 539.708 53.7948 544.681 52.7015 549.793C51.7378 554.299 50.7123 559.05 52.1799 563.544C53.5921 567.87 56.7142 571.393 58.9625 575.303C63.6165 583.396 65.6813 592.374 65.9574 601.613C66.0854 605.903 65.9702 610.233 64.9749 614.441C64.402 616.864 63.6322 620.138 61.5559 621.811C60.5985 622.582 58.961 622.849 58.1552 621.706C57.3987 620.635 58.0624 618.976 58.3025 617.834C59.3427 612.891 59.5519 607.839 59.3029 602.819C59.0619 597.957 58.4874 593.103 56.9572 588.46C55.5369 584.15 53.3792 580.28 50.8398 576.51C48.2521 572.668 45.562 568.819 44.4928 564.267C43.4065 559.644 44.289 554.94 45.4691 550.405C46.7171 545.608 48.3518 540.949 50.0417 536.283C51.6886 531.735 52.2724 527.433 51.3632 522.674C49.5672 513.271 44.7598 504.446 45.3862 494.654Z" fill="#BFBFBF"/>
<path fill-rule="evenodd" clip-rule="evenodd" d="M122.892 496.06C126.437 497.136 129.958 498.873 132.485 501.596C137.858 507.386 136.209 516.138 133.243 522.531C130.05 529.411 125.212 536.327 127.94 544.221C129.193 547.85 131.301 551.137 132.49 554.794C133.761 558.702 134.309 562.771 134.239 566.85C134.11 574.34 132.118 582.332 126.708 587.851C121.945 592.709 114.158 595.547 112.377 602.684C110.518 610.129 115.061 618.465 117.078 625.519C119.36 633.502 120.533 642.93 117.862 650.886C115.303 658.511 108.842 664.505 101.528 667.883C86.9152 674.634 69.9487 673.595 55.2958 667.056C49.0748 664.279 42.1506 660.868 38.2845 655.11C37.0897 653.33 36.7364 651.772 36.476 649.707C36.2426 647.856 35.4972 646.388 34.6048 644.756C32.644 641.17 31.8618 637.162 32.0198 633.134C32.6345 617.489 44.2336 602.941 56.9562 594.449C59.9708 592.437 62.6181 590.389 63.2494 586.677C63.9086 582.803 63.1108 578.691 62.5012 574.839C61.899 571.032 60.9638 567.24 60.8888 563.38C60.8105 559.335 61.9334 555.635 63.8482 552.096C67.4453 545.449 73.2275 540.407 79.8696 536.725C86.2673 533.177 93.2616 530.17 96.3928 523.193C99.7118 515.798 97.7474 507.038 103.2 500.442C105.458 497.71 108.625 495.285 112.262 494.66C115.749 494.06 119.558 495.048 122.892 496.06Z" fill="#D9D9D9"/>
<path fill-rule="evenodd" clip-rule="evenodd" d="M115.651 508.288C116.154 507.321 117.584 507.247 118.387 507.918C119.443 508.801 118.914 509.934 118.432 510.938C116.95 514.024 116.052 517.267 115.452 520.637C114.204 527.643 114.485 534.74 114.063 541.819C113.642 548.892 111.935 555.624 107.774 561.443C103.85 566.929 99.2832 571.939 95.3274 577.42C91.8408 582.251 88.1533 587.34 87.5156 593.432C86.9012 599.295 88.7069 605.103 89.2882 610.911C90.4919 622.934 88.2042 634.649 83.6884 645.735C81.5911 650.883 79.1887 655.95 75.8211 660.411C73.8824 662.98 71.2673 666.454 67.9634 667.347C66.4399 667.759 64.3855 667.216 64.0415 665.441C63.7181 663.776 65.3628 662.159 66.2417 660.933C70.047 655.624 72.9376 649.751 75.2753 643.676C77.5399 637.791 79.4103 631.742 80.0529 625.441C80.6491 619.593 80.1532 613.879 79.1581 608.084C78.1443 602.178 77.0149 596.209 78.1486 590.258C79.2996 584.214 82.7953 579.106 86.5501 574.354C90.5215 569.328 94.8729 564.667 99.293 560.027C103.6 555.505 106.536 550.716 107.966 544.603C110.79 532.527 109.791 519.556 115.651 508.288Z" fill="#BFBFBF"/>
<path fill-rule="evenodd" clip-rule="evenodd" d="M13.306 540.478C19.2003 540.478 24.3823 543.602 27.9531 548.035C32.133 553.226 32.9772 559.564 34.6745 565.749C35.5191 568.828 36.9717 571.884 39.5174 573.975C41.8327 575.877 44.7721 576.258 47.5435 577.187C53.0822 579.044 57.5547 583.518 59.321 588.977C61.4758 595.636 59.1934 602.351 59.5864 609.099C59.9472 615.296 66.0576 619.163 70.9738 622.134C75.8215 625.063 80.1886 627.805 81.6487 633.512C83.1969 639.565 83.7164 646.321 81.5719 652.3C78.0015 662.256 67.5525 666.64 57.4561 667.32C48.2932 667.937 36.7719 666.968 29.8907 660.317C25.773 656.337 24.2819 650.771 24.4669 645.233C24.5818 641.789 25.264 638.377 26.146 635.049C26.7711 632.69 27.6157 630.342 27.8563 627.904C28.4959 621.42 22.5026 620.174 17.401 618.394C10.9183 616.131 6.37987 611.857 3.22399 605.903C0.285002 600.359 -0.948134 594.136 0.813701 588.032C1.71353 584.915 3.3456 582.087 5.55902 579.682C6.53336 578.624 7.90665 577.741 8.78608 576.628C9.60694 575.59 9.42823 574.244 9.14534 573.027C7.83732 567.408 3.76196 562.755 2.30451 557.146C0.988698 552.083 1.76655 545.782 6.39544 542.515C8.3953 541.104 10.8616 540.493 13.306 540.478Z" fill="#BFBFBF"/>
<path fill-rule="evenodd" clip-rule="evenodd" d="M21.3377 555.119C27.585 561.774 29.2831 570.803 29.7815 579.554C30.0606 584.461 29.7701 589.637 31.2118 594.397C32.4454 598.471 35.3373 601.585 38.3183 604.528C44.3188 610.453 51.0108 616.476 52.7659 625.051C53.7957 630.083 53.1006 635.281 54.5236 640.258C55.8175 644.782 58.0956 649.226 60.8665 653.046C63.0975 656.122 66.0042 658.477 68.443 661.345C69.1871 662.22 70.2529 663.509 69.9458 664.744C69.5865 666.192 67.7431 666.65 66.4352 666.422C63.3859 665.892 60.8191 662.981 58.8253 660.864C55.9098 657.769 53.4323 654.439 51.4187 650.705C49.1832 646.557 47.3833 642.156 46.6142 637.503C45.8161 632.676 46.2133 627.645 44.3909 623.013C41.3242 615.218 33.886 610.617 28.5082 604.542C21.8077 596.971 22.807 587.549 23.4933 578.237C23.8703 573.119 24.2451 567.34 21.6591 562.667C20.672 560.883 18.4711 559.22 18.0467 557.193C17.6579 555.335 19.7797 553.458 21.3377 555.119Z" fill="#8C8C8C"/>
<path fill-rule="evenodd" clip-rule="evenodd" d="M28.0004 664.478C28.0004 702.536 34.2112 722.478 67.0001 722.478C99.789 722.478 106 702.536 106 664.478H28.0004Z" fill="#85A5FF"/>
<rect x="163" y="609.478" width="38" height="9" rx="2" fill="#8C8C8C"/>
<path fill-rule="evenodd" clip-rule="evenodd" d="M180.217 536.478H182H183H184.783C185.301 551.896 187.707 566.563 192 580.478H198.5C207.06 580.478 214 587.417 214 595.978C214 604.538 207.06 611.478 198.5 611.478H165.5C156.94 611.478 150 604.538 150 595.978C150 587.417 156.94 580.478 165.5 580.478H173C179.44 559.606 180.217 536.478 180.217 536.478Z" fill="#D9D9D9"/>
<path fill-rule="evenodd" clip-rule="evenodd" d="M146.622 467.156C146.622 467.156 163.811 465.478 181 465.478C198.189 465.478 215.378 467.156 215.378 467.156L220 546.611C220 546.611 200.5 548.478 181 548.478C161.5 548.478 142 546.611 142 546.611L146.622 467.156Z" fill="#BFBFBF"/>
<path fill-rule="evenodd" clip-rule="evenodd" d="M119 722.478V640.478V618.478H140H223H244V640.478V722.478H223V640.478H140V722.478H119Z" fill="#F0F0F0"/>
<g clip-path="url(#clip0)">
<path d="M834.645 346.713L873.069 324.747C875.529 323.341 878.55 323.341 881.01 324.747L973.585 377.669C978.569 380.518 981.645 385.819 981.645 391.56V716.478" stroke="#BFBFBF" stroke-width="8"/>
<rect x="951.645" y="715.478" width="59" height="7" rx="3" fill="#BFBFBF"/>
<path d="M799.143 335.812C812.031 322.925 832.925 322.925 845.812 335.812C858.7 348.699 858.7 369.594 845.812 382.481L826.013 402.28L779.344 355.611L799.143 335.812Z" fill="#BFBFBF"/>
<path fill-rule="evenodd" clip-rule="evenodd" d="M798.873 383.004C811.76 395.892 824.265 404.281 826.803 401.743C829.342 399.204 820.952 386.699 808.065 373.812C795.178 360.925 782.673 352.535 780.134 355.074C777.596 357.612 785.985 370.117 798.873 383.004Z" fill="#F0F0F0"/>
</g>
<path fill-rule="evenodd" clip-rule="evenodd" d="M748.128 440.686C756.961 461.675 771.976 476.258 779.929 498.082C784.645 511.025 786.611 525.097 786.73 539.509C786.795 547.338 786.658 555.171 786.622 562.999C786.586 570.634 786.379 578.219 785.731 585.804C785.079 593.43 784.35 600.964 784.029 608.637C783.778 614.615 783.664 621.569 781.638 627.022C780.026 631.358 775.931 631.994 774.844 626.734C774.24 623.81 774.316 620.546 774.383 617.541C774.468 613.686 774.692 609.836 774.807 605.982C775.266 590.514 774.67 575.043 774.982 559.569C775.286 544.451 777.229 529.349 775.079 514.331C773.304 501.929 768.793 491.28 763.609 481.071C758.621 471.248 753.193 461.665 749.822 450.492C748.854 447.283 748.106 443.958 747.747 440.508C747.904 440.435 748.031 440.494 748.128 440.686Z" fill="#ADC6FF"/>
<path fill-rule="evenodd" clip-rule="evenodd" d="M745.721 482.094C747.47 483.358 748.447 485.205 749.629 487.028C751.099 489.294 752.828 491.341 754.298 493.609C757.362 498.337 760.055 503.356 762.849 508.276C768.153 517.615 772.18 527.568 774.174 538.372C776.242 549.569 776.799 561.126 777.666 572.49C778.586 584.534 779.512 596.666 779.634 608.756C779.689 614.173 779.982 619.923 779.331 625.302C778.926 628.651 777.415 631.504 774.008 631.477C766.772 631.42 763.375 623.405 761.955 616.831C759.866 607.152 759.449 596.87 759.78 586.972C760.179 575.036 762.251 563.279 763.148 551.389C764.097 538.802 763.561 526.438 759.233 514.586C757.047 508.597 754.51 502.752 752.231 496.803C751.261 494.27 750.466 491.668 749.156 489.309C747.698 486.685 745.889 484.303 744.747 481.478C745.071 481.683 745.396 481.889 745.721 482.094Z" fill="#85A5FF"/>
<path fill-rule="evenodd" clip-rule="evenodd" d="M829.081 456.995C829.303 456.823 829.525 456.65 829.747 456.478C829.108 459.17 827.954 461.357 827.071 463.819C826.278 466.032 825.876 468.536 825.342 470.954C824.087 476.635 822.637 482.188 821.453 487.917C819.107 499.254 819.551 511.468 821.089 524.046C822.542 535.927 824.84 547.79 825.934 559.669C826.842 569.521 827.232 579.679 826.366 589.079C825.778 595.462 823.85 603.084 818.595 602.439C816.122 602.136 814.831 599.159 814.311 595.798C813.476 590.399 813.301 584.723 812.976 579.355C812.249 567.373 812.105 555.429 811.961 543.57C811.825 532.382 811.452 520.971 812.199 510.065C812.92 499.541 815.176 490.057 818.4 481.307C820.099 476.697 821.717 471.98 823.625 467.586C824.54 465.479 825.658 463.616 826.574 461.511C827.31 459.817 827.895 458.079 829.081 456.995Z" fill="#ADC6FF"/>
<path fill-rule="evenodd" clip-rule="evenodd" d="M747.956 516.779C748.913 515.173 751.019 520.471 751.34 521.137C751.204 520.806 751.068 520.475 750.931 520.144C752.83 523.302 754.568 526.59 755.648 530.212C756.717 533.797 757.635 537.454 758.638 541.065C760.521 547.839 762.949 554.42 764.654 561.255C766.316 567.916 766.735 574.463 766.332 581.353C765.914 588.513 765.659 595.783 766.146 602.94C766.379 606.358 767.49 609.541 768.251 612.832C769.013 616.126 769.613 619.463 770.514 622.716C770.721 622.293 770.748 623.709 770.747 623.817C770.741 624.629 770.628 625.311 770.366 626.081C769.695 628.063 768.438 629.747 766.525 630.293C763.069 631.281 759.859 628.137 758.745 624.817C757.146 620.053 756.265 614.788 755.502 609.782C754.804 605.19 754.639 600.572 754.846 595.917C755.255 586.738 756.916 577.679 757.365 568.503C757.854 558.513 755.875 549.127 754.218 539.402C753.42 534.717 752.657 530.075 751.103 525.611C750.474 523.804 749.654 522.208 748.795 520.539C748.305 519.589 747.316 517.895 747.956 516.779Z" fill="#ADC6FF"/>
<path fill-rule="evenodd" clip-rule="evenodd" d="M775.999 501.175C775.603 512.619 774.919 523.977 773.393 535.301C771.836 546.858 770.047 558.374 768.549 569.941C767.09 581.2 765.562 592.646 765.765 604.062C765.916 612.471 764.521 626.696 773.86 630.847C783.319 635.049 785.348 617.101 785.969 611.177C787.159 599.81 786.774 588.324 786.196 576.896C785.603 565.167 784.614 553.497 783.387 541.811C782.024 528.83 780.955 515.791 780.097 502.773C779.672 496.335 779.567 489.906 779.685 483.466C779.795 477.388 779.564 471.248 777.404 465.478C777.29 465.56 777.178 465.642 777.065 465.723" fill="#2F54EB"/>
<path fill-rule="evenodd" clip-rule="evenodd" d="M824.83 537.433C823.129 539.911 821.414 542.365 819.808 544.99C816.933 549.686 814.334 554.909 813.552 561.624C811.916 575.678 813.228 590.856 813.545 605.34C813.61 608.3 813.236 611.17 814.402 613.987C815.46 616.541 817.438 618.488 819.323 618.478C823.358 618.454 822.742 608.573 822.749 604.223C822.761 596.6 821.906 588.9 821.98 581.283C822.053 573.738 822.512 566.172 823.606 559.005C824.714 551.752 826.336 544.787 828.476 538.287C828.773 537.385 830.905 530.415 828.891 531.616" fill="#85A5FF"/>
<path fill-rule="evenodd" clip-rule="evenodd" d="M807.009 462.478C804.356 462.478 804.372 475.704 804.293 477.402C804.004 483.533 804.072 489.665 803.89 495.797C803.491 509.178 803.001 522.677 800.991 535.904C799.908 543.024 798.654 550.113 797.304 557.179C795.951 564.266 794.134 571.344 793.244 578.521C792.389 585.42 792.872 592.455 792.989 599.388C793.106 606.363 793.317 613.351 794.231 620.265C794.456 621.972 794.721 623.672 795.004 625.369C795.239 626.782 795.102 628.535 795.501 629.878C796.14 632.03 798.88 632.734 800.725 632.398C805.718 631.486 808.907 625.217 810.612 620.637C812.79 614.789 813.946 608.445 815.086 602.282C816.378 595.299 817.135 588.21 817.491 581.101C818.213 566.653 817.286 552.189 816.251 537.788C815.675 529.778 815.01 521.804 813.993 513.844C812.98 505.919 811.68 498.028 810.833 490.079C810.218 484.302 809.612 478.518 809.214 472.719C809.118 471.336 809.038 462.478 807.009 462.478Z" fill="#2F54EB"/>
<path fill-rule="evenodd" clip-rule="evenodd" d="M803.688 558.616C803.255 544.73 797.674 483.736 796.404 466.945C796.086 462.742 793.029 445.242 792.632 440.478C791.557 441.824 791.649 462.787 791.66 467.604C791.673 472.368 791.082 477.054 790.778 481.793C790.468 486.629 783.319 549.078 782.392 553.725C780.546 562.968 779.311 572.454 778.358 581.905C777.43 591.117 775.987 600.836 777.229 610.096C777.515 612.228 777.966 614.325 778.702 616.284C779.496 618.4 780.041 620.356 780.679 622.57C781.705 626.137 783.562 629.267 786.415 630.739C792.264 633.758 795.405 626.924 796.998 620.974C799.541 611.472 801.173 601.815 801.938 591.836C802.784 580.796 804.034 569.733 803.688 558.616Z" fill="#85A5FF"/>
<rect x="741.747" y="599.478" width="91" height="91" rx="2" fill="white"/>
<rect x="731.747" y="609.478" width="10" height="113" rx="2" fill="#BFBFBF"/>
<rect x="781.747" y="609.478" width="10" height="113" rx="2" fill="#BFBFBF"/>
<rect x="832.747" y="609.478" width="10" height="113" rx="2" fill="#BFBFBF"/>
<defs>
<clipPath id="clip0">
<rect width="236.355" height="412" fill="white" transform="translate(774.645 310.478)"/>
</clipPath>
</defs>
</svg>
