<svg width="1232" height="81" viewBox="0 0 1232 81" fill="none" xmlns="http://www.w3.org/2000/svg">
<path fill-rule="evenodd" clip-rule="evenodd" d="M39.7419 19.8711L19.871 39.742L6.76081e-06 19.8711L19.871 9.06841e-05L39.7419 19.8711Z" fill="#85A5FF"/>
<path fill-rule="evenodd" clip-rule="evenodd" d="M262.297 68.555L250.374 80.4775L238.452 68.555L250.374 56.6324L262.297 68.555Z" fill="#597EF7"/>
<path fill-rule="evenodd" clip-rule="evenodd" d="M707.406 68.555L695.484 80.4775L683.561 68.555L695.484 56.6324L707.406 68.555Z" fill="#597EF7"/>
<path fill-rule="evenodd" clip-rule="evenodd" d="M1152.52 68.555L1140.59 80.4775L1128.67 68.555L1140.59 56.6324L1152.52 68.555Z" fill="#597EF7"/>
<path fill-rule="evenodd" clip-rule="evenodd" d="M198.709 19.8711L178.838 39.742L158.967 19.8711L178.838 9.06841e-05L198.709 19.8711Z" fill="#FFC069"/>
<path fill-rule="evenodd" clip-rule="evenodd" d="M929.961 19.8711L910.09 39.742L890.219 19.8711L910.09 9.06841e-05L929.961 19.8711Z" fill="#85A5FF"/>
<path fill-rule="evenodd" clip-rule="evenodd" d="M484.852 19.8711L464.981 39.742L445.11 19.8711L464.981 9.06841e-05L484.852 19.8711Z" fill="#85A5FF"/>
<path fill-rule="evenodd" clip-rule="evenodd" d="M643.819 19.8711L623.948 39.742L604.077 19.8711L623.948 9.06841e-05L643.819 19.8711Z" fill="#FFC069"/>
<path fill-rule="evenodd" clip-rule="evenodd" d="M1088.93 19.8711L1069.06 39.742L1049.19 19.8711L1069.06 9.06841e-05L1088.93 19.8711Z" fill="#FFC069"/>
<path fill-rule="evenodd" clip-rule="evenodd" d="M747.148 19.8711C747.148 30.8455 756.045 39.742 767.019 39.742C777.994 39.742 786.89 30.8455 786.89 19.8711C786.89 8.89663 777.994 9.11639e-05 767.019 9.06841e-05C756.045 9.02044e-05 747.148 8.89663 747.148 19.8711Z" fill="#FFE7BA"/>
<path fill-rule="evenodd" clip-rule="evenodd" d="M1192.26 19.871C1192.26 30.8455 1201.15 39.742 1212.13 39.742C1223.1 39.742 1232 30.8455 1232 19.871C1232 8.8966 1223.1 6.06463e-05 1212.13 6.01666e-05C1201.15 5.96869e-05 1192.26 8.8966 1192.26 19.871Z" fill="#FFE7BA"/>
<path fill-rule="evenodd" clip-rule="evenodd" d="M302.039 19.8711C302.039 30.8455 310.936 39.742 321.91 39.742C332.884 39.742 341.781 30.8455 341.781 19.8711C341.781 8.89663 332.884 9.11639e-05 321.91 9.06841e-05C310.936 9.02044e-05 302.039 8.89663 302.039 19.8711Z" fill="#FFE7BA"/>
<path fill-rule="evenodd" clip-rule="evenodd" d="M524.594 60.6065C524.594 71.5809 533.49 80.4774 544.465 80.4774C555.439 80.4774 564.336 71.5809 564.336 60.6065C564.336 49.632 555.439 40.7355 544.465 40.7355C533.49 40.7355 524.594 49.632 524.594 60.6065Z" fill="#D6E4FF"/>
<path fill-rule="evenodd" clip-rule="evenodd" d="M79.4841 60.6065C79.4841 71.5809 88.3807 80.4774 99.3551 80.4774C110.33 80.4774 119.226 71.5809 119.226 60.6065C119.226 49.632 110.33 40.7355 99.3551 40.7355C88.3807 40.7355 79.4841 49.632 79.4841 60.6065Z" fill="#D6E4FF"/>
<path fill-rule="evenodd" clip-rule="evenodd" d="M969.703 60.6065C969.703 71.5809 978.6 80.4774 989.574 80.4774C1000.55 80.4774 1009.45 71.5809 1009.45 60.6065C1009.45 49.632 1000.55 40.7355 989.574 40.7355C978.6 40.7355 969.703 49.632 969.703 60.6065Z" fill="#D6E4FF"/>
<path fill-rule="evenodd" clip-rule="evenodd" d="M826.632 68.555C826.632 75.1396 831.97 80.4775 838.554 80.4775C845.139 80.4775 850.477 75.1396 850.477 68.555C850.477 61.9703 845.139 56.6324 838.554 56.6324C831.97 56.6324 826.632 61.9703 826.632 68.555Z" fill="#FFA940"/>
<path fill-rule="evenodd" clip-rule="evenodd" d="M381.522 68.555C381.522 75.1396 386.86 80.4775 393.445 80.4775C400.03 80.4775 405.367 75.1396 405.367 68.555C405.367 61.9703 400.03 56.6324 393.445 56.6324C386.86 56.6324 381.522 61.9703 381.522 68.555Z" fill="#FFA940"/>
</svg>
