<svg width="768" height="656" viewBox="0 0 768 656" fill="none" xmlns="http://www.w3.org/2000/svg">
<path d="M236.361 601.249C236.116 601.263 235.872 601.198 235.666 601.062C235.461 600.927 235.305 600.729 235.221 600.497C234.928 599.72 235.292 599.18 235.835 598.644C238.26 596.251 240.657 593.83 243.064 591.423L274.475 560.011C275.15 559.337 275.848 558.504 276.826 559.439C277.885 560.463 277.013 561.204 276.293 561.931C263.502 574.719 250.712 587.506 237.921 600.292C237.452 600.737 237.074 601.316 236.361 601.249Z" fill="#597EF7"/>
<path d="M160.786 578.923C160.899 580.049 160.472 580.561 159.784 580.688C158.852 580.843 158.464 580.215 158.245 579.378C157.168 575.309 156.05 571.261 154.963 567.188C151.334 553.637 147.71 540.085 144.088 526.532C144.007 526.313 143.938 526.089 143.88 525.862C143.746 525.039 143.859 524.256 144.794 524.037C145.73 523.818 146.167 524.39 146.4 525.244C147.395 528.971 148.444 532.684 149.439 536.411C153.154 550.294 156.864 564.184 160.567 578.083C160.67 578.464 160.768 578.859 160.786 578.923Z" fill="#597EF7"/>
<path d="M49.7967 619.931C50.972 620.231 52.5038 620.608 54.032 621.018L102.629 634.048C103.028 634.134 103.42 634.252 103.8 634.401C104.376 634.659 104.796 635.107 104.647 635.778C104.499 636.448 104.033 636.939 103.26 636.836C102.624 636.75 101.994 636.619 101.376 636.445C84.2156 631.849 67.0567 627.251 49.8991 622.648C49.5575 622.564 49.2206 622.461 48.8897 622.341C48.212 622.08 47.7991 621.593 47.9791 620.848C48.1591 620.104 48.6673 619.786 49.7967 619.931Z" fill="#597EF7"/>
<path d="M92.2131 566.878C92.1838 567.135 92.0919 567.38 91.9454 567.592C91.7989 567.805 91.6023 567.978 91.3731 568.096C91.1355 568.218 90.8635 568.257 90.6014 568.205C90.3392 568.153 90.1024 568.014 89.9295 567.81C88.7754 566.723 87.6601 565.597 86.5413 564.475L69.8648 547.781C69.7836 547.699 69.6919 547.625 69.6107 547.541C68.9048 546.81 68.0401 546.005 69.0848 545.028C70.006 544.159 70.7789 544.894 71.4707 545.596C73.1189 547.269 74.7848 548.924 76.4472 550.583C81.3036 555.439 86.1601 560.296 91.0166 565.152C91.5072 565.643 92.1072 566.07 92.2131 566.878Z" fill="#597EF7"/>
<path d="M302.347 624.817C302.012 624.875 301.667 624.8 301.387 624.606C301.107 624.413 300.914 624.117 300.851 623.782C300.628 622.95 301.115 622.462 301.91 622.251L308.509 620.486L329.824 614.737C330.752 614.486 331.673 614.43 332.008 615.527C332.361 616.71 331.422 617.02 330.544 617.257C321.292 619.746 312.041 622.228 302.792 624.704L302.347 624.817Z" fill="#597EF7"/>
<path d="M221.693 506.27C221.121 508.366 220.405 510.957 219.713 513.551C217.92 520.257 216.148 526.987 214.345 533.7C214.112 534.575 213.946 535.761 212.654 535.507C211.465 535.274 211.444 534.346 211.733 533.291C213.999 524.947 216.244 516.594 218.467 508.232C218.739 507.215 218.997 506.195 219.314 505.193C219.533 504.487 220.045 504.074 220.786 504.293C221.446 504.505 221.891 504.974 221.693 506.27Z" fill="#597EF7"/>
<path d="M236.792 654.84H263.922C264.393 654.815 264.866 654.829 265.334 654.883C265.637 654.941 265.91 655.103 266.105 655.342C266.301 655.58 266.406 655.88 266.403 656.188C266.4 656.497 266.289 656.794 266.089 657.029C265.889 657.264 265.613 657.421 265.309 657.473C264.841 657.528 264.369 657.543 263.898 657.516H208.934C208.02 657.516 207.039 657.477 207.007 656.256C206.975 654.964 207.939 654.844 208.959 654.844C217.707 654.844 226.455 654.844 235.204 654.844L236.792 654.84Z" fill="#FFC069"/>
<path d="M126.226 657.521H99.0988C98.5716 657.546 98.0432 657.52 97.5211 657.443C97.2256 657.397 96.9592 657.239 96.7777 657.002C96.5961 656.764 96.5134 656.466 96.547 656.169C96.5247 655.871 96.615 655.576 96.8 655.342C96.985 655.108 97.2512 654.952 97.5458 654.905C98.0698 654.836 98.5992 654.816 99.127 654.845H153.219C153.572 654.845 153.925 654.845 154.278 654.845C155.128 654.863 155.809 655.145 155.855 656.116C155.905 657.206 155.178 657.528 154.249 657.528C151.842 657.528 149.432 657.528 147.025 657.528L126.226 657.521Z" fill="#FFC069"/>
<path d="M195.064 634.314C193.881 634.356 193.299 633.212 193.857 632.15C194.975 630.092 196.168 628.077 197.337 626.051C205.407 612.061 213.48 598.071 221.555 584.083C221.732 583.779 221.908 583.48 222.095 583.176C222.53 582.438 223.193 582.248 223.892 582.636C224.693 583.084 224.781 583.762 224.298 584.577C223.161 586.49 222.074 588.435 220.962 590.358C212.788 604.497 204.615 618.636 196.444 632.775C196.062 633.435 195.745 634.134 195.064 634.314Z" fill="#FFC069"/>
<path d="M169.302 632.985C169.302 633.613 168.904 633.93 168.424 634.195C168.217 634.316 167.971 634.352 167.738 634.294C167.506 634.237 167.305 634.091 167.178 633.888C166.885 633.525 166.624 633.138 166.398 632.73C157.327 617.025 148.26 601.319 139.196 585.613C139.076 585.412 138.974 585.2 138.844 585.002C138.286 584.166 137.816 583.262 139.002 582.634C140.188 582.006 140.668 582.966 141.155 583.802C144.285 589.214 147.419 594.633 150.558 600.059C156.579 610.501 162.596 620.948 168.611 631.4C168.9 631.905 169.274 632.367 169.302 632.985Z" fill="#FFC069"/>
<path d="M181.479 539.381C181.479 547.725 181.479 556.067 181.479 564.408C181.495 564.879 181.484 565.351 181.444 565.82C181.426 566.119 181.298 566.4 181.084 566.609C180.869 566.818 180.585 566.939 180.286 566.95C180.124 566.973 179.958 566.964 179.8 566.924C179.641 566.883 179.491 566.812 179.36 566.713C179.229 566.615 179.119 566.492 179.035 566.35C178.952 566.209 178.897 566.053 178.874 565.891C178.803 565.367 178.783 564.837 178.814 564.31C178.814 547.686 178.814 531.061 178.814 514.435C178.814 514.259 178.814 514.082 178.814 513.906C178.779 512.847 178.814 511.721 180.205 511.742C181.486 511.767 181.475 512.868 181.475 513.86C181.475 521.498 181.475 529.134 181.475 536.77L181.479 539.381Z" fill="#FFC069"/>
<path d="M258.9 612.154C258.075 612.207 257.609 612.002 257.429 611.416C257.288 611.089 257.284 610.719 257.416 610.388C257.549 610.057 257.807 609.792 258.134 609.652C259.924 608.656 261.664 607.597 263.446 606.574C276.359 599.12 289.277 591.674 302.199 584.236C303.085 583.728 304.215 582.334 305.164 583.947C306.082 585.503 304.458 585.895 303.519 586.439C289.15 594.766 274.776 603.077 260.397 611.374C259.86 611.702 259.275 611.963 258.9 612.154Z" fill="#FFC069"/>
<path d="M102.981 610.845C103.006 612.06 102.007 612.532 100.712 611.805C97.3413 609.914 94.006 607.976 90.653 606.042C79.3966 599.545 68.1471 593.037 56.9048 586.517C55.9554 585.967 54.1589 585.6 55.1789 583.923C56.1495 582.328 57.2966 583.771 58.1577 584.276C72.6283 592.584 87.0813 600.923 101.517 609.292C102.155 609.652 102.999 609.864 102.981 610.845Z" fill="#FFC069"/>
<path d="M181.483 612.494C181.483 620.428 181.483 628.362 181.483 636.296C181.509 636.885 181.499 637.474 181.454 638.061C181.429 638.359 181.296 638.638 181.079 638.844C180.863 639.05 180.578 639.17 180.279 639.18C179.953 639.219 179.624 639.131 179.361 638.933C179.098 638.736 178.921 638.445 178.867 638.121C178.802 637.653 178.789 637.18 178.828 636.709V588.226C178.828 587.873 178.807 587.52 178.828 587.167C178.896 586.313 179.238 585.681 180.216 585.706C181.098 585.73 181.423 586.323 181.476 587.118C181.511 587.587 181.476 588.056 181.476 588.529L181.483 612.494Z" fill="#FA8C16"/>
<path d="M120.402 620.243C120.738 620.423 121.154 620.631 121.553 620.864C135.791 629.075 150.026 637.292 164.259 645.513C165.064 645.979 166.108 646.381 165.406 647.631C164.746 648.795 163.92 648.315 163.038 647.807C148.857 639.612 134.671 631.426 120.48 623.25C120.064 623.037 119.672 622.779 119.312 622.48C119.093 622.326 118.943 622.092 118.892 621.829C118.841 621.566 118.894 621.293 119.04 621.068C119.165 620.816 119.36 620.604 119.601 620.457C119.843 620.311 120.12 620.237 120.402 620.243Z" fill="#FA8C16"/>
<path d="M196.179 648.387C195.871 648.387 195.571 648.293 195.318 648.117C195.066 647.941 194.873 647.691 194.767 647.402C194.478 646.661 194.887 646.185 195.501 645.828L201.582 642.299L238.062 621.239C238.366 621.062 238.68 620.886 238.977 620.713C239.792 620.194 240.593 619.887 241.218 620.953C241.892 622.096 240.96 622.545 240.233 622.993C238.821 623.854 237.409 624.652 235.998 625.463L197.527 647.656C197.075 647.942 196.602 648.168 196.179 648.387Z" fill="#FA8C16"/>
<path d="M155.298 630.111C155.27 630.33 155.189 630.539 155.062 630.72C154.934 630.9 154.764 631.046 154.567 631.145C153.886 631.463 153.304 631.226 152.802 630.736C151.261 629.211 149.722 627.682 148.186 626.148L124.539 602.501L124.165 602.126C123.459 601.421 122.831 600.598 123.755 599.726C124.581 598.95 125.358 599.501 126.028 600.185C127.345 601.53 128.682 602.846 130.009 604.174C138.064 612.228 146.118 620.282 154.172 628.336C154.662 628.802 155.259 629.236 155.298 630.111Z" fill="#2F54EB"/>
<path d="M201.717 580.728C201.011 583.4 200.248 586.34 199.465 589.277C196.776 599.333 194.084 609.385 191.39 619.432C191.316 619.714 191.178 619.986 191.132 620.268C190.956 621.327 190.37 621.938 189.311 621.613C188.252 621.288 188.383 620.466 188.605 619.587C190.553 612.364 192.488 605.133 194.411 597.896C195.905 592.305 197.398 586.713 198.89 581.12C198.985 580.722 199.103 580.33 199.243 579.945C199.5 579.271 199.991 578.868 200.739 579.02C201.487 579.172 201.805 579.694 201.717 580.728Z" fill="#2F54EB"/>
<path d="M216.173 647.869C215.397 647.905 214.843 647.672 214.712 646.881C214.56 645.963 214.987 645.508 215.894 645.272C220.193 644.142 224.474 642.953 228.77 641.802C237.41 639.482 246.051 637.172 254.693 634.87C254.975 634.796 255.268 634.754 255.547 634.673C256.426 634.429 257.111 634.673 257.33 635.576C257.548 636.48 256.948 636.96 256.119 637.186C252.734 638.1 249.35 639.032 245.961 639.939C236.472 642.473 226.98 645.001 217.486 647.523L216.173 647.869Z" fill="#2F54EB"/>
<path d="M296.393 654.839C299.622 654.839 302.852 654.857 306.081 654.839C307.14 654.839 308.079 655.033 308.047 656.251C308.019 657.391 307.062 657.522 306.109 657.522C299.479 657.507 292.846 657.507 286.211 657.522C285.244 657.522 284.329 657.352 284.329 656.202C284.329 655.051 285.184 654.825 286.179 654.832C289.567 654.853 292.973 654.839 296.393 654.839Z" fill="#FFE7BA"/>
<path d="M66.7308 654.839C70.0131 654.839 73.2955 654.839 76.5778 654.839C77.6119 654.839 78.5755 655.019 78.5613 656.251C78.5613 657.416 77.5802 657.518 76.6413 657.518C70.0178 657.518 63.3931 657.518 56.7672 657.518C55.8249 657.518 54.9107 657.426 54.9037 656.209C54.9037 654.874 55.8884 654.832 56.8802 654.832C60.166 654.846 63.4519 654.839 66.7308 654.839Z" fill="#FFE7BA"/>
<path d="M118.772 546.36C119.478 546.36 119.831 546.861 120.11 547.362C123.545 553.279 126.967 559.205 130.377 565.139C130.811 565.895 130.828 566.576 129.995 567.095C129.103 567.649 128.552 567.165 128.132 566.442C124.645 560.416 121.168 554.387 117.703 548.354C117.571 548.161 117.494 547.936 117.481 547.703C117.469 547.469 117.52 547.237 117.631 547.031C117.741 546.826 117.906 546.654 118.107 546.536C118.308 546.417 118.538 546.356 118.772 546.36Z" fill="#FFE7BA"/>
<path d="M233.57 567.332C232.359 567.244 231.953 566.143 232.666 564.886C234.593 561.484 236.549 558.106 238.518 554.718C239.891 552.343 241.278 549.971 242.644 547.592C243.149 546.71 243.759 545.923 244.85 546.618C245.873 547.271 245.344 548.125 244.892 548.912C241.622 554.576 238.352 560.241 235.084 565.91C234.703 566.559 234.382 567.297 233.57 567.332Z" fill="#FFE7BA"/>
<path d="M205.938 631.932C205.151 631.865 204.759 631.607 204.575 631.138C204.279 630.372 204.643 629.818 205.19 629.278C207.611 626.885 210.007 624.464 212.414 622.053C214.281 620.183 216.159 618.326 218.015 616.445C218.721 615.739 219.501 615.083 220.401 615.99C221.224 616.819 220.648 617.571 219.971 618.245C215.644 622.553 211.323 626.868 207.007 631.191C206.633 631.565 206.273 631.957 205.938 631.932Z" fill="#2F54EB"/>
<path d="M144.833 648.078L138.353 646.338C134.414 645.282 130.474 644.223 126.533 643.162C125.654 642.929 124.938 642.526 125.21 641.482C125.481 640.437 126.18 640.366 127.133 640.624C133.133 642.265 139.175 643.857 145.197 645.466C145.994 645.682 146.647 646.063 146.474 647.026C146.33 647.859 145.782 648.226 144.833 648.078Z" fill="#2F54EB"/>
<path d="M172.034 620.83C172.147 621.96 171.71 622.394 170.997 622.507C170.16 622.637 169.726 622.154 169.518 621.374C168.678 618.222 167.813 615.074 166.959 611.926C166.197 609.102 165.424 606.303 164.675 603.49C164.432 602.573 164.153 601.542 165.473 601.242C166.624 600.981 166.924 601.81 167.178 602.756C168.748 608.668 170.354 614.569 171.967 620.474C172.008 620.589 172.03 620.709 172.034 620.83Z" fill="#2F54EB"/>
<path d="M116.291 590.884C116.22 591.943 114.918 592.649 114.208 591.999C112.242 590.164 110.372 588.223 108.501 586.281C108.018 585.78 108.208 585.223 108.678 584.725C109.147 584.227 109.737 584.065 110.241 584.51C112.299 586.331 114.237 588.284 116.04 590.358C116.153 590.517 116.238 590.695 116.291 590.884Z" fill="#2F54EB"/>
<path d="M202.807 566.605C203.432 564.318 204.095 561.9 204.752 559.482C204.985 558.621 205.599 558.356 206.365 558.579C207.131 558.801 207.477 559.398 207.251 560.22C206.605 562.581 205.945 564.939 205.299 567.303C205.084 568.098 204.611 568.581 203.778 568.362C203.03 568.136 202.613 567.586 202.807 566.605Z" fill="#2F54EB"/>
<path d="M269.457 633.636C269.128 633.675 268.796 633.588 268.53 633.391C268.264 633.194 268.083 632.903 268.024 632.577C267.883 631.963 268.052 631.367 268.73 631.165C271.257 630.46 273.784 629.754 276.325 629.094C276.483 629.047 276.649 629.035 276.812 629.058C276.974 629.081 277.131 629.137 277.27 629.225C277.41 629.312 277.529 629.428 277.62 629.565C277.712 629.702 277.773 629.856 277.8 630.018C277.973 630.696 277.8 631.324 277.006 631.547C274.511 632.252 271.963 632.948 269.457 633.636Z" fill="#2F54EB"/>
<path d="M776.131 325.447C776.624 325.892 776.507 326.461 776.456 327.023L773.847 356.359C772.823 367.878 771.794 379.396 770.759 390.912C770.719 391.405 770.637 391.908 770.608 392.406C770.541 393.404 770.24 394.168 769.037 393.976C767.93 393.822 767.866 393.018 767.956 392.15C768.222 389.222 768.489 386.294 768.755 383.365L772.889 337.032C773.193 333.535 773.503 330.047 773.821 326.571C773.877 325.94 773.957 325.258 774.736 325.122C775.216 325.037 775.753 324.973 776.131 325.447Z" fill="#ADC6FF"/>
<path d="M791.974 149.786C792.21 150.207 792.286 150.699 792.187 151.171C791.092 163.208 790.009 175.239 788.939 187.263C788.106 196.614 787.302 205.969 786.434 215.323C786.333 216.425 786.9 218.259 784.986 218.22C782.939 218.18 783.721 216.423 783.828 215.315C784.815 203.78 785.836 192.247 786.892 180.717C787.728 171.302 788.564 161.889 789.4 152.478C789.433 151.727 789.533 150.98 789.698 150.247C789.774 150.025 789.907 149.827 790.084 149.673C790.261 149.518 790.474 149.413 790.704 149.366C790.934 149.32 791.172 149.334 791.395 149.408C791.617 149.481 791.817 149.612 791.974 149.786Z" fill="#ADC6FF"/>
<path d="M668.872 323.609C668.061 322.403 668.87 321.786 669.935 321.291C673.547 319.611 677.17 317.942 680.785 316.265C696.663 308.905 712.547 301.54 728.436 294.17C728.662 294.066 728.902 293.986 729.123 293.877C730.017 293.435 730.965 293.057 731.5 294.268C732.035 295.479 731.066 295.911 730.187 296.321C710.472 305.473 690.755 314.625 671.037 323.777C670.326 324.094 669.618 324.418 668.872 323.609Z" fill="#ADC6FF"/>
<path d="M679.749 202.752C679.23 202.334 679.15 201.583 679.685 200.931C680.354 200.119 681.179 200.502 681.866 200.982C684.474 202.802 687.054 204.668 689.657 206.5C699.452 213.388 709.255 220.28 719.065 227.176C724.584 231.048 730.11 234.908 735.642 238.753C736.443 239.31 736.762 240.034 736.286 240.83C735.764 241.698 734.979 241.562 734.191 241.008C728.981 237.348 723.753 233.717 718.53 230.048C708.004 222.664 697.484 215.272 686.969 207.874C684.634 206.236 682.289 204.551 679.749 202.752Z" fill="#ADC6FF"/>
<path d="M623.923 285.471C623.757 285.262 623.648 285.014 623.604 284.751C623.561 284.487 623.586 284.217 623.676 283.966C623.931 283.29 624.506 283.136 625.175 283.075C629.415 282.742 633.653 282.38 637.894 282.031C651.479 280.908 665.069 279.785 678.663 278.664C682.342 278.36 686.02 278.065 689.697 277.777C690.722 277.695 691.662 277.793 691.667 279.119C691.67 280.357 690.717 280.367 689.804 280.45C668.538 282.194 647.279 283.949 626.029 285.713C625.3 285.766 624.533 285.915 623.923 285.471Z" fill="#ADC6FF"/>
<path d="M714.643 413.146C714.002 413.921 713.312 413.945 712.697 413.532C711.981 413.061 712.122 412.345 712.431 411.669C713.503 409.351 714.586 407.037 715.681 404.729C723.749 387.667 731.821 370.605 739.895 353.543C740.052 353.273 740.189 352.993 740.308 352.704C740.646 351.685 741.378 351.506 742.238 351.898C743.098 352.289 743.047 353.053 742.693 353.812C741.24 356.912 739.784 360.011 738.325 363.11C730.66 379.336 722.995 395.559 715.33 411.778C715.088 412.297 714.822 412.792 714.643 413.146Z" fill="#ADC6FF"/>
<path d="M692.476 142.849C694.233 145.351 695.998 147.846 697.739 150.364C705.552 161.662 713.357 172.963 721.155 184.268C723.926 188.274 726.676 192.291 729.476 196.279C730.065 197.117 730.602 197.9 729.58 198.704C728.446 199.588 727.844 198.566 727.331 197.844C724.357 193.604 721.44 189.318 718.49 185.053L697.596 154.868C695.218 151.426 692.841 147.984 690.464 144.542C689.961 143.815 689.91 143.089 690.634 142.583C690.77 142.473 690.927 142.392 691.096 142.346C691.264 142.3 691.441 142.289 691.613 142.314C691.786 142.339 691.952 142.399 692.101 142.491C692.249 142.583 692.377 142.705 692.476 142.849Z" fill="#ADC6FF"/>
<path d="M662.835 241.676C662.616 241.456 662.47 241.174 662.418 240.868C662.365 240.562 662.409 240.248 662.542 239.967C662.912 239.155 663.596 239.222 664.296 239.406C666.825 240.071 669.358 240.744 671.894 241.423L711.122 251.949C711.423 252.032 711.718 252.141 712.024 252.202C712.9 252.391 713.416 252.886 713.179 253.783C712.943 254.68 712.296 255.029 711.297 254.76C708.295 253.924 705.273 253.144 702.262 252.338L664.658 242.243C664.001 242.065 663.354 241.839 662.835 241.676Z" fill="#ADC6FF"/>
<path d="M749.846 154.464C749.998 154.946 750.158 155.414 750.291 155.893C754.484 171.502 758.679 187.11 762.874 202.716C763.143 203.72 763.218 204.657 761.972 204.955C760.782 205.245 760.537 204.367 760.284 203.448C756.133 187.893 751.972 172.34 747.802 156.791C747.663 156.313 747.575 155.822 747.541 155.326C747.517 155.074 747.589 154.822 747.743 154.62C747.897 154.419 748.122 154.283 748.372 154.24C748.62 154.177 748.878 154.164 749.132 154.202C749.385 154.241 749.628 154.33 749.846 154.464Z" fill="#ADC6FF"/>
<path d="M711.649 338.27C717.142 332.777 722.633 327.285 728.124 321.795C728.508 321.383 728.915 320.994 729.344 320.629C729.454 320.517 729.587 320.43 729.734 320.372C729.88 320.315 730.037 320.289 730.194 320.296C730.351 320.302 730.505 320.342 730.646 320.412C730.787 320.481 730.912 320.58 731.013 320.7C731.258 320.903 731.415 321.193 731.45 321.509C731.485 321.825 731.395 322.143 731.199 322.393C730.901 322.8 730.562 323.175 730.187 323.512C719.071 334.628 707.955 345.744 696.84 356.859C696.464 357.279 696.05 357.664 695.605 358.009C695.353 358.204 695.035 358.293 694.719 358.256C694.402 358.218 694.113 358.058 693.914 357.809C693.796 357.705 693.7 357.577 693.633 357.434C693.565 357.291 693.528 357.136 693.522 356.978C693.517 356.82 693.543 356.663 693.601 356.516C693.658 356.368 693.745 356.234 693.856 356.122C694.18 355.738 694.537 355.387 694.894 355.03C700.482 349.438 706.067 343.851 711.649 338.27Z" fill="#ADC6FF"/>
<path d="M639.084 234.789C638.517 235.217 637.897 235.098 637.287 234.935C630.256 233.05 623.221 231.162 616.183 229.27C615.264 229.023 614.745 228.578 614.985 227.54C615.246 226.385 616.079 226.504 616.891 226.699C624.05 228.598 631.205 230.514 638.357 232.449C639.518 232.795 639.867 234.07 639.084 234.789Z" fill="#ADC6FF"/>
<path d="M737.226 107.285C737.311 107.53 737.479 107.932 737.593 108.35C739.43 115.223 741.267 122.098 743.104 128.975C743.335 129.846 743.663 130.753 742.457 131.134C741.251 131.515 740.793 130.668 740.54 129.691C738.684 122.752 736.828 115.816 734.974 108.882C734.78 108.155 734.527 107.333 735.402 106.888C735.698 106.701 736.054 106.638 736.396 106.712C736.737 106.787 737.035 106.992 737.226 107.285Z" fill="#ADC6FF"/>
<path d="M667.328 382.59C669.801 380.117 672.277 377.642 674.753 375.166C675.37 374.548 676.036 373.787 676.967 374.644C677.947 375.539 677.364 376.324 676.656 377.037C671.619 382.074 666.582 387.112 661.543 392.15C660.854 392.839 660.061 393.468 659.148 392.501C658.274 391.58 659.028 390.901 659.64 390.284C662.193 387.71 664.767 385.151 667.328 382.59Z" fill="#ADC6FF"/>
<path d="M705.521 278.961C704.943 278.325 704.781 277.875 704.938 277.345C705.145 276.605 705.736 276.488 706.391 276.424C710.434 276.09 714.477 275.748 718.519 275.397C721.378 275.152 724.243 274.917 727.102 274.672C728.079 274.585 729.069 274.51 729.226 275.838C729.391 277.239 728.345 277.252 727.395 277.34L706.703 279.078C706.215 279.123 705.702 279.142 705.521 278.961Z" fill="#ADC6FF"/>
<path d="M749.429 339.543C749.214 339.808 748.905 339.979 748.566 340.019C748.228 340.059 747.887 339.966 747.616 339.759C746.934 339.29 747.001 338.612 747.315 337.93C748.178 336.131 749.013 334.336 749.86 332.537C751.974 328.038 754.086 323.538 756.198 319.038C756.616 318.141 757.117 317.267 758.261 317.778C759.406 318.29 759.089 319.261 758.658 320.161C755.721 326.335 752.788 332.51 749.86 338.686C749.695 339.016 749.527 339.344 749.429 339.543Z" fill="#ADC6FF"/>
<path d="M739.326 210.479L748.175 223.278C749.131 224.659 750.038 226.078 751.045 227.425C751.63 228.213 752.016 229.014 751.17 229.717C750.323 230.42 749.522 229.89 748.966 229.11C744.914 223.284 740.868 217.452 736.827 211.615C736.313 210.867 736.504 210.175 737.231 209.672C738.078 209.086 738.631 209.608 739.326 210.479Z" fill="#ADC6FF"/>
<path d="M669.724 192.457C670.43 193.088 670.728 193.653 670.188 194.369C669.647 195.085 669.024 195.228 668.263 194.696C664.286 191.906 660.298 189.132 656.318 186.345C655.578 185.823 655.413 185.121 655.978 184.407C656.542 183.694 657.207 183.71 657.931 184.232C661.294 186.593 664.672 188.938 668.042 191.286L669.724 192.457Z" fill="#ADC6FF"/>
<path d="M767.701 422.354C767.515 422.591 767.253 422.756 766.959 422.823C766.666 422.89 766.358 422.854 766.088 422.721C765.475 422.476 765.345 421.941 765.398 421.329C765.624 418.648 765.835 415.968 766.066 413.292C766.245 411.234 766.447 409.185 766.636 407.127C766.719 406.251 766.987 405.423 768.039 405.49C769.173 405.559 769.362 406.387 769.269 407.39C768.854 412.001 768.473 416.609 768.074 421.22C768.091 421.631 767.959 422.034 767.701 422.354Z" fill="#ADC6FF"/>
<path d="M657.998 329.817C653.26 331.999 648.58 334.172 643.863 336.275C643.303 336.525 642.635 336.283 642.396 335.495C642.124 334.611 642.438 334.068 643.256 333.692C645.694 332.585 648.135 331.475 650.55 330.338C652.472 329.449 654.383 328.544 656.31 327.66C657.002 327.341 657.66 327.375 658.115 328.081C658.509 328.704 658.331 329.265 657.998 329.817Z" fill="#ADC6FF"/>
<path d="M631.438 425.126C631.137 425.324 630.779 425.42 630.419 425.399C630.059 425.377 629.715 425.24 629.439 425.007C628.498 424.235 628.563 423.283 628.86 422.203C630.185 417.385 631.454 412.553 632.746 407.73L649.609 344.797C649.971 343.446 650.248 341.876 652.175 342.347C654.271 342.87 653.707 344.451 653.326 345.902C646.457 371.525 639.588 397.147 632.719 422.767C632.448 423.676 632.393 424.688 631.438 425.126Z" fill="#FFA940"/>
<path d="M571.805 647.923C572.356 648.878 571.874 649.772 571.635 650.663C565.673 672.954 559.704 695.242 553.73 717.527C552.817 720.936 551.905 724.346 550.993 727.757C550.638 729.109 550.088 730.33 548.387 729.859C546.687 729.388 546.896 728.042 547.255 726.717C554.186 700.851 561.111 674.986 568.032 649.121C568.318 648.054 568.691 647.157 569.892 646.929C570.277 646.847 570.678 646.901 571.027 647.083C571.376 647.264 571.651 647.561 571.805 647.923Z" fill="#FFA940"/>
<path d="M519.073 452.188C520.042 453.535 519.875 454.498 519.094 455.164C518.024 456.045 517.071 455.532 516.179 454.63C511.828 450.25 507.438 445.929 503.07 441.553C488.525 427.002 473.983 412.447 459.444 397.888C459.18 397.668 458.928 397.435 458.688 397.189C457.915 396.243 457.484 395.165 458.511 394.201C459.539 393.237 460.514 393.642 461.436 394.556C465.433 398.56 469.488 402.508 473.485 406.512C488.385 421.42 503.283 436.343 518.179 451.281C518.589 451.691 519.004 452.12 519.073 452.188Z" fill="#FFA940"/>
<path d="M712.722 504.074C716.606 503.027 720.888 501.798 725.195 500.645C746.818 494.871 768.441 489.106 790.062 483.349C790.478 483.24 790.882 483.091 791.296 483.001C792.546 482.722 793.839 482.591 794.171 484.222C794.465 485.684 793.531 486.385 792.19 486.735C786.964 488.108 781.749 489.511 776.532 490.91L715.654 507.217C714.922 507.463 714.175 507.659 713.416 507.804C712.41 507.924 711.473 507.647 711.167 506.538C710.862 505.429 711.277 504.687 712.722 504.074Z" fill="#FFA940"/>
<path d="M408.17 585.67C409.883 585.189 412.105 584.545 414.347 583.945L485.628 564.858C486.199 564.675 486.783 564.537 487.375 564.447C488.295 564.353 489.157 564.614 489.461 565.574C489.764 566.535 489.532 567.5 488.475 567.936C487.603 568.293 486.707 568.589 485.794 568.821C460.628 575.568 435.461 582.31 410.293 589.046C409.797 589.189 409.294 589.306 408.785 589.397C407.733 589.562 406.852 589.246 406.534 588.168C406.217 587.09 406.629 586.314 408.17 585.67Z" fill="#FFA940"/>
<path d="M423.142 487.18C423.293 487.527 423.356 487.905 423.325 488.283C423.295 488.66 423.172 489.024 422.968 489.342C422.756 489.672 422.439 489.92 422.067 490.046C421.696 490.173 421.294 490.17 420.925 490.038C418.661 489.503 416.419 488.891 414.175 488.286L380.751 479.311C380.588 479.267 380.417 479.241 380.252 479.192C378.82 478.782 377.131 478.394 377.741 476.386C378.274 474.608 379.795 474.974 381.188 475.358C384.509 476.275 387.838 477.155 391.166 478.043C400.896 480.65 410.626 483.258 420.356 485.865C421.339 486.128 422.414 486.231 423.142 487.18Z" fill="#FFA940"/>
<path d="M732.535 406.668C732.152 406.989 731.658 407.146 731.161 407.105C730.663 407.065 730.201 406.83 729.875 406.452C728.982 405.557 729.244 404.581 730.097 403.73L737.186 396.649L760.042 373.716C761.038 372.717 762.166 371.969 763.397 373.118C764.712 374.361 763.748 375.444 762.805 376.388C752.879 386.335 742.95 396.272 733.017 406.199L732.535 406.668Z" fill="#FFA940"/>
<path d="M543.156 315.242C543.967 318.324 544.957 322.14 545.98 325.942C548.621 335.775 551.306 345.623 553.938 355.472C554.284 356.755 554.943 358.383 553.116 359.007C551.434 359.584 550.727 358.42 550.32 356.868C547.08 344.608 543.806 332.352 540.497 320.1C540.097 318.61 539.676 317.125 539.345 315.619C539.105 314.562 539.452 313.662 540.554 313.397C541.548 313.182 542.457 313.452 543.156 315.242Z" fill="#FFA940"/>
<path d="M741.959 675.046C743.121 676.438 742.865 677.392 742.165 678.084C741.129 679.106 740.126 678.549 739.249 677.681C735.234 673.699 731.204 669.732 727.207 665.728C712.357 650.87 697.517 636.003 682.687 621.126C682.312 620.745 681.951 620.41 681.617 620.017C680.876 619.148 680.516 618.183 681.451 617.267C682.387 616.35 683.436 616.563 684.379 617.472C687.412 620.502 690.446 623.532 693.482 626.561C709.421 642.511 725.359 658.462 741.295 674.414C741.657 674.772 742.033 675.123 741.959 675.046Z" fill="#FFA940"/>
<path d="M671.286 492.88L705.746 472.984C706.326 472.607 706.936 472.278 707.571 472.003C707.998 471.854 708.464 471.86 708.887 472.02C709.31 472.18 709.664 472.483 709.886 472.877C710.109 473.271 710.186 473.73 710.104 474.175C710.022 474.62 709.787 475.022 709.439 475.311C708.884 475.725 708.295 476.089 707.677 476.4L637.864 516.707C636.703 517.377 635.428 518.047 634.492 516.52C633.504 514.902 634.64 514.043 635.936 513.295C647.048 506.88 658.159 500.464 669.271 494.049L671.286 492.88Z" fill="#85A5FF"/>
<path d="M532.815 577.368L498.359 597.261C497.708 597.68 497.018 598.035 496.298 598.319C495.89 598.478 495.435 598.473 495.031 598.304C494.626 598.136 494.302 597.817 494.127 597.415C493.88 597.054 493.778 596.613 493.842 596.18C493.905 595.747 494.129 595.354 494.469 595.078C495.083 594.605 495.741 594.191 496.433 593.842L565.139 554.175C565.587 553.916 566.035 553.657 566.484 553.398C567.577 552.797 568.649 552.656 569.419 553.855C570.282 555.204 569.594 556.145 568.415 556.826C565.358 558.591 562.296 560.359 559.238 562.124L532.815 577.368Z" fill="#85A5FF"/>
<path d="M603.798 574.09C603.817 574.444 603.879 575.12 603.88 575.794L603.909 656.142C603.904 656.569 603.879 657.002 603.891 657.426C603.926 658.708 603.434 659.74 602.083 659.772C600.618 659.823 600.011 658.937 600.031 657.449C600.086 653.155 600.065 648.864 600.067 644.571C600.073 621.742 600.078 598.91 600.084 576.073C600.068 575.467 600.082 574.86 600.128 574.255C600.207 573.408 600.628 572.771 601.523 572.654C602.418 572.538 603.241 572.846 603.798 574.09Z" fill="#85A5FF"/>
<path d="M603.23 497.408C601.76 498.329 600.181 497.303 600.111 495.545C600.023 492.111 600.06 488.677 600.058 485.247C600.05 461.558 600.045 437.869 600.044 414.179C600.045 413.664 600.049 413.154 600.064 412.631C600.075 411.376 600.778 410.647 601.95 410.628C603.297 410.61 603.906 411.406 603.889 412.796C603.849 416.059 603.894 419.326 603.892 422.585C603.878 446.538 603.866 470.49 603.855 494.441C603.855 495.559 603.964 496.68 603.23 497.408Z" fill="#85A5FF"/>
<path d="M569.536 514.613C569.997 515.411 569.723 516.107 569.308 516.796C569.134 517.101 568.847 517.326 568.51 517.424C568.172 517.522 567.81 517.484 567.5 517.319C566.862 517.073 566.247 516.773 565.66 516.421C542.621 503.123 519.587 489.823 496.557 476.521C496.257 476.353 495.972 476.159 495.661 476.004C494.339 475.351 493.081 474.547 494.126 472.88C495.172 471.212 496.485 472.079 497.717 472.785C505.661 477.364 513.616 481.948 521.581 486.538C536.887 495.386 552.192 504.243 567.495 513.108C568.233 513.537 569.047 513.85 569.536 514.613Z" fill="#85A5FF"/>
<path d="M635.056 553.153C636.35 552.609 637.251 553.374 638.203 553.924L672.333 573.627L708.272 594.348C709.158 594.847 710.227 595.168 710.166 596.5C710.086 598.298 708.494 598.864 706.553 597.749C694.505 590.802 682.459 583.852 670.415 576.898C659.184 570.416 647.956 563.933 636.731 557.452C636.035 557.111 635.385 556.683 634.799 556.176C633.659 555.113 634.088 554.064 635.056 553.153Z" fill="#85A5FF"/>
<path d="M516.36 386.792C522.478 397.39 528.596 407.986 534.713 418.581C535.08 419.167 535.41 419.774 535.704 420.4C535.9 420.792 535.944 421.243 535.825 421.666C535.706 422.088 535.434 422.451 535.061 422.683C534.872 422.832 534.656 422.942 534.425 423.007C534.193 423.072 533.951 423.091 533.712 423.062C533.474 423.033 533.243 422.957 533.033 422.839C532.824 422.721 532.64 422.563 532.492 422.374C532.017 421.761 531.603 421.103 531.256 420.409C519.065 399.295 506.874 378.178 494.682 357.061C494.552 356.837 494.423 356.612 494.293 356.388C493.472 355.069 492.691 353.613 494.473 352.62C496.119 351.712 496.913 353.119 497.64 354.378C503.241 364.079 508.841 373.779 514.44 383.477L516.36 386.792Z" fill="#85A5FF"/>
<path d="M684.257 685.384L666.052 653.851C665.621 653.208 665.259 652.522 664.971 651.803C664.88 651.581 664.835 651.342 664.837 651.101C664.839 650.861 664.889 650.623 664.983 650.401C665.078 650.18 665.215 649.98 665.388 649.812C665.56 649.644 665.764 649.512 665.988 649.423C666.375 649.22 666.824 649.167 667.248 649.274C667.673 649.38 668.043 649.64 668.288 650.002C668.73 650.639 669.133 651.303 669.495 651.989L706.17 715.512C706.536 716.099 706.857 716.714 707.129 717.349C707.307 717.751 707.327 718.204 707.184 718.619C707.041 719.035 706.746 719.38 706.359 719.587C706.166 719.727 705.946 719.826 705.713 719.879C705.48 719.932 705.239 719.938 705.003 719.896C704.768 719.854 704.544 719.765 704.344 719.634C704.144 719.503 703.972 719.334 703.839 719.136C703.436 718.574 703.069 717.987 702.741 717.379L684.274 685.393L684.257 685.384Z" fill="#85A5FF"/>
<path d="M668.066 422.453C667.056 423.126 666.314 423.207 665.655 422.595C665.237 422.282 664.96 421.815 664.886 421.298C664.811 420.781 664.945 420.255 665.258 419.836C666.801 417.26 668.234 414.639 669.748 412.032C680.683 393.094 691.63 374.164 702.59 355.24C703.342 353.945 703.754 351.346 706.143 352.698C708.45 354.002 706.675 355.691 705.881 357.07C693.736 378.184 681.574 399.282 669.394 420.365C668.954 421.175 668.401 421.936 668.066 422.453Z" fill="#85A5FF"/>
<path d="M469.063 535.132C469.984 536.656 469.063 537.989 466.884 538.016C461.216 538.085 455.558 538.069 449.881 538.071C430.819 538.075 411.758 538.058 392.697 538.02C391.087 538.017 388.536 538.869 388.603 535.991C388.665 533.253 391.181 534.245 392.645 534.255C417.118 534.196 441.591 534.189 466.063 534.234C467.139 534.222 468.366 533.873 469.063 535.132Z" fill="#85A5FF"/>
<path d="M532.956 649.578C533.269 649.34 533.656 649.223 534.048 649.245C534.44 649.267 534.811 649.429 535.095 649.7C535.983 650.514 536.017 651.421 535.396 652.479C533.045 656.472 530.75 660.499 528.428 664.511L497.927 717.387C497.667 717.836 497.406 718.285 497.155 718.729C496.584 719.812 495.67 720.184 494.582 719.647C493.319 719.013 493.242 717.916 493.861 716.793C495.059 714.613 496.317 712.465 497.563 710.305L531.468 651.65C531.888 650.906 532.181 650.067 532.956 649.578Z" fill="#85A5FF"/>
<path d="M811.897 535.166C812.784 536.62 811.782 538.012 809.713 538.029C804.562 538.074 799.414 538.051 794.261 538.05L734.765 538.031C734.08 538.074 733.392 538.049 732.712 537.955C731.731 537.756 731.348 536.949 731.317 536.035C731.286 535.64 731.408 535.248 731.657 534.94C731.906 534.632 732.263 534.431 732.655 534.377C733.415 534.256 734.184 534.202 734.953 534.216C759.599 534.209 784.243 534.208 808.885 534.215C809.986 534.237 811.17 533.99 811.897 535.166Z" fill="#85A5FF"/>
<path d="M634.253 590.987C640.063 601.05 645.873 611.113 651.683 621.176C652.151 621.903 652.558 622.667 652.901 623.461C653.077 623.863 653.096 624.316 652.953 624.731C652.81 625.145 652.517 625.491 652.13 625.699C651.764 625.937 651.324 626.037 650.891 625.981C650.457 625.924 650.058 625.715 649.765 625.391C649.311 624.865 648.928 624.283 648.627 623.657C636.705 603.009 624.783 582.359 612.86 561.707C612.473 561.13 612.164 560.505 611.941 559.847C611.807 559.43 611.829 558.978 612.002 558.576C612.175 558.174 612.488 557.848 612.883 557.659C613.258 557.436 613.702 557.359 614.13 557.443C614.557 557.527 614.939 557.766 615.202 558.114C615.665 558.733 616.073 559.391 616.422 560.081C622.376 570.395 628.32 580.697 634.253 590.987Z" fill="#2F54EB"/>
<path d="M569.98 479.652C575.798 489.73 581.616 499.807 587.435 509.885C587.899 510.613 588.319 511.369 588.693 512.147C588.88 512.544 588.915 512.996 588.791 513.417C588.667 513.837 588.393 514.198 588.021 514.43C587.635 514.719 587.152 514.848 586.674 514.79C586.195 514.733 585.757 514.493 585.451 514.121C585.026 513.574 584.662 512.982 584.366 512.356L548.812 450.774C548.553 450.325 548.267 449.892 548.035 449.429C547.494 448.295 547.466 447.241 548.726 446.555C549.864 445.94 550.712 446.455 551.361 447.425C551.75 447.995 552.05 448.617 552.397 449.218L569.98 479.652Z" fill="#2F54EB"/>
<path d="M588.644 558.455C589.17 559.46 588.586 560.353 588.071 561.242L566.677 598.25C561.691 606.871 556.711 615.498 551.734 624.134C550.991 625.435 550.327 626.625 548.6 625.632C546.873 624.639 547.716 623.447 548.365 622.325C560.542 601.212 572.731 580.104 584.931 559.002C585.94 557.26 587.708 556.999 588.644 558.455Z" fill="#2F54EB"/>
<path d="M498.081 534.287C498.639 534.27 499.321 534.229 499.998 534.232C524.104 534.222 548.211 534.219 572.318 534.224C573.682 534.225 575.304 533.97 575.328 536.072C575.344 538.036 573.943 538.032 572.449 538.033C548.427 538.023 524.405 538.029 500.385 538.05C499.7 538.085 499.013 538.045 498.337 537.929C497.945 537.893 497.583 537.707 497.326 537.41C497.069 537.113 496.936 536.728 496.956 536.335C496.93 535.922 497.022 535.51 497.221 535.148C497.42 534.785 497.719 534.487 498.081 534.287Z" fill="#2F54EB"/>
<path d="M614.969 514.465C614.578 514.691 614.127 514.791 613.678 514.753C613.228 514.714 612.801 514.539 612.454 514.25C611.543 513.521 611.713 512.615 612.232 511.712L617.368 502.769L648.26 449.268C648.516 448.821 648.785 448.366 649.035 447.929C649.69 446.672 650.483 445.695 652.058 446.591C653.753 447.549 652.898 448.801 652.303 449.904C651.141 452.033 649.933 454.081 648.735 456.148L616.146 512.548C615.782 513.243 615.347 513.877 614.969 514.465Z" fill="#2F54EB"/>
<path d="M703.571 535.08C704.375 536.606 703.252 538.026 701.267 538.036C694.826 538.061 688.385 538.069 681.945 538.061L629.136 538.031C628.624 538.034 628.098 538.033 627.59 538.033C626.375 538 625.308 537.737 625.334 536.197C625.36 534.658 626.263 534.173 627.7 534.186C633.025 534.226 638.347 534.22 643.667 534.22L700.32 534.19C701.513 534.206 702.769 533.971 703.571 535.08Z" fill="#2F54EB"/>
<path d="M713.28 565.035C713.474 565.328 713.573 565.674 713.561 566.025C713.55 566.377 713.43 566.716 713.217 566.996C712.594 567.864 711.669 568.021 710.667 567.757C707.583 566.943 704.503 566.121 701.426 565.292C685.784 561.093 670.142 556.898 654.501 552.707C653.918 552.547 653.332 552.401 652.753 552.227C651.459 551.839 650.563 551.167 651.03 549.636C651.436 548.206 652.482 548.123 653.689 548.423C654.108 548.528 654.526 548.64 654.943 548.752C673.498 553.723 692.055 558.7 710.615 563.68C711.619 563.908 712.713 563.97 713.28 565.035Z" fill="#FA8C16"/>
<path d="M549.641 521.235C549.767 521.533 549.817 521.858 549.788 522.18C549.758 522.503 549.649 522.813 549.471 523.084C548.839 523.987 547.926 524.114 546.93 523.858C543.854 523.052 540.778 522.237 537.701 521.416L490.324 508.721L489.575 508.52C488.161 508.141 486.76 507.557 487.295 505.772C487.774 504.18 489.164 504.31 490.518 504.688C493.177 505.43 495.841 506.122 498.5 506.834C514.636 511.158 530.773 515.482 546.909 519.805C547.874 520.037 548.95 520.151 549.641 521.235Z" fill="#FA8C16"/>
<path d="M572.387 424.469C573.449 428.38 574.637 432.673 575.795 436.978C579.754 451.723 583.706 466.465 587.652 481.202C587.765 481.615 587.789 482.061 587.938 482.453C588.491 483.928 588.194 485.133 586.611 485.497C585.028 485.861 584.591 484.721 584.229 483.441C581.406 472.838 578.562 462.234 575.696 451.631C573.494 443.435 571.29 435.237 569.083 427.04C568.913 426.464 568.774 425.879 568.669 425.288C568.502 424.243 568.83 423.372 569.892 423.016C570.954 422.66 571.74 423.091 572.387 424.469Z" fill="#FA8C16"/>
<path d="M639.985 499.146C639.024 499.76 638.15 499.871 637.404 498.963C636.538 497.908 636.747 497.017 637.726 496.051C642.358 491.464 646.923 486.814 651.535 482.203C660.808 472.92 670.09 463.648 679.379 454.388C679.684 454.086 680.025 453.818 680.319 453.51C681.257 452.556 682.305 452.364 683.246 453.351C684.186 454.338 683.776 455.387 682.888 456.283C679.26 459.926 675.644 463.591 672.005 467.228C661.81 477.406 651.608 487.578 641.399 497.744L639.985 499.146Z" fill="#FA8C16"/>
<path d="M628.267 647.645C627.808 645.949 627.194 643.716 626.591 641.481C622.011 624.333 617.428 607.186 612.845 590.04C612.477 588.668 612.147 587.424 613.825 586.862C615.78 586.211 616.193 587.784 616.545 589.099C621.646 608.142 626.735 627.194 631.811 646.256C632.157 647.539 632.297 648.725 630.797 649.232C629.847 649.595 628.93 649.228 628.267 647.645Z" fill="#FA8C16"/>
<path d="M520.35 618.785C519.106 619.736 518.174 619.707 517.438 618.918C516.504 617.891 516.887 616.929 517.801 616.007C521.869 611.955 525.888 607.847 529.943 603.784C539.751 593.95 549.569 584.125 559.399 574.309C559.892 573.716 560.479 573.207 561.137 572.804C561.524 572.599 561.976 572.552 562.397 572.674C562.818 572.795 563.176 573.075 563.395 573.455C564.187 574.641 563.681 575.513 562.794 576.39C559.146 580.02 555.542 583.685 551.896 587.32C541.652 597.558 531.398 607.792 521.134 618.022C520.798 618.371 520.424 618.718 520.35 618.785Z" fill="#FA8C16"/>
<path d="M746.99 449.174C751.092 446.806 755.207 444.46 759.296 442.07C760.64 441.293 761.975 440.851 762.828 442.421C763.628 443.89 762.509 444.757 761.298 445.456C752.866 450.3 744.441 455.165 736.024 460.048C734.795 460.758 733.51 461.213 732.666 459.751C731.822 458.29 732.742 457.377 734.011 456.656C738.33 454.198 742.646 451.682 746.99 449.174Z" fill="#D6E4FF"/>
<path d="M455.28 617.59C459.449 615.183 463.618 612.776 467.787 610.369C469.1 609.61 470.456 609.132 471.342 610.707C472.196 612.186 471.025 613.036 469.832 613.725C461.419 618.582 453.005 623.44 444.589 628.299C443.392 628.99 442.163 629.544 441.261 628.002C440.283 626.308 441.503 625.532 442.762 624.804C446.946 622.413 451.115 619.994 455.28 617.59Z" fill="#D6E4FF"/>
<path d="M441.828 441.638C442.725 441.121 443.54 441.498 444.262 441.931C452.965 446.928 461.658 451.945 470.34 456.982C471.445 457.623 471.967 458.475 471.29 459.745C470.562 461.104 469.508 460.893 468.444 460.282C459.596 455.186 450.758 450.077 441.932 444.955C441.623 444.808 441.361 444.578 441.174 444.291C440.987 444.004 440.882 443.671 440.871 443.329C440.86 442.986 440.944 442.647 441.113 442.349C441.282 442.051 441.529 441.805 441.828 441.638Z" fill="#D6E4FF"/>
<path d="M603.02 384.092C601.418 384.867 600.095 383.766 600.079 381.647C600.032 375.913 600.038 370.189 600.055 364.441C600.057 360.417 600.079 356.387 600.07 352.364C600.064 350.873 600.262 349.426 602.157 349.509C603.936 349.588 603.89 351.061 603.894 352.392C603.893 361.984 603.895 371.578 603.9 381.175C603.892 382.279 604.025 383.451 603.02 384.092Z" fill="#D6E4FF"/>
<path d="M762.676 625.899C763.217 626.836 763.156 627.558 762.593 628.218C761.778 629.167 760.862 629.134 759.833 628.532C756.36 626.505 752.877 624.489 749.384 622.485C744.412 619.622 739.437 616.765 734.461 613.916C734.242 613.786 734.03 613.645 733.811 613.515C732.657 612.842 731.868 611.982 732.67 610.587C733.472 609.191 734.686 609.596 735.779 610.226C741.573 613.552 747.347 616.907 753.13 620.245C755.873 621.829 758.615 623.414 761.356 624.999C761.873 625.305 762.353 625.691 762.676 625.899Z" fill="#D6E4FF"/>
<path d="M615.295 486.409C614.247 486.901 613.56 486.861 612.983 486.399C612.044 485.644 612.1 484.673 612.399 483.586C613.719 478.771 614.988 473.939 616.277 469.112C617.277 465.366 618.3 461.632 619.279 457.881C619.658 456.466 620.167 455.061 621.976 455.553C623.628 456.003 623.449 457.38 623.083 458.733C620.746 467.378 618.422 476.028 616.11 484.683C615.909 485.433 615.739 486.194 615.295 486.409Z" fill="#FA8C16"/>
<path d="M588.465 586.751C588.71 587.112 588.472 587.859 588.273 588.613C585.958 597.254 583.643 605.897 581.33 614.541C580.969 615.903 580.448 617.154 578.76 616.694C577.072 616.234 577.204 614.932 577.576 613.546C579.915 604.911 582.229 596.269 584.519 587.618C584.813 586.522 585.282 585.678 586.464 585.51C587.197 585.403 587.798 585.75 588.465 586.751Z" fill="#FA8C16"/>
<path d="M549.523 551.728L540.016 554.269C534.239 555.816 528.458 557.361 522.674 558.903C521.387 559.251 520.181 559.266 519.76 557.74C519.34 556.213 520.175 555.611 521.575 555.24C530.399 552.924 539.241 550.515 548.07 548.144C549.241 547.832 550.349 547.837 550.836 549.188C551.263 550.352 550.838 551.22 549.523 551.728Z" fill="#FA8C16"/>
<path d="M680.127 516.61C679.49 516.852 679.1 517.047 678.692 517.157C670.105 519.449 661.516 521.734 652.925 524.012C651.656 524.351 650.239 524.672 649.785 522.944C649.332 521.215 650.558 520.669 651.907 520.314C660.582 518.008 669.257 515.724 677.925 513.386C679.228 513.034 680.343 512.946 680.904 514.404C681.002 514.599 681.06 514.812 681.074 515.03C681.088 515.248 681.058 515.466 680.986 515.672C680.913 515.878 680.8 516.068 680.652 516.229C680.505 516.39 680.326 516.519 680.127 516.61Z" fill="#FA8C16"/>
<path d="M636.114 574.374C635.641 573.804 635.906 572.845 636.641 572.181C637.678 571.254 638.649 571.757 639.543 572.652C644.078 577.206 648.631 581.696 653.172 586.217C655.166 588.21 657.136 590.235 659.125 592.231C660.028 593.144 660.367 594.144 659.374 595.147C658.381 596.151 657.361 595.801 656.452 594.921C649.903 588.409 643.368 581.886 636.845 575.351C636.661 575.177 636.533 574.945 636.114 574.374Z" fill="#FA8C16"/>
<path d="M564.092 497.171C565.064 498.523 564.826 499.395 564.004 500.061C563.037 500.841 562.131 500.545 561.294 499.707C557.916 496.32 554.509 492.955 551.116 489.582C548.077 486.555 545.042 483.567 542.029 480.543C541.047 479.556 539.937 478.451 541.394 477.102C542.664 475.927 543.653 476.76 544.669 477.775C550.999 484.132 557.367 490.45 563.746 496.767C563.881 496.883 563.998 497.02 564.092 497.171Z" fill="#FA8C16"/>
<path d="M730.125 569.387C730.79 569.165 731.51 569.17 732.172 569.401C735.31 570.255 738.452 571.099 741.596 571.934C742.997 572.291 744.057 572.904 743.549 574.602C743.078 576.159 741.869 576.062 740.618 575.738C737.311 574.856 733.994 573.998 730.703 573.059C729.893 572.827 729.086 572.432 729.146 571.304C729.134 570.928 729.217 570.555 729.388 570.219C729.56 569.884 729.813 569.598 730.125 569.387Z" fill="#FA8C16"/>
<path d="M471.327 500.013C472.014 501.409 470.877 503.261 469.5 502.957C465.657 502.067 461.858 500.973 458.058 499.879C457.076 499.597 456.91 498.749 457.141 497.773C457.372 496.797 458.002 496.158 458.969 496.353C462.919 497.157 466.812 498.218 470.623 499.529C470.884 499.648 471.122 499.812 471.327 500.013Z" fill="#FA8C16"/>
<path d="M498.038 641.171C497.695 641.461 497.255 641.609 496.807 641.588C496.358 641.566 495.935 641.375 495.621 641.054C494.875 640.361 494.503 639.416 495.335 638.559C498.011 635.795 500.72 633.065 503.464 630.37C504.274 629.579 505.286 629.789 506.027 630.492C506.217 630.639 506.371 630.827 506.48 631.041C506.588 631.256 506.648 631.492 506.654 631.732C506.66 631.972 506.612 632.211 506.515 632.431C506.417 632.65 506.272 632.845 506.089 633.002C503.401 635.749 500.69 638.486 498.038 641.171Z" fill="#FA8C16"/>
<path d="M563.414 405.729C562.53 402.366 561.6 398.809 560.661 395.256C560.325 393.992 560.911 393.205 562.047 392.926C563.183 392.647 564.059 393.151 564.376 394.361C565.287 397.834 566.177 401.312 567.091 404.789C567.4 405.956 567.154 406.917 565.935 407.25C564.819 407.512 563.887 407.118 563.414 405.729Z" fill="#FA8C16"/>
<path d="M697.226 441.992C696.837 442.284 696.352 442.415 695.869 442.361C695.386 442.306 694.943 442.069 694.629 441.698C693.999 441.022 693.777 440.14 694.49 439.388C697.182 436.638 699.875 433.888 702.618 431.186C702.785 431.012 702.987 430.875 703.21 430.784C703.434 430.693 703.674 430.651 703.915 430.659C704.156 430.668 704.393 430.728 704.609 430.835C704.825 430.941 705.017 431.093 705.17 431.279C705.887 432.013 706.128 432.937 705.282 433.802C702.631 436.529 699.904 439.281 697.226 441.992Z" fill="#FA8C16"/>
</svg>
