<svg width="768" height="513" viewBox="0 0 768 513" fill="none" xmlns="http://www.w3.org/2000/svg">
<path d="M-11.5881 313.593C-10.7185 313.549 -10.2984 314.186 -9.82409 314.755L14.9806 344.402C24.7213 356.043 34.4554 367.688 44.1829 379.336C44.6029 379.83 44.9933 380.373 45.4281 380.863C46.2928 381.851 46.7227 382.839 45.4281 383.778C44.257 384.662 43.4517 383.975 42.7302 383.086C40.2597 380.121 37.7891 377.157 35.3185 374.192L-3.84528 327.355C-6.80999 323.827 -9.75824 320.302 -12.69 316.78C-13.2236 316.143 -13.782 315.436 -13.1841 314.587C-12.8185 314.063 -12.3787 313.504 -11.5881 313.593Z" fill="#ADC6FF"/>
<path d="M98.5903 230.996C99.8305 230.789 100.824 231.149 101.016 232.444C101.209 233.739 100.196 234.297 99.0399 234.499C86.5223 236.674 74.0145 238.843 61.5167 241.007C45.9421 243.712 30.3741 246.424 14.8127 249.145C14.4075 249.214 14.0122 249.313 13.607 249.377C13.3662 249.442 13.1143 249.454 12.8685 249.413C12.6226 249.371 12.3888 249.276 12.1831 249.135C11.9773 248.994 11.8046 248.811 11.6768 248.596C11.549 248.382 11.4691 248.143 11.4427 247.895C11.255 246.768 11.9369 246.131 13.1277 245.919C18.6173 244.97 24.0971 243.942 29.5868 243.003C45.2404 240.272 60.8973 237.548 76.5576 234.831L98.5903 230.996Z" fill="#ADC6FF"/>
<path d="M76.0981 104.334C76.0338 105.278 75.1888 105.925 74.5761 106.652C67.8001 114.686 61.0044 122.701 54.1888 130.696L25.0359 165.066C23.4943 166.885 21.923 168.674 20.3863 170.502C19.5908 171.441 18.7409 172.286 17.5105 171.273C16.1418 170.146 17.0164 169.079 17.8119 168.115C21.6957 163.545 25.6041 159.004 29.478 154.433C41.0536 140.776 52.6241 127.117 64.1898 113.456C67.0062 110.135 69.8079 106.805 72.6343 103.494C73.2124 102.817 73.8053 102.012 74.8874 102.506C75.254 102.648 75.5676 102.9 75.7845 103.227C76.0015 103.555 76.111 103.942 76.0981 104.334Z" fill="#ADC6FF"/>
<path d="M12.7373 452.049C12.8608 453.364 12.2432 454.026 11.2895 454.214C10.1876 454.441 9.65399 453.645 9.31304 452.731C8.15681 449.585 7.01537 446.433 5.88878 443.274C-2.45852 419.952 -10.8025 396.626 -19.1432 373.297C-19.2489 372.902 -19.381 372.514 -19.5385 372.136C-20.171 370.876 -19.6571 370.031 -18.4959 369.596C-17.3347 369.161 -16.6726 369.917 -16.2971 370.95C-14.7686 375.176 -13.2434 379.404 -11.7215 383.634C-3.77611 405.807 4.166 427.976 12.1048 450.142C12.3618 450.849 12.5742 451.555 12.7373 452.049Z" fill="#ADC6FF"/>
<path d="M59.219 279.532L71.2952 281.741L129.601 292.344C133.875 293.12 138.139 293.94 142.418 294.696C143.753 294.933 145.339 295.037 144.978 296.875C144.588 298.852 142.918 298.323 141.554 298.076C130.107 296.007 118.658 293.927 107.208 291.835C91.083 288.89 74.9616 285.947 58.8434 283.005C57.6823 282.793 56.7138 282.487 56.7385 281.108C56.7484 279.853 57.5538 279.423 59.219 279.532Z" fill="#ADC6FF"/>
<path d="M80.8563 181.277C80.6241 182.498 79.5667 182.883 78.6624 183.407L48.8573 200.627C40.4869 205.459 32.1199 210.3 23.7561 215.149C22.6097 215.816 21.5572 216.137 20.8358 214.798C20.1144 213.459 20.8803 212.718 22.0366 212.056C40.5001 201.429 58.957 190.789 77.4074 180.136C78.1436 179.711 78.8551 178.96 79.8779 179.642C80.1488 179.828 80.3764 180.071 80.5452 180.353C80.714 180.635 80.8201 180.95 80.8563 181.277Z" fill="#ADC6FF"/>
<path d="M80.8465 339.154C80.817 339.469 80.7158 339.774 80.5504 340.043C80.3851 340.313 80.1601 340.542 79.8928 340.711C79.0429 341.264 78.3314 340.825 77.6199 340.414C73.1432 337.845 68.6697 335.274 64.1996 332.701C50.5752 324.841 36.9573 316.977 23.3461 309.107C22.7086 308.741 22.0613 308.381 21.4338 307.995C21.2317 307.888 21.054 307.74 20.9117 307.561C20.7693 307.381 20.6655 307.175 20.6066 306.954C20.5477 306.732 20.5351 306.501 20.5694 306.275C20.6038 306.049 20.6844 305.832 20.8063 305.638C21.2708 304.704 22.1206 304.443 23.099 304.917C23.5388 305.134 23.939 305.411 24.3639 305.668L78.8354 337.114C79.6606 337.598 80.6834 337.909 80.8465 339.154Z" fill="#ADC6FF"/>
<path d="M136.662 371.39C136.702 372.947 135.11 373.599 133.435 372.641C127.397 369.182 121.374 365.673 115.341 362.19C113.142 360.92 110.928 359.675 108.735 358.395C107.667 357.772 106.758 356.982 107.667 355.638C108.433 354.477 109.406 354.739 110.449 355.341C118.684 360.105 126.92 364.858 135.155 369.602C135.857 370.007 136.632 370.402 136.662 371.39Z" fill="#ADC6FF"/>
<path d="M136.672 149.112C136.707 149.853 135.99 150.322 135.284 150.728C126.992 155.53 118.694 160.322 110.39 165.101C109.342 165.704 108.32 165.882 107.613 164.711C106.906 163.54 107.519 162.735 108.601 162.117C116.972 157.289 125.327 152.437 133.712 147.634C135.135 146.809 136.548 147.471 136.672 149.112Z" fill="#ADC6FF"/>
<path d="M-13.2879 209.409C-13.616 209.441 -13.9462 209.377 -14.2378 209.223C-14.5294 209.069 -14.7695 208.833 -14.9284 208.545C-15.556 207.675 -15.1112 207.018 -14.5578 206.356C-12.023 203.341 -9.50301 200.308 -6.95336 197.303C-3.60324 193.35 -0.213597 189.452 3.11181 185.484C3.9864 184.441 4.91045 183.542 6.18527 184.56C7.53421 185.637 6.64974 186.734 5.81468 187.717C-0.0257864 194.605 -5.8663 201.497 -11.7068 208.391C-12.1218 208.881 -12.5122 209.459 -13.2879 209.409Z" fill="#ADC6FF"/>
<path d="M37.3049 279.086C31.3492 278.019 25.3967 276.948 19.4475 275.874C16.3148 275.306 13.192 274.659 10.0593 274.13C8.75979 273.913 7.73201 273.429 8.00872 271.991C8.28542 270.553 9.52568 270.459 10.7511 270.681C19.7605 272.312 28.7666 273.949 37.7694 275.593C38.9503 275.81 39.7904 276.364 39.5433 277.727C39.3111 278.963 38.4266 279.239 37.3049 279.086Z" fill="#ADC6FF"/>
<path d="M11.7391 74.9982C11.6798 75.1712 11.5217 75.6307 11.3537 76.0853L5.39463 92.4356C4.96969 93.6018 4.60404 94.9853 2.92404 94.4615C1.07605 93.8834 1.63938 92.4851 2.10385 91.2349C4.16597 85.6349 6.22644 80.0349 8.28526 74.4349C8.65585 73.4467 9.16474 72.6116 10.4 72.9526C11.2499 73.1552 11.8874 73.6592 11.7391 74.9982Z" fill="#ADC6FF"/>
<path d="M118.246 231.109C116.813 231.203 116.038 230.911 115.909 229.75C115.781 228.589 116.28 227.887 117.47 227.684C123.677 226.612 129.883 225.55 136.079 224.443C137.24 224.236 138.055 224.522 138.352 225.683C138.718 227.077 137.858 227.66 136.677 227.852C132.413 228.633 128.148 229.384 123.879 230.135C121.868 230.491 119.852 230.832 118.246 231.109Z" fill="#ADC6FF"/>
<path d="M70.5243 411.354C70.5715 411.747 70.4823 412.144 70.2719 412.478C70.0614 412.813 69.7423 413.065 69.3681 413.192C68.5726 413.533 67.9549 413.158 67.4361 412.54C65.1582 409.842 62.8656 407.159 60.5976 404.461C58.8533 402.386 57.1387 400.296 55.4044 398.211C54.6681 397.321 54.1493 396.303 55.1869 395.389C56.3036 394.401 57.2474 394.994 58.0923 396.012C61.986 400.676 65.9093 405.306 69.8177 409.956C70.2155 410.321 70.4667 410.818 70.5243 411.354Z" fill="#ADC6FF"/>
<path d="M291.328 50.648C291.017 50.6664 290.708 50.5836 290.448 50.412C290.188 50.2404 289.99 49.9891 289.884 49.6957C289.513 48.7122 289.974 48.0282 290.662 47.3487C293.734 44.3176 296.769 41.2508 299.818 38.2019L339.606 -1.58636C340.46 -2.44025 341.345 -3.4953 342.584 -2.3106C343.925 -1.01413 342.821 -0.07533 341.909 0.845611C325.707 17.044 309.506 33.241 293.304 49.4365C292.71 49.9998 292.231 50.7329 291.328 50.648Z" fill="#597EF7"/>
<path d="M150.518 191.534C150.518 192.486 149.772 192.946 149.208 193.51C135.123 207.607 121.035 221.7 106.944 235.788C104.789 237.943 102.634 240.099 100.479 242.257C99.6296 243.115 98.6908 243.791 97.6223 242.704C96.5539 241.618 97.2915 240.701 98.132 239.865C114.485 223.512 130.834 207.157 147.179 190.801C147.854 190.125 148.52 189.616 149.517 189.964C149.84 190.069 150.117 190.283 150.3 190.569C150.482 190.855 150.56 191.196 150.518 191.534Z" fill="#597EF7"/>
<path d="M195.6 22.3667C195.743 23.7928 195.202 24.441 194.33 24.602C193.15 24.7987 192.658 24.0029 192.381 22.9434C191.017 17.7888 189.6 12.661 188.223 7.50195C183.628 -9.66213 179.036 -26.8277 174.449 -43.9947C174.347 -44.2731 174.259 -44.5566 174.186 -44.8442C174.016 -45.8858 174.159 -46.8783 175.344 -47.1555C176.528 -47.4327 177.083 -46.7084 177.378 -45.6265C178.638 -40.9056 179.966 -36.2025 181.227 -31.4816C185.933 -13.8972 190.631 3.69748 195.323 21.3027C195.452 21.7855 195.577 22.2862 195.6 22.3667Z" fill="#597EF7"/>
<path d="M318.031 144.796C321.389 145.69 325.122 146.62 328.841 147.617C347.507 152.636 366.169 157.661 384.826 162.691C385.184 162.79 385.55 162.852 385.899 162.964C386.954 163.295 387.978 163.755 387.522 165.119C387.111 166.339 386.109 166.46 384.956 166.143C380.454 164.913 375.948 163.711 371.441 162.504L318.867 148.412C318.214 148.281 317.57 148.104 316.94 147.885C316.136 147.541 315.555 146.928 315.805 145.967C316.055 145.006 316.686 144.63 318.031 144.796Z" fill="#597EF7"/>
<path d="M55.0133 74.3108C56.502 74.6908 58.4422 75.1691 60.378 75.6877L121.934 92.1931C122.439 92.3022 122.936 92.4517 123.418 92.6402C124.146 92.9665 124.678 93.5343 124.491 94.3837C124.303 95.2331 123.713 95.8545 122.734 95.7249C121.927 95.615 121.13 95.4492 120.346 95.2286C98.6105 89.4079 76.876 83.5828 55.1429 77.7531C54.7102 77.6459 54.2835 77.5161 53.8643 77.3642C53.006 77.0333 52.4829 76.4164 52.7109 75.4731C52.9389 74.5298 53.5827 74.1275 55.0133 74.3108Z" fill="#597EF7"/>
<path d="M333.231 231.621C333.904 231.756 334.509 232.119 334.944 232.649C343.465 241.173 351.987 249.694 360.511 258.212C361.405 259.106 361.906 260.108 360.842 261.087C359.881 261.981 358.942 261.449 358.124 260.64C349.606 252.11 341.086 243.586 332.565 235.068C331.944 234.446 331.224 233.834 331.725 232.766C331.862 232.465 332.071 232.203 332.334 232.004C332.597 231.804 332.905 231.673 333.231 231.621Z" fill="#597EF7"/>
<path d="M108.741 7.11314C108.704 7.43784 108.587 7.7484 108.402 8.01741C108.216 8.28641 107.967 8.50555 107.677 8.65547C107.376 8.81063 107.031 8.8593 106.699 8.79354C106.367 8.72778 106.067 8.55149 105.848 8.29338C104.386 6.91644 102.974 5.49035 101.557 4.0687L80.4331 -17.0772C80.3302 -17.18 80.214 -17.2739 80.1112 -17.3812C79.2171 -18.3066 78.1218 -19.3259 79.4451 -20.5643C80.6119 -21.664 81.5909 -20.7342 82.4672 -19.8445C84.555 -17.7255 86.6651 -15.6287 88.7707 -13.5276C94.9223 -7.37605 101.074 -1.22451 107.225 4.92702C107.847 5.54843 108.607 6.08938 108.741 7.11314Z" fill="#597EF7"/>
<path d="M374.911 80.4999C374.486 80.5744 374.049 80.4787 373.694 80.2336C373.34 79.9885 373.096 79.6136 373.015 79.19C372.733 78.1349 373.35 77.518 374.356 77.2497L382.716 75.0144L409.714 67.7318C410.89 67.4144 412.057 67.3429 412.481 68.7332C412.929 70.2309 411.739 70.6243 410.626 70.9238C398.907 74.0771 387.19 77.2214 375.474 80.3568L374.911 80.4999Z" fill="#597EF7"/>
<path d="M180.498 274.625C178.875 280.736 177.4 286.311 175.911 291.881C174.287 297.955 172.657 304.028 171.021 310.099C170.945 310.381 170.828 310.658 170.757 310.944C170.471 312.057 169.961 312.969 168.62 312.567C167.279 312.164 167.279 311.127 167.574 310.023C169.246 303.815 170.921 297.604 172.599 291.389C174.074 285.886 175.518 280.374 177.007 274.875C177.288 273.847 177.731 272.778 179.112 273.14C180.051 273.377 180.597 274.07 180.498 274.625Z" fill="#597EF7"/>
<path d="M29.5844 172.992C28.5651 173.13 27.9929 172.509 27.7694 171.686C27.4832 170.622 28.1449 170.041 29.1329 169.773C32.5574 168.838 35.9774 167.895 39.4153 166.974C47.7753 164.739 56.1397 162.504 64.4908 160.228C65.7113 159.897 66.811 159.866 67.2491 161.216C67.7454 162.736 66.4757 163.134 65.4028 163.425C53.6898 166.59 41.9709 169.738 30.2461 172.871C30.027 172.929 29.8035 172.951 29.5844 172.992Z" fill="#597EF7"/>
<path d="M266.07 285.294C266.338 286.837 265.734 287.44 264.912 287.655C263.696 287.972 263.186 287.123 262.905 286.095C261.621 281.383 260.321 276.675 259.06 271.954C254.369 254.429 249.689 236.902 245.022 219.371C244.906 218.924 244.781 218.517 244.7 218.079C244.521 217.109 244.669 216.233 245.764 215.951C246.86 215.669 247.553 216.282 247.865 217.368C248.825 220.945 249.786 224.521 250.749 228.098C255.783 246.91 260.815 265.722 265.846 284.534C265.962 284.959 266.092 285.384 266.07 285.294Z" fill="#597EF7"/>
<path d="M291.874 118.531H326.239C326.836 118.499 327.434 118.517 328.028 118.585C328.411 118.658 328.757 118.864 329.005 119.166C329.252 119.468 329.386 119.848 329.382 120.238C329.378 120.629 329.238 121.006 328.984 121.303C328.731 121.601 328.381 121.8 327.996 121.866C327.403 121.936 326.805 121.954 326.208 121.92H256.588C255.43 121.92 254.187 121.871 254.147 120.324C254.106 118.688 255.327 118.536 256.619 118.536C267.7 118.536 278.781 118.536 289.862 118.536L291.874 118.531Z" fill="#FFC069"/>
<path d="M151.824 121.929H117.463C116.795 121.962 116.126 121.929 115.464 121.831C115.09 121.773 114.753 121.573 114.523 121.272C114.293 120.971 114.188 120.593 114.23 120.217C114.202 119.84 114.317 119.466 114.551 119.17C114.785 118.873 115.122 118.676 115.496 118.616C116.159 118.528 116.83 118.503 117.498 118.54H186.015C186.462 118.54 186.909 118.54 187.356 118.54C188.433 118.563 189.296 118.92 189.354 120.15C189.417 121.531 188.496 121.938 187.32 121.938C184.271 121.938 181.218 121.938 178.169 121.938L151.824 121.929Z" fill="#FFC069"/>
<path d="M206.329 150.128C206.191 150.401 205.945 150.933 205.654 151.438L170.98 211.545C170.792 211.862 170.587 212.175 170.412 212.497C169.885 213.472 169.071 214.03 168.048 213.472C166.93 212.877 166.858 211.952 167.516 210.847C169.411 207.66 171.248 204.441 173.104 201.231C182.966 184.16 192.83 167.085 202.695 150.007C202.944 149.547 203.218 149.099 203.513 148.666C203.937 148.067 204.528 147.772 205.247 148.071C205.967 148.371 206.45 148.957 206.329 150.128Z" fill="#FFC069"/>
<path d="M239.018 92.5296C237.521 92.5832 236.783 91.1347 237.489 89.7891C238.906 87.1827 240.418 84.63 241.897 82.0639C252.12 64.3425 262.346 46.6225 272.574 28.9041C272.798 28.5196 273.021 28.1397 273.258 27.7552C273.808 26.8208 274.649 26.5794 275.534 27.0712C276.549 27.6389 276.661 28.4973 276.048 29.53C274.609 31.9531 273.232 34.4164 271.823 36.8528C261.469 54.762 251.117 72.6712 240.766 90.5803C240.283 91.4163 239.881 92.3016 239.018 92.5296Z" fill="#FFC069"/>
<path d="M206.387 90.8482C206.387 91.6439 205.882 92.0463 205.274 92.3816C205.012 92.5346 204.701 92.5797 204.406 92.5071C204.112 92.4345 203.857 92.2499 203.696 91.9926C203.325 91.5331 202.995 91.0425 202.708 90.5263C191.219 70.6321 179.734 50.738 168.253 30.8439C168.101 30.5891 167.972 30.3209 167.806 30.0705C167.1 29.011 166.505 27.8665 168.007 27.0708C169.509 26.275 170.117 27.491 170.734 28.5505C174.698 35.4054 178.668 42.2693 182.644 49.142C190.271 62.369 197.893 75.602 205.511 88.8409C205.878 89.4802 206.352 90.0658 206.387 90.8482Z" fill="#FFC069"/>
<path d="M238.75 147.965C239.952 148.117 240.297 149.078 240.771 149.901L257.79 179.375L275.722 210.392C276.169 211.148 276.83 211.85 276.209 212.82C275.373 214.13 273.938 213.866 272.968 212.194C266.956 201.795 260.948 191.395 254.942 180.994C249.342 171.295 243.744 161.599 238.146 151.903C237.773 151.348 237.472 150.747 237.252 150.115C236.859 148.828 237.632 148.229 238.75 147.965Z" fill="#FFC069"/>
<path d="M221.811 -27.717C221.811 -17.1486 221.811 -6.58157 221.811 3.98392C221.832 4.58035 221.817 5.17751 221.766 5.77216C221.744 6.15049 221.581 6.50694 221.31 6.7716C221.039 7.03625 220.678 7.18999 220.3 7.20272C220.094 7.23241 219.885 7.22124 219.684 7.16987C219.482 7.11848 219.293 7.02793 219.127 6.90334C218.961 6.77874 218.821 6.6226 218.715 6.44383C218.61 6.26507 218.54 6.06716 218.511 5.86154C218.421 5.19801 218.395 4.52722 218.435 3.85873C218.435 -17.1977 218.435 -38.2557 218.435 -59.3151C218.435 -59.5387 218.435 -59.7622 218.435 -59.9857C218.391 -61.3269 218.435 -62.753 220.197 -62.7262C221.82 -62.6949 221.806 -61.3001 221.806 -60.0438C221.806 -50.3695 221.806 -40.6966 221.806 -31.0252L221.811 -27.717Z" fill="#FFC069"/>
<path d="M218.449 268.111V236.665C218.404 235.998 218.43 235.328 218.525 234.667C218.553 234.461 218.622 234.262 218.728 234.083C218.833 233.904 218.973 233.748 219.14 233.623C219.306 233.499 219.495 233.408 219.697 233.357C219.898 233.306 220.108 233.295 220.313 233.325C220.691 233.341 221.049 233.495 221.321 233.758C221.592 234.021 221.757 234.375 221.784 234.752C221.839 235.419 221.854 236.089 221.829 236.759V300.107C221.849 300.704 221.823 301.302 221.753 301.895C221.712 302.272 221.531 302.62 221.245 302.869C220.959 303.117 220.589 303.249 220.21 303.236C220.005 303.257 219.798 303.237 219.601 303.176C219.403 303.115 219.221 303.015 219.063 302.882C218.905 302.749 218.776 302.585 218.683 302.401C218.59 302.217 218.534 302.016 218.52 301.81C218.461 301.216 218.44 300.619 218.458 300.022V268.124L218.449 268.111Z" fill="#FFC069"/>
<path d="M319.878 64.4613C318.832 64.5284 318.242 64.2691 318.014 63.527C317.836 63.112 317.831 62.6434 317.998 62.2243C318.166 61.8051 318.493 61.4697 318.908 61.2917C321.174 60.031 323.378 58.6898 325.636 57.3933C341.992 47.9514 358.355 38.52 374.723 29.099C375.845 28.4552 377.276 26.6893 378.478 28.7324C379.641 30.7039 377.584 31.2001 376.395 31.8886C358.194 42.4362 339.987 52.9644 321.773 63.4733C321.094 63.889 320.352 64.2199 319.878 64.4613Z" fill="#FFC069"/>
<path d="M122.38 62.8052C122.412 64.3431 121.147 64.9422 119.506 64.0212C115.236 61.625 111.012 59.1706 106.765 56.7207C92.5064 48.4919 78.2572 40.2482 64.0169 31.9895C62.8143 31.2921 60.5388 30.8271 61.8308 28.7036C63.0602 26.6829 64.5131 28.5114 65.6039 29.1507C83.9333 39.6744 102.24 50.2369 120.525 60.8382C121.334 61.2942 122.403 61.5624 122.38 62.8052Z" fill="#FFC069"/>
<path d="M120.749 175.994C121.085 175.951 121.425 176.03 121.709 176.216C121.992 176.402 122.2 176.683 122.295 177.008C122.608 178.001 122.242 178.694 121.321 179.217C117.838 181.188 114.382 183.209 110.913 185.208L65.2686 211.584C64.8797 211.808 64.4907 212.031 64.1107 212.255C63.2166 212.818 62.3717 212.702 61.7905 211.83C61.1199 210.811 61.5357 209.957 62.4834 209.384C64.3208 208.271 66.1895 207.207 68.0538 206.13L118.741 176.901C119.376 176.526 119.957 176.025 120.749 175.994Z" fill="#FFC069"/>
<path d="M378.782 210.872C378.818 212.343 377.468 212.951 375.912 212.071C372.04 209.88 368.2 207.64 364.347 205.414L319.855 179.708C319.324 179.445 318.821 179.129 318.353 178.765C317.705 178.193 317.768 177.424 318.139 176.726C318.287 176.418 318.547 176.178 318.866 176.055C319.185 175.932 319.539 175.935 319.855 176.065C320.476 176.301 321.075 176.593 321.644 176.936C340.08 187.573 358.513 198.215 376.94 208.861C377.754 209.352 378.746 209.679 378.782 210.872Z" fill="#FFC069"/>
<path d="M221.811 175.918C221.811 185.953 221.811 195.988 221.811 206.023C221.847 206.769 221.822 207.516 221.735 208.258C221.694 208.635 221.512 208.982 221.226 209.23C220.94 209.479 220.571 209.61 220.193 209.599C219.816 209.619 219.444 209.504 219.144 209.275C218.844 209.045 218.636 208.717 218.556 208.347C218.444 207.758 218.409 207.157 218.454 206.559C218.454 185.968 218.454 165.375 218.454 144.78C218.413 144.181 218.453 143.58 218.57 142.992C218.65 142.622 218.861 142.294 219.164 142.068C219.467 141.842 219.842 141.733 220.219 141.762C220.596 141.757 220.961 141.891 221.245 142.139C221.529 142.386 221.711 142.73 221.757 143.104C221.836 143.767 221.857 144.435 221.82 145.102C221.82 155.387 221.817 165.659 221.811 175.918Z" fill="#FA8C16"/>
<path d="M221.815 64.8917C221.815 74.9415 221.815 84.9915 221.815 95.0413C221.848 95.7865 221.836 96.5329 221.78 97.2766C221.748 97.6542 221.579 98.007 221.305 98.2682C221.03 98.5294 220.67 98.6809 220.291 98.6938C219.878 98.7431 219.461 98.6313 219.128 98.3815C218.795 98.1317 218.571 97.7632 218.503 97.3526C218.421 96.7601 218.404 96.1604 218.453 95.5644V34.1519C218.453 33.7048 218.427 33.2578 218.453 32.8107C218.538 31.7288 218.972 30.9286 220.21 30.9599C221.328 30.9912 221.739 31.7422 221.806 32.7481C221.851 33.3427 221.806 33.9373 221.806 34.5363L221.815 64.8917Z" fill="#FA8C16"/>
<path d="M201.747 131.889C201.707 132.868 200.884 133.284 200.115 133.727L168.133 152.168C160.682 156.463 153.231 160.765 145.78 165.074C144.662 165.727 143.652 166.331 142.789 164.842C141.926 163.353 143.07 162.826 144.041 162.267C162.266 151.734 180.497 141.21 198.734 130.696C200.24 129.828 201.675 130.396 201.747 131.889Z" fill="#FA8C16"/>
<path d="M144.447 74.7074C144.872 74.9354 145.399 75.1992 145.905 75.4943C163.939 85.8958 181.97 96.3034 199.999 106.717C201.018 107.307 202.341 107.817 201.452 109.399C200.616 110.875 199.57 110.267 198.452 109.623C180.489 99.2421 162.52 88.8732 144.546 78.5164C144.018 78.247 143.522 77.9202 143.066 77.5418C142.789 77.3459 142.598 77.0503 142.534 76.717C142.47 76.3836 142.537 76.0384 142.722 75.7536C142.88 75.4334 143.127 75.165 143.432 74.9797C143.738 74.7944 144.09 74.7 144.447 74.7074Z" fill="#FA8C16"/>
<path d="M240.431 110.358C240.041 110.358 239.66 110.239 239.34 110.016C239.021 109.793 238.777 109.477 238.642 109.111C238.276 108.172 238.794 107.568 239.572 107.117L247.275 102.646L293.483 75.9703C293.868 75.7468 294.266 75.5233 294.641 75.3042C295.674 74.647 296.689 74.2581 297.48 75.6082C298.334 77.0567 297.154 77.6244 296.233 78.1922C294.444 79.283 292.656 80.2934 290.868 81.3216L242.138 109.433C241.566 109.795 240.967 110.081 240.431 110.358Z" fill="#FA8C16"/>
<path d="M297.798 164.035C297.739 165.523 296.286 166.1 294.798 165.251C289.97 162.488 285.149 159.713 280.335 156.926L240.851 134.1C240.467 133.881 240.073 133.653 239.693 133.433C238.799 132.884 238.115 132.226 238.799 131.086C239.483 129.946 240.368 129.973 241.437 130.604C245.402 132.933 249.386 135.226 253.364 137.524L295.75 161.965C296.635 162.492 297.677 162.859 297.798 164.035Z" fill="#FA8C16"/>
<path d="M292.124 190.631C292.143 190.934 292.067 191.236 291.907 191.494C291.747 191.752 291.51 191.953 291.23 192.071C290.39 192.451 289.63 192.169 288.995 191.539C287.04 189.598 285.091 187.654 283.147 185.705C273.261 175.81 263.374 165.918 253.485 156.029C253.118 155.658 252.743 155.296 252.385 154.916C251.585 154.066 251.205 153.177 252.215 152.233C253.136 151.339 253.954 151.728 254.728 152.475C254.996 152.734 255.26 152.998 255.524 153.262C267.254 164.992 278.985 176.728 290.716 188.467C291.369 189.071 292.16 189.59 292.124 190.631Z" fill="#2F54EB"/>
<path d="M188.648 87.2093C188.613 87.4868 188.51 87.7515 188.349 87.98C188.188 88.2084 187.972 88.3936 187.722 88.5191C186.86 88.9215 186.122 88.622 185.487 88.0006C183.535 86.0693 181.586 84.132 179.64 82.1888L149.687 52.2359L149.213 51.762C148.319 50.8679 147.523 49.8262 148.694 48.722C149.74 47.7384 150.724 48.4359 151.573 49.3032C153.241 51.0065 154.935 52.674 156.616 54.355C166.818 64.5568 177.02 74.7587 187.222 84.9606C187.843 85.5507 188.599 86.1006 188.648 87.2093Z" fill="#2F54EB"/>
<path d="M247.445 24.6554C246.551 28.0396 245.586 31.7636 244.593 35.4831C241.186 48.2213 237.777 60.9536 234.364 73.6799C234.27 74.0375 234.096 74.3817 234.038 74.7394C233.815 76.0806 233.072 76.854 231.731 76.4427C230.39 76.0314 230.555 74.9897 230.837 73.8765C233.305 64.7267 235.756 55.568 238.191 46.4003C240.084 39.3189 241.975 32.236 243.864 25.1516C243.985 24.6474 244.135 24.1504 244.311 23.6629C244.638 22.809 245.259 22.2994 246.207 22.4916C247.155 22.6839 247.557 23.3455 247.445 24.6554Z" fill="#2F54EB"/>
<path d="M265.757 109.699C264.773 109.744 264.071 109.449 263.906 108.447C263.714 107.285 264.255 106.708 265.404 106.409C270.849 104.978 276.272 103.472 281.712 102.014C292.656 99.0755 303.602 96.1488 314.549 93.2339C314.906 93.1401 315.278 93.0864 315.631 92.9836C316.744 92.6751 317.611 92.9836 317.888 94.1281C318.166 95.2725 317.406 95.8805 316.355 96.1666C312.068 97.3245 307.78 98.5048 303.489 99.6537C291.469 102.864 279.446 106.066 267.42 109.261L265.757 109.699Z" fill="#2F54EB"/>
<path d="M192.868 215.707C193.257 214.241 193.763 212.305 194.277 210.374C198.255 195.57 202.233 180.766 206.209 165.963C206.526 164.778 206.817 163.705 208.314 164.009C210.058 164.367 209.687 165.721 209.383 166.857C204.975 183.303 200.553 199.75 196.119 216.199C195.823 217.308 195.417 218.255 194.075 217.987C193.208 217.849 192.681 217.178 192.868 215.707Z" fill="#2F54EB"/>
<path d="M124.616 147.522C123.275 147.697 122.591 147.272 122.38 146.364C122.126 145.193 122.828 144.639 123.909 144.344C128.702 143.07 133.481 141.733 138.269 140.445C149.851 137.325 161.437 134.216 173.028 131.12C173.652 130.888 174.311 130.762 174.977 130.744C175.355 130.758 175.714 130.918 175.976 131.191C176.239 131.463 176.385 131.827 176.385 132.206C176.466 133.435 175.71 133.869 174.668 134.142C170.372 135.282 166.094 136.466 161.798 137.611C149.715 140.845 137.627 144.071 125.532 147.29C125.13 147.406 124.701 147.504 124.616 147.522Z" fill="#2F54EB"/>
<path d="M367.369 118.531C371.459 118.531 375.55 118.553 379.64 118.531C380.982 118.531 382.171 118.777 382.131 120.319C382.095 121.763 380.883 121.928 379.676 121.928C371.277 121.91 362.876 121.91 354.471 121.928C353.246 121.928 352.088 121.714 352.088 120.256C352.088 118.799 353.17 118.513 354.431 118.522C358.722 118.549 363.037 118.531 367.369 118.531Z" fill="#FFE7BA"/>
<path d="M76.4631 118.53C80.6208 118.53 84.7784 118.53 88.9361 118.53C90.246 118.53 91.4664 118.758 91.4485 120.319C91.4485 121.794 90.2057 121.924 89.0165 121.924C80.6267 121.924 72.2354 121.924 63.8426 121.924C62.649 121.924 61.4911 121.807 61.4822 120.265C61.4822 118.575 62.7295 118.521 63.9857 118.521C68.1478 118.539 72.31 118.53 76.4631 118.53Z" fill="#FFE7BA"/>
<path d="M142.382 -18.8787C143.276 -18.8787 143.723 -18.2439 144.076 -17.6091C148.428 -10.1134 152.763 -2.6073 157.081 4.90924C157.631 5.86595 157.653 6.72879 156.598 7.38597C155.467 8.08785 154.77 7.47539 154.238 6.55892C149.821 -1.07386 145.418 -8.71112 141.027 -16.3528C140.86 -16.5969 140.763 -16.8822 140.747 -17.1775C140.731 -17.4729 140.797 -17.767 140.937 -18.0277C141.076 -18.2884 141.285 -18.5057 141.54 -18.6558C141.795 -18.8058 142.086 -18.883 142.382 -18.8787Z" fill="#FFE7BA"/>
<path d="M287.792 7.68461C286.259 7.57284 285.745 6.178 286.648 4.58647C289.089 0.276819 291.566 -4.0015 294.06 -8.29327C295.799 -11.302 297.556 -14.3062 299.286 -17.3194C299.926 -18.4371 300.699 -19.434 302.08 -18.5533C303.377 -17.7262 302.706 -16.6444 302.134 -15.6474C297.991 -8.47361 293.85 -1.29682 289.71 5.88295C289.227 6.70554 288.821 7.6399 287.792 7.68461Z" fill="#FFE7BA"/>
<path d="M302.787 257.483C302.787 258.418 302.429 258.932 301.723 259.182C300.703 259.54 300.033 259.12 299.523 258.226C297.8 255.209 296.066 252.198 294.319 249.191C291.837 244.902 289.35 240.617 286.858 236.338C286.751 236.145 286.652 235.949 286.545 235.756C285.973 234.755 285.754 233.771 286.956 233.074C288.159 232.377 288.892 233.204 289.437 234.147C292.334 239.136 295.205 244.139 298.088 249.132C299.456 251.502 300.823 253.871 302.188 256.241C302.442 256.692 302.635 257.188 302.787 257.483Z" fill="#FFE7BA"/>
<path d="M155.861 232.854C157.309 232.952 157.805 234.244 156.893 235.845C153.894 241.116 150.845 246.364 147.818 251.617C146.598 253.732 145.391 255.851 144.161 257.961C143.553 259.011 142.78 259.812 141.479 259.002C140.249 258.238 140.719 257.286 141.278 256.32C145.537 248.955 149.791 241.588 154.041 234.217C154.448 233.516 154.864 232.787 155.861 232.854Z" fill="#FFE7BA"/>
<path d="M252.792 89.5123C251.795 89.4273 251.299 89.101 251.066 88.5064C250.691 87.5363 251.151 86.8344 251.844 86.1504C254.911 83.1193 257.947 80.0525 260.996 76.9991C263.36 74.6296 265.739 72.2782 268.09 69.8953C268.985 69.0012 269.973 68.1697 271.113 69.3186C272.154 70.3692 271.425 71.3214 270.567 72.1753C265.086 77.6324 259.613 83.0984 254.147 88.5734C253.673 89.0473 253.217 89.5436 252.792 89.5123Z" fill="#2F54EB"/>
<path d="M189.395 152.976C189.422 153.352 188.921 153.808 188.447 154.286C182.984 159.749 177.521 165.214 172.058 170.68C171.199 171.543 170.269 172.254 169.205 171.181C168.141 170.108 168.803 169.191 169.679 168.315C175.157 162.867 180.62 157.402 186.069 151.921C186.762 151.228 187.477 150.799 188.433 151.184C189.028 151.421 189.328 151.939 189.395 152.976Z" fill="#2F54EB"/>
<path d="M175.393 109.965L167.185 107.761C162.196 106.422 157.205 105.081 152.213 103.737C151.1 103.442 150.192 102.932 150.536 101.609C150.88 100.286 151.766 100.196 152.973 100.523C160.573 102.602 168.226 104.618 175.853 106.656C176.864 106.929 177.691 107.412 177.472 108.632C177.288 109.687 176.595 110.152 175.393 109.965Z" fill="#2F54EB"/>
<path d="M288.239 140.096C287.658 140.002 287.283 139.98 286.93 139.886C279.517 137.892 272.107 135.892 264.697 133.886C263.602 133.591 262.404 133.22 262.811 131.732C263.218 130.243 264.371 130.364 265.533 130.681C273.017 132.702 280.492 134.74 287.985 136.734C289.111 137.034 289.983 137.449 289.773 138.782C289.762 138.97 289.714 139.154 289.63 139.323C289.547 139.493 289.43 139.643 289.286 139.766C289.143 139.889 288.977 139.981 288.797 140.038C288.617 140.095 288.427 140.114 288.239 140.096Z" fill="#2F54EB"/>
<path d="M230.377 164.295C230.269 163.665 230.882 163.062 231.718 162.883C232.894 162.637 233.403 163.433 233.685 164.488C235.111 169.852 236.577 175.177 238.021 180.519C238.652 182.871 239.251 185.236 239.877 187.587C240.158 188.66 239.979 189.554 238.804 189.876C237.628 190.198 237.015 189.496 236.716 188.446C234.63 180.747 232.558 173.046 230.502 165.342C230.439 165.132 230.444 164.903 230.377 164.295Z" fill="#2F54EB"/>
<path d="M209.848 75.4497C209.991 76.8803 209.436 77.4301 208.533 77.5732C207.474 77.7386 206.924 77.1262 206.66 76.1382C205.596 72.1459 204.501 68.1581 203.419 64.1704C202.453 60.5939 201.474 57.0487 200.526 53.4857C200.218 52.3233 199.865 51.0179 201.537 50.6379C202.994 50.3071 203.374 51.3577 203.696 52.5558C205.685 60.044 207.72 67.5188 209.763 74.9981C209.814 75.1434 209.843 75.2957 209.848 75.4497Z" fill="#2F54EB"/>
<path d="M302.845 201.16C303.438 201.281 303.975 201.595 304.369 202.054C306.348 204.048 308.333 206.036 310.324 208.018C311.218 208.89 311.746 209.806 310.633 210.857C309.609 211.818 308.746 211.223 307.95 210.441C305.858 208.353 303.748 206.279 301.692 204.156C301.186 203.632 300.753 202.989 301.285 202.171C301.438 201.884 301.662 201.641 301.935 201.464C302.207 201.288 302.521 201.183 302.845 201.16Z" fill="#2F54EB"/>
<path d="M139.239 37.518C139.15 38.8592 137.5 39.7533 136.601 38.9307C134.111 36.606 131.742 34.1472 129.372 31.6884C128.76 31.0535 129.001 30.3472 129.596 29.7169C130.191 29.0865 130.937 28.8808 131.576 29.4441C134.183 31.7509 136.637 34.2254 138.922 36.8519C139.065 37.0539 139.173 37.2793 139.239 37.518Z" fill="#2F54EB"/>
<path d="M190.517 231.609C191.147 231.752 191.809 232.423 191.478 233.697C190.709 236.625 189.882 239.54 189.095 242.464C188.809 243.536 188.201 244.252 187.043 243.948C185.8 243.603 185.586 242.651 185.912 241.476C186.685 238.699 187.41 235.91 188.179 233.138C188.425 232.257 188.742 231.381 190.517 231.609Z" fill="#2F54EB"/>
<path d="M98.2618 154.63C97.8802 154.698 97.4869 154.62 97.1609 154.41C96.8349 154.2 96.6005 153.874 96.5049 153.499C96.2456 152.658 96.3752 151.791 97.3677 151.509C100.563 150.597 103.768 149.726 106.984 148.894C107.932 148.653 108.598 149.247 108.848 150.092C108.927 150.284 108.961 150.492 108.95 150.699C108.938 150.906 108.881 151.108 108.782 151.291C108.682 151.473 108.544 151.631 108.376 151.753C108.208 151.875 108.015 151.958 107.811 151.997C104.615 152.891 101.405 153.767 98.2618 154.63Z" fill="#2F54EB"/>
<path d="M248.827 6.76485C249.618 3.86791 250.458 0.805592 251.29 -2.25676C251.585 -3.34758 252.363 -3.6829 253.333 -3.40125C254.303 -3.1196 254.741 -2.36407 254.455 -1.32242C253.637 1.6684 252.801 4.65472 251.983 7.65001C251.71 8.6559 251.111 9.26836 250.056 8.99119C249.108 8.70507 248.581 8.00767 248.827 6.76485Z" fill="#2F54EB"/>
<path d="M333.249 91.6703C332.833 91.7203 332.413 91.6093 332.076 91.36C331.738 91.1107 331.509 90.7419 331.434 90.3291C331.255 89.5512 331.47 88.7957 332.328 88.5409C335.529 87.6468 338.73 86.7526 341.949 85.9166C342.149 85.8582 342.359 85.8428 342.566 85.8714C342.772 85.9 342.97 85.972 343.146 86.0827C343.323 86.1933 343.474 86.3401 343.59 86.5134C343.706 86.6867 343.783 86.8825 343.818 87.0879C344.037 87.9463 343.818 88.742 342.812 89.0237C339.651 89.9178 336.423 90.7985 333.249 91.6703Z" fill="#2F54EB"/>
<path d="M620.058 47.834C620.862 48.0563 621.314 48.6104 621.822 49.1046L656.915 84.2081L659.778 87.0704C660.371 87.6598 661.108 88.3198 660.229 89.121C659.428 89.8516 658.846 89.054 658.32 88.5281C651.911 82.1516 645.517 75.7704 639.138 69.3846C632.785 63.0316 626.44 56.6787 620.104 50.3257C619.585 49.8069 618.798 49.341 619.302 48.4199C619.451 48.141 619.832 47.9999 620.058 47.834Z" fill="#FFD591"/>
<path d="M661.606 15.6538C670.526 15.6538 679.447 15.6538 688.37 15.6538C689.153 15.6538 690.226 15.3962 690.265 16.6068C690.307 17.9338 689.206 17.722 688.331 17.722H634.451C633.628 17.722 632.608 17.8597 632.538 16.7338C632.464 15.5444 633.477 15.6397 634.302 15.6397L661.606 15.6538Z" fill="#FFD591"/>
<path d="M514.5 15.6546H541.091C541.5 15.6546 541.913 15.6546 542.322 15.6546C542.562 15.6536 542.792 15.7466 542.964 15.9136C543.135 16.0805 543.235 16.3082 543.24 16.5475C543.264 16.6786 543.261 16.8133 543.23 16.9431C543.2 17.0728 543.143 17.1949 543.063 17.3016C542.983 17.4083 542.882 17.4974 542.766 17.5632C542.65 17.629 542.522 17.6701 542.389 17.684C541.92 17.7313 541.449 17.743 540.978 17.7193H487.451C486.579 17.7193 485.46 17.8922 485.481 16.6146C485.502 15.4428 486.575 15.644 487.38 15.644L514.5 15.6546Z" fill="#FFD591"/>
<path d="M586.842 90.1084C586.842 81.2473 586.842 72.3838 586.842 63.5179C586.818 63.047 586.831 62.5749 586.881 62.1061C586.914 61.8704 587.032 61.6549 587.212 61.5001C587.393 61.3454 587.624 61.2621 587.862 61.2661C588.101 61.2587 588.334 61.3357 588.521 61.4836C588.709 61.6315 588.838 61.8407 588.886 62.0743C588.954 62.5417 588.971 63.015 588.939 63.4861V116.844C588.939 117.253 588.939 117.666 588.921 118.076C588.926 118.209 588.902 118.342 588.851 118.465C588.801 118.589 588.725 118.7 588.628 118.792C588.531 118.884 588.416 118.955 588.29 118.999C588.164 119.043 588.031 119.061 587.898 119.05C587.764 119.07 587.628 119.061 587.498 119.022C587.369 118.984 587.249 118.918 587.148 118.828C587.047 118.739 586.967 118.628 586.914 118.504C586.86 118.38 586.835 118.246 586.839 118.111C586.81 117.641 586.839 117.172 586.839 116.699L586.842 90.1084Z" fill="#FFD591"/>
<path d="M516.353 89.3637C516.163 89.403 515.966 89.3831 515.788 89.3067C515.61 89.2303 515.46 89.1011 515.358 88.9366C515.232 88.7705 515.164 88.5679 515.164 88.3596C515.164 88.1512 515.232 87.9486 515.358 87.7825C515.683 87.3709 516.037 86.9829 516.417 86.6213L554.164 48.9166C554.368 48.7084 554.57 48.4896 554.785 48.2919C555.275 47.8472 555.844 47.6954 556.331 48.2143C556.818 48.7331 556.684 49.2731 556.225 49.7672C555.071 50.939 553.906 52.0966 552.745 53.2613C541.084 64.9131 529.424 76.5672 517.765 88.2237C517.31 88.6719 516.928 89.226 516.353 89.3637Z" fill="#FFD591"/>
<path d="M488.252 34.7255C487.567 34.849 486.872 34.8349 486.741 33.9878C486.565 32.8549 487.571 32.8231 488.255 32.6996C492.575 31.9231 496.906 31.2102 501.233 30.4725L518.88 27.4549C519.674 27.3208 520.645 26.9184 520.853 28.1396C521.061 29.3608 520.052 29.3043 519.222 29.449C509.248 31.1643 499.275 32.8925 489.303 34.6337C488.961 34.6902 488.605 34.6972 488.252 34.7255Z" fill="#597EF7"/>
<path d="M549.081 72.8016C549.134 73.384 548.799 73.6734 548.569 73.9981C542.534 82.5581 536.49 91.1099 530.439 99.6534C530.022 100.236 529.546 101.118 528.639 100.423C527.806 99.784 528.332 99.0887 528.79 98.4429C534.852 89.8946 540.897 81.3417 546.928 72.784C547.281 72.2864 547.634 71.8275 548.34 72.0393C548.524 72.0809 548.692 72.1751 548.824 72.3104C548.955 72.4458 549.045 72.6164 549.081 72.8016Z" fill="#597EF7"/>
<path d="M606.032 116.744C606.051 116.88 606.04 117.019 606.002 117.152C605.963 117.284 605.897 117.407 605.808 117.512C605.718 117.617 605.608 117.702 605.484 117.761C605.359 117.82 605.223 117.852 605.086 117.856C604.348 117.916 604.136 117.351 604.027 116.719C603.374 112.971 602.693 109.226 602.043 105.474C600.893 98.7686 599.763 92.0874 598.609 85.3921C598.482 84.6615 598.327 83.9309 599.315 83.7156C600.116 83.5356 600.483 83.9803 600.614 84.7497C602.381 95.1968 604.155 105.644 605.936 116.091C605.95 116.264 605.979 116.437 606.032 116.744Z" fill="#597EF7"/>
<path d="M655.765 6.079C655.545 6.06699 655.337 5.97368 655.182 5.81718C655.026 5.66067 654.935 5.45211 654.925 5.23193C654.791 4.40958 655.232 4.11312 655.984 3.98253C659.16 3.44959 662.312 2.84253 665.478 2.30606C672.738 1.0743 680.008 -0.111588 687.261 -1.37159C688.137 -1.52335 688.867 -1.56923 689.026 -0.598646C689.185 0.371941 688.359 0.460176 687.642 0.580175C680.33 1.83664 673.017 3.09901 665.704 4.36724L655.765 6.079Z" fill="#597EF7"/>
<path d="M671.852 75.5633C671.457 76.5092 670.793 76.5656 669.957 75.9798C668.088 74.6668 666.225 73.3515 664.366 72.0339L644.322 57.8315C643.655 57.3586 642.727 56.9068 643.412 55.9292C644.096 54.9515 644.862 55.7315 645.501 56.1798C653.816 62.0456 662.124 67.9198 670.422 73.8021C671.012 74.2221 671.809 74.5256 671.852 75.5633Z" fill="#597EF7"/>
<path d="M673.129 100.948C673.659 100.927 673.98 101.28 674.315 101.612C680.294 107.595 686.272 113.576 692.248 119.555C692.799 120.106 693.42 120.688 692.601 121.475C691.835 122.209 691.323 121.539 690.836 121.055C684.808 115.041 678.785 109.022 672.766 102.999C672.339 102.572 671.943 102.123 672.272 101.463C672.349 101.303 672.471 101.169 672.623 101.077C672.776 100.986 672.952 100.941 673.129 100.948Z" fill="#FFC069"/>
<path d="M721.733 15.6541C725.904 15.6541 730.076 15.6541 734.248 15.6541C735.046 15.6541 736.066 15.4565 736.013 16.7412C735.963 17.8459 735.053 17.7224 734.294 17.7224H709.249C708.423 17.7224 707.442 17.8247 707.484 16.6C707.523 15.467 708.476 15.6541 709.214 15.6541C713.386 15.647 717.557 15.6541 721.733 15.6541Z" fill="#FFC069"/>
<path d="M588.939 150.716C588.939 154.827 588.939 158.945 588.939 163.069C588.939 163.895 589.045 164.873 587.799 164.806C586.68 164.746 586.85 163.807 586.846 163.066C586.846 154.718 586.846 146.372 586.846 138.028C586.846 137.287 586.673 136.348 587.799 136.292C589.041 136.232 588.935 137.199 588.935 138.032L588.939 150.716Z" fill="#FFC069"/>
<path d="M454.073 15.6522H466.556C467.305 15.6522 468.258 15.4969 468.321 16.5874C468.371 17.7662 467.4 17.731 466.556 17.731H441.406C440.626 17.731 439.761 17.7945 439.765 16.6722C439.768 15.5498 440.651 15.6522 441.416 15.6522H454.073Z" fill="#FFC069"/>
<path d="M503.647 101.836C503.7 102.386 503.312 102.686 502.98 103.014C496.959 109.04 490.938 115.065 484.917 121.088C484.412 121.593 483.882 122.2 483.152 121.441C482.481 120.736 482.915 120.16 483.452 119.627L501.515 101.553C501.949 101.119 502.408 100.756 503.061 101.027C503.229 101.088 503.374 101.197 503.478 101.341C503.583 101.486 503.642 101.658 503.647 101.836Z" fill="#FFC069"/>
<path d="M504.872 67.7601C504.727 68.466 504.296 68.713 503.831 68.9954C497.193 73.0189 490.559 77.0565 483.928 81.1083C483.268 81.5106 482.541 82.0365 481.962 81.1083C481.383 80.18 482.216 79.7742 482.862 79.3824C489.498 75.3424 496.134 71.3048 502.772 67.2695C503.248 66.9765 503.749 66.4895 504.346 66.9942C504.558 67.2223 504.735 67.4804 504.872 67.7601Z" fill="#597EF7"/>
<path d="M639.032 99.6777C639.596 99.7836 639.896 100.211 640.172 100.662C644.24 107.352 648.312 114.039 652.387 120.724C652.814 121.429 653.16 122.135 652.207 122.654C651.254 123.173 650.975 122.301 650.633 121.744C646.549 115.066 642.494 108.371 638.403 101.697C637.803 100.719 637.878 100.091 639.032 99.6777Z" fill="#597EF7"/>
<path d="M706.588 46.6321L698.216 44.578C693.448 43.4133 688.687 42.238 683.912 41.0874C683.142 40.9003 682.249 40.7733 682.5 39.7321C682.743 38.7474 683.559 38.9097 684.37 39.1109C691.86 40.9497 699.36 42.7568 706.853 44.5815C707.58 44.758 708.476 44.8639 708.385 45.9121C708.353 46.6286 707.753 46.7945 706.588 46.6321Z" fill="#597EF7"/>
<path d="M557.912 135.427C558.533 132.917 559.278 129.91 560.03 126.903C561.198 122.139 562.377 117.374 563.517 112.602C563.693 111.865 563.87 111.088 564.78 111.282C565.691 111.476 565.691 112.207 565.486 113.086C563.622 120.628 561.822 128.188 559.98 135.737C559.825 136.383 559.733 137.255 558.766 137.192C558.053 137.149 557.75 136.637 557.912 135.427Z" fill="#597EF7"/>
<path d="M518.206 116.753C518.072 117.039 517.92 117.316 517.75 117.582C514.941 121.538 512.142 125.502 509.354 129.444C508.902 130.087 508.44 130.581 507.653 130.023C506.866 129.465 507.3 128.82 507.706 128.23C510.506 124.277 513.306 120.323 516.106 116.368C516.437 115.898 516.752 115.309 517.482 115.567C517.725 115.644 517.933 115.806 518.066 116.024C518.199 116.242 518.248 116.501 518.206 116.753Z" fill="#597EF7"/>
<path d="M687.918 86.2656C688.246 86.4703 688.606 86.668 688.941 86.9009C692.807 89.6303 696.669 92.3609 700.528 95.0927C701.178 95.548 701.866 96.0174 701.234 96.9103C700.631 97.7468 700.023 97.2138 699.445 96.8044C695.487 94.0091 691.532 91.2115 687.579 88.4115C687.109 88.0903 686.471 87.7868 686.823 87.0315C686.908 86.809 687.058 86.617 687.253 86.4805C687.448 86.344 687.68 86.2691 687.918 86.2656Z" fill="#597EF7"/>
<path d="M466.712 36.3958C467.418 36.3076 468.102 36.3358 468.282 37.1299C468.501 38.104 467.675 38.3123 466.991 38.4323C462.096 39.2982 457.199 40.1452 452.298 40.9734C451.62 41.0899 451.129 40.8287 451.045 40.1017C450.96 39.3746 451.302 39.0429 452.019 38.9158C456.918 38.0899 461.813 37.2394 466.712 36.3958Z" fill="#597EF7"/>
<path d="M607.662 138.118C607.56 137.02 607.609 136.353 608.488 136.286C609.459 136.226 609.575 137.066 609.692 137.737C610.444 142.057 611.156 146.384 611.884 150.707C611.961 151.166 612.071 151.622 612.159 152.084C612.296 152.79 612.184 153.407 611.336 153.538C610.489 153.669 610.228 153.157 610.105 152.416C609.54 149.01 608.944 145.614 608.358 142.216C608.118 140.716 607.849 139.216 607.662 138.118Z" fill="#597EF7"/>
<path d="M566.333 100.927L568.588 91.4609C568.916 90.1021 569.231 88.7398 569.591 87.388C569.763 86.7456 570.085 86.1104 570.911 86.3292C571.736 86.548 571.772 87.208 571.616 87.8927C570.522 92.3633 569.423 96.8339 568.32 101.304C568.158 101.972 567.861 102.564 567.011 102.363C566.393 102.229 566.22 101.749 566.333 100.927Z" fill="#597EF7"/>
<path d="M526.832 54.5186C526.769 54.7388 526.66 54.943 526.511 55.1171C526.362 55.2913 526.178 55.4315 525.97 55.5281C522.081 57.881 518.193 60.2446 514.306 62.6187C513.635 63.0281 512.982 63.2681 512.52 62.4458C512.107 61.7152 512.626 61.2493 513.226 60.8928C517.161 58.4963 521.093 56.0892 525.042 53.7175C525.882 53.2092 526.853 53.6716 526.832 54.5186Z" fill="#597EF7"/>
<path d="M517.016 0.483018C512.245 -0.699336 507.667 -1.83934 503.086 -2.95816C502.38 -3.1311 502.066 -3.5264 502.218 -4.21817C502.369 -4.90993 502.923 -5.04404 503.573 -4.88522C508.161 -3.78404 512.749 -2.70404 517.338 -1.57816C517.923 -1.43698 518.396 -1.0311 518.202 -0.29698C518.18 -0.165506 518.132 -0.0399752 518.059 0.0717306C517.986 0.183436 517.891 0.278898 517.78 0.35214C517.668 0.425383 517.543 0.474822 517.412 0.497344C517.28 0.519865 517.146 0.514987 517.016 0.483018Z" fill="#597EF7"/>
<path d="M634.21 91.0175C634.237 91.2428 634.191 91.4707 634.079 91.6676C633.966 91.8646 633.793 92.0203 633.586 92.1117C633.428 92.1962 633.247 92.2255 633.071 92.1947C632.895 92.164 632.735 92.0751 632.615 91.9423C632.315 91.5858 632.043 91.207 631.8 90.8093C629.579 87.174 627.363 83.534 625.154 79.8893C624.755 79.2328 624.194 78.5764 625.154 77.9552C626.114 77.334 626.502 78.2093 626.876 78.8199C629.199 82.5999 631.493 86.3976 633.79 90.1917C633.963 90.4846 634.101 90.8023 634.21 91.0175Z" fill="#597EF7"/>
<path d="M672.106 38.2192L666.194 36.8074C663.749 36.2191 661.306 35.6309 658.864 35.0427C658.158 34.8733 657.381 34.6897 657.547 33.7403C657.713 32.7909 658.528 32.8332 659.231 32.9991C663.666 34.0603 668.098 35.1415 672.526 36.2427C673.182 36.405 673.772 36.7262 673.585 37.5839C673.412 38.2192 672.914 38.3039 672.106 38.2192Z" fill="#597EF7"/>
<path d="M673.5 56.4132C673.147 57.6238 672.441 57.5744 671.555 57.1756C668.793 55.9026 666.027 54.6344 663.258 53.3709L629.915 38.092C629.756 38.0214 629.601 37.9438 629.439 37.8732C628.712 37.5661 628.172 37.1038 628.592 36.2673C628.976 35.4979 629.626 35.7097 630.261 36.0026C633.184 37.3473 636.12 38.6709 639.042 40.012C650.049 45.0567 661.055 50.105 672.06 55.1567C672.685 55.4426 673.412 55.6367 673.5 56.4132Z" fill="#FFA940"/>
<path d="M499.44 51.0538C498.861 51.0538 498.469 50.8562 498.342 50.3162C498.303 50.189 498.289 50.0549 498.304 49.9224C498.318 49.7898 498.36 49.6617 498.426 49.546C498.492 49.4304 498.582 49.3296 498.689 49.2502C498.796 49.1708 498.918 49.1143 499.048 49.0844C500.46 48.5515 501.872 47.9832 503.305 47.4538L542.075 33.0468C542.351 32.948 542.637 32.8738 542.901 32.7574C543.579 32.4609 544.214 32.4468 544.5 33.2374C544.786 34.028 544.302 34.4374 543.618 34.688C540.6 35.7997 537.586 36.9044 534.572 38.0268C523.344 42.2032 512.119 46.3833 500.898 50.5668C500.397 50.7468 499.892 50.9021 499.44 51.0538Z" fill="#FFA940"/>
<path d="M568.835 59.7943C568.719 60.0872 568.578 60.4719 568.408 60.8531C562.166 74.5002 555.919 88.1472 549.667 101.794C549.498 102.147 549.314 102.532 549.127 102.895C548.845 103.457 548.509 103.933 547.772 103.577C547.034 103.22 546.964 102.715 547.306 101.992C548.4 99.6696 549.445 97.319 550.518 94.9825L566.287 60.5602C566.506 60.0837 566.725 59.6037 566.975 59.1484C567.086 58.936 567.276 58.7762 567.505 58.7041C567.733 58.632 567.98 58.6534 568.193 58.7637C568.402 58.8362 568.579 58.9781 568.696 59.1656C568.813 59.3531 568.862 59.575 568.835 59.7943Z" fill="#FFA940"/>
<path d="M676.062 -15.3865C676.062 -14.2818 675.152 -14.2429 674.495 -13.9959C667.98 -11.5512 661.46 -9.12176 654.935 -6.70764C647.253 -3.85588 639.579 -1.00529 631.913 1.84412C631.207 2.11236 630.275 2.71942 629.877 1.49118C629.495 0.330006 630.547 0.157059 631.288 -0.114706C645.526 -5.42529 659.771 -10.73 674.022 -16.0288C674.841 -16.3218 675.755 -16.7347 676.062 -15.3865Z" fill="#FFA940"/>
<path d="M620.859 105.116C620.893 105.354 620.84 105.596 620.71 105.798C620.581 106 620.383 106.149 620.153 106.217C620.045 106.269 619.928 106.298 619.809 106.302C619.69 106.307 619.571 106.287 619.46 106.243C619.349 106.2 619.248 106.134 619.163 106.05C619.078 105.966 619.011 105.866 618.967 105.755C618.639 105.007 618.371 104.234 618.085 103.468C613.009 89.821 607.937 76.1845 602.866 62.5586C602.742 62.2304 602.619 61.9021 602.488 61.5739C602.245 60.9562 602.259 60.3774 602.954 60.1057C603.649 59.8339 604.172 60.1833 604.437 60.9033C605.3 63.2562 606.169 65.6092 607.045 67.9621L620.435 103.973C620.58 104.347 620.718 104.735 620.859 105.116Z" fill="#FFA940"/>
<path d="M490.793 53.5771C490.793 54.17 490.362 54.4806 489.851 54.6712C487.027 55.73 484.182 56.7677 481.352 57.8265C480.674 58.0806 480.212 57.9041 479.94 57.2371C479.884 57.1156 479.854 56.9834 479.853 56.8494C479.852 56.7155 479.88 56.5829 479.934 56.4605C479.989 56.3382 480.069 56.2289 480.169 56.14C480.269 56.0512 480.387 55.9848 480.515 55.9453C483.445 54.83 486.386 53.7465 489.339 52.6948C490.091 52.4406 490.609 52.7936 490.793 53.5771Z" fill="#FFD591"/>
<path d="M622.475 115.266C622.366 114.45 622.528 114.052 623.037 113.854C623.668 113.586 624.095 113.91 624.3 114.433C625.451 117.419 626.579 120.413 627.685 123.415C627.731 123.525 627.754 123.643 627.753 123.762C627.751 123.881 627.725 123.998 627.675 124.106C627.626 124.214 627.554 124.311 627.465 124.39C627.376 124.469 627.272 124.529 627.159 124.566C626.629 124.785 626.047 124.753 625.814 124.149C624.642 121.107 623.517 118.054 622.475 115.266Z" fill="#FFD591"/>
<path d="M539.725 121.456C539.019 121.29 538.666 120.824 539.072 119.97C540.328 117.217 541.567 114.457 542.848 111.718C543.131 111.108 543.607 110.596 544.373 111.013C545.139 111.429 544.938 112.047 544.648 112.675C543.427 115.315 542.209 117.969 541.016 120.606C540.783 121.117 540.533 121.53 539.725 121.456Z" fill="#FFD591"/>
<path d="M691.274 64.6494C691.129 65.3553 690.815 65.9411 689.862 65.5176C687.004 64.2235 684.153 62.9117 681.311 61.5824C680.774 61.3353 680.464 60.8765 680.704 60.3047C680.979 59.6483 681.593 59.5247 682.182 59.7859C685.006 61.0388 687.791 62.3306 690.593 63.6117C690.8 63.6932 690.976 63.8367 691.098 64.0225C691.22 64.2083 691.282 64.4273 691.274 64.6494Z" fill="#FFD591"/>
</svg>
