<svg width="640" height="563" viewBox="0 0 640 563" fill="none" xmlns="http://www.w3.org/2000/svg">
<path d="M-9.657 261.326C-8.93229 261.289 -8.58226 261.82 -8.18697 262.294L12.4836 287C20.6009 296.701 28.7126 306.405 36.8189 316.111C37.1689 316.523 37.4942 316.976 37.8565 317.384C38.5771 318.207 38.9354 319.031 37.8565 319.813C36.8807 320.55 36.2095 319.978 35.6083 319.237C33.5495 316.766 31.4907 314.296 29.4318 311.825L-3.20463 272.794C-5.67521 269.854 -8.13209 266.917 -10.5752 263.982C-11.0199 263.451 -11.4852 262.862 -10.987 262.154C-10.6823 261.717 -10.3158 261.252 -9.657 261.326Z" fill="#ADC6FF"/>
<path d="M82.1585 192.497C83.192 192.324 84.0196 192.624 84.1802 193.703C84.3408 194.782 83.4967 195.247 82.5331 195.416C72.1018 197.228 61.6787 199.036 51.2638 200.839C38.2849 203.093 25.3116 205.354 12.3438 207.621C12.0061 207.679 11.6767 207.761 11.339 207.815C11.1384 207.869 10.9284 207.879 10.7236 207.844C10.5187 207.809 10.3239 207.73 10.1524 207.613C9.981 207.495 9.83708 207.342 9.73057 207.164C9.62406 206.985 9.55749 206.786 9.53549 206.579C9.37902 205.64 9.94727 205.109 10.9396 204.932C15.5143 204.142 20.0808 203.285 24.6555 202.503C37.7002 200.227 50.7477 197.957 63.7978 195.692L82.1585 192.497Z" fill="#ADC6FF"/>
<path d="M63.4149 86.9437C63.3614 87.7302 62.6573 88.2696 62.1467 88.8749C56.5 95.5702 50.8369 102.249 45.1573 108.911L20.8632 137.554C19.5785 139.069 18.2691 140.56 16.9885 142.083C16.3256 142.866 15.6173 143.57 14.592 142.726C13.4514 141.787 14.1802 140.897 14.8432 140.094C18.0796 136.286 21.3367 132.501 24.5649 128.693C34.2112 117.311 43.8533 105.929 53.4914 94.5449C55.8384 91.7779 58.1732 89.0026 60.5285 86.2437C61.0102 85.6796 61.5043 85.0084 62.4061 85.4202C62.7116 85.538 62.9729 85.748 63.1537 86.021C63.3344 86.294 63.4258 86.6165 63.4149 86.9437Z" fill="#ADC6FF"/>
<path d="M10.6142 376.708C10.7172 377.803 10.2024 378.355 9.40773 378.512C8.48949 378.701 8.04478 378.038 7.76067 377.276C6.79714 374.655 5.84594 372.028 4.90711 369.395C-2.04897 349.96 -9.00227 330.522 -15.9529 311.081C-16.0409 310.752 -16.151 310.428 -16.2823 310.113C-16.8093 309.063 -16.3811 308.359 -15.4135 307.997C-14.4458 307.635 -13.894 308.265 -13.5811 309.125C-12.3074 312.647 -11.0364 316.171 -9.76814 319.695C-3.14696 338.172 3.47146 356.647 10.0871 375.119C10.3013 375.708 10.4783 376.296 10.6142 376.708Z" fill="#ADC6FF"/>
<path d="M49.3489 232.943L59.4124 234.784L108.001 243.62C111.562 244.267 115.116 244.95 118.682 245.58C119.794 245.778 121.115 245.864 120.815 247.396C120.489 249.043 119.098 248.603 117.961 248.397C108.422 246.673 98.8815 244.939 89.3395 243.196C75.9023 240.742 62.4678 238.289 49.036 235.838C48.0684 235.661 47.2613 235.406 47.2819 234.257C47.2901 233.211 47.9613 232.853 49.3489 232.943Z" fill="#ADC6FF"/>
<path d="M67.3801 151.064C67.1866 152.081 66.3054 152.403 65.5519 152.839L40.7142 167.189C33.739 171.216 26.7664 175.25 19.7966 179.291C18.8413 179.847 17.9642 180.114 17.363 178.999C16.7619 177.883 17.4001 177.265 18.3636 176.713C33.7499 167.858 49.1307 158.991 64.506 150.113C65.1195 149.759 65.7124 149.133 66.5648 149.701C66.7905 149.857 66.9801 150.059 67.1208 150.294C67.2615 150.529 67.3499 150.792 67.3801 151.064Z" fill="#ADC6FF"/>
<path d="M67.3719 282.628C67.3473 282.891 67.2629 283.144 67.1252 283.369C66.9874 283.594 66.7999 283.784 66.5771 283.925C65.8689 284.387 65.276 284.02 64.683 283.678C60.9524 281.537 57.2246 279.395 53.4995 277.251C42.1458 270.701 30.7976 264.147 19.4548 257.589C18.9237 257.284 18.3843 256.984 17.8613 256.662C17.6929 256.573 17.5448 256.45 17.4262 256.3C17.3076 256.151 17.221 255.979 17.1719 255.794C17.1229 255.61 17.1123 255.418 17.141 255.229C17.1696 255.04 17.2368 254.86 17.3384 254.698C17.7254 253.92 18.4337 253.702 19.249 254.097C19.6154 254.278 19.9489 254.509 20.303 254.723L65.6959 280.928C66.3836 281.331 67.236 281.591 67.3719 282.628Z" fill="#ADC6FF"/>
<path d="M113.885 309.491C113.918 310.788 112.592 311.332 111.196 310.533C106.164 307.651 101.145 304.727 96.1172 301.824C94.2848 300.766 92.4402 299.728 90.6119 298.662C89.7225 298.143 88.9648 297.484 89.7225 296.364C90.3607 295.397 91.1719 295.615 92.0407 296.117C98.9035 300.087 105.766 304.048 112.629 308.001C113.214 308.338 113.86 308.668 113.885 309.491Z" fill="#ADC6FF"/>
<path d="M113.893 124.258C113.922 124.875 113.325 125.266 112.736 125.604C105.827 129.606 98.9118 133.599 91.9914 137.582C91.1184 138.085 90.2661 138.233 89.6773 137.257C89.0885 136.281 89.5991 135.61 90.5008 135.095C97.4761 131.072 104.439 127.029 111.427 123.026C112.613 122.339 113.79 122.89 113.893 124.258Z" fill="#ADC6FF"/>
<path d="M-11.0733 174.506C-11.3467 174.533 -11.6219 174.479 -11.8649 174.35C-12.1079 174.222 -12.308 174.026 -12.4404 173.785C-12.9633 173.06 -12.5927 172.513 -12.1316 171.961C-10.0192 169.449 -7.91921 166.921 -5.79451 164.417C-3.00274 161.123 -0.178039 157.875 2.59314 154.568C3.32196 153.699 4.092 152.95 5.15435 153.798C6.27847 154.696 5.54141 155.61 4.84553 156.429C-0.0215302 162.169 -4.88862 167.912 -9.75568 173.658C-10.1016 174.065 -10.4268 174.547 -11.0733 174.506Z" fill="#ADC6FF"/>
<path d="M31.0873 232.572C26.1241 231.683 21.1638 230.791 16.2061 229.896C13.5955 229.422 10.9932 228.883 8.3826 228.442C7.29966 228.261 6.44318 227.858 6.67377 226.66C6.90436 225.461 7.9379 225.383 8.95908 225.568C16.4669 226.927 23.972 228.292 31.4743 229.661C32.4584 229.842 33.1585 230.304 32.9526 231.44C32.7591 232.47 32.022 232.7 31.0873 232.572Z" fill="#ADC6FF"/>
<path d="M9.78245 62.4979C9.73304 62.642 9.60126 63.0249 9.46126 63.4038L4.49536 77.029C4.14125 78.0008 3.83654 79.1538 2.43654 78.7173C0.896543 78.2355 1.36599 77.0702 1.75305 76.0285C3.47148 71.3618 5.18854 66.6951 6.90422 62.0285C7.21305 61.2049 7.63713 60.5091 8.66654 60.7932C9.37477 60.962 9.90598 61.382 9.78245 62.4979Z" fill="#ADC6FF"/>
<path d="M98.5385 192.591C97.3444 192.669 96.6979 192.426 96.5908 191.459C96.4838 190.491 96.8996 189.906 97.892 189.737C103.064 188.844 108.235 187.959 113.399 187.036C114.367 186.863 115.046 187.102 115.293 188.07C115.598 189.231 114.881 189.717 113.897 189.877C110.344 190.528 106.79 191.154 103.233 191.78C101.557 192.076 99.8767 192.36 98.5385 192.591Z" fill="#ADC6FF"/>
<path d="M58.7701 342.795C58.8094 343.122 58.7351 343.452 58.5597 343.731C58.3843 344.01 58.1184 344.22 57.8066 344.326C57.1437 344.61 56.6289 344.298 56.1966 343.783C54.2983 341.535 52.3878 339.299 50.4978 337.05C49.0443 335.321 47.6154 333.579 46.1701 331.842C45.5566 331.1 45.1242 330.252 45.9889 329.49C46.9195 328.667 47.706 329.161 48.4101 330.009C51.6548 333.896 54.9242 337.755 58.1813 341.629C58.5127 341.933 58.7221 342.347 58.7701 342.795Z" fill="#ADC6FF"/>
<path d="M242.774 42.2099C242.514 42.2253 242.257 42.1563 242.04 42.0133C241.823 41.8702 241.658 41.6608 241.57 41.4164C241.261 40.5968 241.645 40.0268 242.219 39.4605C244.778 36.9346 247.308 34.3789 249.848 31.8381L283.005 -1.31871C283.717 -2.03028 284.454 -2.9095 285.486 -1.92224C286.604 -0.841849 285.684 -0.05952 284.924 0.707931C271.423 14.2066 257.922 27.7041 244.42 41.2003C243.925 41.6697 243.526 42.2807 242.774 42.2099Z" fill="#597EF7"/>
<path d="M125.432 159.615C125.432 160.408 124.81 160.792 124.34 161.261C112.603 173.009 100.862 184.753 89.1196 196.493C87.3239 198.289 85.5282 200.086 83.7325 201.884C83.0247 202.599 82.2423 203.162 81.3519 202.257C80.4615 201.351 81.0762 200.588 81.7766 199.891C95.4045 186.263 109.029 172.634 122.649 159.004C123.211 158.441 123.767 158.016 124.597 158.307C124.867 158.394 125.097 158.572 125.25 158.811C125.402 159.049 125.466 159.334 125.432 159.615Z" fill="#597EF7"/>
<path d="M163 18.6428C163.119 19.8312 162.668 20.3714 161.942 20.5055C160.958 20.6695 160.548 20.0063 160.317 19.1234C159.181 14.8279 158 10.5547 156.853 6.25553C153.023 -8.04787 149.197 -22.3525 145.374 -36.6584C145.289 -36.8903 145.215 -37.1266 145.155 -37.3662C145.013 -38.2343 145.132 -39.0613 146.119 -39.2923C147.107 -39.5233 147.569 -38.9198 147.815 -38.0182C148.865 -34.0841 149.972 -30.1648 151.022 -26.2307C154.944 -11.5771 158.859 3.08513 162.769 17.7561C162.877 18.1585 162.981 18.5757 163 18.6428Z" fill="#597EF7"/>
<path d="M265.026 120.666C267.824 121.411 270.935 122.186 274.034 123.017C289.59 127.2 305.141 131.387 320.689 135.579C320.987 135.661 321.292 135.714 321.583 135.807C322.462 136.082 323.315 136.466 322.935 137.602C322.592 138.619 321.758 138.72 320.797 138.456C317.045 137.431 313.29 136.429 309.535 135.423L265.723 123.68C265.178 123.571 264.642 123.424 264.117 123.241C263.447 122.954 262.962 122.443 263.171 121.642C263.379 120.841 263.905 120.528 265.026 120.666Z" fill="#597EF7"/>
<path d="M45.8445 61.9286C47.0851 62.2452 48.702 62.6439 50.3151 63.076L101.611 76.8305C102.033 76.9215 102.447 77.046 102.848 77.2031C103.456 77.475 103.899 77.9481 103.742 78.656C103.586 79.3638 103.094 79.8817 102.278 79.7736C101.606 79.6821 100.942 79.5439 100.289 79.3601C82.1755 74.5095 64.0634 69.6552 45.9526 64.7972C45.592 64.7078 45.2363 64.5996 44.8871 64.4731C44.1718 64.1974 43.7359 63.6833 43.9259 62.8972C44.1159 62.1111 44.6524 61.7758 45.8445 61.9286Z" fill="#597EF7"/>
<path d="M277.693 193.021C278.253 193.134 278.757 193.437 279.12 193.878C286.22 200.982 293.322 208.082 300.426 215.181C301.171 215.926 301.588 216.76 300.701 217.576C299.9 218.321 299.118 217.878 298.436 217.204C291.338 210.095 284.238 202.992 277.138 195.894C276.62 195.376 276.02 194.866 276.437 193.975C276.551 193.725 276.726 193.507 276.945 193.34C277.164 193.174 277.421 193.064 277.693 193.021Z" fill="#597EF7"/>
<path d="M90.6173 5.93055C90.5865 6.20113 90.4894 6.45993 90.3348 6.6841C90.1801 6.90827 89.9726 7.09089 89.7306 7.21582C89.4799 7.34512 89.1928 7.38568 88.9161 7.33088C88.6394 7.27608 88.3894 7.12918 88.2069 6.91408C86.9887 5.76663 85.8114 4.57822 84.6305 3.39351L67.0275 -14.2281C66.9418 -14.3137 66.8449 -14.392 66.7593 -14.4814C66.0142 -15.2526 65.1014 -16.102 66.2042 -17.134C67.1765 -18.0504 67.9924 -17.2755 68.7226 -16.5342C70.4624 -14.7683 72.2208 -13.021 73.9755 -11.27C79.1018 -6.14377 84.2281 -1.01749 89.3544 4.10878C89.8722 4.62662 90.5055 5.07741 90.6173 5.93055Z" fill="#597EF7"/>
<path d="M312.426 67.0861C312.072 67.1483 311.708 67.0685 311.412 66.8643C311.116 66.66 310.913 66.3476 310.846 65.9946C310.611 65.1153 311.125 64.6012 311.964 64.3777L318.93 62.515L341.429 56.4461C342.408 56.1816 343.381 56.122 343.735 57.2806C344.107 58.5287 343.116 58.8565 342.189 59.1061C332.423 61.7338 322.658 64.3541 312.895 66.9669L312.426 67.0861Z" fill="#597EF7"/>
<path d="M150.415 228.857C149.063 233.95 147.834 238.596 146.593 243.238C145.239 248.3 143.881 253.36 142.517 258.419C142.454 258.654 142.357 258.885 142.297 259.123C142.059 260.051 141.634 260.811 140.517 260.476C139.399 260.14 139.399 259.276 139.645 258.356C141.038 253.182 142.434 248.007 143.832 242.828C145.062 238.242 146.265 233.648 147.506 229.066C147.74 228.209 148.109 227.319 149.26 227.621C150.043 227.818 150.497 228.396 150.415 228.857Z" fill="#597EF7"/>
<path d="M24.6537 144.163C23.8043 144.278 23.3274 143.76 23.1411 143.075C22.9027 142.188 23.4541 141.704 24.2774 141.48C27.1311 140.702 29.9811 139.916 32.846 139.148C39.8127 137.285 46.7831 135.423 53.7423 133.526C54.7594 133.251 55.6758 133.225 56.0409 134.35C56.4544 135.616 55.3964 135.948 54.5023 136.19C44.7415 138.828 34.9758 141.452 25.205 144.062C25.0225 144.11 24.8362 144.129 24.6537 144.163Z" fill="#597EF7"/>
<path d="M221.725 237.749C221.948 239.035 221.445 239.537 220.76 239.716C219.747 239.981 219.322 239.273 219.087 238.416C218.018 234.489 216.934 230.567 215.883 226.632C211.974 212.028 208.075 197.422 204.185 182.813C204.088 182.441 203.984 182.102 203.917 181.736C203.768 180.928 203.891 180.198 204.804 179.963C205.716 179.728 206.294 180.239 206.555 181.144C207.354 184.124 208.155 187.105 208.958 190.085C213.152 205.762 217.346 221.439 221.538 237.116C221.635 237.47 221.743 237.824 221.725 237.749Z" fill="#597EF7"/>
<path d="M243.228 98.7785H271.866C272.363 98.7518 272.862 98.7667 273.356 98.8232C273.676 98.8843 273.964 99.0558 274.171 99.3076C274.377 99.5595 274.488 99.8758 274.485 100.201C274.482 100.527 274.365 100.841 274.154 101.089C273.942 101.337 273.651 101.503 273.33 101.558C272.836 101.616 272.337 101.631 271.84 101.602H213.823C212.858 101.602 211.822 101.561 211.789 100.272C211.755 98.9089 212.772 98.7822 213.849 98.7822C223.083 98.7822 232.318 98.7822 241.552 98.7822L243.228 98.7785Z" fill="#FFC069"/>
<path d="M126.52 101.609H97.8856C97.3291 101.637 96.7714 101.609 96.2203 101.527C95.9084 101.479 95.6272 101.313 95.4355 101.062C95.2439 100.811 95.1566 100.496 95.1921 100.183C95.1685 99.8686 95.2638 99.5571 95.4591 99.3101C95.6544 99.0631 95.9354 98.8984 96.2464 98.8489C96.7995 98.7754 97.3583 98.7542 97.9154 98.7855H155.012C155.385 98.7855 155.757 98.7855 156.13 98.7855C157.028 98.8041 157.747 99.1022 157.795 100.127C157.847 101.278 157.08 101.617 156.1 101.617C153.559 101.617 151.015 101.617 148.474 101.617L126.52 101.609Z" fill="#FFC069"/>
<path d="M171.941 125.109C171.825 125.336 171.621 125.78 171.378 126.201L142.483 176.29C142.327 176.554 142.156 176.815 142.01 177.083C141.571 177.896 140.893 178.361 140.04 177.896C139.108 177.4 139.049 176.629 139.596 175.709C141.176 173.053 142.707 170.37 144.253 167.695C152.472 153.469 160.691 139.24 168.912 125.009C169.12 124.625 169.348 124.252 169.594 123.891C169.948 123.392 170.44 123.146 171.039 123.395C171.639 123.645 172.042 124.133 171.941 125.109Z" fill="#FFC069"/>
<path d="M199.182 77.1096C197.934 77.1543 197.319 75.9472 197.908 74.8259C199.089 72.6539 200.348 70.5266 201.581 68.3882C210.1 53.6204 218.621 38.8537 227.145 24.0884C227.332 23.768 227.518 23.4513 227.715 23.131C228.174 22.3523 228.874 22.1511 229.612 22.5609C230.457 23.0341 230.55 23.7494 230.04 24.61C228.84 26.6292 227.693 28.6819 226.519 30.7123C217.891 45.6366 209.264 60.5609 200.639 75.4852C200.236 76.1819 199.901 76.9196 199.182 77.1096Z" fill="#FFC069"/>
<path d="M171.989 75.7091C171.989 76.3722 171.568 76.7075 171.062 76.9869C170.843 77.1145 170.584 77.152 170.339 77.0915C170.093 77.031 169.881 76.8772 169.747 76.6628C169.438 76.2799 169.162 75.871 168.923 75.4408C159.349 58.8624 149.778 42.284 140.211 25.7055C140.084 25.4932 139.976 25.2697 139.838 25.061C139.25 24.1781 138.754 23.2244 140.006 22.5612C141.258 21.8981 141.765 22.9114 142.279 23.7944C145.582 29.5068 148.89 35.2267 152.203 40.954C158.559 51.9765 164.911 63.0039 171.259 74.0364C171.565 74.5691 171.96 75.0571 171.989 75.7091Z" fill="#FFC069"/>
<path d="M198.958 123.307C199.96 123.433 200.247 124.234 200.642 124.92L214.825 149.482L229.768 175.329C230.14 175.959 230.692 176.544 230.174 177.352C229.477 178.444 228.281 178.224 227.473 176.831C222.463 168.165 217.456 159.499 212.452 150.831C207.785 142.749 203.119 134.668 198.455 126.589C198.144 126.126 197.893 125.625 197.71 125.099C197.382 124.026 198.027 123.526 198.958 123.307Z" fill="#FFC069"/>
<path d="M184.842 -23.0949C184.842 -14.2879 184.842 -5.48204 184.842 3.32253C184.86 3.81956 184.847 4.3172 184.805 4.81273C184.787 5.12801 184.651 5.42505 184.425 5.6456C184.199 5.86614 183.899 5.99426 183.583 6.00487C183.412 6.02961 183.237 6.02031 183.07 5.97749C182.902 5.93467 182.744 5.85921 182.606 5.75538C182.467 5.65155 182.351 5.52143 182.263 5.37246C182.175 5.22349 182.117 5.05857 182.093 4.88722C182.017 4.33427 181.996 3.77528 182.029 3.21821C182.029 -14.3288 182.029 -31.8771 182.029 -49.4267C182.029 -49.6129 182.029 -49.7992 182.029 -49.9855C181.992 -51.1031 182.029 -52.2916 183.497 -52.2692C184.85 -52.2431 184.838 -51.0808 184.838 -50.0339C184.838 -41.972 184.838 -33.9112 184.838 -25.8518L184.842 -23.0949Z" fill="#FFC069"/>
<path d="M182.041 223.428V197.223C182.004 196.667 182.025 196.109 182.104 195.557C182.128 195.386 182.185 195.221 182.273 195.071C182.361 194.922 182.478 194.792 182.616 194.688C182.755 194.584 182.912 194.509 183.08 194.466C183.248 194.423 183.423 194.415 183.594 194.44C183.909 194.453 184.208 194.581 184.434 194.8C184.66 195.019 184.797 195.314 184.82 195.628C184.866 196.185 184.878 196.743 184.857 197.301V250.091C184.874 250.589 184.853 251.087 184.794 251.581C184.76 251.895 184.609 252.185 184.371 252.392C184.132 252.6 183.824 252.709 183.509 252.699C183.337 252.716 183.165 252.699 183 252.648C182.836 252.598 182.684 252.514 182.552 252.403C182.421 252.292 182.313 252.156 182.236 252.003C182.158 251.85 182.112 251.682 182.1 251.511C182.051 251.015 182.033 250.518 182.048 250.02V223.439L182.041 223.428Z" fill="#FFC069"/>
<path d="M266.565 53.722C265.693 53.7779 265.201 53.5618 265.011 52.9434C264.863 52.5975 264.859 52.2071 264.999 51.8578C265.138 51.5085 265.411 51.229 265.757 51.0806C267.645 50.03 269.482 48.9124 271.363 47.832C284.994 39.9637 298.629 32.1042 312.269 24.2534C313.204 23.7169 314.397 22.2453 315.399 23.9479C316.367 25.5908 314.654 26.0044 313.663 26.5781C298.495 35.3678 283.322 44.1412 268.145 52.8986C267.578 53.2451 266.96 53.5208 266.565 53.722Z" fill="#FFC069"/>
<path d="M101.984 52.3406C102.01 53.6222 100.955 54.1214 99.5882 53.354C96.0303 51.3571 92.5097 49.3118 88.9705 47.2702C77.0887 40.4128 65.2143 33.5431 53.3474 26.6608C52.3452 26.0797 50.449 25.6922 51.5256 23.9226C52.5501 22.2387 53.7609 23.7624 54.6699 24.2952C69.9445 33.065 85.2003 41.867 100.438 50.7014C101.112 51.0814 102.002 51.3049 101.984 52.3406Z" fill="#FFC069"/>
<path d="M100.624 146.664C100.904 146.628 101.188 146.694 101.424 146.849C101.66 147.004 101.833 147.238 101.913 147.509C102.174 148.336 101.868 148.914 101.101 149.35C98.1985 150.993 95.3187 152.677 92.4277 154.342L54.3904 176.322C54.0663 176.509 53.7422 176.695 53.4255 176.881C52.6804 177.351 51.9763 177.254 51.492 176.527C50.9332 175.678 51.2796 174.966 52.0694 174.489C53.6006 173.562 55.1579 172.675 56.7114 171.777L98.951 147.42C99.48 147.107 99.9643 146.69 100.624 146.664Z" fill="#FFC069"/>
<path d="M315.652 175.73C315.682 176.956 314.557 177.463 313.26 176.729C310.034 174.903 306.834 173.037 303.622 171.181L266.546 149.76C266.104 149.54 265.684 149.277 265.294 148.974C264.754 148.497 264.806 147.856 265.116 147.275C265.239 147.018 265.456 146.818 265.722 146.715C265.987 146.613 266.282 146.616 266.546 146.724C267.064 146.921 267.562 147.164 268.036 147.45C283.4 156.314 298.761 165.182 314.117 174.054C314.795 174.464 315.622 174.736 315.652 175.73Z" fill="#FFC069"/>
<path d="M184.842 146.601C184.842 154.964 184.842 163.326 184.842 171.689C184.872 172.31 184.851 172.934 184.779 173.552C184.745 173.865 184.593 174.155 184.355 174.362C184.117 174.569 183.809 174.679 183.494 174.669C183.18 174.686 182.87 174.59 182.62 174.399C182.37 174.208 182.196 173.934 182.13 173.626C182.037 173.135 182.008 172.634 182.045 172.136C182.045 154.976 182.045 137.815 182.045 120.653C182.011 120.155 182.044 119.653 182.141 119.163C182.208 118.855 182.384 118.582 182.637 118.393C182.889 118.205 183.202 118.114 183.516 118.139C183.83 118.134 184.134 118.246 184.371 118.452C184.607 118.659 184.759 118.945 184.798 119.256C184.864 119.809 184.881 120.366 184.85 120.922C184.85 129.493 184.847 138.053 184.842 146.601Z" fill="#FA8C16"/>
<path d="M184.846 54.08C184.846 62.4549 184.846 70.8298 184.846 79.2047C184.874 79.8256 184.864 80.4477 184.816 81.0674C184.79 81.3821 184.649 81.6761 184.42 81.8938C184.192 82.1114 183.891 82.2376 183.576 82.2484C183.231 82.2895 182.884 82.1963 182.607 81.9882C182.329 81.78 182.142 81.4729 182.085 81.1307C182.017 80.637 182.003 80.1373 182.044 79.6405V28.4635C182.044 28.0909 182.022 27.7184 182.044 27.3458C182.115 26.4443 182.477 25.7774 183.509 25.8035C184.44 25.8296 184.783 26.4554 184.839 27.2937C184.876 27.7892 184.839 28.2847 184.839 28.7839L184.846 54.08Z" fill="#FA8C16"/>
<path d="M168.122 109.911C168.089 110.727 167.403 111.074 166.763 111.442L140.11 126.81C133.901 130.389 127.692 133.974 121.483 137.566C120.552 138.109 119.71 138.612 118.991 137.372C118.272 136.131 119.225 135.692 120.034 135.226C135.221 126.449 150.414 117.679 165.611 108.917C166.867 108.194 168.063 108.667 168.122 109.911Z" fill="#FA8C16"/>
<path d="M120.373 62.2601C120.726 62.4501 121.166 62.6699 121.587 62.9158C136.616 71.5838 151.642 80.2567 166.665 88.9346C167.515 89.4264 168.618 89.8511 167.876 91.1699C167.18 92.3993 166.308 91.8927 165.376 91.3562C150.407 82.7056 135.433 74.0649 120.455 65.4342C120.015 65.2097 119.601 64.9374 119.221 64.6221C118.99 64.4588 118.832 64.2125 118.778 63.9347C118.725 63.6569 118.781 63.3693 118.935 63.1319C119.067 62.8651 119.272 62.6414 119.527 62.487C119.781 62.3326 120.075 62.2539 120.373 62.2601Z" fill="#FA8C16"/>
<path d="M200.359 91.9683C200.034 91.9685 199.717 91.8689 199.45 91.683C199.184 91.4971 198.981 91.2339 198.869 90.9289C198.563 90.1466 198.995 89.6436 199.644 89.2674L206.063 85.5419L244.569 63.3119C244.89 63.1256 245.221 62.9393 245.534 62.7568C246.395 62.2091 247.24 61.885 247.9 63.0101C248.611 64.2171 247.628 64.6903 246.86 65.1634C245.37 66.0724 243.88 66.9144 242.39 67.7713L201.782 91.1971C201.305 91.4989 200.806 91.7374 200.359 91.9683Z" fill="#FA8C16"/>
<path d="M248.165 136.699C248.116 137.94 246.905 138.42 245.665 137.712C241.641 135.41 237.624 133.098 233.613 130.776L200.709 111.753C200.389 111.571 200.061 111.381 199.744 111.198C198.999 110.74 198.429 110.192 198.999 109.242C199.569 108.292 200.307 108.315 201.197 108.84C204.502 110.781 207.821 112.692 211.137 114.607L246.458 134.974C247.196 135.414 248.064 135.719 248.165 136.699Z" fill="#FA8C16"/>
<path d="M243.437 158.862C243.453 159.115 243.389 159.366 243.256 159.581C243.122 159.796 242.925 159.964 242.692 160.062C241.991 160.379 241.358 160.144 240.829 159.618C239.2 158.002 237.575 156.381 235.956 154.757C227.718 146.511 219.478 138.268 211.237 130.027C210.932 129.718 210.619 129.416 210.321 129.099C209.654 128.391 209.337 127.65 210.179 126.864C210.947 126.119 211.629 126.443 212.273 127.065C212.497 127.281 212.716 127.501 212.936 127.721C222.712 137.497 232.488 147.276 242.263 157.059C242.807 157.562 243.467 157.994 243.437 158.862Z" fill="#2F54EB"/>
<path d="M157.207 72.6777C157.178 72.9089 157.092 73.1295 156.957 73.3199C156.823 73.5103 156.644 73.6646 156.435 73.7692C155.716 74.1045 155.102 73.8549 154.573 73.3371C152.946 71.7277 151.322 70.1133 149.7 68.4939L124.739 43.5332L124.344 43.1382C123.599 42.3931 122.936 41.5251 123.912 40.6049C124.784 39.7853 125.603 40.3665 126.311 41.0892C127.701 42.5086 129.113 43.8983 130.513 45.299C139.015 53.8006 147.517 62.3022 156.018 70.8037C156.536 71.2955 157.166 71.7537 157.207 72.6777Z" fill="#2F54EB"/>
<path d="M206.204 20.5497C205.459 23.3699 204.655 26.4732 203.828 29.5729C200.989 40.188 198.147 50.7982 195.304 61.4035C195.225 61.7015 195.08 61.9884 195.032 62.2864C194.845 63.4041 194.227 64.0485 193.109 63.7058C191.992 63.363 192.13 62.495 192.364 61.5674C194.421 53.9425 196.464 46.3103 198.493 38.6705C200.07 32.7693 201.646 26.8669 203.22 20.9633C203.321 20.5431 203.446 20.1289 203.593 19.7227C203.865 19.0111 204.383 18.5864 205.172 18.7466C205.962 18.9068 206.298 19.4582 206.204 20.5497Z" fill="#2F54EB"/>
<path d="M221.464 91.4198C220.644 91.4571 220.059 91.2112 219.922 90.3767C219.761 89.4081 220.212 88.9275 221.17 88.6779C225.707 87.4857 230.226 86.2302 234.76 85.0157C243.88 82.5668 253.001 80.1279 262.124 77.6989C262.422 77.6206 262.731 77.5759 263.026 77.4902C263.953 77.2331 264.676 77.4902 264.907 78.4439C265.138 79.3977 264.505 79.9043 263.629 80.1427C260.056 81.1077 256.484 82.0912 252.907 83.0487C242.891 85.7236 232.871 88.3922 222.85 91.0547L221.464 91.4198Z" fill="#2F54EB"/>
<path d="M160.724 179.758C161.048 178.536 161.469 176.923 161.897 175.313C165.213 162.977 168.527 150.641 171.841 138.304C172.105 137.317 172.347 136.423 173.595 136.676C175.048 136.974 174.739 138.103 174.486 139.049C170.812 152.754 167.128 166.46 163.432 180.168C163.186 181.092 162.847 181.881 161.73 181.658C161.007 181.542 160.567 180.984 160.724 179.758Z" fill="#2F54EB"/>
<path d="M103.847 122.937C102.729 123.082 102.159 122.728 101.984 121.972C101.771 120.996 102.356 120.534 103.258 120.288C107.252 119.226 111.234 118.112 115.224 117.039C124.876 114.439 134.531 111.849 144.19 109.268C144.71 109.075 145.259 108.97 145.814 108.955C146.13 108.967 146.428 109.1 146.647 109.327C146.866 109.555 146.988 109.858 146.988 110.173C147.055 111.198 146.425 111.559 145.557 111.786C141.977 112.736 138.412 113.724 134.831 114.677C124.763 117.372 114.689 120.061 104.61 122.743C104.275 122.84 103.917 122.922 103.847 122.937Z" fill="#2F54EB"/>
<path d="M306.14 98.7791C309.549 98.7791 312.958 98.7977 316.367 98.7791C317.485 98.7791 318.476 98.984 318.442 100.269C318.412 101.473 317.403 101.61 316.397 101.61C309.398 101.596 302.396 101.596 295.392 101.61C294.372 101.61 293.407 101.432 293.407 100.217C293.407 99.0026 294.308 98.7642 295.359 98.7717C298.935 98.794 302.53 98.7791 306.14 98.7791Z" fill="#FFE7BA"/>
<path d="M63.7192 98.7789C67.1839 98.7789 70.6486 98.7789 74.1133 98.7789C75.2049 98.7789 76.222 98.9689 76.2071 100.269C76.2071 101.499 75.1714 101.607 74.1804 101.607C67.1889 101.607 60.1962 101.607 53.2022 101.607C52.2075 101.607 51.2426 101.51 51.2351 100.224C51.2351 98.8162 52.2745 98.7715 53.3214 98.7715C56.7898 98.7864 60.2583 98.7789 63.7192 98.7789Z" fill="#FFE7BA"/>
<path d="M118.652 -15.7284C119.397 -15.7284 119.769 -15.1994 120.064 -14.6704C123.69 -8.42394 127.302 -2.16885 130.901 4.09494C131.359 4.8922 131.378 5.61123 130.499 6.15888C129.556 6.74378 128.975 6.2334 128.532 5.46967C124.851 -0.890982 121.181 -7.25536 117.523 -13.6235C117.383 -13.8268 117.303 -14.0646 117.289 -14.3107C117.276 -14.5569 117.331 -14.802 117.447 -15.0192C117.564 -15.2365 117.738 -15.4175 117.95 -15.5426C118.162 -15.6676 118.405 -15.7319 118.652 -15.7284Z" fill="#FFE7BA"/>
<path d="M239.827 6.40775C238.549 6.31461 238.121 5.15224 238.873 3.82596C240.907 0.23459 242.971 -3.33068 245.05 -6.90715C246.499 -9.41441 247.964 -11.918 249.405 -14.4289C249.938 -15.3603 250.583 -16.1911 251.734 -15.4572C252.814 -14.768 252.255 -13.8664 251.778 -13.0356C248.326 -7.05744 244.875 -1.07677 241.425 4.90636C241.023 5.59185 240.684 6.37049 239.827 6.40775Z" fill="#FFE7BA"/>
<path d="M252.322 214.573C252.322 215.352 252.024 215.78 251.436 215.989C250.586 216.287 250.027 215.937 249.603 215.192C248.167 212.678 246.722 210.168 245.266 207.662C243.197 204.088 241.125 200.518 239.048 196.952C238.959 196.791 238.877 196.627 238.787 196.467C238.311 195.633 238.128 194.813 239.13 194.232C240.132 193.651 240.743 194.34 241.198 195.126C243.612 199.284 246.004 203.452 248.407 207.614C249.547 209.588 250.685 211.563 251.823 213.537C252.035 213.914 252.196 214.327 252.322 214.573Z" fill="#FFE7BA"/>
<path d="M129.884 194.049C131.091 194.13 131.505 195.207 130.745 196.541C128.245 200.933 125.704 205.307 123.182 209.684C122.165 211.447 121.159 213.212 120.134 214.971C119.628 215.846 118.983 216.513 117.899 215.839C116.875 215.202 117.266 214.408 117.732 213.604C121.281 207.466 124.826 201.327 128.368 195.185C128.707 194.6 129.053 193.993 129.884 194.049Z" fill="#FFE7BA"/>
<path d="M210.66 74.5962C209.829 74.5254 209.416 74.2534 209.222 73.7579C208.909 72.9495 209.293 72.3646 209.87 71.7946C212.426 69.2687 214.955 66.713 217.496 64.1685C219.467 62.194 221.449 60.2344 223.409 58.2487C224.154 57.5036 224.977 56.8107 225.927 57.7681C226.795 58.6436 226.188 59.4371 225.472 60.1487C220.905 64.6963 216.344 69.2513 211.789 73.8138C211.394 74.2087 211.014 74.6223 210.66 74.5962Z" fill="#2F54EB"/>
<path d="M157.829 127.484C157.851 127.796 157.434 128.176 157.039 128.575C152.486 133.128 147.934 137.681 143.381 142.236C142.666 142.955 141.891 143.548 141.005 142.654C140.118 141.76 140.669 140.996 141.399 140.266C145.964 135.726 150.517 131.172 155.057 126.604C155.635 126.027 156.231 125.669 157.028 125.99C157.523 126.187 157.773 126.619 157.829 127.484Z" fill="#2F54EB"/>
<path d="M146.161 91.6397L139.321 89.8031C135.163 88.6879 131.004 87.5702 126.844 86.4501C125.916 86.2042 125.16 85.7795 125.447 84.6768C125.734 83.574 126.471 83.4995 127.477 83.7715C133.811 85.5039 140.189 87.184 146.544 88.8829C147.386 89.1101 148.076 89.5124 147.893 90.5295C147.74 91.4087 147.163 91.7962 146.161 91.6397Z" fill="#2F54EB"/>
<path d="M240.199 116.749C239.715 116.671 239.402 116.652 239.108 116.574C232.931 114.913 226.755 113.246 220.581 111.575C219.668 111.329 218.67 111.019 219.009 109.779C219.348 108.538 220.309 108.639 221.278 108.903C227.514 110.587 233.743 112.286 239.987 113.948C240.926 114.197 241.652 114.544 241.477 115.654C241.468 115.811 241.428 115.964 241.358 116.105C241.289 116.246 241.191 116.372 241.072 116.474C240.953 116.576 240.814 116.654 240.664 116.701C240.514 116.748 240.356 116.765 240.199 116.749Z" fill="#2F54EB"/>
<path d="M191.981 136.916C191.891 136.391 192.402 135.888 193.098 135.739C194.078 135.534 194.503 136.197 194.737 137.076C195.926 141.547 197.148 145.984 198.351 150.436C198.876 152.395 199.376 154.366 199.897 156.326C200.132 157.22 199.983 157.965 199.003 158.233C198.023 158.501 197.513 157.916 197.263 157.041C195.525 150.626 193.799 144.208 192.085 137.788C192.033 137.613 192.037 137.422 191.981 136.916Z" fill="#2F54EB"/>
<path d="M174.873 62.8783C174.992 64.0705 174.53 64.5287 173.778 64.6479C172.895 64.7858 172.436 64.2754 172.217 63.452C171.33 60.1252 170.417 56.802 169.516 53.4789C168.711 50.4985 167.895 47.5442 167.105 44.575C166.848 43.6063 166.554 42.5185 167.947 42.2018C169.162 41.9261 169.478 42.8016 169.747 43.8001C171.404 50.0403 173.1 56.2693 174.802 62.502C174.845 62.6231 174.869 62.75 174.873 62.8783Z" fill="#2F54EB"/>
<path d="M252.371 167.637C252.865 167.737 253.312 167.999 253.641 168.382C255.29 170.043 256.944 171.7 258.603 173.352C259.349 174.078 259.788 174.842 258.861 175.717C258.007 176.518 257.288 176.023 256.625 175.371C254.882 173.631 253.123 171.902 251.41 170.133C250.989 169.697 250.627 169.16 251.071 168.479C251.198 168.24 251.385 168.037 251.612 167.89C251.839 167.743 252.1 167.656 252.371 167.637Z" fill="#2F54EB"/>
<path d="M116.033 31.268C115.958 32.3856 114.583 33.1307 113.835 32.4452C111.759 30.508 109.785 28.4589 107.81 26.4099C107.3 25.8809 107.501 25.2923 107.997 24.767C108.492 24.2417 109.114 24.0703 109.647 24.5397C111.82 26.462 113.864 28.5241 115.768 30.7129C115.888 30.8812 115.977 31.069 116.033 31.268Z" fill="#2F54EB"/>
<path d="M158.764 193.009C159.289 193.128 159.841 193.687 159.565 194.749C158.924 197.189 158.235 199.618 157.579 202.055C157.341 202.949 156.834 203.545 155.869 203.291C154.834 203.005 154.655 202.211 154.927 201.231C155.571 198.918 156.175 196.593 156.816 194.283C157.02 193.549 157.285 192.819 158.764 193.009Z" fill="#2F54EB"/>
<path d="M81.8847 128.86C81.5667 128.917 81.2389 128.852 80.9673 128.677C80.6956 128.502 80.5003 128.231 80.4206 127.918C80.2045 127.217 80.3126 126.494 81.1396 126.26C83.8021 125.5 86.4733 124.773 89.1531 124.08C89.9429 123.879 90.498 124.375 90.7067 125.079C90.7721 125.239 90.8011 125.412 90.7915 125.584C90.7819 125.757 90.734 125.926 90.6513 126.077C90.5685 126.229 90.453 126.361 90.3131 126.463C90.1732 126.565 90.0124 126.634 89.8424 126.666C87.1786 127.411 84.5037 128.141 81.8847 128.86Z" fill="#2F54EB"/>
<path d="M207.356 5.64063C208.015 3.22651 208.715 0.674582 209.408 -1.87738C209.654 -2.78639 210.302 -3.06583 211.111 -2.83112C211.919 -2.59642 212.284 -1.9668 212.046 -1.09876C211.364 1.39359 210.667 3.88219 209.986 6.37827C209.758 7.2165 209.259 7.72689 208.38 7.49591C207.59 7.25748 207.151 6.67631 207.356 5.64063Z" fill="#2F54EB"/>
<path d="M277.708 76.3948C277.361 76.4365 277.011 76.344 276.729 76.1363C276.448 75.9285 276.257 75.6212 276.195 75.2772C276.046 74.629 276.225 73.9994 276.94 73.787C279.608 73.0419 282.275 72.2968 284.957 71.6001C285.124 71.5514 285.299 71.5386 285.471 71.5624C285.643 71.5863 285.808 71.6463 285.955 71.7385C286.102 71.8307 286.228 71.953 286.325 72.0974C286.421 72.2418 286.486 72.405 286.515 72.5762C286.697 73.2915 286.515 73.9546 285.676 74.1893C283.043 74.9344 280.353 75.6684 277.708 76.3948Z" fill="#2F54EB"/>
<path d="M516.715 39.8633C517.385 40.0486 517.762 40.5103 518.185 40.9221L547.429 70.175L549.815 72.5603C550.309 73.0515 550.923 73.6015 550.191 74.2691C549.523 74.878 549.038 74.2133 548.6 73.775C543.259 68.4613 537.93 63.1437 532.615 57.8221C527.32 52.528 522.033 47.2339 516.753 41.9397C516.32 41.5074 515.665 41.1192 516.085 40.3515C516.209 40.1192 516.526 40.0015 516.715 39.8633Z" fill="#FFD591"/>
<path d="M551.338 13.0445C558.771 13.0445 566.206 13.0445 573.641 13.0445C574.294 13.0445 575.188 12.8298 575.22 13.8386C575.256 14.9445 574.338 14.768 573.609 14.768H528.709C528.023 14.768 527.173 14.8827 527.115 13.9445C527.053 12.9534 527.897 13.0328 528.585 13.0328L551.338 13.0445Z" fill="#FFD591"/>
<path d="M428.75 13.0452H450.909C451.25 13.0452 451.594 13.0452 451.935 13.0452C452.135 13.0444 452.327 13.1218 452.47 13.261C452.613 13.4001 452.695 13.5898 452.7 13.7893C452.72 13.8985 452.717 14.0107 452.692 14.1189C452.667 14.227 452.619 14.3288 452.553 14.4177C452.486 14.5066 452.402 14.5808 452.305 14.6357C452.209 14.6905 452.102 14.7248 451.991 14.7363C451.6 14.7757 451.207 14.7855 450.815 14.7657H406.209C405.482 14.7657 404.55 14.9098 404.568 13.8452C404.585 12.8687 405.479 13.0363 406.15 13.0363L428.75 13.0452Z" fill="#FFD591"/>
<path d="M489.035 75.0923C489.035 67.708 489.035 60.3218 489.035 52.9335C489.015 52.5411 489.025 52.1477 489.067 51.757C489.095 51.5606 489.193 51.381 489.344 51.2521C489.494 51.1231 489.687 51.0537 489.885 51.057C490.084 51.0509 490.278 51.1151 490.434 51.2383C490.59 51.3615 490.698 51.5358 490.738 51.7306C490.795 52.12 490.809 52.5144 490.782 52.907V97.3717C490.782 97.7129 490.782 98.057 490.768 98.3982C490.771 98.5094 490.751 98.62 490.709 98.723C490.667 98.8259 490.604 98.9187 490.523 98.9954C490.443 99.0721 490.347 99.1308 490.242 99.1678C490.137 99.2048 490.025 99.2192 489.915 99.21C489.803 99.2268 489.69 99.219 489.582 99.1871C489.474 99.1553 489.374 99.1 489.29 99.0254C489.206 98.9507 489.139 98.8585 489.095 98.7552C489.05 98.6519 489.029 98.5401 489.032 98.4276C489.009 98.0364 489.032 97.6453 489.032 97.2511L489.035 75.0923Z" fill="#FFD591"/>
<path d="M430.294 74.4684C430.136 74.5012 429.972 74.4846 429.823 74.4209C429.675 74.3573 429.55 74.2497 429.465 74.1125C429.36 73.9741 429.303 73.8053 429.303 73.6317C429.303 73.4581 429.36 73.2892 429.465 73.1508C429.735 72.8078 430.03 72.4844 430.347 72.1831L461.803 40.7625C461.973 40.589 462.141 40.4067 462.321 40.242C462.729 39.8714 463.203 39.7449 463.609 40.1773C464.015 40.6096 463.903 41.0596 463.521 41.4714C462.559 42.4478 461.588 43.4125 460.621 44.3831C450.903 54.0929 441.186 63.8047 431.471 73.5184C431.091 73.892 430.773 74.3537 430.294 74.4684Z" fill="#FFD591"/>
<path d="M406.876 28.9382C406.306 29.0412 405.726 29.0294 405.618 28.3235C405.471 27.3794 406.309 27.3529 406.879 27.25C410.479 26.6029 414.088 26.0088 417.694 25.3941L432.4 22.8794C433.062 22.7676 433.871 22.4324 434.044 23.45C434.218 24.4676 433.376 24.4206 432.685 24.5412C424.373 25.9706 416.063 27.4108 407.753 28.8617C407.468 28.9088 407.171 28.9147 406.876 28.9382Z" fill="#597EF7"/>
<path d="M457.568 60.6677C457.612 61.153 457.332 61.3942 457.141 61.6648C452.112 68.7981 447.075 75.9246 442.032 83.0442C441.685 83.5295 441.288 84.2648 440.532 83.6854C439.838 83.153 440.276 82.5736 440.659 82.0354C445.71 74.9118 450.748 67.7844 455.773 60.653C456.068 60.2383 456.362 59.856 456.95 60.0324C457.103 60.0671 457.243 60.1456 457.353 60.2584C457.463 60.3711 457.537 60.5134 457.568 60.6677Z" fill="#597EF7"/>
<path d="M505.026 97.2892C505.042 97.4029 505.034 97.5188 505.001 97.6291C504.969 97.7393 504.914 97.8416 504.84 97.9291C504.765 98.0166 504.673 98.0873 504.57 98.1367C504.466 98.1861 504.353 98.213 504.238 98.2156C503.623 98.2656 503.447 97.795 503.356 97.2686C502.812 94.145 502.244 91.0245 501.703 87.898C500.744 82.3098 499.803 76.7421 498.841 71.1627C498.735 70.5539 498.606 69.945 499.429 69.7656C500.097 69.6156 500.403 69.9862 500.512 70.6274C501.984 79.3333 503.462 88.0392 504.947 96.7451C504.959 96.8892 504.982 97.0333 505.026 97.2892Z" fill="#597EF7"/>
<path d="M546.47 5.06551C546.287 5.0555 546.114 4.97774 545.985 4.84732C545.855 4.7169 545.779 4.5431 545.77 4.35962C545.659 3.67432 546.026 3.42727 546.653 3.31845C549.3 2.87433 551.926 2.36845 554.565 1.92139C560.615 0.894922 566.673 -0.0933158 572.717 -1.14331C573.447 -1.26978 574.056 -1.30802 574.188 -0.499197C574.32 0.309626 573.632 0.383154 573.035 0.483154C566.941 1.53021 560.847 2.58218 554.753 3.63904L546.47 5.06551Z" fill="#597EF7"/>
<path d="M559.876 62.9704C559.547 63.7586 558.994 63.8057 558.297 63.3174C556.74 62.2233 555.187 61.1272 553.638 60.0292L536.935 48.1939C536.379 47.7998 535.606 47.4233 536.176 46.6086C536.747 45.7939 537.385 46.4439 537.918 46.8174C544.847 51.7057 551.77 56.6008 558.685 61.5027C559.176 61.8527 559.841 62.1057 559.876 62.9704Z" fill="#597EF7"/>
<path d="M560.941 84.1238C561.382 84.1062 561.65 84.4003 561.929 84.6767C566.911 89.663 571.893 94.6473 576.873 99.6297C577.332 100.088 577.85 100.574 577.167 101.23C576.529 101.841 576.103 101.283 575.697 100.88C570.673 95.8679 565.654 90.8522 560.638 85.8326C560.282 85.4767 559.953 85.1032 560.226 84.5532C560.29 84.4197 560.392 84.3079 560.519 84.2315C560.646 84.1552 560.793 84.1178 560.941 84.1238Z" fill="#FFC069"/>
<path d="M601.444 13.0448C604.92 13.0448 608.397 13.0448 611.873 13.0448C612.538 13.0448 613.388 12.8801 613.344 13.9507C613.303 14.8713 612.544 14.7683 611.912 14.7683H591.041C590.353 14.7683 589.535 14.8536 589.57 13.833C589.603 12.8889 590.397 13.0448 591.012 13.0448C594.488 13.0389 597.965 13.0448 601.444 13.0448Z" fill="#FFC069"/>
<path d="M490.782 125.597C490.782 129.023 490.782 132.454 490.782 135.891C490.782 136.579 490.871 137.394 489.832 137.338C488.9 137.288 489.041 136.506 489.038 135.888C489.038 128.931 489.038 121.976 489.038 115.023C489.038 114.406 488.894 113.623 489.832 113.576C490.868 113.526 490.779 114.332 490.779 115.026L490.782 125.597Z" fill="#FFC069"/>
<path d="M378.394 13.0454H388.797C389.42 13.0454 390.215 12.916 390.268 13.8248C390.309 14.8072 389.5 14.7778 388.797 14.7778H367.838C367.188 14.7778 366.468 14.8307 366.47 13.8954C366.473 12.9601 367.209 13.0454 367.847 13.0454H378.394Z" fill="#FFC069"/>
<path d="M419.706 84.8629C419.75 85.3218 419.426 85.5718 419.15 85.8453C414.132 90.8669 409.115 95.8874 404.097 100.907C403.676 101.328 403.235 101.834 402.626 101.201C402.068 100.613 402.429 100.134 402.876 99.6894L417.929 84.6276C418.291 84.2659 418.673 83.9629 419.218 84.1894C419.357 84.2399 419.478 84.3311 419.565 84.4512C419.652 84.5713 419.701 84.7147 419.706 84.8629Z" fill="#FFC069"/>
<path d="M420.726 56.469C420.606 57.0572 420.247 57.2631 419.859 57.4984C414.327 60.8514 408.799 64.216 403.273 67.5925C402.723 67.9278 402.117 68.366 401.635 67.5925C401.153 66.819 401.847 66.4808 402.385 66.1543C407.915 62.7876 413.445 59.4229 418.976 56.0602C419.373 55.8161 419.791 55.4102 420.288 55.8308C420.465 56.0209 420.612 56.2359 420.726 56.469Z" fill="#597EF7"/>
<path d="M532.526 83.0664C532.997 83.1546 533.247 83.5105 533.476 83.887C536.867 89.4615 540.26 95.034 543.656 100.605C544.012 101.193 544.3 101.781 543.506 102.213C542.712 102.646 542.479 101.919 542.194 101.455C538.791 95.8899 535.412 90.3105 532.003 84.7487C531.503 83.934 531.565 83.4105 532.526 83.0664Z" fill="#597EF7"/>
<path d="M588.823 38.863L581.847 37.1513C577.873 36.1807 573.906 35.2013 569.926 34.2424C569.285 34.0866 568.541 33.9807 568.75 33.113C568.953 32.2924 569.632 32.4277 570.309 32.5954C576.55 34.1277 582.8 35.6336 589.044 37.1542C589.65 37.3013 590.397 37.3895 590.32 38.263C590.294 38.8601 589.794 38.9983 588.823 38.863Z" fill="#597EF7"/>
<path d="M464.926 112.857C465.444 110.766 466.065 108.26 466.691 105.754C467.665 101.783 468.647 97.8126 469.597 93.8361C469.744 93.2214 469.891 92.5744 470.65 92.7361C471.409 92.8979 471.409 93.5067 471.238 94.2391C469.685 100.524 468.185 106.824 466.65 113.116C466.521 113.654 466.444 114.38 465.638 114.327C465.044 114.292 464.791 113.866 464.926 112.857Z" fill="#597EF7"/>
<path d="M431.838 97.2944C431.727 97.5328 431.6 97.7636 431.459 97.9856C429.118 101.283 426.785 104.586 424.462 107.871C424.085 108.406 423.7 108.818 423.044 108.353C422.388 107.889 422.75 107.35 423.088 106.859C425.421 103.565 427.755 100.27 430.088 96.9738C430.365 96.5826 430.626 96.0915 431.235 96.3062C431.438 96.3705 431.611 96.506 431.721 96.6876C431.832 96.8692 431.874 97.0847 431.838 97.2944Z" fill="#597EF7"/>
<path d="M573.265 71.8887C573.538 72.0593 573.838 72.224 574.118 72.4181C577.339 74.6926 580.558 76.9681 583.773 79.2445C584.315 79.624 584.888 80.0151 584.362 80.7592C583.859 81.4563 583.353 81.0122 582.871 80.671C579.572 78.3416 576.276 76.0102 572.982 73.6769C572.591 73.4092 572.059 73.1563 572.353 72.5269C572.423 72.3415 572.548 72.1815 572.711 72.0677C572.873 71.954 573.066 71.8916 573.265 71.8887Z" fill="#597EF7"/>
<path d="M388.926 30.3295C389.515 30.256 390.085 30.2795 390.235 30.9413C390.417 31.753 389.729 31.9266 389.159 32.0266C385.08 32.7481 380.999 33.454 376.915 34.1442C376.35 34.2413 375.941 34.0236 375.87 33.4178C375.8 32.8119 376.085 32.5354 376.682 32.4295C380.765 31.7413 384.844 31.0325 388.926 30.3295Z" fill="#597EF7"/>
<path d="M506.385 115.101C506.3 114.187 506.341 113.631 507.073 113.575C507.882 113.525 507.979 114.225 508.076 114.784C508.703 118.384 509.297 121.99 509.903 125.592C509.968 125.975 510.059 126.354 510.132 126.74C510.247 127.328 510.153 127.842 509.447 127.951C508.741 128.06 508.523 127.634 508.421 127.016C507.95 124.178 507.453 121.348 506.965 118.516C506.765 117.266 506.541 116.016 506.385 115.101Z" fill="#597EF7"/>
<path d="M471.944 84.1057L473.823 76.2174C474.097 75.0851 474.359 73.9498 474.659 72.8233C474.803 72.288 475.07 71.7586 475.759 71.941C476.447 72.1233 476.476 72.6733 476.347 73.2439C475.435 76.9694 474.519 80.6949 473.6 84.4204C473.465 84.9763 473.217 85.4704 472.509 85.3027C471.994 85.191 471.85 84.791 471.944 84.1057Z" fill="#597EF7"/>
<path d="M439.026 45.4338C438.974 45.6173 438.883 45.7874 438.759 45.9326C438.635 46.0777 438.482 46.1945 438.309 46.275C435.068 48.2358 431.827 50.2054 428.588 52.1839C428.029 52.525 427.485 52.7251 427.1 52.0398C426.756 51.4309 427.188 51.0427 427.688 50.7456C430.968 48.7486 434.244 46.7427 437.535 44.7662C438.235 44.3426 439.044 44.7279 439.026 45.4338Z" fill="#597EF7"/>
<path d="M430.847 0.404468C426.87 -0.580827 423.056 -1.53083 419.238 -2.46318C418.65 -2.6073 418.388 -2.93671 418.515 -3.51319C418.641 -4.08966 419.103 -4.20142 419.644 -4.06906C423.468 -3.15142 427.291 -2.25142 431.115 -1.31318C431.603 -1.19553 431.997 -0.857295 431.835 -0.24553C431.817 -0.135969 431.776 -0.0313597 431.716 0.0617285C431.655 0.154817 431.576 0.234368 431.483 0.295403C431.39 0.356439 431.286 0.397638 431.176 0.416406C431.067 0.435174 430.955 0.431109 430.847 0.404468Z" fill="#597EF7"/>
<path d="M528.509 75.848C528.531 76.0356 528.493 76.2256 528.399 76.3897C528.305 76.5538 528.161 76.6836 527.988 76.7597C527.857 76.8302 527.706 76.8546 527.559 76.829C527.413 76.8034 527.279 76.7293 527.179 76.6185C526.929 76.3215 526.702 76.0059 526.5 75.6744C524.649 72.645 522.803 69.6117 520.962 66.5744C520.629 66.0274 520.162 65.4803 520.962 64.9627C521.762 64.445 522.085 65.1744 522.397 65.6832C524.332 68.8332 526.244 71.998 528.159 75.1597C528.303 75.4038 528.418 75.6685 528.509 75.848Z" fill="#597EF7"/>
<path d="M560.088 31.8513L555.162 30.6748C553.125 30.1846 551.088 29.6944 549.053 29.2042C548.465 29.063 547.818 28.9101 547.956 28.1189C548.094 27.3277 548.774 27.363 549.359 27.5012C553.055 28.3855 556.748 29.2865 560.438 30.2042C560.985 30.3395 561.476 30.6071 561.321 31.3218C561.176 31.8513 560.762 31.9218 560.088 31.8513Z" fill="#597EF7"/>
<path d="M561.25 47.012C560.956 48.0208 560.367 47.9796 559.629 47.6473C557.327 46.5865 555.022 45.5296 552.715 44.4767L524.929 31.7443C524.797 31.6855 524.667 31.6208 524.532 31.562C523.926 31.3061 523.476 30.9208 523.826 30.2237C524.147 29.5826 524.688 29.759 525.217 30.0031C527.653 31.1237 530.1 32.2267 532.535 33.3443C541.708 37.5483 550.879 41.7551 560.05 45.9649C560.57 46.2032 561.176 46.3649 561.25 47.012Z" fill="#FFA940"/>
<path d="M416.2 42.5475C415.718 42.5475 415.391 42.3828 415.285 41.9328C415.252 41.8267 415.241 41.715 415.253 41.6046C415.265 41.4941 415.3 41.3873 415.355 41.291C415.41 41.1946 415.485 41.1106 415.574 41.0444C415.663 40.9782 415.765 40.9312 415.873 40.9063C417.05 40.4622 418.226 39.9886 419.421 39.5475L451.729 27.5416C451.959 27.4592 452.197 27.3975 452.418 27.3004C452.982 27.0534 453.512 27.0416 453.75 27.7004C453.988 28.3592 453.585 28.7004 453.015 28.9092C450.5 29.8357 447.988 30.7563 445.476 31.6916C436.12 35.172 426.766 38.6553 417.415 42.1416C416.997 42.2916 416.576 42.421 416.2 42.5475Z" fill="#FFA940"/>
<path d="M474.029 49.8302C473.932 50.0743 473.815 50.3949 473.673 50.7125C468.472 62.0851 463.266 73.4576 458.056 84.8302C457.915 85.1243 457.762 85.4449 457.606 85.7478C457.371 86.2155 457.091 86.6125 456.476 86.3155C455.862 86.0184 455.803 85.5978 456.088 84.9949C457 83.0596 457.871 81.1008 458.765 79.1537L471.906 50.4684C472.088 50.0714 472.271 49.6714 472.479 49.292C472.572 49.115 472.73 48.9818 472.92 48.9217C473.111 48.8616 473.317 48.8794 473.494 48.9714C473.668 49.0318 473.816 49.15 473.913 49.3063C474.011 49.4625 474.052 49.6474 474.029 49.8302Z" fill="#FFA940"/>
<path d="M563.385 -12.8204C563.385 -11.8998 562.627 -11.8675 562.079 -11.6616C556.65 -9.62435 551.217 -7.59984 545.779 -5.58808C539.378 -3.21161 532.982 -0.836114 526.594 1.53839C526.006 1.76192 525.229 2.26781 524.897 1.24428C524.579 0.276631 525.456 0.132508 526.074 -0.0939627C537.938 -4.51945 549.809 -8.94004 561.685 -13.3557C562.368 -13.5998 563.129 -13.944 563.385 -12.8204Z" fill="#FFA940"/>
<path d="M517.382 87.5972C517.41 87.7953 517.366 87.9968 517.258 88.1652C517.15 88.3336 516.986 88.4577 516.794 88.5149C516.704 88.5578 516.607 88.5819 516.507 88.5856C516.408 88.5893 516.309 88.5726 516.216 88.5365C516.124 88.5004 516.039 88.4456 515.969 88.3756C515.898 88.3056 515.843 88.2219 515.806 88.1296C515.532 87.506 515.309 86.8619 515.07 86.2237C510.841 74.8511 506.614 63.4874 502.388 52.1325C502.285 51.859 502.182 51.5854 502.073 51.3119C501.87 50.7972 501.882 50.3148 502.462 50.0884C503.041 49.8619 503.476 50.1531 503.697 50.7531C504.416 52.7139 505.141 54.6746 505.87 56.6354L517.029 86.6443C517.15 86.956 517.265 87.2796 517.382 87.5972Z" fill="#FFA940"/>
<path d="M408.994 44.6508C408.994 45.145 408.635 45.4038 408.209 45.5626C405.856 46.445 403.485 47.3097 401.126 48.192C400.562 48.4038 400.176 48.2567 399.95 47.7008C399.903 47.5996 399.878 47.4894 399.877 47.3778C399.877 47.2662 399.9 47.1557 399.945 47.0537C399.991 46.9517 400.057 46.8607 400.141 46.7866C400.224 46.7126 400.323 46.6572 400.429 46.6244C402.87 45.695 405.321 44.792 407.782 43.9156C408.409 43.7038 408.841 43.9979 408.994 44.6508Z" fill="#FFD591"/>
<path d="M518.729 96.0574C518.638 95.378 518.773 95.0456 519.197 94.8809C519.723 94.6574 520.079 94.928 520.25 95.3633C521.209 97.8515 522.149 100.347 523.07 102.849C523.109 102.94 523.128 103.038 523.127 103.137C523.126 103.237 523.104 103.334 523.062 103.424C523.021 103.515 522.962 103.595 522.888 103.661C522.813 103.727 522.726 103.777 522.632 103.807C522.191 103.99 521.706 103.963 521.512 103.46C520.535 100.925 519.597 98.3809 518.729 96.0574Z" fill="#FFD591"/>
<path d="M449.771 101.216C449.182 101.077 448.888 100.689 449.226 99.9775C450.274 97.6834 451.306 95.3834 452.374 93.101C452.609 92.5922 453.006 92.1657 453.644 92.5128C454.282 92.8599 454.115 93.3745 453.874 93.8981C452.856 96.0981 451.841 98.3099 450.847 100.507C450.653 100.933 450.444 101.277 449.771 101.216Z" fill="#FFD591"/>
<path d="M576.062 53.8781C575.941 54.4663 575.679 54.9545 574.885 54.6016C572.503 53.5232 570.127 52.43 567.759 51.3222C567.312 51.1163 567.053 50.734 567.253 50.2575C567.482 49.7105 567.994 49.6075 568.485 49.8252C570.838 50.8693 573.159 51.9457 575.494 53.0134C575.666 53.0813 575.813 53.2008 575.915 53.3557C576.017 53.5105 576.068 53.693 576.062 53.8781Z" fill="#FFD591"/>
<path d="M99.059 421.698C99.059 421.639 98.9531 421.841 98.7367 421.966C98.6213 422.043 98.4829 422.079 98.3446 422.066C98.2063 422.054 98.0764 421.994 97.9767 421.898C97.5461 421.498 97.1343 421.079 96.7178 420.665C88.4935 412.444 80.2708 404.222 72.0496 395.999C71.6684 395.62 71.0896 395.199 71.6496 394.639C72.2096 394.079 72.6355 394.639 73.0214 395.027L98.5296 420.526C98.7743 420.773 99.0802 420.982 99.059 421.698Z" fill="#FFD591"/>
<path d="M141.372 463.689C141.908 463.838 142.21 464.207 142.548 464.537L165.944 487.939L167.852 489.847C168.247 490.24 168.739 490.68 168.153 491.214C167.619 491.701 167.231 491.169 166.88 490.819C162.607 486.568 158.345 482.314 154.092 478.057C149.857 473.821 145.627 469.586 141.403 465.351C141.057 465.005 140.532 464.694 140.868 464.08C140.967 463.894 141.221 463.8 141.372 463.689Z" fill="#FFD591"/>
<path d="M169.071 442.234C175.017 442.234 180.965 442.234 186.913 442.234C187.435 442.234 188.151 442.062 188.176 442.869C188.205 443.754 187.471 443.613 186.887 443.613H150.967C150.419 443.613 149.739 443.705 149.692 442.954C149.642 442.161 150.318 442.225 150.868 442.225L169.071 442.234Z" fill="#FFD591"/>
<path d="M71.0001 442.235H88.7272C89.0001 442.235 89.2754 442.235 89.5484 442.235C89.708 442.234 89.8615 442.296 89.9759 442.407C90.0903 442.519 90.1564 442.67 90.1601 442.83C90.1762 442.917 90.174 443.007 90.1537 443.094C90.1334 443.18 90.0954 443.261 90.0422 443.333C89.9889 443.404 89.9215 443.463 89.8443 443.507C89.767 443.551 89.6815 443.578 89.5931 443.587C89.2804 443.619 88.9658 443.627 88.6519 443.611H52.9672C52.386 443.611 51.6401 443.726 51.6543 442.875C51.6684 442.093 52.3837 442.228 52.9201 442.228L71.0001 442.235Z" fill="#FFD591"/>
<path d="M119.228 393.933V376.202C119.228 375.889 119.212 375.573 119.242 375.26C119.242 375.171 119.259 375.083 119.294 375.001C119.329 374.92 119.38 374.846 119.445 374.785C119.51 374.724 119.586 374.677 119.67 374.647C119.754 374.617 119.843 374.605 119.932 374.611C120.111 374.611 120.283 374.681 120.412 374.805C120.541 374.93 120.616 375.1 120.621 375.279C120.64 375.514 120.621 375.75 120.621 375.985C120.621 387.922 120.621 399.86 120.621 411.797C120.637 412.07 120.627 412.344 120.593 412.616C120.554 412.766 120.466 412.899 120.342 412.993C120.218 413.087 120.067 413.137 119.911 413.135C119.756 413.133 119.606 413.079 119.485 412.981C119.364 412.884 119.28 412.748 119.245 412.597C119.216 412.284 119.209 411.969 119.224 411.656L119.228 393.933Z" fill="#FFD591"/>
<path d="M119.228 491.873C119.228 485.966 119.228 480.057 119.228 474.146C119.212 473.832 119.22 473.517 119.254 473.205C119.276 473.048 119.355 472.904 119.475 472.801C119.596 472.698 119.75 472.642 119.908 472.645C120.067 472.64 120.223 472.691 120.348 472.79C120.473 472.888 120.559 473.028 120.591 473.184C120.636 473.495 120.648 473.811 120.626 474.125V509.697C120.626 509.97 120.626 510.245 120.614 510.518C120.617 510.607 120.601 510.695 120.568 510.778C120.534 510.86 120.483 510.934 120.419 510.996C120.354 511.057 120.277 511.104 120.194 511.133C120.11 511.163 120.02 511.175 119.932 511.167C119.843 511.181 119.752 511.174 119.666 511.149C119.579 511.123 119.5 511.079 119.432 511.02C119.365 510.96 119.312 510.886 119.276 510.803C119.24 510.721 119.223 510.631 119.226 510.541C119.207 510.228 119.226 509.915 119.226 509.6L119.228 491.873Z" fill="#FFD591"/>
<path d="M72.2353 491.374C72.1088 491.4 71.9774 491.387 71.8587 491.336C71.7401 491.285 71.6399 491.199 71.5717 491.089C71.488 490.978 71.4426 490.843 71.4426 490.705C71.4426 490.566 71.488 490.431 71.5717 490.32C71.7884 490.045 72.0243 489.787 72.2776 489.546L97.4423 464.409C97.5788 464.27 97.7129 464.125 97.8565 463.993C98.1835 463.696 98.5623 463.595 98.887 463.941C99.2118 464.287 99.1223 464.647 98.8165 464.976C98.047 465.757 97.2706 466.529 96.4965 467.306C88.7223 475.074 80.949 482.843 73.1765 490.614C72.8729 490.913 72.6188 491.282 72.2353 491.374Z" fill="#FFD591"/>
<path d="M141.412 422.074C140.864 421.933 140.584 421.615 140.873 421.055C141.04 420.789 141.247 420.551 141.487 420.349C149.876 411.957 158.268 403.565 166.664 395.173C166.873 394.94 167.104 394.728 167.353 394.54C167.48 394.443 167.64 394.397 167.799 394.413C167.959 394.429 168.106 394.504 168.212 394.625C168.332 394.73 168.405 394.879 168.416 395.038C168.427 395.198 168.375 395.355 168.271 395.476C168.098 395.689 167.911 395.89 167.711 396.076C159.323 404.465 150.931 412.858 142.534 421.253C142.207 421.585 141.946 422.001 141.412 422.074Z" fill="#FFD591"/>
<path d="M159.696 387.648C159.682 387.986 159.461 388.205 159.273 388.462C155.365 394 151.451 399.542 147.529 405.085C147.419 405.243 147.271 405.382 147.174 405.556C146.939 405.991 146.565 406.226 146.118 405.946C145.569 405.605 145.795 405.153 146.087 404.742C147.753 402.389 149.42 400.036 151.087 397.683C153.388 394.433 155.685 391.185 157.976 387.939C158.172 387.647 158.393 387.373 158.635 387.118C158.735 387.02 158.865 386.96 159.004 386.949C159.143 386.938 159.282 386.976 159.395 387.057C159.497 387.116 159.58 387.203 159.634 387.307C159.687 387.412 159.709 387.53 159.696 387.648Z" fill="#597EF7"/>
<path d="M112.871 397.678C112.883 397.887 112.692 398.207 112.226 398.252C111.661 398.308 111.532 397.922 111.452 397.445C111.042 394.986 110.605 392.53 110.186 390.073C109.426 385.619 108.68 381.162 107.911 376.708C107.821 376.181 107.675 375.64 108.37 375.497C109.134 375.339 109.134 375.993 109.217 376.473C110.054 381.309 110.886 386.147 111.711 390.986C112.08 393.134 112.454 395.285 112.871 397.678Z" fill="#597EF7"/>
<path d="M53.5011 454.95C53.0447 455.032 52.5811 455.023 52.4941 454.458C52.3764 453.703 53.047 453.682 53.5035 453.599C56.3835 453.082 59.2706 452.606 62.1553 452.114L73.92 450.103C74.4494 450.013 75.0964 449.745 75.2353 450.559C75.3741 451.373 74.7011 451.336 74.1482 451.432C67.4988 452.576 60.8502 453.728 54.2023 454.889C53.9741 454.926 53.7364 454.931 53.5011 454.95Z" fill="#597EF7"/>
<path d="M94.0541 480.335C94.0894 480.723 93.8658 480.916 93.7129 481.132C89.6894 486.839 85.6604 492.54 81.6258 498.236C81.3482 498.624 81.0306 499.212 80.4258 498.749C79.8706 498.323 80.2211 497.859 80.527 497.429C84.5678 491.73 88.5984 486.028 92.6188 480.323C92.8541 479.991 93.0894 479.685 93.56 479.826C93.6827 479.854 93.7948 479.917 93.8825 480.007C93.9702 480.097 94.0298 480.211 94.0541 480.335Z" fill="#597EF7"/>
<path d="M132.021 509.629C132.034 509.72 132.027 509.813 132.001 509.901C131.976 509.99 131.931 510.071 131.872 510.141C131.812 510.211 131.739 510.268 131.656 510.307C131.573 510.347 131.482 510.368 131.391 510.371C130.899 510.411 130.758 510.034 130.685 509.613C130.249 507.114 129.795 504.618 129.362 502.116C128.595 497.646 127.842 493.192 127.073 488.728C126.988 488.241 126.885 487.754 127.543 487.611C128.078 487.491 128.322 487.787 128.409 488.3C129.587 495.265 130.77 502.229 131.958 509.194C131.967 509.309 131.986 509.425 132.021 509.629Z" fill="#597EF7"/>
<path d="M165.177 435.851C165.03 435.843 164.891 435.781 164.788 435.676C164.684 435.572 164.623 435.433 164.617 435.286C164.527 434.738 164.821 434.54 165.322 434.453C167.44 434.098 169.541 433.693 171.652 433.336C176.492 432.514 181.339 431.724 186.174 430.884C186.758 430.783 187.245 430.752 187.351 431.399C187.457 432.046 186.906 432.105 186.428 432.185C181.553 433.023 176.678 433.864 171.802 434.71L165.177 435.851Z" fill="#597EF7"/>
<path d="M175.901 482.176C175.638 482.807 175.195 482.845 174.638 482.454C173.392 481.579 172.15 480.702 170.911 479.823L157.548 470.355C157.104 470.04 156.485 469.739 156.941 469.087C157.398 468.435 157.908 468.955 158.334 469.254C163.878 473.165 169.416 477.081 174.948 481.002C175.341 481.282 175.873 481.485 175.901 482.176Z" fill="#597EF7"/>
<path d="M83.0377 416.313C83.0573 416.45 83.0322 416.59 82.9661 416.712C82.9 416.834 82.7964 416.932 82.6706 416.99C82.273 417.212 82.0024 416.917 81.7295 416.725C79.7483 415.336 77.7718 413.943 75.8001 412.546C72.2032 409.998 68.6087 407.448 65.0165 404.894C64.8589 404.781 64.6801 404.692 64.5295 404.569C64.1671 404.27 63.7154 403.955 64.1012 403.416C64.4871 402.877 64.8824 403.141 65.3059 403.444C66.953 404.621 68.6189 405.797 70.2753 406.96C74.3193 409.824 78.364 412.687 82.4095 415.548C82.6895 415.748 83.0401 415.882 83.0377 416.313Z" fill="#597EF7"/>
<path d="M63.7648 386.084C63.7154 386.64 63.3789 386.889 62.8236 386.666C62.5518 386.511 62.3121 386.306 62.1177 386.061C58.2589 382.215 54.4064 378.37 50.5601 374.527C50.393 374.36 50.2236 374.197 50.073 374.019C49.8119 373.708 49.7742 373.379 50.073 373.077C50.133 373.012 50.2057 372.96 50.2867 372.925C50.3677 372.889 50.4552 372.871 50.5436 372.871C50.632 372.871 50.7195 372.889 50.8005 372.925C50.8815 372.96 50.9543 373.012 51.0142 373.077C51.426 373.437 51.8095 373.833 52.1907 374.219C55.8189 377.847 59.4456 381.475 63.0707 385.103C63.3577 385.367 63.706 385.586 63.7648 386.084Z" fill="#FFC069"/>
<path d="M176.753 499.098C177.106 499.084 177.32 499.319 177.543 499.541C181.529 503.53 185.514 507.517 189.499 511.503C189.866 511.87 190.28 512.258 189.734 512.783C189.223 513.272 188.882 512.825 188.558 512.503C184.539 508.494 180.523 504.481 176.51 500.465C176.226 500.181 175.962 499.882 176.181 499.442C176.232 499.335 176.314 499.246 176.416 499.184C176.517 499.123 176.634 499.093 176.753 499.098Z" fill="#FFC069"/>
<path d="M119.228 353.633V345.308C119.228 344.802 119.146 344.195 119.887 344.176C120.715 344.153 120.626 344.802 120.626 345.353C120.626 350.901 120.626 356.45 120.626 362C120.626 362.558 120.682 363.223 119.903 363.205C119.125 363.186 119.228 362.499 119.228 361.958C119.228 359.183 119.228 356.408 119.228 353.633Z" fill="#FFC069"/>
<path d="M209.155 442.234C211.936 442.234 214.718 442.234 217.499 442.234C218.031 442.234 218.711 442.102 218.675 442.959C218.642 443.695 218.035 443.613 217.529 443.613H200.833C200.282 443.613 199.628 443.681 199.656 442.865C199.682 442.11 200.318 442.234 200.809 442.234C203.591 442.23 206.372 442.234 209.155 442.234Z" fill="#FFC069"/>
<path d="M120.626 532.276C120.626 535.017 120.626 537.762 120.626 540.512C120.626 541.062 120.697 541.714 119.866 541.669C119.12 541.629 119.233 541.003 119.231 540.509C119.231 534.944 119.231 529.38 119.231 523.818C119.231 523.324 119.115 522.698 119.866 522.66C120.694 522.62 120.624 523.265 120.624 523.82L120.626 532.276Z" fill="#FFC069"/>
<path d="M30.7153 442.236H39.0377C39.5365 442.236 40.1718 442.132 40.2142 442.859C40.2471 443.645 39.6001 443.621 39.0377 443.621H22.2706C21.7506 443.621 21.1742 443.664 21.1765 442.916C21.1789 442.167 21.7671 442.236 22.2777 442.236H30.7153Z" fill="#FFC069"/>
<path d="M176.685 386.762C176.118 386.644 175.962 386.251 176.214 385.736C176.379 385.469 176.586 385.23 176.828 385.03C180.621 381.233 184.415 377.437 188.209 373.644C188.376 373.48 188.541 373.313 188.715 373.155C189.082 372.821 189.475 372.717 189.838 373.136C190.2 373.555 189.948 373.856 189.654 374.153L186.899 376.88C183.823 379.953 180.746 383.025 177.668 386.096C177.412 386.374 177.176 386.738 176.685 386.762Z" fill="#FFC069"/>
<path d="M63.7647 499.689C63.8 500.056 63.5412 500.256 63.32 500.475C59.3059 504.492 55.2918 508.509 51.2777 512.524C50.9412 512.861 50.5883 513.266 50.1012 512.76C49.6542 512.289 49.9436 511.906 50.3012 511.55L62.3436 499.501C62.633 499.212 62.9389 498.969 63.3742 499.15C63.4857 499.191 63.5825 499.264 63.6522 499.36C63.7218 499.456 63.761 499.571 63.7647 499.689Z" fill="#FFC069"/>
<path d="M64.5814 476.973C64.4849 477.443 64.1978 477.608 63.8873 477.796C59.4622 480.479 55.0394 483.17 50.619 485.872C50.179 486.14 49.6943 486.49 49.3084 485.872C48.9225 485.253 49.4778 484.982 49.9084 484.721C54.332 482.028 58.7563 479.336 63.1814 476.646C63.499 476.451 63.8331 476.126 64.2308 476.462C64.372 476.614 64.4902 476.786 64.5814 476.973Z" fill="#597EF7"/>
<path d="M55.8095 428.002L44.2354 425.178C42.9507 424.865 41.6613 424.555 40.3766 424.237C39.953 424.131 39.4566 424.002 39.5766 423.435C39.6966 422.868 40.1366 422.795 40.6777 422.929C45.826 424.195 50.9758 425.45 56.1272 426.694C56.5977 426.809 56.9836 426.999 56.833 427.541C56.7295 427.938 56.4213 428.209 55.8095 428.002Z" fill="#597EF7"/>
<path d="M154.021 498.252C154.398 498.323 154.598 498.607 154.781 498.908C157.493 503.368 160.208 507.826 162.925 512.283C163.209 512.753 163.44 513.224 162.805 513.57C162.169 513.915 161.984 513.334 161.755 512.963C159.033 508.511 156.329 504.047 153.602 499.598C153.202 498.946 153.252 498.527 154.021 498.252Z" fill="#597EF7"/>
<path d="M199.059 462.889L193.478 461.519C190.299 460.743 187.125 459.959 183.941 459.192C183.428 459.068 182.833 458.983 183 458.289C183.162 457.632 183.706 457.741 184.247 457.875C189.24 459.101 194.24 460.305 199.235 461.522C199.72 461.639 200.318 461.71 200.256 462.409C200.235 462.887 199.835 462.997 199.059 462.889Z" fill="#597EF7"/>
<path d="M86.5436 386.834C86.5373 386.965 86.4959 387.091 86.4238 387.199C86.3518 387.308 86.2517 387.395 86.1342 387.451C86.0176 387.526 85.8777 387.556 85.7404 387.536C85.6032 387.516 85.4781 387.446 85.3883 387.34C85.2142 387.131 85.0568 386.908 84.9177 386.674C82.3028 382.384 79.6903 378.095 77.0801 373.806C76.925 373.586 76.794 373.349 76.6895 373.1C76.6236 372.955 76.6148 372.791 76.665 372.64C76.7152 372.489 76.8206 372.363 76.9601 372.286C77.0241 372.24 77.0968 372.208 77.1737 372.191C77.2506 372.174 77.3302 372.173 77.4075 372.188C77.4848 372.203 77.5582 372.234 77.6233 372.278C77.6884 372.323 77.7437 372.38 77.786 372.446C78.0401 372.79 78.2777 373.152 78.4918 373.512C81.0236 377.667 83.5522 381.824 86.0777 385.983C86.2707 386.27 86.4142 386.587 86.5436 386.834Z" fill="#597EF7"/>
<path d="M99.9413 522.085C100.355 520.412 100.852 518.408 101.353 516.403C102.132 513.227 102.918 510.05 103.678 506.869C103.795 506.377 103.913 505.859 104.52 505.989C105.127 506.118 105.127 506.605 104.991 507.191C103.748 512.219 102.548 517.259 101.32 522.292C101.217 522.723 101.155 523.304 100.511 523.262C100.035 523.234 99.8331 522.892 99.9413 522.085Z" fill="#597EF7"/>
<path d="M176.028 409.545C175.881 409.531 175.741 409.478 175.622 409.39C175.503 409.303 175.41 409.185 175.353 409.049C175.16 408.682 175.383 408.427 175.635 408.251C176.146 407.893 176.687 407.58 177.219 407.256C181.14 404.867 185.069 402.481 189.005 400.098C189.261 399.926 189.537 399.784 189.826 399.674C189.976 399.621 190.141 399.628 190.286 399.693C190.431 399.758 190.545 399.877 190.605 400.025C190.676 400.144 190.699 400.286 190.669 400.422C190.639 400.558 190.558 400.677 190.442 400.754C190.199 400.948 189.944 401.126 189.678 401.286C185.384 403.898 181.088 406.507 176.788 409.114C176.525 409.274 176.252 409.418 176.028 409.545Z" fill="#597EF7"/>
<path d="M139.913 363.728C139.492 365.438 139.005 367.403 138.522 369.375C137.744 372.549 136.96 375.728 136.2 378.902C136.073 379.424 135.965 379.991 135.294 379.817C134.624 379.643 134.755 379.13 134.894 378.575C136.122 373.587 137.315 368.589 138.534 363.598C138.647 363.128 138.696 362.497 139.416 362.582C139.889 362.634 140 363.031 139.913 363.728Z" fill="#597EF7"/>
<path d="M73.4706 509.635C73.3815 509.826 73.2801 510.011 73.1671 510.188C71.2941 512.826 69.4283 515.468 67.5694 518.096C67.2683 518.525 66.96 518.854 66.4353 518.482C65.9106 518.11 66.2 517.68 66.4706 517.287C68.3373 514.652 70.2039 512.016 72.0706 509.379C72.2918 509.066 72.5012 508.673 72.9882 508.845C73.1504 508.896 73.2886 509.004 73.3772 509.15C73.4658 509.295 73.499 509.467 73.4706 509.635Z" fill="#597EF7"/>
<path d="M54.0306 395.759C54.0302 395.873 54.0021 395.985 53.9489 396.086C53.8956 396.187 53.8187 396.273 53.7248 396.338C53.591 396.423 53.4334 396.464 53.2751 396.453C53.1168 396.443 52.966 396.382 52.8448 396.279C52.0471 395.717 51.2542 395.15 50.4565 394.587C48.5742 393.258 46.6918 391.922 44.8095 390.611C44.3389 390.282 43.9812 389.931 44.3977 389.383C44.8142 388.834 45.2306 389.23 45.6095 389.498C48.2259 391.343 50.8408 393.19 53.4542 395.039C53.7036 395.232 53.9577 395.404 54.0306 395.759Z" fill="#597EF7"/>
<path d="M186.612 489.311C186.831 489.447 187.071 489.579 187.294 489.734C189.872 491.554 192.446 493.374 195.019 495.195C195.452 495.499 195.911 495.812 195.49 496.407C195.087 496.965 194.682 496.609 194.297 496.336C191.658 494.473 189.021 492.608 186.386 490.741C186.073 490.527 185.647 490.325 185.882 489.821C185.939 489.673 186.039 489.545 186.169 489.454C186.299 489.363 186.453 489.313 186.612 489.311Z" fill="#597EF7"/>
<path d="M173.781 367.83C173.64 368.066 173.515 368.301 173.362 368.536C171.513 371.153 169.667 373.768 167.826 376.383C167.522 376.812 167.181 377.277 166.602 376.826C166.087 376.421 166.431 375.993 166.704 375.607L172.254 367.757C172.489 367.423 172.725 367.132 173.195 367.24C173.525 367.313 173.605 367.581 173.781 367.83Z" fill="#597EF7"/>
<path d="M200.645 429.766C200.155 429.82 199.765 429.766 199.666 429.272C199.553 428.698 199.984 428.491 200.414 428.416C203.68 427.839 206.948 427.286 210.217 426.736C210.621 426.668 211.021 426.698 211.158 427.206C211.278 427.677 211.078 427.999 210.621 428.077C207.268 428.644 203.922 429.211 200.645 429.766Z" fill="#597EF7"/>
<path d="M39.1414 456.064C39.612 456.005 40.0684 456.024 40.1884 456.553C40.3343 457.203 39.7837 457.342 39.3273 457.422C36.0645 457.999 32.7994 458.564 29.532 459.116C29.0802 459.193 28.7531 459.019 28.6967 458.535C28.6402 458.05 28.8684 457.829 29.3461 457.744C32.612 457.193 35.8755 456.626 39.1414 456.064Z" fill="#597EF7"/>
<path d="M133.108 523.879C133.04 523.148 133.073 522.703 133.659 522.658C134.306 522.618 134.384 523.178 134.461 523.625C134.962 526.505 135.438 529.39 135.922 532.272C135.974 532.578 136.047 532.882 136.106 533.19C136.198 533.661 136.122 534.072 135.558 534.159C134.993 534.247 134.819 533.905 134.737 533.411C134.36 531.141 133.962 528.877 133.572 526.611C133.412 525.611 133.233 524.611 133.108 523.879Z" fill="#597EF7"/>
<path d="M106.786 362.385C106.847 362.79 106.69 363.157 106.217 363.19C105.593 363.232 105.475 362.719 105.393 362.249C105.059 360.329 104.746 358.404 104.419 356.484C104.203 355.216 103.974 353.95 103.753 352.682C103.671 352.211 103.715 351.792 104.278 351.686C104.748 351.599 105.026 351.863 105.101 352.31C105.661 355.576 106.217 358.843 106.767 362.11C106.779 362.178 106.777 362.258 106.786 362.385Z" fill="#597EF7"/>
<path d="M134.292 386.763C133.821 388.753 133.308 390.873 132.798 392.993C132.588 393.866 132.36 394.732 132.16 395.605C132.047 396.092 131.925 396.574 131.289 396.466C130.654 396.358 130.678 395.826 130.791 395.355C131.503 392.402 132.226 389.45 132.96 386.501C133.071 386.054 133.278 385.68 133.847 385.812C134.289 385.901 134.353 386.231 134.292 386.763Z" fill="#597EF7"/>
<path d="M105.555 499.085L107.059 492.775C107.278 491.869 107.487 490.961 107.727 490.059C107.843 489.631 108.057 489.208 108.607 489.354C109.158 489.499 109.181 489.939 109.078 490.396C108.348 493.376 107.616 496.357 106.88 499.337C106.772 499.782 106.574 500.177 106.007 500.043C105.595 499.954 105.48 499.634 105.555 499.085Z" fill="#597EF7"/>
<path d="M170.259 412.644C170.259 412.792 170.217 412.938 170.137 413.063C170.057 413.188 169.942 413.288 169.807 413.349C167.14 414.97 164.481 416.593 161.828 418.218C161.374 418.498 161.014 418.441 160.741 417.997C160.468 417.552 160.769 417.274 161.12 417.055C163.779 415.429 166.439 413.805 169.101 412.185C169.732 411.815 170.118 411.999 170.259 412.644Z" fill="#597EF7"/>
<path d="M79.2211 468.146C79.1793 468.293 79.1064 468.429 79.0073 468.545C78.9082 468.661 78.7853 468.754 78.647 468.819C76.054 470.387 73.4619 471.963 70.8705 473.546C70.4234 473.819 69.9882 473.979 69.6799 473.431C69.4046 472.944 69.7505 472.633 70.1505 472.395C72.774 470.798 75.3952 469.193 78.0281 467.612C78.5881 467.273 79.2352 467.581 79.2211 468.146Z" fill="#597EF7"/>
<path d="M72.6777 432.123C69.4965 431.335 66.4447 430.575 63.3906 429.829C62.92 429.713 62.7106 429.45 62.8118 428.989C62.913 428.527 63.2824 428.438 63.7153 428.544C66.7742 429.278 69.833 429.998 72.8918 430.749C73.2824 430.843 73.5977 431.113 73.4683 431.603C73.4537 431.69 73.4211 431.774 73.3727 431.849C73.3242 431.923 73.2608 431.987 73.1866 432.036C73.1124 432.084 73.0288 432.117 72.9413 432.132C72.8537 432.147 72.7639 432.144 72.6777 432.123Z" fill="#597EF7"/>
<path d="M150.807 492.477C150.825 492.627 150.794 492.779 150.719 492.911C150.644 493.042 150.529 493.146 150.391 493.207C150.286 493.263 150.165 493.282 150.048 493.262C149.93 493.241 149.823 493.182 149.744 493.094C149.544 492.856 149.362 492.604 149.2 492.338C147.719 489.915 146.242 487.488 144.769 485.058C144.504 484.621 144.129 484.183 144.769 483.769C145.409 483.355 145.668 483.938 145.918 484.345C147.466 486.865 148.995 489.397 150.527 491.927C150.642 492.122 150.734 492.334 150.807 492.477Z" fill="#597EF7"/>
<path d="M176.071 457.28L172.129 456.339C170.5 455.947 168.871 455.555 167.242 455.163C166.772 455.05 166.254 454.927 166.365 454.294C166.475 453.661 167.019 453.69 167.487 453.8C170.444 454.508 173.398 455.228 176.351 455.963C176.788 456.071 177.181 456.285 177.056 456.857C176.941 457.28 176.609 457.337 176.071 457.28Z" fill="#597EF7"/>
<path d="M89.5977 392.59C90.1013 392.559 90.2871 392.886 90.4683 393.18C92.0542 395.769 93.6369 398.361 95.2165 400.957C95.4707 401.373 95.5554 401.738 95.0777 402.058C94.546 402.416 94.2965 402.058 94.0636 401.67C92.4307 399.016 90.7954 396.362 89.1836 393.696C88.8566 393.157 88.986 392.726 89.5977 392.59Z" fill="#597EF7"/>
<path d="M177 469.41C176.765 470.217 176.294 470.184 175.704 469.918C173.862 469.069 172.018 468.224 170.172 467.381L147.944 457.195C147.838 457.148 147.734 457.097 147.626 457.05C147.141 456.845 146.781 456.537 147.061 455.979C147.318 455.466 147.751 455.607 148.174 455.803C150.122 456.699 152.08 457.581 154.028 458.475C161.366 461.839 168.704 465.204 176.04 468.572C176.457 468.763 176.941 468.892 177 469.41Z" fill="#FFA940"/>
<path d="M60.9603 465.838C60.5744 465.838 60.3132 465.706 60.2285 465.346C60.2019 465.261 60.1931 465.172 60.2027 465.084C60.2124 464.995 60.2401 464.91 60.2843 464.833C60.3285 464.756 60.3882 464.689 60.4595 464.636C60.5309 464.583 60.6125 464.545 60.6991 464.525C61.6403 464.17 62.5814 463.791 63.5367 463.438L89.3838 453.833C89.5673 453.767 89.7579 453.718 89.9344 453.64C90.3862 453.443 90.8097 453.433 91.0003 453.96C91.1909 454.487 90.8685 454.76 90.412 454.927C88.4003 455.669 86.3909 456.405 84.3814 457.153C76.896 459.938 69.4128 462.724 61.932 465.513C61.5979 465.633 61.2614 465.737 60.9603 465.838Z" fill="#FFA940"/>
<path d="M91.9624 430.457C91.7553 431.238 91.3106 431.264 90.6447 430.953C88.2094 429.817 85.7553 428.723 83.3129 427.603C76.5553 424.501 69.7937 421.398 63.0282 418.292C62.8165 418.196 62.5976 418.106 62.3929 417.996C62.0118 417.796 61.7365 417.525 62.0188 417.071C62.2541 416.692 62.5318 416.563 62.9976 416.784C64.72 417.605 66.4635 418.384 68.1976 419.177C75.7788 422.643 83.3592 426.11 90.9388 429.577C91.3459 429.763 91.8518 429.876 91.9624 430.457Z" fill="#FFA940"/>
<path d="M107.224 471.665C107.146 471.86 107.052 472.117 106.939 472.371C102.777 481.469 98.6127 490.567 94.4448 499.665C94.3319 499.9 94.2095 500.157 94.0848 500.399C93.8966 500.773 93.6731 501.091 93.1813 500.853C92.6895 500.616 92.6425 500.279 92.8707 499.797C93.6001 498.248 94.2966 496.681 95.0119 495.124L105.525 472.176C105.671 471.858 105.817 471.538 105.984 471.234C106.057 471.093 106.184 470.986 106.336 470.938C106.489 470.89 106.654 470.904 106.795 470.978C106.935 471.026 107.053 471.121 107.131 471.246C107.209 471.371 107.242 471.519 107.224 471.665Z" fill="#FFA940"/>
<path d="M97.5601 384.149C98.266 384.126 98.3436 384.657 98.5013 385.079C99.9711 389.025 101.436 392.971 102.897 396.916C104.917 402.361 106.94 407.805 108.965 413.248C109.02 413.435 109.086 413.619 109.162 413.799C109.398 414.269 109.475 414.74 108.857 414.937C108.238 415.135 108.059 414.702 107.88 414.215C107.075 412.02 106.233 409.839 105.419 407.648C102.688 400.302 99.9617 392.955 97.2401 385.608C97.0378 385.06 96.6001 384.41 97.5601 384.149Z" fill="#FFA940"/>
<path d="M132.36 415.902C131.675 415.716 131.558 415.316 131.854 414.676C132.889 412.453 133.901 410.218 134.913 407.987C138.141 400.942 141.369 393.898 144.598 386.855C144.791 386.436 144.901 385.808 145.445 385.869C146.245 385.956 146.252 386.528 145.953 387.173C144.562 390.175 143.18 393.182 141.809 396.194C138.972 402.39 136.133 408.586 133.294 414.782C133.101 415.22 132.998 415.773 132.36 415.902Z" fill="#FFA940"/>
<path d="M178.708 421.544C178.708 422.281 178.101 422.307 177.664 422.472C173.32 424.101 168.974 425.721 164.624 427.33C159.502 429.232 154.386 431.132 149.275 433.032C148.805 433.21 148.184 433.615 147.918 432.796C147.664 432.022 148.365 431.907 148.859 431.726C158.351 428.185 167.847 424.649 177.348 421.116C177.894 420.921 178.504 420.646 178.708 421.544Z" fill="#FFA940"/>
<path d="M141.906 501.879C141.928 502.037 141.893 502.199 141.807 502.333C141.721 502.468 141.589 502.567 141.435 502.613C141.364 502.647 141.286 502.667 141.206 502.67C141.127 502.673 141.047 502.659 140.973 502.63C140.899 502.601 140.832 502.558 140.775 502.502C140.719 502.446 140.674 502.379 140.645 502.305C140.426 501.806 140.247 501.291 140.057 500.78C136.673 491.682 133.291 482.591 129.911 473.507C129.828 473.288 129.746 473.07 129.659 472.851C129.497 472.439 129.506 472.053 129.969 471.872C130.433 471.691 130.781 471.924 130.958 472.404C131.533 473.972 132.113 475.541 132.697 477.11L141.624 501.117C141.72 501.366 141.812 501.625 141.906 501.879Z" fill="#FFA940"/>
<path d="M95.92 378.112C95.9906 378.669 95.8659 378.916 95.5177 379.053C95.4377 379.092 95.3498 379.113 95.2606 379.114C95.1713 379.115 95.083 379.096 95.0021 379.059C94.9212 379.021 94.8499 378.966 94.7933 378.896C94.7367 378.827 94.6964 378.747 94.6753 378.66C93.9177 376.701 93.1796 374.734 92.4612 372.759C92.4262 372.676 92.4093 372.588 92.4116 372.498C92.4139 372.409 92.4355 372.321 92.4747 372.241C92.514 372.16 92.5701 372.089 92.6392 372.032C92.7084 371.976 92.7889 371.934 92.8753 371.912C93.2236 371.777 93.5412 371.867 93.6683 372.192C94.4589 374.222 95.2189 376.262 95.92 378.112Z" fill="#FFD591"/>
<path d="M55.1954 467.52C55.1954 467.915 54.9083 468.122 54.5671 468.249C52.6848 468.955 50.7883 469.647 48.9012 470.352C48.4495 470.522 48.1412 470.404 47.9601 469.959C47.9225 469.878 47.9028 469.79 47.9021 469.701C47.9015 469.612 47.9199 469.523 47.9562 469.442C47.9926 469.36 48.0459 469.287 48.1127 469.228C48.1796 469.169 48.2583 469.125 48.3436 469.098C50.2965 468.355 52.2573 467.632 54.226 466.931C54.7271 466.762 55.073 466.997 55.1954 467.52Z" fill="#FFD591"/>
<path d="M142.984 508.646C142.911 508.102 143.019 507.837 143.358 507.705C143.779 507.526 144.064 507.742 144.2 508.091C144.967 510.081 145.719 512.077 146.457 514.079C146.487 514.152 146.503 514.231 146.502 514.31C146.501 514.389 146.483 514.467 146.45 514.54C146.417 514.612 146.369 514.676 146.31 514.729C146.251 514.782 146.181 514.822 146.106 514.846C145.753 514.992 145.365 514.971 145.209 514.568C144.428 512.54 143.678 510.505 142.984 508.646Z" fill="#FFD591"/>
<path d="M151.652 374.64C151.612 374.736 151.574 374.847 151.525 374.95C150.673 376.832 149.828 378.696 148.96 380.562C148.791 380.924 148.525 381.247 148.04 381.018C147.593 380.807 147.555 380.404 147.725 380.025C148.559 378.143 149.413 376.274 150.285 374.418C150.317 374.335 150.365 374.26 150.426 374.195C150.488 374.131 150.561 374.08 150.642 374.044C150.724 374.008 150.811 373.988 150.9 373.986C150.989 373.985 151.077 374 151.16 374.032C151.293 374.074 151.41 374.154 151.498 374.262C151.585 374.37 151.639 374.501 151.652 374.64Z" fill="#FFD591"/>
<path d="M87.8165 512.772C87.3459 512.662 87.1106 512.351 87.3812 511.782C88.2189 509.946 89.0448 508.106 89.8989 506.28C90.0871 505.873 90.4048 505.532 90.9154 505.81C91.4259 506.087 91.2918 506.499 91.0989 506.918C90.2848 508.678 89.473 510.447 88.6777 512.205C88.5224 512.546 88.3553 512.822 87.8165 512.772Z" fill="#FFD591"/>
<path d="M184.2 419.916C184.028 419.935 183.828 419.681 183.73 419.382C183.595 418.947 183.92 418.711 184.238 418.584C185.179 418.21 186.12 417.878 187.061 417.535C188.04 417.17 189.01 416.782 189.995 416.431C190.405 416.285 190.779 416.363 190.937 416.845C190.97 416.928 190.986 417.016 190.983 417.104C190.979 417.193 190.958 417.28 190.919 417.36C190.879 417.439 190.824 417.509 190.756 417.566C190.687 417.623 190.608 417.664 190.522 417.688C188.566 418.423 186.606 419.154 184.64 419.878C184.495 419.903 184.348 419.915 184.2 419.916Z" fill="#FFD591"/>
<path d="M188.849 474.902C188.753 475.372 188.544 475.763 187.908 475.48C186.002 474.618 184.102 473.743 182.207 472.857C181.849 472.692 181.642 472.386 181.802 472.005C181.986 471.568 182.395 471.485 182.788 471.659C184.671 472.495 186.527 473.356 188.395 474.21C188.533 474.264 188.651 474.36 188.732 474.484C188.813 474.608 188.854 474.754 188.849 474.902Z" fill="#FFD591"/>
<path d="M50.8096 411.233C50.9249 411.283 51.1037 411.355 51.2802 411.435L56.3531 413.77C56.7743 413.965 57.3249 414.127 57.0919 414.744C56.859 415.36 56.3508 415.252 55.8331 415.007C54.1131 414.2 52.3837 413.414 50.6566 412.635C50.2566 412.457 49.9837 412.226 50.0896 411.76C50.1013 411.678 50.1294 411.599 50.1721 411.527C50.2149 411.456 50.2715 411.394 50.3386 411.345C50.4057 411.296 50.4819 411.261 50.5628 411.241C50.6437 411.222 50.7276 411.219 50.8096 411.233Z" fill="#FFD591"/>
</svg>
