<svg width="320" height="274" viewBox="0 0 320 274" fill="none" xmlns="http://www.w3.org/2000/svg">
<path d="M98.4838 250.856C98.3814 250.862 98.2799 250.835 98.1942 250.779C98.1086 250.722 98.0436 250.64 98.0088 250.543C97.8868 250.22 98.0382 249.995 98.2647 249.771C99.275 248.774 100.274 247.765 101.276 246.762L114.365 233.674C114.646 233.393 114.937 233.046 115.344 233.436C115.785 233.862 115.422 234.171 115.122 234.474C109.793 239.802 104.463 245.13 99.1338 250.458C98.9382 250.643 98.7809 250.884 98.4838 250.856Z" fill="#597EF7"/>
<path d="M66.9941 241.553C67.0412 242.022 66.8632 242.235 66.5765 242.288C66.1882 242.353 66.0265 242.091 65.9353 241.742C65.4868 240.047 65.0206 238.36 64.5676 236.663C63.0559 231.017 61.5456 225.37 60.0368 219.723C60.0029 219.632 59.974 219.538 59.95 219.444C59.8941 219.101 59.9412 218.775 60.3309 218.684C60.7206 218.592 60.9029 218.831 61 219.187C61.4147 220.739 61.8515 222.287 62.2662 223.839C63.8142 229.624 65.3598 235.412 66.9029 241.203C66.9456 241.362 66.9868 241.526 66.9941 241.553Z" fill="#597EF7"/>
<path d="M20.7486 258.639C21.2383 258.764 21.8765 258.922 22.5133 259.092L42.7618 264.522C42.9282 264.557 43.0915 264.607 43.25 264.669C43.4897 264.776 43.6647 264.963 43.603 265.242C43.5412 265.522 43.3471 265.726 43.025 265.683C42.7598 265.647 42.4974 265.593 42.2397 265.52C35.0898 263.605 27.9402 261.689 20.7912 259.772C20.6489 259.736 20.5085 259.694 20.3706 259.644C20.0883 259.535 19.9162 259.332 19.9912 259.022C20.0662 258.711 20.278 258.579 20.7486 258.639Z" fill="#597EF7"/>
<path d="M38.4221 236.535C38.4099 236.641 38.3716 236.744 38.3106 236.832C38.2495 236.921 38.1676 236.993 38.0721 237.042C37.9731 237.093 37.8598 237.109 37.7506 237.087C37.6413 237.066 37.5427 237.008 37.4706 236.923C36.9897 236.47 36.525 236.001 36.0589 235.533L29.1103 228.577C29.0765 228.543 29.0383 228.513 29.0044 228.477C28.7103 228.173 28.35 227.838 28.7853 227.43C29.1692 227.068 29.4912 227.374 29.7794 227.667C30.4662 228.364 31.1603 229.054 31.853 229.745C33.8765 231.768 35.9 233.792 37.9236 235.815C38.128 236.02 38.378 236.198 38.4221 236.535Z" fill="#597EF7"/>
<path d="M125.978 260.677C125.838 260.701 125.695 260.67 125.578 260.589C125.461 260.509 125.381 260.385 125.354 260.246C125.262 259.899 125.465 259.696 125.796 259.608L128.546 258.872L137.427 256.477C137.813 256.372 138.197 256.349 138.337 256.806C138.484 257.299 138.093 257.428 137.727 257.527C133.872 258.564 130.017 259.598 126.163 260.63L125.978 260.677Z" fill="#597EF7"/>
<path d="M92.3721 211.282C92.1338 212.155 91.8353 213.235 91.5471 214.315C90.8 217.11 90.0618 219.914 89.3103 222.711C89.2133 223.076 89.1441 223.57 88.6059 223.464C88.1103 223.367 88.1015 222.98 88.2221 222.54C89.1662 219.064 90.1015 215.584 91.028 212.099C91.1412 211.676 91.2485 211.251 91.3809 210.833C91.4721 210.539 91.6853 210.367 91.9941 210.458C92.2691 210.546 92.4544 210.742 92.3721 211.282Z" fill="#597EF7"/>
<path d="M98.6632 273.185H109.968C110.164 273.174 110.361 273.18 110.556 273.202C110.682 273.227 110.796 273.294 110.877 273.394C110.959 273.493 111.003 273.618 111.001 273.746C111 273.875 110.954 273.999 110.871 274.097C110.787 274.195 110.672 274.26 110.546 274.282C110.35 274.305 110.154 274.311 109.957 274.299H87.0559C86.675 274.299 86.2662 274.283 86.2529 273.774C86.2397 273.236 86.6412 273.186 87.0662 273.186C90.7113 273.186 94.3564 273.186 98.0015 273.186L98.6632 273.185Z" fill="#FFC069"/>
<path d="M52.5941 274.304H41.2911C41.0715 274.315 40.8513 274.304 40.6338 274.271C40.5107 274.253 40.3997 274.187 40.324 274.088C40.2484 273.989 40.2139 273.864 40.2279 273.741C40.2186 273.617 40.2562 273.494 40.3333 273.396C40.4104 273.299 40.5213 273.234 40.6441 273.214C40.8624 273.185 41.083 273.177 41.3029 273.189H63.8411C63.9882 273.189 64.1353 273.189 64.2823 273.189C64.6367 273.196 64.9206 273.314 64.9397 273.719C64.9603 274.173 64.6573 274.307 64.2706 274.307C63.2676 274.307 62.2632 274.307 61.2603 274.307L52.5941 274.304Z" fill="#FFC069"/>
<path d="M81.2765 264.634C80.7839 264.651 80.5412 264.175 80.7736 263.732C81.2397 262.875 81.7368 262.035 82.2236 261.191C85.5863 255.362 88.95 249.533 92.3147 243.704C92.3883 243.578 92.4618 243.453 92.5397 243.326C92.7206 243.019 92.9971 242.94 93.2883 243.101C93.6221 243.288 93.6588 243.571 93.4574 243.91C92.9838 244.707 92.5309 245.518 92.0677 246.319C88.6618 252.21 85.2564 258.101 81.8515 263.993C81.6927 264.268 81.5603 264.559 81.2765 264.634Z" fill="#FFC069"/>
<path d="M70.5426 264.079C70.5426 264.341 70.3764 264.473 70.1764 264.584C70.0903 264.634 69.9878 264.649 69.8909 264.625C69.794 264.601 69.7102 264.54 69.6573 264.456C69.5353 264.305 69.4266 264.143 69.3323 263.973C65.5529 257.429 61.775 250.885 57.9985 244.341C57.9485 244.257 57.9058 244.169 57.8514 244.087C57.6191 243.738 57.4235 243.362 57.9176 243.1C58.4117 242.838 58.6117 243.238 58.8147 243.587C60.1186 245.842 61.4245 248.099 62.7323 250.36C65.2411 254.711 67.7485 259.064 70.2544 263.419C70.375 263.629 70.5308 263.822 70.5426 264.079Z" fill="#FFC069"/>
<path d="M75.6161 225.079C75.6161 228.555 75.6161 232.031 75.6161 235.507C75.623 235.703 75.6181 235.899 75.6014 236.095C75.5941 236.219 75.5406 236.337 75.4514 236.424C75.3622 236.511 75.2436 236.561 75.119 236.566C75.0514 236.575 74.9825 236.572 74.9164 236.555C74.8502 236.538 74.788 236.508 74.7333 236.467C74.6787 236.426 74.6327 236.375 74.5979 236.316C74.5631 236.257 74.5403 236.192 74.5308 236.124C74.501 235.906 74.4926 235.685 74.5058 235.466C74.5058 228.539 74.5058 221.612 74.5058 214.685C74.5058 214.611 74.5058 214.538 74.5058 214.464C74.4911 214.023 74.5058 213.554 75.0852 213.563C75.619 213.573 75.6146 214.032 75.6146 214.445C75.6146 217.627 75.6146 220.809 75.6146 223.991L75.6161 225.079Z" fill="#FFC069"/>
<path d="M107.875 255.4C107.531 255.422 107.337 255.337 107.262 255.092C107.203 254.956 107.202 254.802 107.257 254.664C107.312 254.526 107.419 254.416 107.556 254.357C108.301 253.942 109.027 253.501 109.769 253.075C115.15 249.969 120.532 246.866 125.916 243.767C126.285 243.556 126.756 242.975 127.151 243.647C127.534 244.295 126.857 244.459 126.466 244.685C120.479 248.155 114.49 251.618 108.499 255.075C108.275 255.212 108.031 255.32 107.875 255.4Z" fill="#FFC069"/>
<path d="M42.9087 254.856C42.919 255.362 42.5028 255.559 41.9631 255.256C40.5587 254.467 39.169 253.66 37.772 252.854C33.0818 250.147 28.3945 247.436 23.7102 244.719C23.3146 244.49 22.5661 244.337 22.9911 243.638C23.3955 242.973 23.8734 243.575 24.2322 243.785C30.2617 247.247 36.2837 250.721 42.2984 254.209C42.5646 254.359 42.9161 254.447 42.9087 254.856Z" fill="#FFC069"/>
<path d="M75.6177 255.543C75.6177 258.849 75.6177 262.155 75.6177 265.461C75.6286 265.706 75.6247 265.951 75.606 266.196C75.5956 266.32 75.54 266.436 75.4497 266.522C75.3595 266.608 75.2408 266.658 75.1162 266.662C74.9803 266.678 74.8433 266.641 74.7337 266.559C74.6242 266.477 74.5505 266.356 74.528 266.221C74.501 266.026 74.4956 265.829 74.5118 265.633V245.431C74.5118 245.284 74.503 245.137 74.5118 244.99C74.5398 244.634 74.6824 244.371 75.0898 244.381C75.4574 244.391 75.5927 244.639 75.6148 244.969C75.6295 245.165 75.6148 245.361 75.6148 245.558L75.6177 255.543Z" fill="#FA8C16"/>
<path d="M50.1677 258.772C50.3074 258.847 50.4809 258.933 50.6471 259.03C56.5794 262.452 62.5108 265.876 68.4412 269.301C68.7765 269.495 69.2118 269.663 68.9191 270.183C68.6441 270.669 68.3 270.469 67.9324 270.257C62.0235 266.842 56.1128 263.431 50.2 260.025C50.0265 259.936 49.8632 259.828 49.7133 259.704C49.6221 259.64 49.5594 259.542 49.5383 259.433C49.5171 259.323 49.5393 259.209 49.6 259.116C49.6522 259.01 49.7333 258.922 49.8338 258.861C49.9343 258.8 50.0501 258.769 50.1677 258.772Z" fill="#FA8C16"/>
<path d="M81.7412 270.498C81.613 270.498 81.4878 270.459 81.3826 270.385C81.2774 270.312 81.1972 270.208 81.153 270.088C81.0324 269.779 81.203 269.58 81.4589 269.432L83.9927 267.961L99.1927 259.186C99.3192 259.113 99.45 259.039 99.5736 258.967C99.9133 258.751 100.247 258.623 100.507 259.067C100.788 259.544 100.4 259.73 100.097 259.917C99.5089 260.276 98.9206 260.608 98.3324 260.947L82.303 270.194C82.1147 270.313 81.9177 270.407 81.7412 270.498Z" fill="#FA8C16"/>
<path d="M64.7073 262.883C64.6959 262.974 64.6621 263.061 64.609 263.136C64.5559 263.211 64.4851 263.272 64.4029 263.313C64.1191 263.446 63.8764 263.347 63.6676 263.143C63.0255 262.508 62.3843 261.87 61.7441 261.231L51.8912 251.378L51.7353 251.222C51.4412 250.928 51.1794 250.586 51.5647 250.222C51.9088 249.899 52.2323 250.128 52.5117 250.413C53.0603 250.974 53.6176 251.522 54.1706 252.075C57.5264 255.431 60.8823 258.787 64.2382 262.143C64.4426 262.337 64.6911 262.518 64.7073 262.883Z" fill="#2F54EB"/>
<path d="M84.0486 242.307C83.7545 243.42 83.4368 244.645 83.1103 245.869C81.9898 250.059 80.8682 254.247 79.7456 258.434C79.7148 258.551 79.6574 258.664 79.6383 258.782C79.5648 259.223 79.3206 259.478 78.8795 259.342C78.4383 259.207 78.4927 258.864 78.5853 258.498C79.3971 255.488 80.2035 252.476 81.0045 249.46C81.627 247.131 82.2491 244.801 82.8706 242.47C82.9105 242.304 82.9596 242.141 83.0177 241.981C83.125 241.7 83.3295 241.532 83.6412 241.595C83.953 241.659 84.0853 241.876 84.0486 242.307Z" fill="#2F54EB"/>
<path d="M90.0721 270.282C89.7486 270.296 89.5177 270.199 89.4633 269.87C89.4 269.488 89.578 269.298 89.9559 269.199C91.7471 268.729 93.5309 268.233 95.3206 267.754C98.9206 266.787 102.521 265.824 106.122 264.865C106.24 264.835 106.362 264.817 106.478 264.783C106.844 264.682 107.129 264.783 107.221 265.16C107.312 265.536 107.062 265.736 106.716 265.83C105.306 266.211 103.896 266.599 102.484 266.977C98.5299 268.033 94.575 269.087 90.6192 270.138L90.0721 270.282Z" fill="#2F54EB"/>
<path d="M123.497 273.187C124.843 273.187 126.188 273.194 127.534 273.187C127.975 273.187 128.366 273.267 128.353 273.775C128.341 274.25 127.943 274.304 127.546 274.304C124.783 274.298 122.019 274.298 119.254 274.304C118.851 274.304 118.471 274.234 118.471 273.754C118.471 273.275 118.826 273.181 119.241 273.184C120.653 273.192 122.072 273.187 123.497 273.187Z" fill="#FFE7BA"/>
<path d="M27.8045 273.187C29.1721 273.187 30.5398 273.187 31.9074 273.187C32.3383 273.187 32.7398 273.262 32.7339 273.775C32.7339 274.26 32.3251 274.303 31.9339 274.303C29.1741 274.303 26.4138 274.303 23.653 274.303C23.2603 274.303 22.8795 274.264 22.8765 273.757C22.8765 273.201 23.2868 273.184 23.7001 273.184C25.0692 273.189 26.4383 273.187 27.8045 273.187Z" fill="#FFE7BA"/>
<path d="M49.4883 227.984C49.7824 227.984 49.9295 228.193 50.0456 228.402C51.477 230.868 52.903 233.337 54.3236 235.809C54.5045 236.124 54.5118 236.408 54.1648 236.624C53.7927 236.855 53.5633 236.654 53.3883 236.352C51.9353 233.841 50.4868 231.329 49.0427 228.815C48.9877 228.735 48.9558 228.641 48.9505 228.544C48.9453 228.447 48.9668 228.35 49.0128 228.264C49.0588 228.179 49.1275 228.107 49.2113 228.058C49.2952 228.008 49.391 227.983 49.4883 227.984Z" fill="#FFE7BA"/>
<path d="M97.3207 236.724C96.8163 236.688 96.6472 236.229 96.9442 235.705C97.7472 234.288 98.5619 232.88 99.3825 231.468C99.9545 230.479 100.532 229.49 101.102 228.499C101.312 228.132 101.566 227.804 102.021 228.093C102.447 228.365 102.227 228.721 102.038 229.049C100.676 231.409 99.3134 233.77 97.9516 236.132C97.7928 236.402 97.659 236.71 97.3207 236.724Z" fill="#FFE7BA"/>
<path d="M85.8073 263.64C85.4794 263.612 85.3162 263.504 85.2397 263.309C85.1162 262.99 85.2676 262.759 85.4956 262.534C86.5044 261.537 87.5029 260.528 88.5059 259.523C89.2838 258.744 90.0662 257.971 90.8397 257.187C91.1338 256.893 91.4588 256.619 91.8338 256.997C92.1765 257.343 91.9368 257.656 91.6544 257.937C89.8515 259.732 88.051 261.53 86.2529 263.331C86.097 263.487 85.9471 263.65 85.8073 263.64Z" fill="#2F54EB"/>
<path d="M60.3471 270.369L57.647 269.644C56.0059 269.204 54.3642 268.763 52.722 268.321C52.3559 268.224 52.0573 268.056 52.1706 267.621C52.2838 267.185 52.575 267.156 52.972 267.263C55.4721 267.947 57.9897 268.61 60.4985 269.281C60.8309 269.371 61.1029 269.53 61.0309 269.931C60.9706 270.278 60.7426 270.431 60.3471 270.369Z" fill="#2F54EB"/>
<path d="M71.6809 259.014C71.728 259.485 71.5456 259.666 71.2485 259.713C70.9 259.767 70.7191 259.566 70.6324 259.241C70.2824 257.927 69.9221 256.616 69.5662 255.304C69.2485 254.127 68.9265 252.961 68.6147 251.789C68.5132 251.407 68.3971 250.977 68.9471 250.852C69.4265 250.744 69.5515 251.089 69.6574 251.483C70.3118 253.946 70.9809 256.405 71.653 258.866C71.6698 258.913 71.6792 258.963 71.6809 259.014Z" fill="#2F54EB"/>
<path d="M48.4544 246.538C48.425 246.979 47.8824 247.273 47.5868 247.002C46.7676 246.238 45.9882 245.429 45.2088 244.62C45.0074 244.411 45.0868 244.179 45.2824 243.971C45.4779 243.764 45.7235 243.696 45.9338 243.882C46.7914 244.64 47.5985 245.454 48.35 246.318C48.3972 246.385 48.4326 246.459 48.4544 246.538Z" fill="#2F54EB"/>
<path d="M84.5029 236.422C84.7632 235.469 85.0397 234.462 85.3132 233.455C85.4103 233.096 85.6662 232.985 85.9853 233.078C86.3044 233.171 86.4485 233.419 86.3544 233.762C86.0853 234.746 85.8103 235.728 85.5412 236.713C85.4515 237.044 85.2544 237.246 84.9073 237.155C84.5956 237.06 84.4221 236.831 84.5029 236.422Z" fill="#2F54EB"/>
<path d="M112.274 264.35C112.137 264.366 111.998 264.33 111.887 264.248C111.776 264.166 111.701 264.044 111.676 263.908C111.618 263.653 111.688 263.404 111.971 263.32C113.024 263.026 114.076 262.732 115.135 262.457C115.201 262.438 115.27 262.433 115.338 262.442C115.406 262.452 115.471 262.475 115.529 262.512C115.587 262.548 115.637 262.596 115.675 262.653C115.713 262.71 115.739 262.775 115.75 262.842C115.822 263.125 115.75 263.386 115.419 263.479C114.379 263.773 113.318 264.063 112.274 264.35Z" fill="#2F54EB"/>
<path d="M323.388 135.938C323.593 136.123 323.544 136.36 323.523 136.594L322.436 148.818C322.01 153.618 321.581 158.417 321.15 163.215C321.133 163.42 321.099 163.63 321.086 163.837C321.059 164.253 320.933 164.571 320.432 164.492C319.971 164.427 319.944 164.092 319.982 163.731C320.093 162.511 320.204 161.29 320.314 160.07L322.037 140.765C322.164 139.308 322.293 137.854 322.425 136.406C322.449 136.143 322.482 135.859 322.807 135.802C323.006 135.767 323.231 135.74 323.388 135.938Z" fill="#ADC6FF"/>
<path d="M329.989 62.7469C330.087 62.9221 330.119 63.127 330.078 63.3237C329.622 68.3394 329.17 73.3522 328.725 78.362C328.377 82.2586 328.042 86.1563 327.681 90.0539C327.639 90.5131 327.875 91.2774 327.077 91.2608C326.224 91.2441 326.551 90.512 326.595 90.0506C327.006 85.2442 327.432 80.4388 327.872 75.6345C328.22 71.7117 328.568 67.7896 328.916 63.8683C328.93 63.5554 328.972 63.2443 329.041 62.9388C329.073 62.8464 329.128 62.764 329.202 62.6996C329.275 62.6353 329.364 62.5913 329.46 62.5719C329.556 62.5525 329.655 62.5585 329.748 62.5892C329.841 62.6198 329.924 62.6742 329.989 62.7469Z" fill="#ADC6FF"/>
<path d="M278.697 135.173C278.359 134.67 278.696 134.413 279.139 134.207C280.645 133.507 282.154 132.811 283.66 132.113C290.276 129.046 296.895 125.977 303.515 122.906C303.609 122.863 303.709 122.83 303.801 122.784C304.174 122.6 304.569 122.443 304.792 122.947C305.015 123.452 304.611 123.632 304.245 123.803C296.03 127.616 287.815 131.429 279.599 135.243C279.302 135.375 279.007 135.51 278.697 135.173Z" fill="#ADC6FF"/>
<path d="M283.229 84.8149C283.013 84.6407 282.979 84.3279 283.202 84.0562C283.481 83.7179 283.825 83.8776 284.111 84.0773C285.198 84.8359 286.273 85.6135 287.357 86.3766C291.438 89.2464 295.523 92.1181 299.61 94.9916C301.91 96.6051 304.212 98.2131 306.517 99.8155C306.851 100.047 306.984 100.349 306.786 100.681C306.568 101.042 306.241 100.986 305.913 100.755C303.742 99.2298 301.564 97.7169 299.388 96.1885C295.002 93.1116 290.618 90.0317 286.237 86.9489C285.264 86.2668 284.287 85.5647 283.229 84.8149Z" fill="#ADC6FF"/>
<path d="M259.968 119.282C259.899 119.195 259.853 119.092 259.835 118.982C259.817 118.872 259.827 118.76 259.865 118.655C259.971 118.374 260.211 118.309 260.489 118.284C262.256 118.145 264.022 117.994 265.789 117.849C271.45 117.381 277.112 116.913 282.776 116.446C284.309 116.319 285.842 116.196 287.374 116.076C287.801 116.042 288.192 116.083 288.195 116.635C288.196 117.151 287.799 117.156 287.418 117.19C278.557 117.917 269.7 118.648 260.845 119.383C260.542 119.405 260.222 119.467 259.968 119.282Z" fill="#ADC6FF"/>
<path d="M297.768 172.478C297.501 172.801 297.213 172.811 296.957 172.639C296.659 172.443 296.718 172.145 296.846 171.863C297.293 170.897 297.744 169.933 298.201 168.971C301.562 161.862 304.925 154.753 308.29 147.644C308.355 147.531 308.412 147.415 308.462 147.294C308.603 146.87 308.908 146.795 309.266 146.958C309.624 147.121 309.603 147.44 309.456 147.756C308.85 149.048 308.243 150.339 307.635 151.63C304.442 158.391 301.248 165.15 298.054 171.908C297.953 172.125 297.842 172.331 297.768 172.478Z" fill="#ADC6FF"/>
<path d="M288.532 59.8554C289.264 60.898 289.999 61.9373 290.725 62.9866C293.98 67.694 297.232 72.4029 300.481 77.1132C301.636 78.7825 302.782 80.4563 303.948 82.1179C304.194 82.4672 304.418 82.7933 303.992 83.1283C303.519 83.4966 303.269 83.0706 303.054 82.7701C301.816 81.0031 300.6 79.2173 299.371 77.4404L290.665 64.8633C289.674 63.4292 288.684 61.995 287.693 60.5608C287.484 60.258 287.463 59.9552 287.764 59.7444C287.821 59.6987 287.886 59.6651 287.957 59.6458C288.027 59.6265 288.1 59.6219 288.172 59.6323C288.244 59.6427 288.314 59.6679 288.375 59.7063C288.437 59.7447 288.491 59.7954 288.532 59.8554Z" fill="#ADC6FF"/>
<path d="M276.181 101.034C276.09 100.943 276.029 100.825 276.007 100.698C275.986 100.57 276.004 100.439 276.059 100.322C276.213 99.984 276.498 100.012 276.79 100.088C277.844 100.366 278.899 100.646 279.956 100.929L296.301 105.315C296.426 105.349 296.549 105.395 296.677 105.42C297.042 105.499 297.257 105.705 297.158 106.079C297.059 106.453 296.79 106.598 296.374 106.486C295.123 106.138 293.864 105.813 292.609 105.477L276.941 101.271C276.667 101.196 276.397 101.102 276.181 101.034Z" fill="#ADC6FF"/>
<path d="M312.436 64.6953C312.499 64.896 312.566 65.0913 312.621 65.2909C314.369 71.7944 316.116 78.2976 317.864 84.8004C317.976 85.2186 318.008 85.609 317.488 85.7332C316.993 85.8541 316.891 85.4881 316.785 85.1054C315.056 78.6241 313.322 72.1438 311.584 65.6647C311.526 65.4658 311.49 65.2613 311.476 65.0546C311.465 64.9495 311.496 64.8444 311.56 64.7605C311.624 64.6765 311.717 64.62 311.822 64.6021C311.925 64.5757 312.033 64.5703 312.138 64.5863C312.244 64.6023 312.345 64.6394 312.436 64.6953Z" fill="#ADC6FF"/>
<path d="M296.52 141.281C298.809 138.992 301.097 136.704 303.385 134.416C303.545 134.245 303.715 134.082 303.893 133.93C303.939 133.884 303.995 133.847 304.056 133.823C304.117 133.8 304.182 133.789 304.248 133.791C304.313 133.794 304.377 133.811 304.436 133.84C304.495 133.869 304.547 133.91 304.589 133.96C304.691 134.044 304.756 134.165 304.771 134.297C304.785 134.429 304.748 134.561 304.666 134.666C304.542 134.835 304.401 134.991 304.245 135.131C299.613 139.763 294.981 144.395 290.35 149.026C290.193 149.201 290.021 149.362 289.835 149.505C289.731 149.587 289.598 149.624 289.466 149.608C289.334 149.593 289.214 149.526 289.131 149.422C289.082 149.379 289.042 149.325 289.014 149.266C288.986 149.206 288.97 149.142 288.968 149.076C288.965 149.01 288.976 148.944 289 148.883C289.024 148.822 289.06 148.766 289.107 148.719C289.242 148.559 289.391 148.413 289.539 148.264C291.868 145.934 294.195 143.606 296.52 141.281Z" fill="#ADC6FF"/>
<path d="M266.285 98.1644C266.049 98.343 265.79 98.2931 265.536 98.2254C262.607 97.4401 259.675 96.6533 256.743 95.8651C256.36 95.7619 256.144 95.5767 256.244 95.1441C256.352 94.6627 256.699 94.7126 257.038 94.7936C260.021 95.5848 263.002 96.3835 265.982 97.1895C266.466 97.3337 266.611 97.865 266.285 98.1644Z" fill="#ADC6FF"/>
<path d="M307.177 45.0363C307.213 45.1383 307.283 45.3058 307.331 45.48C308.096 48.3439 308.861 51.2085 309.627 54.0739C309.723 54.4366 309.86 54.8149 309.357 54.9735C308.855 55.1321 308.664 54.7794 308.558 54.3723C307.785 51.481 307.012 48.5909 306.239 45.7018C306.158 45.399 306.053 45.0562 306.418 44.871C306.541 44.7932 306.689 44.7669 306.831 44.7978C306.974 44.8288 307.098 44.9144 307.177 45.0363Z" fill="#ADC6FF"/>
<path d="M278.053 159.748C279.084 158.717 280.115 157.686 281.147 156.654C281.404 156.397 281.681 156.08 282.07 156.437C282.478 156.809 282.235 157.137 281.94 157.434C279.841 159.532 277.742 161.631 275.643 163.731C275.356 164.018 275.025 164.28 274.645 163.877C274.281 163.493 274.595 163.211 274.85 162.953C275.914 161.881 276.986 160.815 278.053 159.748Z" fill="#ADC6FF"/>
<path d="M293.967 116.569C293.726 116.304 293.659 116.117 293.724 115.896C293.81 115.588 294.057 115.539 294.33 115.512C296.014 115.373 297.699 115.23 299.383 115.084C300.574 114.982 301.768 114.884 302.959 114.782C303.366 114.746 303.779 114.715 303.844 115.268C303.913 115.852 303.477 115.857 303.081 115.894L294.459 116.618C294.256 116.637 294.042 116.645 293.967 116.569Z" fill="#ADC6FF"/>
<path d="M312.262 141.811C312.172 141.921 312.044 141.992 311.902 142.009C311.761 142.026 311.619 141.987 311.507 141.901C311.223 141.705 311.25 141.423 311.381 141.139C311.741 140.389 312.089 139.641 312.442 138.891C313.322 137.017 314.203 135.142 315.083 133.267C315.257 132.893 315.465 132.529 315.942 132.742C316.419 132.955 316.287 133.36 316.107 133.735C314.884 136.307 313.662 138.88 312.442 141.454C312.373 141.591 312.303 141.728 312.262 141.811Z" fill="#ADC6FF"/>
<path d="M308.053 88.035L311.74 93.368C312.138 93.9437 312.516 94.5349 312.935 95.0961C313.179 95.4244 313.34 95.7583 312.987 96.0511C312.635 96.3439 312.301 96.1232 312.069 95.7982C310.381 93.3706 308.695 90.9407 307.011 88.5086C306.797 88.197 306.877 87.9086 307.18 87.6989C307.532 87.4549 307.763 87.6723 308.053 88.035Z" fill="#ADC6FF"/>
<path d="M279.052 80.5261C279.346 80.789 279.47 81.0242 279.245 81.3225C279.02 81.6209 278.76 81.6808 278.443 81.459C276.786 80.2965 275.124 79.1408 273.466 77.9795C273.158 77.7621 273.089 77.4692 273.324 77.172C273.559 76.8747 273.836 76.8814 274.138 77.0988C275.539 78.0826 276.947 79.0598 278.351 80.0381L279.052 80.5261Z" fill="#ADC6FF"/>
<path d="M319.875 176.316C319.798 176.415 319.689 176.484 319.566 176.512C319.444 176.54 319.316 176.525 319.203 176.469C318.948 176.367 318.894 176.144 318.916 175.889C319.01 174.772 319.098 173.655 319.194 172.541C319.269 171.683 319.353 170.829 319.432 169.972C319.466 169.607 319.578 169.262 320.016 169.29C320.489 169.319 320.567 169.663 320.529 170.082C320.356 172.003 320.197 173.923 320.031 175.844C320.038 176.015 319.983 176.183 319.875 176.316Z" fill="#ADC6FF"/>
<path d="M274.166 137.758C272.192 138.667 270.242 139.572 268.276 140.449C268.043 140.553 267.765 140.452 267.665 140.124C267.552 139.755 267.683 139.529 268.023 139.373C269.039 138.911 270.056 138.449 271.062 137.975C271.863 137.605 272.66 137.228 273.463 136.859C273.751 136.726 274.025 136.741 274.215 137.035C274.379 137.294 274.305 137.528 274.166 137.758Z" fill="#ADC6FF"/>
<path d="M263.099 177.472C262.974 177.555 262.825 177.595 262.675 177.586C262.524 177.577 262.381 177.52 262.266 177.422C261.874 177.101 261.901 176.704 262.025 176.254C262.577 174.247 263.106 172.233 263.644 170.224L270.67 144.002C270.821 143.439 270.936 142.784 271.74 142.981C272.613 143.199 272.378 143.857 272.219 144.462C269.357 155.139 266.495 165.814 263.633 176.489C263.52 176.868 263.497 177.29 263.099 177.472Z" fill="#FFA940"/>
<path d="M238.252 270.305C238.482 270.703 238.281 271.075 238.181 271.447C235.697 280.734 233.21 290.021 230.721 299.307C230.34 300.727 229.96 302.148 229.58 303.569C229.433 304.133 229.203 304.641 228.495 304.445C227.786 304.249 227.873 303.688 228.023 303.136C230.911 292.358 233.796 281.581 236.68 270.804C236.799 270.359 236.954 269.986 237.455 269.891C237.615 269.856 237.782 269.879 237.928 269.955C238.073 270.03 238.188 270.154 238.252 270.305Z" fill="#FFA940"/>
<path d="M216.28 188.748C216.684 189.309 216.614 189.711 216.289 189.988C215.843 190.355 215.446 190.141 215.075 189.765C213.261 187.941 211.432 186.14 209.612 184.317C203.552 178.254 197.493 172.189 191.435 166.123C191.325 166.032 191.22 165.934 191.12 165.832C190.798 165.438 190.618 164.988 191.046 164.587C191.474 164.185 191.881 164.354 192.265 164.735C193.93 166.403 195.62 168.048 197.285 169.716C203.493 175.928 209.701 182.146 215.908 188.37C216.078 188.541 216.252 188.72 216.28 188.748Z" fill="#FFA940"/>
<path d="M296.967 210.367C298.586 209.931 300.37 209.419 302.164 208.938C311.174 206.532 320.184 204.13 329.193 201.731C329.366 201.686 329.534 201.624 329.707 201.586C330.227 201.47 330.766 201.416 330.904 202.095C331.027 202.704 330.638 202.996 330.079 203.142C327.902 203.714 325.729 204.299 323.555 204.882L298.189 211.676C297.884 211.779 297.573 211.861 297.257 211.921C296.837 211.971 296.447 211.855 296.32 211.393C296.192 210.931 296.365 210.622 296.967 210.367Z" fill="#FFA940"/>
<path d="M170.071 244.366C170.784 244.165 171.71 243.897 172.644 243.647L202.345 235.694C202.583 235.618 202.826 235.561 203.073 235.523C203.456 235.484 203.815 235.593 203.942 235.993C204.068 236.393 203.972 236.795 203.531 236.977C203.168 237.126 202.795 237.249 202.414 237.345C191.928 240.157 181.442 242.966 170.955 245.773C170.749 245.832 170.539 245.881 170.327 245.919C169.889 245.988 169.521 245.856 169.389 245.407C169.257 244.958 169.429 244.634 170.071 244.366Z" fill="#FFA940"/>
<path d="M176.309 203.328C176.372 203.472 176.398 203.63 176.385 203.787C176.373 203.944 176.322 204.096 176.236 204.229C176.148 204.366 176.016 204.469 175.861 204.522C175.707 204.575 175.539 204.573 175.385 204.518C174.442 204.296 173.508 204.041 172.573 203.789L158.646 200.049C158.578 200.031 158.507 200.02 158.438 200C157.841 199.829 157.138 199.667 157.392 198.83C157.614 198.089 158.248 198.242 158.828 198.402C160.212 198.784 161.599 199.151 162.986 199.521C167.04 200.607 171.094 201.693 175.148 202.78C175.558 202.889 176.006 202.932 176.309 203.328Z" fill="#FFA940"/>
<path d="M305.223 169.783C305.063 169.916 304.857 169.982 304.65 169.965C304.443 169.948 304.25 169.85 304.115 169.692C303.742 169.32 303.851 168.913 304.207 168.558L307.161 165.608L316.684 156.052C317.099 155.636 317.569 155.325 318.082 155.803C318.63 156.321 318.228 156.772 317.835 157.166C313.699 161.31 309.562 165.451 305.423 169.587L305.223 169.783Z" fill="#FFA940"/>
<path d="M226.315 131.688C226.653 132.972 227.065 134.562 227.492 136.146C228.592 140.243 229.711 144.347 230.807 148.45C230.952 148.985 231.226 149.663 230.465 149.923C229.764 150.163 229.469 149.679 229.3 149.032C227.95 143.924 226.586 138.817 225.207 133.712C225.04 133.091 224.865 132.472 224.727 131.845C224.627 131.404 224.772 131.03 225.231 130.919C225.645 130.829 226.024 130.942 226.315 131.688Z" fill="#FFA940"/>
<path d="M309.15 281.607C309.634 282.186 309.527 282.584 309.235 282.872C308.804 283.298 308.386 283.066 308.02 282.704C306.347 281.045 304.668 279.392 303.003 277.724C296.815 271.533 290.632 265.339 284.453 259.14C284.297 258.981 284.146 258.841 284.007 258.678C283.698 258.315 283.548 257.914 283.938 257.532C284.328 257.15 284.765 257.239 285.158 257.617C286.421 258.88 287.686 260.142 288.951 261.404C295.592 268.05 302.233 274.696 308.873 281.343C309.024 281.492 309.18 281.639 309.15 281.607Z" fill="#FFA940"/>
<path d="M279.702 205.702L294.061 197.412C294.302 197.255 294.557 197.118 294.821 197.003C294.999 196.941 295.193 196.944 295.369 197.011C295.546 197.077 295.693 197.204 295.786 197.368C295.878 197.532 295.911 197.723 295.876 197.909C295.842 198.094 295.744 198.261 295.599 198.382C295.368 198.554 295.123 198.706 294.865 198.836L265.776 215.63C265.293 215.909 264.762 216.189 264.372 215.552C263.96 214.878 264.433 214.52 264.973 214.209C269.603 211.536 274.233 208.862 278.863 206.189L279.702 205.702Z" fill="#85A5FF"/>
<path d="M222.006 240.905L207.649 249.194C207.378 249.368 207.091 249.516 206.791 249.635C206.62 249.701 206.431 249.699 206.263 249.628C206.094 249.558 205.959 249.425 205.886 249.258C205.783 249.107 205.741 248.924 205.767 248.743C205.794 248.563 205.887 248.399 206.028 248.284C206.285 248.087 206.559 247.915 206.847 247.769L235.474 231.241C235.661 231.133 235.848 231.025 236.035 230.918C236.49 230.667 236.937 230.608 237.258 231.108C237.617 231.67 237.331 232.062 236.839 232.346C235.565 233.081 234.29 233.818 233.016 234.553L222.006 240.905Z" fill="#85A5FF"/>
<path d="M251.582 239.54C251.59 239.688 251.616 239.969 251.616 240.25L251.628 273.729C251.627 273.907 251.616 274.087 251.621 274.264C251.636 274.798 251.43 275.228 250.868 275.241C250.257 275.262 250.004 274.893 250.013 274.273C250.036 272.484 250.027 270.696 250.028 268.907C250.03 259.395 250.032 249.882 250.035 240.367C250.028 240.114 250.034 239.861 250.053 239.609C250.086 239.256 250.261 238.991 250.634 238.942C251.007 238.894 251.35 239.022 251.582 239.54Z" fill="#85A5FF"/>
<path d="M251.346 207.588C250.733 207.972 250.075 207.545 250.046 206.812C250.009 205.381 250.025 203.95 250.024 202.521C250.021 192.651 250.019 182.78 250.018 172.91C250.019 172.695 250.02 172.482 250.027 172.264C250.031 171.741 250.324 171.438 250.812 171.43C251.373 171.422 251.627 171.754 251.62 172.333C251.603 173.693 251.622 175.054 251.622 176.412C251.616 186.392 251.611 196.372 251.606 206.352C251.606 206.818 251.651 207.285 251.346 207.588Z" fill="#85A5FF"/>
<path d="M237.307 214.757C237.499 215.089 237.385 215.379 237.211 215.666C237.139 215.793 237.02 215.887 236.879 215.928C236.738 215.969 236.587 215.953 236.458 215.884C236.192 215.782 235.936 215.657 235.692 215.51C226.092 209.969 216.494 204.428 206.899 198.885C206.774 198.815 206.655 198.734 206.525 198.67C205.975 198.397 205.45 198.063 205.886 197.368C206.321 196.673 206.869 197.034 207.382 197.328C210.692 199.236 214.006 201.146 217.326 203.059C223.703 206.746 230.08 210.436 236.456 214.13C236.764 214.308 237.103 214.439 237.307 214.757Z" fill="#85A5FF"/>
<path d="M264.606 230.815C265.146 230.588 265.521 230.907 265.918 231.136L280.139 239.346L295.113 247.98C295.482 248.187 295.928 248.321 295.902 248.876C295.869 249.625 295.206 249.861 294.397 249.397C289.377 246.502 284.358 243.606 279.339 240.709C274.66 238.008 269.982 235.307 265.304 232.606C265.014 232.464 264.744 232.286 264.499 232.075C264.024 231.632 264.203 231.195 264.606 230.815Z" fill="#85A5FF"/>
<path d="M215.15 161.5C217.699 165.916 220.248 170.331 222.797 174.746C222.95 174.99 223.088 175.243 223.21 175.504C223.292 175.667 223.31 175.855 223.26 176.031C223.211 176.207 223.097 176.358 222.942 176.455C222.863 176.517 222.773 176.563 222.677 176.59C222.58 176.617 222.479 176.625 222.38 176.613C222.281 176.601 222.184 176.569 222.097 176.52C222.01 176.471 221.933 176.405 221.871 176.326C221.674 176.071 221.501 175.797 221.357 175.508C216.277 166.71 211.197 157.911 206.117 149.112C206.063 149.019 206.009 148.926 205.955 148.832C205.613 148.283 205.288 147.676 206.03 147.262C206.716 146.884 207.047 147.47 207.35 147.995C209.684 152.037 212.017 156.078 214.35 160.119L215.15 161.5Z" fill="#85A5FF"/>
<path d="M285.107 285.913L277.521 272.774C277.342 272.506 277.191 272.22 277.071 271.921C277.033 271.828 277.014 271.729 277.015 271.628C277.016 271.528 277.037 271.429 277.076 271.337C277.116 271.244 277.173 271.161 277.245 271.091C277.317 271.021 277.402 270.966 277.495 270.929C277.656 270.845 277.843 270.822 278.02 270.867C278.197 270.911 278.351 271.019 278.453 271.17C278.637 271.436 278.805 271.712 278.956 271.998L294.238 298.466C294.39 298.711 294.524 298.967 294.637 299.232C294.711 299.399 294.719 299.588 294.66 299.761C294.6 299.934 294.478 300.078 294.316 300.164C294.236 300.222 294.144 300.264 294.047 300.286C293.95 300.308 293.849 300.31 293.751 300.293C293.653 300.275 293.56 300.238 293.477 300.184C293.393 300.129 293.322 300.059 293.266 299.976C293.098 299.742 292.945 299.497 292.809 299.244L285.114 285.916L285.107 285.913Z" fill="#85A5FF"/>
<path d="M278.361 176.359C277.94 176.639 277.631 176.673 277.356 176.418C277.182 176.288 277.067 176.093 277.036 175.878C277.004 175.662 277.06 175.443 277.191 175.269C277.834 174.195 278.431 173.103 279.061 172.017C283.618 164.126 288.179 156.238 292.746 148.354C293.059 147.814 293.231 146.731 294.226 147.295C295.187 147.838 294.448 148.541 294.117 149.116C289.057 157.914 283.989 166.705 278.914 175.489C278.731 175.826 278.5 176.144 278.361 176.359Z" fill="#85A5FF"/>
<path d="M195.443 223.308C195.827 223.943 195.443 224.499 194.535 224.51C192.173 224.539 189.816 224.532 187.45 224.533C179.508 224.534 171.566 224.527 163.624 224.512C162.953 224.511 161.89 224.865 161.918 223.666C161.944 222.526 162.992 222.939 163.602 222.943C173.799 222.918 183.996 222.915 194.193 222.934C194.641 222.929 195.152 222.784 195.443 223.308Z" fill="#85A5FF"/>
<path d="M222.065 270.994C222.195 270.895 222.356 270.846 222.52 270.855C222.683 270.865 222.838 270.932 222.956 271.045C223.326 271.384 223.34 271.762 223.082 272.203C222.102 273.867 221.146 275.544 220.178 277.216L207.47 299.248C207.361 299.435 207.252 299.622 207.148 299.807C206.91 300.258 206.529 300.413 206.076 300.189C205.55 299.925 205.517 299.468 205.775 299.001C206.275 298.092 206.799 297.197 207.318 296.297L221.445 271.857C221.62 271.547 221.742 271.198 222.065 270.994Z" fill="#85A5FF"/>
<path d="M338.29 223.323C338.66 223.929 338.243 224.509 337.38 224.516C335.234 224.535 333.089 224.525 330.942 224.524L306.152 224.517C305.866 224.535 305.58 224.524 305.297 224.485C304.888 224.402 304.728 224.066 304.715 223.685C304.703 223.52 304.753 223.357 304.857 223.229C304.961 223.101 305.109 223.017 305.273 222.994C305.589 222.944 305.91 222.921 306.23 222.927C316.5 222.924 326.768 222.924 337.035 222.927C337.494 222.936 337.987 222.833 338.29 223.323Z" fill="#85A5FF"/>
<path d="M264.272 246.581C266.693 250.774 269.114 254.967 271.534 259.16C271.729 259.463 271.899 259.781 272.042 260.112C272.115 260.279 272.123 260.468 272.064 260.641C272.004 260.814 271.882 260.958 271.721 261.044C271.568 261.144 271.385 261.185 271.204 261.162C271.024 261.138 270.857 261.051 270.735 260.916C270.546 260.697 270.387 260.454 270.261 260.194C265.294 251.59 260.326 242.986 255.358 234.381C255.197 234.141 255.068 233.88 254.975 233.606C254.92 233.432 254.929 233.244 255.001 233.077C255.073 232.909 255.203 232.773 255.368 232.695C255.524 232.602 255.709 232.57 255.887 232.604C256.066 232.639 256.225 232.739 256.334 232.884C256.527 233.142 256.697 233.416 256.842 233.704C259.323 238.001 261.8 242.294 264.272 246.581Z" fill="#2F54EB"/>
<path d="M237.491 200.192C239.916 204.391 242.34 208.59 244.764 212.789C244.958 213.093 245.133 213.407 245.289 213.732C245.366 213.897 245.381 214.085 245.329 214.261C245.278 214.436 245.164 214.586 245.008 214.683C244.848 214.803 244.647 214.857 244.447 214.833C244.248 214.809 244.065 214.709 243.938 214.554C243.761 214.326 243.609 214.08 243.486 213.819L228.671 188.159C228.564 187.973 228.445 187.792 228.348 187.599C228.122 187.126 228.111 186.688 228.636 186.402C229.11 186.145 229.463 186.36 229.734 186.764C229.896 187.002 230.021 187.261 230.165 187.511L237.491 200.192Z" fill="#2F54EB"/>
<path d="M245.268 233.026C245.487 233.445 245.244 233.817 245.029 234.187L236.115 249.607C234.038 253.199 231.963 256.794 229.889 260.392C229.579 260.934 229.303 261.43 228.583 261.016C227.864 260.603 228.215 260.106 228.485 259.639C233.559 250.841 238.638 242.047 243.721 233.254C244.141 232.528 244.878 232.419 245.268 233.026Z" fill="#2F54EB"/>
<path d="M207.534 222.957C207.766 222.95 208.05 222.932 208.332 222.934C218.377 222.929 228.421 222.928 238.466 222.93C239.034 222.931 239.71 222.825 239.72 223.701C239.726 224.519 239.143 224.517 238.52 224.518C228.511 224.513 218.502 224.516 208.494 224.524C208.208 224.539 207.922 224.522 207.64 224.474C207.477 224.459 207.326 224.382 207.219 224.258C207.112 224.134 207.057 223.974 207.065 223.81C207.054 223.638 207.092 223.466 207.175 223.315C207.258 223.164 207.383 223.04 207.534 222.957Z" fill="#2F54EB"/>
<path d="M256.237 214.697C256.074 214.791 255.886 214.833 255.699 214.817C255.511 214.801 255.333 214.727 255.189 214.607C254.809 214.303 254.88 213.926 255.096 213.55L257.236 209.824L270.108 187.531C270.215 187.345 270.327 187.156 270.431 186.973C270.704 186.45 271.034 186.042 271.691 186.416C272.397 186.815 272.041 187.337 271.793 187.796C271.309 188.683 270.805 189.537 270.306 190.398L256.727 213.898C256.576 214.187 256.394 214.452 256.237 214.697Z" fill="#2F54EB"/>
<path d="M293.154 223.286C293.489 223.922 293.021 224.513 292.194 224.517C289.511 224.528 286.827 224.531 284.144 224.528L262.14 224.515C261.927 224.517 261.707 224.516 261.496 224.516C260.989 224.502 260.545 224.393 260.556 223.751C260.567 223.11 260.943 222.908 261.541 222.913C263.76 222.93 265.978 222.927 268.194 222.928L291.8 222.915C292.297 222.922 292.82 222.824 293.154 223.286Z" fill="#2F54EB"/>
<path d="M297.2 235.768C297.281 235.89 297.322 236.035 297.317 236.181C297.312 236.327 297.262 236.469 297.173 236.585C296.914 236.947 296.528 237.013 296.111 236.902C294.826 236.563 293.543 236.221 292.261 235.875C285.743 234.126 279.226 232.378 272.708 230.632C272.466 230.565 272.222 230.504 271.98 230.432C271.441 230.27 271.068 229.99 271.262 229.352C271.432 228.756 271.867 228.721 272.37 228.847C272.545 228.89 272.719 228.937 272.893 228.984C280.624 231.055 288.356 233.129 296.089 235.204C296.508 235.299 296.963 235.324 297.2 235.768Z" fill="#FA8C16"/>
<path d="M229.017 217.517C229.069 217.642 229.09 217.777 229.078 217.911C229.066 218.046 229.021 218.175 228.946 218.288C228.683 218.664 228.302 218.717 227.887 218.61C226.606 218.274 225.324 217.935 224.042 217.593L204.302 212.303L203.989 212.219C203.4 212.062 202.816 211.818 203.039 211.074C203.239 210.411 203.818 210.465 204.383 210.623C205.49 210.932 206.6 211.22 207.708 211.517C214.432 213.319 221.155 215.12 227.879 216.922C228.281 217.018 228.729 217.066 229.017 217.517Z" fill="#FA8C16"/>
<path d="M238.494 177.198C238.937 178.827 239.432 180.616 239.914 182.41C241.564 188.554 243.211 194.696 244.855 200.837C244.902 201.009 244.912 201.195 244.974 201.358C245.204 201.972 245.081 202.474 244.421 202.626C243.762 202.778 243.579 202.303 243.429 201.77C242.252 197.351 241.067 192.933 239.873 188.516C238.956 185.1 238.037 181.685 237.118 178.269C237.047 178.029 236.989 177.785 236.945 177.539C236.876 177.104 237.013 176.741 237.455 176.592C237.897 176.444 238.225 176.623 238.494 177.198Z" fill="#FA8C16"/>
<path d="M266.66 208.314C266.26 208.57 265.896 208.616 265.585 208.237C265.224 207.798 265.311 207.426 265.719 207.024C267.649 205.113 269.551 203.175 271.473 201.254C275.337 197.386 279.204 193.523 283.075 189.664C283.201 189.539 283.344 189.427 283.466 189.299C283.857 188.901 284.294 188.821 284.686 189.232C285.078 189.644 284.907 190.081 284.537 190.454C283.025 191.972 281.518 193.499 280.002 195.015C275.754 199.255 271.503 203.494 267.249 207.729L266.66 208.314Z" fill="#FA8C16"/>
<path d="M261.778 270.189C261.586 269.483 261.331 268.552 261.08 267.621C259.171 260.476 257.262 253.331 255.352 246.187C255.199 245.615 255.061 245.097 255.76 244.863C256.575 244.592 256.747 245.247 256.894 245.795C259.019 253.73 261.139 261.668 263.254 269.611C263.398 270.145 263.457 270.639 262.832 270.851C262.436 271.002 262.054 270.849 261.778 270.189Z" fill="#FA8C16"/>
<path d="M216.812 258.163C216.294 258.56 215.906 258.547 215.599 258.219C215.21 257.791 215.37 257.39 215.75 257.006C217.445 255.317 219.12 253.606 220.81 251.913C224.896 247.815 228.987 243.722 233.083 239.632C233.288 239.384 233.533 239.173 233.807 239.005C233.968 238.919 234.157 238.9 234.332 238.95C234.508 239.001 234.657 239.118 234.748 239.276C235.078 239.77 234.867 240.133 234.498 240.499C232.977 242.011 231.476 243.538 229.957 245.053C225.688 249.319 221.416 253.583 217.139 257.845C216.999 257.991 216.843 258.135 216.812 258.163Z" fill="#FA8C16"/>
<path d="M311.246 187.492C312.955 186.505 314.669 185.527 316.373 184.531C316.933 184.208 317.49 184.024 317.845 184.678C318.178 185.29 317.712 185.651 317.208 185.942C313.694 187.961 310.184 189.988 306.676 192.022C306.165 192.318 305.629 192.508 305.277 191.899C304.926 191.29 305.309 190.909 305.838 190.609C307.637 189.585 309.436 188.537 311.246 187.492Z" fill="#D6E4FF"/>
<path d="M189.7 257.665C191.437 256.662 193.174 255.659 194.911 254.656C195.458 254.341 196.023 254.141 196.392 254.798C196.748 255.414 196.26 255.768 195.763 256.055C192.258 258.079 188.752 260.103 185.245 262.127C184.746 262.415 184.235 262.646 183.859 262.004C183.451 261.298 183.959 260.975 184.484 260.671C186.228 259.675 187.964 258.667 189.7 257.665Z" fill="#D6E4FF"/>
<path d="M184.095 184.353C184.468 184.138 184.808 184.295 185.109 184.475C188.735 186.557 192.357 188.648 195.975 190.746C196.435 191.013 196.653 191.369 196.371 191.898C196.067 192.464 195.628 192.376 195.185 192.122C191.498 189.998 187.816 187.869 184.138 185.735C184.009 185.674 183.9 185.578 183.822 185.458C183.744 185.339 183.701 185.2 183.696 185.057C183.692 184.915 183.727 184.774 183.797 184.649C183.867 184.525 183.97 184.423 184.095 184.353Z" fill="#D6E4FF"/>
<path d="M251.258 160.374C250.591 160.698 250.039 160.239 250.033 159.356C250.013 156.967 250.016 154.582 250.023 152.187C250.024 150.51 250.033 148.831 250.029 147.155C250.026 146.533 250.109 145.93 250.899 145.965C251.64 145.998 251.621 146.612 251.622 147.166C251.622 151.163 251.623 155.161 251.625 159.159C251.622 159.619 251.677 160.108 251.258 160.374Z" fill="#D6E4FF"/>
<path d="M317.782 261.127C318.007 261.518 317.981 261.819 317.747 262.094C317.407 262.489 317.026 262.475 316.597 262.225C315.15 261.38 313.698 260.54 312.243 259.705C310.171 258.512 308.099 257.322 306.025 256.135C305.934 256.08 305.845 256.022 305.754 255.967C305.274 255.687 304.945 255.329 305.279 254.747C305.613 254.166 306.119 254.335 306.575 254.597C308.988 255.983 311.394 257.381 313.804 258.772C314.947 259.432 316.09 260.092 317.231 260.753C317.447 260.88 317.647 261.041 317.782 261.127Z" fill="#D6E4FF"/>
<path d="M256.373 203.006C255.936 203.211 255.65 203.194 255.409 203.002C255.018 202.687 255.042 202.283 255.166 201.83C255.716 199.824 256.245 197.81 256.782 195.799C257.199 194.238 257.625 192.682 258.033 191.119C258.191 190.53 258.403 189.944 259.156 190.149C259.845 190.337 259.77 190.911 259.618 191.475C258.644 195.077 257.676 198.681 256.713 202.287C256.629 202.599 256.558 202.917 256.373 203.006Z" fill="#FA8C16"/>
<path d="M245.194 244.817C245.296 244.967 245.196 245.278 245.114 245.593C244.149 249.193 243.185 252.794 242.221 256.396C242.07 256.963 241.853 257.485 241.15 257.293C240.446 257.101 240.502 256.559 240.656 255.981C241.631 252.383 242.595 248.782 243.55 245.178C243.672 244.721 243.867 244.37 244.36 244.299C244.665 244.255 244.916 244.399 245.194 244.817Z" fill="#FA8C16"/>
<path d="M228.968 230.222L225.007 231.281C222.599 231.926 220.191 232.569 217.781 233.212C217.244 233.357 216.742 233.363 216.567 232.727C216.391 232.091 216.74 231.84 217.323 231.686C221 230.721 224.684 229.717 228.362 228.729C228.85 228.599 229.312 228.601 229.515 229.164C229.693 229.649 229.516 230.011 228.968 230.222Z" fill="#FA8C16"/>
<path d="M283.386 215.59C283.121 215.691 282.958 215.773 282.788 215.819C279.21 216.774 275.631 217.726 272.052 218.675C271.523 218.816 270.933 218.95 270.744 218.23C270.555 217.51 271.066 217.282 271.628 217.134C275.242 216.173 278.857 215.222 282.469 214.247C283.012 214.101 283.476 214.064 283.71 214.671C283.751 214.753 283.775 214.841 283.781 214.932C283.787 215.023 283.774 215.114 283.744 215.2C283.714 215.286 283.666 215.365 283.605 215.432C283.543 215.499 283.469 215.553 283.386 215.59Z" fill="#FA8C16"/>
<path d="M265.047 239.659C264.85 239.421 264.961 239.021 265.267 238.745C265.699 238.359 266.104 238.568 266.476 238.941C268.366 240.839 270.263 242.709 272.155 244.593C272.986 245.424 273.807 246.267 274.635 247.099C275.012 247.479 275.153 247.896 274.739 248.314C274.326 248.732 273.9 248.587 273.522 248.22C270.793 245.507 268.07 242.789 265.352 240.066C265.275 239.993 265.222 239.897 265.047 239.659Z" fill="#FA8C16"/>
<path d="M235.038 207.492C235.443 208.055 235.344 208.418 235.001 208.696C234.599 209.021 234.221 208.897 233.873 208.548C232.465 207.137 231.045 205.735 229.631 204.33C228.365 203.068 227.101 201.823 225.845 200.563C225.436 200.152 224.974 199.692 225.581 199.13C226.11 198.64 226.522 198.987 226.945 199.41C229.583 202.059 232.236 204.691 234.894 207.324C234.95 207.372 234.999 207.429 235.038 207.492Z" fill="#FA8C16"/>
<path d="M304.219 237.581C304.496 237.488 304.796 237.49 305.071 237.586C306.379 237.942 307.688 238.294 308.998 238.642C309.582 238.79 310.023 239.046 309.812 239.753C309.616 240.402 309.112 240.362 308.591 240.227C307.213 239.859 305.831 239.501 304.459 239.11C304.122 239.014 303.786 238.849 303.811 238.379C303.806 238.222 303.84 238.067 303.912 237.927C303.983 237.788 304.089 237.668 304.219 237.581Z" fill="#FA8C16"/>
<path d="M196.386 208.675C196.672 209.257 196.199 210.029 195.625 209.902C194.024 209.531 192.441 209.076 190.858 208.62C190.448 208.502 190.379 208.149 190.475 207.742C190.572 207.335 190.834 207.069 191.237 207.15C192.883 207.485 194.505 207.927 196.093 208.474C196.202 208.523 196.301 208.592 196.386 208.675Z" fill="#FA8C16"/>
<path d="M207.516 267.491C207.373 267.611 207.189 267.674 207.003 267.664C206.816 267.655 206.639 267.576 206.509 267.442C206.198 267.153 206.043 266.76 206.389 266.403C207.504 265.251 208.633 264.113 209.776 262.99C210.114 262.661 210.536 262.749 210.844 263.041C210.923 263.103 210.988 263.181 211.033 263.27C211.078 263.359 211.103 263.458 211.106 263.558C211.108 263.658 211.088 263.757 211.048 263.849C211.007 263.941 210.946 264.022 210.87 264.087C209.75 265.232 208.621 266.372 207.516 267.491Z" fill="#FA8C16"/>
<path d="M234.756 169.39C234.387 167.989 234 166.506 233.609 165.026C233.469 164.499 233.713 164.172 234.186 164.055C234.659 163.939 235.025 164.149 235.156 164.653C235.536 166.1 235.907 167.55 236.288 168.998C236.417 169.484 236.314 169.885 235.806 170.024C235.341 170.133 234.953 169.968 234.756 169.39Z" fill="#FA8C16"/>
<path d="M290.511 184.5C290.349 184.622 290.146 184.677 289.945 184.654C289.744 184.631 289.559 184.532 289.429 184.378C289.166 184.096 289.074 183.728 289.371 183.415C290.493 182.269 291.614 181.123 292.758 179.998C292.827 179.925 292.911 179.868 293.004 179.83C293.097 179.792 293.197 179.775 293.298 179.778C293.398 179.782 293.497 179.807 293.587 179.851C293.677 179.896 293.757 179.959 293.821 180.036C294.119 180.342 294.22 180.727 293.868 181.088C292.763 182.224 291.626 183.37 290.511 184.5Z" fill="#FA8C16"/>
</svg>
