<svg width="640" height="720" viewBox="0 0 640 720" fill="none" xmlns="http://www.w3.org/2000/svg">
<path d="M196.968 674.375C196.763 674.387 196.56 674.333 196.389 674.22C196.217 674.107 196.087 673.941 196.018 673.748C195.774 673.101 196.077 672.651 196.53 672.204C198.55 670.21 200.547 668.193 202.553 666.187L228.73 640.01C229.291 639.448 229.874 638.754 230.688 639.534C231.571 640.387 230.844 641.004 230.244 641.61C219.586 652.267 208.927 662.923 198.268 673.578C197.877 673.948 197.562 674.431 196.968 674.375Z" fill="#597EF7"/>
<path d="M133.989 655.769C134.083 656.708 133.727 657.134 133.153 657.24C132.377 657.369 132.053 656.846 131.871 656.149C130.974 652.758 130.042 649.384 129.136 645.99C126.112 634.698 123.092 623.405 120.074 612.111C120.006 611.928 119.948 611.741 119.9 611.552C119.789 610.867 119.883 610.214 120.662 610.031C121.442 609.849 121.806 610.325 122 611.037C122.83 614.143 123.703 617.237 124.533 620.343C127.629 631.912 130.72 643.487 133.806 655.069C133.891 655.387 133.974 655.717 133.989 655.769Z" fill="#597EF7"/>
<path d="M41.4974 689.942C42.4768 690.192 43.7533 690.507 45.0268 690.848L85.5239 701.707C85.8567 701.779 86.1832 701.877 86.5003 702.001C86.9797 702.216 87.3297 702.589 87.2062 703.148C87.0827 703.707 86.6945 704.116 86.0503 704.031C85.5199 703.958 84.9951 703.849 84.4797 703.704C70.1797 699.875 55.8807 696.042 41.5827 692.207C41.298 692.137 41.0172 692.051 40.7415 691.951C40.1768 691.734 39.8327 691.328 39.9827 690.707C40.1327 690.087 40.5562 689.822 41.4974 689.942Z" fill="#597EF7"/>
<path d="M76.8443 645.733C76.82 645.947 76.7433 646.151 76.6213 646.328C76.4992 646.505 76.3354 646.649 76.1443 646.748C75.9464 646.85 75.7197 646.882 75.5013 646.839C75.2828 646.795 75.0855 646.679 74.9414 646.51C73.9796 645.604 73.0502 644.666 72.1178 643.73L58.2208 629.819C58.1531 629.751 58.0767 629.689 58.009 629.618C57.4208 629.01 56.7002 628.339 57.5708 627.524C58.3384 626.801 58.9825 627.413 59.559 627.998C60.9325 629.392 62.3208 630.771 63.7061 632.154C67.7531 636.201 71.8002 640.248 75.8473 644.295C76.2561 644.704 76.7561 645.06 76.8443 645.733Z" fill="#597EF7"/>
<path d="M251.956 694.014C251.677 694.063 251.389 694 251.156 693.839C250.922 693.677 250.762 693.431 250.709 693.152C250.524 692.458 250.93 692.052 251.591 691.876L257.091 690.405L274.853 685.614C275.627 685.405 276.394 685.358 276.674 686.273C276.968 687.258 276.186 687.517 275.453 687.714C267.743 689.788 260.035 691.857 252.327 693.92L251.956 694.014Z" fill="#597EF7"/>
<path d="M184.744 595.225C184.268 596.972 183.671 599.131 183.094 601.293C181.6 606.881 180.124 612.49 178.621 618.084C178.427 618.814 178.288 619.802 177.212 619.59C176.221 619.396 176.203 618.622 176.444 617.743C178.333 610.79 180.203 603.829 182.056 596.861C182.283 596.014 182.497 595.164 182.762 594.328C182.944 593.74 183.371 593.396 183.988 593.578C184.538 593.755 184.909 594.146 184.744 595.225Z" fill="#597EF7"/>
<path d="M197.327 719.036H219.936C220.328 719.014 220.722 719.026 221.112 719.071C221.365 719.119 221.592 719.254 221.755 719.453C221.918 719.652 222.006 719.902 222.003 720.159C222.001 720.416 221.908 720.664 221.741 720.86C221.575 721.055 221.345 721.186 221.092 721.23C220.701 721.276 220.307 721.287 219.915 721.265H174.112C173.35 721.265 172.533 721.233 172.506 720.215C172.48 719.138 173.283 719.038 174.133 719.038C181.423 719.038 188.713 719.038 196.003 719.038L197.327 719.036Z" fill="#FFC069"/>
<path d="M105.188 721.27H82.5825C82.1432 721.291 81.7029 721.27 81.2678 721.205C81.0216 721.167 80.7996 721.035 80.6483 720.838C80.497 720.64 80.4281 720.391 80.4561 720.143C80.4375 719.895 80.5127 719.65 80.6669 719.455C80.8211 719.259 81.0429 719.13 81.2884 719.09C81.7251 719.032 82.1662 719.016 82.6061 719.04H127.683C127.977 719.04 128.271 719.04 128.565 719.04C129.274 719.055 129.841 719.29 129.88 720.099C129.921 721.008 129.315 721.276 128.541 721.276C126.535 721.276 124.527 721.276 122.521 721.276L105.188 721.27Z" fill="#FFC069"/>
<path d="M162.553 701.928C161.568 701.963 161.083 701.01 161.547 700.125C162.48 698.41 163.474 696.731 164.447 695.042C171.173 683.384 177.9 671.726 184.63 660.069C184.777 659.816 184.924 659.566 185.08 659.313C185.441 658.698 185.994 658.539 186.577 658.863C187.244 659.237 187.318 659.801 186.915 660.481C185.968 662.075 185.062 663.695 184.136 665.298C177.324 677.081 170.513 688.863 163.703 700.645C163.386 701.195 163.121 701.778 162.553 701.928Z" fill="#FFC069"/>
<path d="M141.085 700.823C141.085 701.346 140.753 701.611 140.353 701.832C140.181 701.932 139.976 701.962 139.782 701.914C139.588 701.866 139.421 701.745 139.315 701.576C139.071 701.273 138.853 700.951 138.665 700.611C131.106 687.523 123.55 674.435 115.997 661.346C115.897 661.179 115.812 661.002 115.703 660.837C115.238 660.14 114.847 659.387 115.835 658.864C116.824 658.34 117.224 659.14 117.63 659.837C120.237 664.347 122.849 668.863 125.465 673.385C130.483 682.086 135.497 690.792 140.509 699.502C140.75 699.923 141.062 700.308 141.085 700.823Z" fill="#FFC069"/>
<path d="M151.232 622.82C151.232 629.773 151.232 636.725 151.232 643.676C151.246 644.068 151.236 644.461 151.203 644.852C151.188 645.101 151.081 645.335 150.903 645.51C150.725 645.684 150.487 645.785 150.238 645.793C150.103 645.813 149.965 645.805 149.833 645.772C149.701 645.738 149.576 645.678 149.467 645.596C149.358 645.514 149.266 645.412 149.196 645.294C149.127 645.176 149.081 645.046 149.062 644.911C149.002 644.474 148.986 644.033 149.012 643.593C149.012 629.74 149.012 615.886 149.012 602.031C149.012 601.884 149.012 601.737 149.012 601.59C148.982 600.708 149.012 599.77 150.171 599.787C151.238 599.808 151.229 600.726 151.229 601.552C151.229 607.917 151.229 614.281 151.229 620.643L151.232 622.82Z" fill="#FFC069"/>
<path d="M215.75 683.464C215.062 683.508 214.674 683.337 214.524 682.849C214.407 682.576 214.403 682.268 214.514 681.992C214.624 681.716 214.839 681.495 215.112 681.378C216.603 680.549 218.053 679.667 219.539 678.814C230.299 672.602 241.064 666.397 251.833 660.199C252.571 659.775 253.512 658.614 254.303 659.958C255.068 661.255 253.715 661.581 252.933 662.034C240.958 668.973 228.98 675.9 216.997 682.814C216.55 683.087 216.062 683.305 215.75 683.464Z" fill="#FFC069"/>
<path d="M85.8178 682.375C85.8384 683.387 85.006 683.781 83.9266 683.175C81.1178 681.599 78.3384 679.984 75.5443 678.372C66.1639 672.959 56.7894 667.535 47.4207 662.102C46.6296 661.643 45.1325 661.337 45.9825 659.94C46.7913 658.611 47.7472 659.814 48.4649 660.234C60.5237 667.158 72.5678 674.107 84.5972 681.081C85.1296 681.381 85.8325 681.558 85.8178 682.375Z" fill="#FFC069"/>
<path d="M151.236 683.746C151.236 690.358 151.236 696.97 151.236 703.581C151.257 704.072 151.25 704.563 151.212 705.052C151.191 705.3 151.08 705.532 150.9 705.704C150.719 705.876 150.482 705.976 150.233 705.984C149.961 706.017 149.687 705.943 149.468 705.779C149.249 705.614 149.101 705.372 149.056 705.102C149.002 704.712 148.991 704.318 149.024 703.925V663.522C149.024 663.228 149.006 662.934 149.024 662.64C149.08 661.928 149.365 661.402 150.18 661.422C150.915 661.443 151.186 661.937 151.23 662.599C151.259 662.99 151.23 663.381 151.23 663.775L151.236 683.746Z" fill="#FA8C16"/>
<path d="M100.335 690.205C100.615 690.355 100.962 690.529 101.294 690.723C113.159 697.566 125.022 704.413 136.882 711.264C137.553 711.652 138.424 711.988 137.838 713.029C137.288 713.999 136.6 713.599 135.865 713.176C124.047 706.347 112.226 699.525 100.4 692.711C100.053 692.534 99.7265 692.319 99.4266 692.07C99.2443 691.941 99.1188 691.747 99.0766 691.527C99.0344 691.308 99.0787 691.081 99.2002 690.894C99.3045 690.683 99.4667 690.506 99.6678 690.384C99.8688 690.263 100.1 690.2 100.335 690.205Z" fill="#FA8C16"/>
<path d="M163.483 713.658C163.226 713.659 162.976 713.58 162.765 713.433C162.555 713.286 162.395 713.079 162.306 712.838C162.065 712.22 162.406 711.823 162.918 711.526L167.986 708.585L198.386 691.035C198.638 690.888 198.9 690.741 199.147 690.597C199.827 690.164 200.494 689.908 201.015 690.797C201.577 691.75 200.8 692.123 200.194 692.497C199.018 693.214 197.841 693.879 196.665 694.555L164.606 713.05C164.23 713.288 163.836 713.476 163.483 713.658Z" fill="#FA8C16"/>
<path d="M129.415 698.429C129.392 698.612 129.324 698.786 129.218 698.936C129.112 699.087 128.97 699.208 128.806 699.291C128.238 699.556 127.753 699.359 127.335 698.95C126.051 697.679 124.769 696.405 123.488 695.126L103.783 675.42L103.471 675.109C102.883 674.52 102.359 673.835 103.13 673.109C103.818 672.462 104.465 672.92 105.024 673.491C106.121 674.612 107.235 675.709 108.341 676.815C115.053 683.526 121.765 690.238 128.477 696.95C128.885 697.338 129.383 697.7 129.415 698.429Z" fill="#2F54EB"/>
<path d="M168.097 657.276C167.509 659.503 166.874 661.953 166.221 664.4C163.98 672.78 161.737 681.157 159.492 689.529C159.43 689.765 159.315 689.991 159.277 690.226C159.13 691.109 158.642 691.617 157.759 691.347C156.877 691.076 156.986 690.391 157.171 689.659C158.794 683.639 160.407 677.614 162.009 671.582C163.254 666.923 164.498 662.264 165.742 657.603C165.821 657.271 165.919 656.944 166.036 656.623C166.25 656.062 166.659 655.726 167.283 655.853C167.906 655.979 168.171 656.415 168.097 657.276Z" fill="#2F54EB"/>
<path d="M180.144 713.225C179.497 713.255 179.035 713.061 178.927 712.402C178.8 711.637 179.156 711.258 179.912 711.061C183.494 710.119 187.062 709.128 190.641 708.169C197.841 706.236 205.042 704.311 212.244 702.393C212.48 702.331 212.724 702.296 212.956 702.228C213.688 702.025 214.259 702.228 214.441 702.981C214.624 703.734 214.124 704.134 213.433 704.322C210.612 705.084 207.791 705.861 204.968 706.617C197.06 708.728 189.15 710.835 181.238 712.937L180.144 713.225Z" fill="#2F54EB"/>
<path d="M246.994 719.035C249.686 719.035 252.377 719.05 255.068 719.035C255.95 719.035 256.733 719.197 256.706 720.212C256.683 721.162 255.886 721.271 255.091 721.271C249.566 721.259 244.038 721.259 238.509 721.271C237.703 721.271 236.941 721.129 236.941 720.171C236.941 719.212 237.653 719.024 238.483 719.029C241.306 719.047 244.144 719.035 246.994 719.035Z" fill="#FFE7BA"/>
<path d="M55.6091 719.035C58.3444 719.035 61.0797 719.035 63.8149 719.035C64.6767 719.035 65.4797 719.185 65.4679 720.212C65.4679 721.182 64.6502 721.268 63.8679 721.268C58.3483 721.268 52.8277 721.268 47.3061 721.268C46.5208 721.268 45.7591 721.191 45.7532 720.176C45.7532 719.065 46.5738 719.029 47.4002 719.029C50.1385 719.041 52.8767 719.035 55.6091 719.035Z" fill="#FFE7BA"/>
<path d="M98.9767 628.635C99.5649 628.635 99.8591 629.053 100.091 629.47C102.954 634.402 105.806 639.34 108.647 644.285C109.009 644.914 109.024 645.482 108.33 645.914C107.586 646.376 107.127 645.973 106.777 645.37C103.871 640.349 100.974 635.324 98.0855 630.297C97.9755 630.136 97.9118 629.948 97.9012 629.754C97.8907 629.56 97.9338 629.366 98.0257 629.195C98.1177 629.023 98.2551 628.88 98.4228 628.782C98.5905 628.683 98.7821 628.632 98.9767 628.635Z" fill="#FFE7BA"/>
<path d="M194.642 646.111C193.633 646.037 193.295 645.119 193.889 644.072C195.495 641.237 197.124 638.422 198.765 635.599C199.909 633.619 201.065 631.643 202.203 629.661C202.624 628.925 203.133 628.269 204.042 628.849C204.895 629.393 204.453 630.105 204.077 630.761C201.351 635.48 198.627 640.202 195.903 644.925C195.586 645.467 195.318 646.081 194.642 646.111Z" fill="#FFE7BA"/>
<path d="M171.615 699.943C170.959 699.887 170.632 699.673 170.48 699.282C170.232 698.643 170.535 698.182 170.991 697.732C173.009 695.737 175.006 693.72 177.012 691.711C178.568 690.152 180.132 688.605 181.68 687.037C182.268 686.449 182.918 685.902 183.668 686.658C184.353 687.349 183.874 687.976 183.309 688.537C179.703 692.128 176.102 695.724 172.506 699.326C172.194 699.637 171.894 699.964 171.615 699.943Z" fill="#2F54EB"/>
<path d="M120.694 713.399L115.294 711.949C112.012 711.068 108.729 710.186 105.444 709.302C104.712 709.107 104.115 708.772 104.341 707.902C104.568 707.031 105.15 706.972 105.944 707.187C110.944 708.555 115.98 709.881 120.997 711.222C121.662 711.402 122.206 711.719 122.062 712.522C121.941 713.216 121.486 713.522 120.694 713.399Z" fill="#2F54EB"/>
<path d="M143.362 690.692C143.456 691.633 143.091 691.995 142.497 692.089C141.8 692.198 141.439 691.795 141.265 691.145C140.565 688.519 139.844 685.895 139.133 683.272C138.497 680.919 137.853 678.586 137.23 676.242C137.027 675.478 136.794 674.619 137.894 674.369C138.853 674.151 139.103 674.842 139.315 675.631C140.624 680.557 141.962 685.475 143.306 690.395C143.34 690.491 143.359 690.591 143.362 690.692Z" fill="#2F54EB"/>
<path d="M96.9091 665.737C96.8502 666.619 95.7649 667.208 95.1738 666.667C93.5355 665.137 91.9767 663.519 90.4179 661.902C90.015 661.484 90.1738 661.02 90.565 660.605C90.9561 660.19 91.4473 660.055 91.8679 660.425C93.583 661.943 95.1972 663.571 96.7002 665.299C96.7947 665.432 96.8653 665.58 96.9091 665.737Z" fill="#2F54EB"/>
<path d="M169.006 645.505C169.527 643.599 170.08 641.584 170.627 639.569C170.821 638.852 171.333 638.631 171.971 638.816C172.609 639.002 172.897 639.499 172.709 640.184C172.171 642.152 171.621 644.116 171.083 646.087C170.903 646.749 170.509 647.152 169.815 646.969C169.191 646.781 168.844 646.322 169.006 645.505Z" fill="#2F54EB"/>
<path d="M224.547 701.363C224.273 701.396 223.997 701.323 223.775 701.159C223.553 700.995 223.402 700.753 223.353 700.481C223.235 699.969 223.377 699.472 223.941 699.304C226.047 698.716 228.153 698.128 230.271 697.578C230.402 697.54 230.54 697.529 230.676 697.548C230.812 697.567 230.942 697.614 231.058 697.687C231.175 697.76 231.274 697.857 231.35 697.971C231.426 698.085 231.477 698.213 231.5 698.349C231.644 698.913 231.5 699.437 230.838 699.622C228.759 700.21 226.635 700.79 224.547 701.363Z" fill="#2F54EB"/>
<path d="M646.776 444.54C647.186 444.91 647.089 445.385 647.047 445.853L644.873 470.299C644.019 479.899 643.162 489.497 642.299 499.094C642.266 499.504 642.197 499.924 642.173 500.338C642.117 501.17 641.867 501.807 640.864 501.647C639.941 501.519 639.888 500.849 639.963 500.125C640.185 497.685 640.407 495.245 640.629 492.805L644.074 454.194C644.327 451.279 644.586 448.373 644.851 445.476C644.897 444.95 644.964 444.382 645.614 444.269C646.013 444.198 646.461 444.145 646.776 444.54Z" fill="#ADC6FF"/>
<path d="M659.978 298.156C660.175 298.506 660.238 298.916 660.156 299.309C659.243 309.341 658.341 319.366 657.449 329.386C656.755 337.179 656.085 344.975 655.362 352.77C655.277 353.688 655.75 355.217 654.155 355.184C652.449 355.15 653.101 353.686 653.19 352.763C654.012 343.15 654.863 333.54 655.743 323.931C656.44 316.085 657.136 308.241 657.833 300.399C657.861 299.773 657.944 299.151 658.081 298.54C658.145 298.355 658.256 298.19 658.403 298.061C658.55 297.933 658.729 297.845 658.92 297.806C659.112 297.767 659.31 297.779 659.496 297.84C659.681 297.902 659.847 298.011 659.978 298.156Z" fill="#ADC6FF"/>
<path d="M557.394 443.008C556.717 442.003 557.391 441.488 558.279 441.076C561.289 439.676 564.308 438.285 567.321 436.888C580.553 430.754 593.789 424.617 607.03 418.475C607.218 418.389 607.418 418.322 607.602 418.231C608.347 417.863 609.137 417.548 609.583 418.557C610.029 419.566 609.222 419.926 608.489 420.267C592.06 427.894 575.629 435.521 559.197 443.148C558.605 443.412 558.015 443.682 557.394 443.008Z" fill="#ADC6FF"/>
<path d="M566.458 342.294C566.025 341.946 565.959 341.32 566.404 340.776C566.961 340.1 567.649 340.419 568.221 340.819C570.395 342.336 572.545 343.891 574.714 345.417C582.877 351.157 591.045 356.9 599.221 362.647C603.82 365.874 608.425 369.09 613.035 372.295C613.702 372.759 613.969 373.362 613.572 374.025C613.137 374.749 612.482 374.635 611.826 374.174C607.484 371.124 603.127 368.098 598.775 365.041C590.003 358.887 581.236 352.728 572.474 346.562C570.528 345.198 568.574 343.793 566.458 342.294Z" fill="#ADC6FF"/>
<path d="M519.936 411.226C519.798 411.052 519.706 410.846 519.67 410.626C519.634 410.407 519.655 410.182 519.73 409.973C519.943 409.409 520.422 409.281 520.979 409.23C524.513 408.952 528.044 408.651 531.578 408.36C542.899 407.424 554.224 406.488 565.553 405.554C568.618 405.301 571.683 405.055 574.748 404.815C575.602 404.746 576.385 404.828 576.389 405.933C576.392 406.965 575.597 406.973 574.837 407.042C557.115 408.496 539.399 409.958 521.691 411.428C521.083 411.472 520.444 411.597 519.936 411.226Z" fill="#ADC6FF"/>
<path d="M595.536 517.621C595.002 518.267 594.427 518.286 593.915 517.943C593.318 517.55 593.435 516.953 593.693 516.39C594.586 514.458 595.489 512.531 596.401 510.606C603.124 496.388 609.851 482.17 616.58 467.952C616.71 467.727 616.825 467.493 616.923 467.253C617.205 466.403 617.815 466.255 618.532 466.581C619.248 466.907 619.206 467.543 618.911 468.176C617.7 470.759 616.486 473.342 615.271 475.924C608.883 489.446 602.496 502.965 596.108 516.481C595.907 516.913 595.685 517.326 595.536 517.621Z" fill="#ADC6FF"/>
<path d="M577.064 292.375C578.528 294.46 579.999 296.539 581.45 298.637C587.96 308.052 594.464 317.47 600.962 326.89C603.272 330.229 605.563 333.577 607.897 336.9C608.387 337.599 608.835 338.251 607.984 338.921C607.038 339.657 606.537 338.805 606.109 338.204C603.631 334.67 601.2 331.099 598.742 327.545L581.33 302.391C579.349 299.522 577.368 296.654 575.387 293.786C574.967 293.18 574.925 292.574 575.529 292.153C575.642 292.061 575.773 291.994 575.913 291.956C576.054 291.917 576.201 291.908 576.345 291.929C576.489 291.949 576.627 292 576.751 292.077C576.875 292.153 576.981 292.255 577.064 292.375Z" fill="#ADC6FF"/>
<path d="M552.362 374.731C552.18 374.548 552.058 374.312 552.015 374.057C551.971 373.802 552.007 373.54 552.118 373.307C552.427 372.63 552.997 372.686 553.58 372.839C555.688 373.393 557.798 373.954 559.911 374.52L592.601 383.292C592.852 383.36 593.098 383.451 593.353 383.502C594.083 383.66 594.514 384.072 594.316 384.82C594.119 385.568 593.58 385.858 592.748 385.634C590.245 384.938 587.728 384.288 585.219 383.615L553.882 375.203C553.334 375.055 552.795 374.866 552.362 374.731Z" fill="#ADC6FF"/>
<path d="M624.872 302.053C624.998 302.454 625.132 302.845 625.242 303.244C628.737 316.251 632.233 329.257 635.729 342.263C635.953 343.099 636.015 343.88 634.977 344.129C633.985 344.37 633.781 343.638 633.57 342.873C630.111 329.91 626.644 316.95 623.168 303.992C623.052 303.594 622.979 303.185 622.951 302.771C622.931 302.561 622.991 302.351 623.119 302.183C623.248 302.015 623.435 301.902 623.643 301.866C623.85 301.813 624.065 301.803 624.276 301.835C624.488 301.867 624.69 301.941 624.872 302.053Z" fill="#ADC6FF"/>
<path d="M593.041 455.226C597.618 450.648 602.194 446.072 606.77 441.496C607.09 441.153 607.429 440.829 607.786 440.524C607.879 440.431 607.989 440.359 608.111 440.311C608.233 440.263 608.364 440.241 608.495 440.247C608.626 440.253 608.754 440.285 608.872 440.344C608.989 440.402 609.093 440.484 609.177 440.584C609.382 440.753 609.513 440.995 609.542 441.258C609.571 441.522 609.496 441.786 609.332 441.995C609.084 442.334 608.802 442.646 608.489 442.927C599.226 452.191 589.962 461.454 580.7 470.716C580.387 471.066 580.042 471.387 579.671 471.675C579.461 471.838 579.196 471.912 578.932 471.88C578.669 471.849 578.428 471.716 578.262 471.508C578.163 471.421 578.083 471.315 578.027 471.196C577.971 471.077 577.94 470.947 577.935 470.816C577.931 470.684 577.953 470.553 578.001 470.43C578.048 470.308 578.121 470.196 578.213 470.102C578.484 469.783 578.781 469.49 579.078 469.192C583.735 464.532 588.39 459.877 593.041 455.226Z" fill="#ADC6FF"/>
<path d="M532.57 368.989C532.098 369.346 531.581 369.246 531.073 369.111C525.213 367.54 519.351 365.967 513.485 364.39C512.72 364.184 512.287 363.814 512.487 362.948C512.705 361.986 513.399 362.085 514.075 362.247C520.041 363.83 526.004 365.427 531.964 367.039C532.932 367.327 533.222 368.39 532.57 368.989Z" fill="#ADC6FF"/>
<path d="M614.355 262.737C614.426 262.941 614.566 263.276 614.661 263.624C616.192 269.352 617.722 275.081 619.253 280.812C619.446 281.537 619.719 282.294 618.714 282.611C617.709 282.928 617.328 282.223 617.117 281.409C615.57 275.626 614.024 269.846 612.478 264.068C612.316 263.462 612.106 262.777 612.835 262.406C613.081 262.25 613.379 262.198 613.663 262.26C613.947 262.322 614.196 262.493 614.355 262.737Z" fill="#ADC6FF"/>
<path d="M556.107 492.159C558.167 490.099 560.231 488.035 562.294 485.972C562.808 485.458 563.363 484.823 564.139 485.538C564.956 486.283 564.47 486.937 563.88 487.532C559.683 491.729 555.485 495.927 551.286 500.126C550.712 500.7 550.05 501.224 549.29 500.418C548.562 499.651 549.19 499.085 549.7 498.571C551.827 496.425 553.973 494.293 556.107 492.159Z" fill="#ADC6FF"/>
<path d="M587.934 405.801C587.452 405.27 587.317 404.895 587.448 404.454C587.621 403.837 588.113 403.74 588.659 403.686C592.028 403.408 595.397 403.123 598.766 402.83C601.149 402.626 603.536 402.431 605.918 402.227C606.732 402.154 607.557 402.091 607.688 403.198C607.826 404.365 606.954 404.376 606.162 404.45L588.919 405.898C588.513 405.936 588.085 405.951 587.934 405.801Z" fill="#ADC6FF"/>
<path d="M624.524 456.285C624.345 456.506 624.087 456.648 623.805 456.682C623.523 456.715 623.239 456.638 623.013 456.465C622.445 456.075 622.501 455.509 622.763 454.941C623.481 453.442 624.178 451.946 624.883 450.447C626.645 446.698 628.405 442.948 630.165 439.197C630.514 438.45 630.931 437.722 631.885 438.148C632.838 438.574 632.574 439.384 632.215 440.134C629.767 445.279 627.324 450.425 624.883 455.571C624.746 455.846 624.606 456.119 624.524 456.285Z" fill="#ADC6FF"/>
<path d="M616.105 348.732L623.479 359.398C624.275 360.549 625.032 361.732 625.87 362.854C626.358 363.511 626.68 364.179 625.975 364.764C625.269 365.35 624.601 364.909 624.138 364.259C620.761 359.403 617.39 354.544 614.022 349.679C613.594 349.056 613.754 348.479 614.359 348.06C615.065 347.572 615.526 348.007 616.105 348.732Z" fill="#ADC6FF"/>
<path d="M558.104 333.714C558.691 334.24 558.94 334.71 558.49 335.307C558.039 335.904 557.52 336.024 556.886 335.58C553.571 333.255 550.248 330.944 546.932 328.621C546.315 328.186 546.178 327.601 546.648 327.006C547.118 326.412 547.673 326.425 548.276 326.86C551.078 328.827 553.893 330.782 556.701 332.738L558.104 333.714Z" fill="#ADC6FF"/>
<path d="M639.751 525.295C639.596 525.492 639.378 525.63 639.133 525.686C638.888 525.742 638.632 525.712 638.406 525.601C637.896 525.397 637.788 524.951 637.832 524.441C638.02 522.207 638.196 519.973 638.389 517.744C638.537 516.029 638.706 514.321 638.863 512.606C638.932 511.876 639.156 511.186 640.033 511.241C640.978 511.299 641.135 511.989 641.057 512.825C640.711 516.668 640.394 520.508 640.061 524.35C640.076 524.692 639.966 525.028 639.751 525.295Z" fill="#ADC6FF"/>
<path d="M548.332 448.18C544.383 449.999 540.483 451.809 536.552 453.562C536.086 453.77 535.529 453.568 535.33 452.912C535.103 452.175 535.365 451.722 536.046 451.41C538.078 450.487 540.113 449.562 542.125 448.615C543.726 447.874 545.319 447.119 546.925 446.383C547.502 446.117 548.05 446.146 548.429 446.733C548.758 447.252 548.609 447.721 548.332 448.18Z" fill="#ADC6FF"/>
<path d="M526.199 527.604C525.948 527.77 525.65 527.85 525.349 527.832C525.049 527.814 524.763 527.699 524.533 527.505C523.748 526.862 523.803 526.069 524.05 525.169C525.155 521.154 526.212 517.127 527.288 513.108L541.341 460.663C541.642 459.538 541.873 458.229 543.479 458.622C545.226 459.058 544.756 460.375 544.438 461.585C538.715 482.937 532.99 504.288 527.266 525.638C527.04 526.396 526.994 527.239 526.199 527.604Z" fill="#FFA940"/>
<path d="M476.504 713.27C476.963 714.066 476.562 714.811 476.363 715.553C471.394 734.129 466.42 752.702 461.442 771.274C460.681 774.114 459.92 776.955 459.161 779.798C458.865 780.925 458.406 781.942 456.989 781.55C455.572 781.158 455.747 780.036 456.046 778.932C461.821 757.376 467.593 735.822 473.359 714.268C473.598 713.379 473.909 712.631 474.91 712.442C475.23 712.373 475.565 712.418 475.856 712.569C476.147 712.721 476.376 712.968 476.504 713.27Z" fill="#FFA940"/>
<path d="M432.561 550.158C433.368 551.281 433.229 552.084 432.578 552.639C431.687 553.372 430.892 552.945 430.149 552.193C426.523 548.544 422.865 544.942 419.225 541.296C407.104 529.17 394.985 517.041 382.87 504.908C382.65 504.725 382.44 504.531 382.24 504.326C381.595 503.537 381.236 502.639 382.092 501.836C382.949 501.032 383.761 501.37 384.53 502.132C387.861 505.469 391.239 508.758 394.571 512.095C406.987 524.519 419.402 536.955 431.816 549.403C432.157 549.744 432.503 550.102 432.561 550.158Z" fill="#FFA940"/>
<path d="M593.935 593.396C597.172 592.523 600.74 591.499 604.329 590.538C622.349 585.726 640.367 580.922 658.385 576.125C658.732 576.034 659.068 575.91 659.413 575.835C660.455 575.602 661.532 575.493 661.809 576.853C662.054 578.071 661.276 578.655 660.159 578.946C655.804 580.091 651.458 581.26 647.11 582.425L596.378 596.015C595.769 596.22 595.146 596.383 594.514 596.504C593.675 596.604 592.894 596.373 592.64 595.449C592.385 594.525 592.731 593.907 593.935 593.396Z" fill="#FFA940"/>
<path d="M340.142 661.392C341.569 660.991 343.421 660.455 345.289 659.954L404.69 644.049C405.166 643.896 405.652 643.781 406.146 643.706C406.912 643.627 407.631 643.845 407.884 644.646C408.137 645.446 407.943 646.25 407.063 646.614C406.336 646.911 405.589 647.157 404.828 647.351C383.857 652.974 362.884 658.592 341.911 664.206C341.497 664.325 341.078 664.422 340.655 664.498C339.778 664.635 339.043 664.372 338.778 663.474C338.514 662.576 338.858 661.929 340.142 661.392Z" fill="#FFA940"/>
<path d="M352.618 579.317C352.744 579.606 352.796 579.922 352.771 580.236C352.746 580.551 352.643 580.854 352.473 581.119C352.297 581.394 352.032 581.601 351.723 581.706C351.414 581.812 351.078 581.809 350.77 581.699C348.885 581.254 347.016 580.744 345.146 580.239L317.292 572.76C317.157 572.724 317.014 572.701 316.877 572.661C315.683 572.319 314.276 571.996 314.784 570.323C315.229 568.841 316.496 569.146 317.657 569.466C320.424 570.23 323.199 570.964 325.972 571.704C334.08 573.876 342.189 576.049 350.297 578.222C351.116 578.441 352.012 578.526 352.618 579.317Z" fill="#FFA940"/>
<path d="M610.445 512.225C610.126 512.492 609.715 512.623 609.3 512.59C608.886 512.556 608.501 512.36 608.229 512.045C607.485 511.299 607.703 510.486 608.414 509.777L614.322 503.875L633.369 484.765C634.198 483.932 635.138 483.309 636.164 484.266C637.26 485.302 636.456 486.205 635.671 486.992C627.399 495.281 619.125 503.561 610.847 511.834L610.445 512.225Z" fill="#FFA940"/>
<path d="M452.63 436.036C453.306 438.604 454.13 441.784 454.983 444.953C457.184 453.146 459.422 461.353 461.615 469.561C461.903 470.63 462.452 471.986 460.93 472.507C459.528 472.987 458.939 472.017 458.6 470.724C455.9 460.508 453.171 450.294 450.414 440.084C450.081 438.842 449.73 437.605 449.454 436.35C449.254 435.469 449.543 434.719 450.462 434.498C451.29 434.319 452.047 434.544 452.63 436.036Z" fill="#FFA940"/>
<path d="M618.299 735.873C619.268 737.033 619.054 737.828 618.471 738.404C617.608 739.256 616.772 738.792 616.04 738.069C612.695 734.75 609.337 731.444 606.006 728.108C593.631 715.727 581.264 703.337 568.906 690.94C568.593 690.622 568.292 690.343 568.014 690.015C567.396 689.291 567.097 688.488 567.876 687.724C568.656 686.96 569.53 687.137 570.316 687.894C572.843 690.42 575.372 692.945 577.902 695.469C591.184 708.761 604.466 722.053 617.746 735.346C618.048 735.645 618.361 735.937 618.299 735.873Z" fill="#FFA940"/>
<path d="M559.405 584.067L588.122 567.487C588.605 567.172 589.113 566.899 589.642 566.669C589.998 566.545 590.386 566.55 590.739 566.683C591.092 566.816 591.386 567.069 591.572 567.397C591.757 567.726 591.821 568.108 591.753 568.479C591.685 568.85 591.489 569.185 591.199 569.426C590.737 569.771 590.246 570.074 589.731 570.334L531.553 603.922C530.585 604.481 529.523 605.04 528.743 603.766C527.92 602.418 528.867 601.703 529.946 601.079C539.206 595.733 548.466 590.387 557.726 585.041L559.405 584.067Z" fill="#85A5FF"/>
<path d="M444.012 654.474L415.299 671.051C414.757 671.401 414.182 671.696 413.582 671.933C413.241 672.066 412.863 672.061 412.525 671.921C412.188 671.78 411.918 671.515 411.772 671.18C411.567 670.879 411.482 670.511 411.535 670.151C411.587 669.79 411.774 669.462 412.057 669.232C412.569 668.838 413.117 668.494 413.694 668.202L470.949 635.146C471.322 634.931 471.696 634.715 472.07 634.499C472.981 633.998 473.874 633.881 474.516 634.88C475.235 636.004 474.661 636.789 473.679 637.356C471.131 638.827 468.58 640.3 466.032 641.771L444.012 654.474Z" fill="#85A5FF"/>
<path d="M503.165 651.743C503.181 652.038 503.232 652.601 503.233 653.163L503.257 720.119C503.253 720.475 503.232 720.836 503.242 721.189C503.271 722.258 502.861 723.118 501.736 723.144C500.515 723.187 500.009 722.448 500.025 721.208C500.072 717.63 500.054 714.054 500.056 710.477C500.061 691.453 500.065 672.426 500.07 653.395C500.056 652.89 500.068 652.384 500.106 651.88C500.172 651.175 500.523 650.643 501.269 650.546C502.015 650.449 502.701 650.706 503.165 651.743Z" fill="#85A5FF"/>
<path d="M502.692 587.838C501.466 588.606 500.151 587.751 500.092 586.286C500.019 583.424 500.05 580.562 500.049 577.704C500.041 557.963 500.037 538.222 500.036 518.481C500.038 518.052 500.041 517.627 500.054 517.191C500.062 516.145 500.648 515.538 501.625 515.522C502.747 515.506 503.255 516.17 503.241 517.328C503.207 520.048 503.245 522.77 503.244 525.486C503.232 545.447 503.222 565.407 503.212 585.366C503.212 586.298 503.303 587.232 502.692 587.838Z" fill="#85A5FF"/>
<path d="M474.613 602.178C474.997 602.843 474.769 603.423 474.423 603.996C474.278 604.251 474.04 604.438 473.758 604.52C473.477 604.601 473.175 604.57 472.917 604.433C472.385 604.228 471.872 603.977 471.384 603.684C452.185 592.603 432.989 581.52 413.798 570.434C413.548 570.294 413.31 570.133 413.051 570.003C411.95 569.459 410.901 568.789 411.772 567.4C412.643 566.01 413.738 566.733 414.765 567.321C421.384 571.136 428.013 574.957 434.651 578.782C447.406 586.155 460.16 593.536 472.913 600.923C473.528 601.281 474.206 601.541 474.613 602.178Z" fill="#85A5FF"/>
<path d="M529.213 634.292C530.291 633.839 531.042 634.476 531.835 634.934L560.278 651.353L590.226 668.621C590.964 669.037 591.856 669.304 591.805 670.415C591.738 671.913 590.412 672.385 588.794 671.455C578.754 665.666 568.715 659.874 558.679 654.08C549.32 648.677 539.963 643.276 530.609 637.874C530.029 637.591 529.487 637.233 528.999 636.811C528.049 635.925 528.406 635.051 529.213 634.292Z" fill="#85A5FF"/>
<path d="M430.3 495.659C435.399 504.49 440.497 513.321 445.594 522.15C445.9 522.638 446.175 523.144 446.42 523.665C446.584 523.992 446.62 524.369 446.521 524.721C446.422 525.073 446.195 525.375 445.884 525.568C445.727 525.692 445.547 525.784 445.354 525.838C445.161 525.892 444.959 525.908 444.76 525.884C444.561 525.86 444.369 525.797 444.194 525.699C444.02 525.6 443.867 525.468 443.743 525.31C443.347 524.8 443.002 524.251 442.713 523.673C432.554 506.078 422.395 488.481 412.235 470.883C412.127 470.696 412.019 470.509 411.911 470.323C411.227 469.223 410.576 468.01 412.061 467.183C413.432 466.426 414.094 467.598 414.7 468.648C419.367 476.732 424.034 484.815 428.7 492.897L430.3 495.659Z" fill="#85A5FF"/>
<path d="M570.214 744.486L555.043 718.208C554.684 717.673 554.382 717.101 554.142 716.502C554.067 716.316 554.029 716.117 554.031 715.917C554.032 715.716 554.074 715.518 554.153 715.334C554.231 715.149 554.346 714.982 554.49 714.842C554.633 714.702 554.803 714.592 554.99 714.518C555.313 714.349 555.687 714.305 556.04 714.394C556.394 714.483 556.702 714.699 556.907 715.001C557.275 715.532 557.611 716.085 557.913 716.656L588.475 769.593C588.78 770.082 589.047 770.594 589.275 771.123C589.423 771.458 589.439 771.836 589.32 772.182C589.201 772.528 588.955 772.816 588.633 772.988C588.471 773.105 588.288 773.188 588.094 773.232C587.9 773.276 587.699 773.281 587.503 773.245C587.307 773.21 587.12 773.136 586.953 773.027C586.787 772.918 586.644 772.777 586.533 772.612C586.196 772.144 585.891 771.655 585.618 771.148L570.228 744.493L570.214 744.486Z" fill="#85A5FF"/>
<path d="M556.721 525.376C555.879 525.937 555.261 526.005 554.713 525.495C554.364 525.234 554.133 524.845 554.071 524.414C554.009 523.982 554.121 523.544 554.381 523.195C555.667 521.048 556.862 518.864 558.123 516.692C567.236 500.91 576.359 485.135 585.491 469.366C586.118 468.286 586.462 466.12 588.452 467.247C590.375 468.334 588.896 469.741 588.234 470.89C578.113 488.485 567.978 506.067 557.829 523.636C557.461 524.311 557.001 524.946 556.721 525.376Z" fill="#85A5FF"/>
<path d="M390.886 619.275C391.654 620.545 390.886 621.656 389.07 621.678C384.346 621.735 379.632 621.723 374.901 621.725C359.016 621.727 343.132 621.713 327.248 621.682C325.906 621.679 323.78 622.389 323.835 619.991C323.888 617.709 325.984 618.536 327.204 618.544C347.598 618.495 367.992 618.489 388.386 618.526C389.282 618.517 390.305 618.226 390.886 619.275Z" fill="#85A5FF"/>
<path d="M444.13 714.646C444.39 714.448 444.713 714.35 445.04 714.369C445.366 714.388 445.676 714.522 445.912 714.748C446.652 715.426 446.68 716.182 446.163 717.064C444.204 720.391 442.291 723.747 440.356 727.091L414.939 771.153C414.722 771.528 414.505 771.902 414.295 772.272C413.82 773.175 413.058 773.485 412.152 773.037C411.099 772.509 411.035 771.595 411.551 770.659C412.549 768.843 413.597 767.052 414.635 765.252L442.89 716.373C443.24 715.753 443.484 715.054 444.13 714.646Z" fill="#85A5FF"/>
<path d="M676.581 619.304C677.32 620.516 676.485 621.675 674.76 621.69C670.468 621.727 666.179 621.708 661.884 621.707L612.304 621.691C611.733 621.727 611.16 621.706 610.593 621.628C609.776 621.462 609.457 620.79 609.431 620.028C609.405 619.699 609.507 619.373 609.714 619.116C609.921 618.859 610.219 618.691 610.546 618.647C611.179 618.545 611.82 618.5 612.461 618.512C632.999 618.506 653.536 618.506 674.071 618.512C674.988 618.53 675.975 618.324 676.581 619.304Z" fill="#85A5FF"/>
<path d="M528.544 665.825C533.386 674.21 538.227 682.596 543.069 690.982C543.459 691.588 543.798 692.225 544.084 692.886C544.231 693.221 544.246 693.599 544.127 693.944C544.009 694.29 543.764 694.578 543.442 694.751C543.137 694.95 542.77 695.033 542.409 694.986C542.048 694.939 541.715 694.765 541.471 694.494C541.093 694.057 540.774 693.571 540.522 693.05C530.588 675.843 520.652 658.634 510.716 641.425C510.394 640.944 510.137 640.423 509.951 639.874C509.839 639.527 509.857 639.151 510.002 638.815C510.146 638.48 510.407 638.209 510.736 638.051C511.048 637.865 511.418 637.801 511.775 637.871C512.131 637.941 512.449 638.14 512.668 638.43C513.054 638.946 513.394 639.494 513.685 640.07C518.647 648.664 523.6 657.249 528.544 665.825Z" fill="#2F54EB"/>
<path d="M474.983 573.044C479.831 581.442 484.68 589.84 489.529 598.239C489.916 598.845 490.266 599.475 490.577 600.124C490.733 600.454 490.762 600.831 490.659 601.181C490.556 601.532 490.327 601.833 490.017 602.026C489.695 602.267 489.293 602.374 488.895 602.326C488.496 602.278 488.131 602.078 487.876 601.768C487.521 601.313 487.218 600.819 486.972 600.298L457.343 548.979C457.127 548.605 456.889 548.245 456.696 547.858C456.245 546.913 456.221 546.035 457.271 545.464C458.22 544.951 458.926 545.38 459.468 546.188C459.792 546.664 460.041 547.182 460.33 547.683L474.983 573.044Z" fill="#2F54EB"/>
<path d="M490.536 638.712C490.975 639.549 490.488 640.294 490.059 641.034L472.23 671.875C468.076 679.058 463.925 686.248 459.778 693.444C459.159 694.529 458.606 695.521 457.167 694.693C455.728 693.865 456.429 692.872 456.971 691.937C467.119 674.343 477.276 656.753 487.442 639.168C488.283 637.717 489.756 637.499 490.536 638.712Z" fill="#2F54EB"/>
<path d="M415.067 618.576C415.532 618.561 416.1 618.527 416.665 618.53C436.753 618.521 456.842 618.519 476.932 618.523C478.068 618.524 479.42 618.311 479.44 620.063C479.453 621.699 478.285 621.696 477.041 621.697C457.022 621.689 437.004 621.694 416.987 621.711C416.416 621.74 415.844 621.707 415.281 621.611C414.954 621.581 414.652 621.425 414.438 621.178C414.224 620.93 414.113 620.609 414.13 620.282C414.108 619.938 414.185 619.595 414.351 619.293C414.517 618.99 414.765 618.742 415.067 618.576Z" fill="#2F54EB"/>
<path d="M512.474 602.058C512.148 602.246 511.773 602.33 511.398 602.297C511.023 602.265 510.667 602.119 510.378 601.878C509.619 601.27 509.761 600.516 510.193 599.763L514.473 592.311L540.216 547.726C540.43 547.354 540.654 546.975 540.862 546.611C541.408 545.564 542.069 544.749 543.381 545.495C544.794 546.294 544.081 547.338 543.586 548.257C542.618 550.031 541.611 551.738 540.613 553.46L513.455 600.46C513.151 601.039 512.789 601.567 512.474 602.058Z" fill="#2F54EB"/>
<path d="M586.309 619.235C586.979 620.507 586.043 621.69 584.389 621.699C579.022 621.72 573.655 621.727 568.288 621.72L524.28 621.695C523.853 621.697 523.415 621.696 522.991 621.697C521.979 621.669 521.09 621.449 521.112 620.167C521.134 618.884 521.886 618.479 523.083 618.491C527.521 618.524 531.956 618.519 536.389 618.519L583.6 618.494C584.594 618.507 585.641 618.311 586.309 619.235Z" fill="#2F54EB"/>
<path d="M594.4 644.197C594.562 644.441 594.644 644.729 594.634 645.022C594.625 645.315 594.524 645.598 594.347 645.831C593.828 646.554 593.057 646.685 592.222 646.465C589.653 645.787 587.086 645.102 584.521 644.411C571.486 640.912 558.452 637.416 545.417 633.923C544.932 633.79 544.443 633.669 543.961 633.524C542.882 633.2 542.136 632.64 542.525 631.364C542.863 630.173 543.734 630.103 544.741 630.354C545.09 630.441 545.438 630.534 545.786 630.627C561.248 634.771 576.712 638.917 592.179 643.068C593.016 643.257 593.927 643.309 594.4 644.197Z" fill="#FA8C16"/>
<path d="M458.034 607.696C458.139 607.945 458.181 608.216 458.156 608.485C458.132 608.753 458.041 609.012 457.893 609.238C457.366 609.99 456.605 610.096 455.775 609.883C453.212 609.211 450.648 608.532 448.084 607.847L408.604 597.268L407.979 597.101C406.801 596.785 405.633 596.299 406.079 594.811C406.479 593.484 407.637 593.593 408.765 593.908C410.98 594.526 413.201 595.102 415.417 595.696C428.864 599.299 442.311 602.902 455.758 606.505C456.562 606.699 457.458 606.794 458.034 607.696Z" fill="#FA8C16"/>
<path d="M476.989 527.058C477.874 530.317 478.864 533.895 479.829 537.482C483.128 549.77 486.422 562.054 489.71 574.335C489.804 574.679 489.824 575.051 489.948 575.378C490.409 576.607 490.162 577.611 488.842 577.914C487.523 578.218 487.159 577.268 486.857 576.201C484.505 567.365 482.135 558.529 479.747 549.693C477.912 542.863 476.075 536.032 474.236 529.2C474.094 528.72 473.979 528.233 473.891 527.74C473.752 526.869 474.025 526.144 474.91 525.847C475.795 525.55 476.45 525.909 476.989 527.058Z" fill="#FA8C16"/>
<path d="M533.321 589.289C532.52 589.801 531.791 589.893 531.17 589.136C530.449 588.258 530.622 587.515 531.438 586.71C535.298 582.888 539.103 579.013 542.946 575.17C550.673 567.434 558.408 559.708 566.149 551.991C566.403 551.74 566.687 551.516 566.933 551.259C567.714 550.465 568.588 550.304 569.371 551.127C570.155 551.949 569.813 552.824 569.073 553.57C566.049 556.606 563.036 559.661 560.004 562.691C551.508 571.173 543.007 579.649 534.499 588.121L533.321 589.289Z" fill="#FA8C16"/>
<path d="M523.556 713.039C523.173 711.626 522.661 709.764 522.159 707.902C518.342 693.612 514.524 679.323 510.704 665.034C510.398 663.891 510.123 662.854 511.521 662.386C513.15 661.844 513.494 663.154 513.788 664.25C518.039 680.119 522.279 695.997 526.509 711.881C526.797 712.95 526.914 713.939 525.664 714.361C524.873 714.664 524.108 714.358 523.556 713.039Z" fill="#FA8C16"/>
<path d="M433.625 688.989C432.588 689.782 431.812 689.757 431.198 689.1C430.42 688.244 430.739 687.442 431.501 686.674C434.891 683.297 438.24 679.874 441.62 676.488C449.792 668.293 457.974 660.105 466.166 651.926C466.577 651.431 467.066 651.007 467.614 650.672C467.937 650.501 468.313 650.462 468.664 650.563C469.015 650.664 469.313 650.897 469.496 651.214C470.156 652.202 469.734 652.929 468.995 653.66C465.955 656.685 462.952 659.739 459.914 662.768C451.377 671.3 442.832 679.828 434.278 688.353C433.998 688.644 433.687 688.933 433.625 688.989Z" fill="#FA8C16"/>
<path d="M622.492 547.645C625.91 545.672 629.339 543.717 632.746 541.725C633.867 541.078 634.979 540.709 635.69 542.018C636.357 543.241 635.424 543.964 634.415 544.547C627.389 548.584 620.368 552.637 613.353 556.707C612.329 557.298 611.258 557.677 610.555 556.459C609.852 555.242 610.618 554.481 611.676 553.88C615.275 551.832 618.872 549.735 622.492 547.645Z" fill="#D6E4FF"/>
<path d="M379.399 687.995C382.874 685.989 386.348 683.983 389.822 681.977C390.917 681.345 392.047 680.947 392.785 682.259C393.496 683.492 392.52 684.2 391.527 684.774C384.516 688.821 377.504 692.87 370.49 696.919C369.493 697.495 368.469 697.956 367.718 696.672C366.902 695.26 367.919 694.613 368.969 694.007C372.455 692.014 375.929 689.998 379.399 687.995Z" fill="#D6E4FF"/>
<path d="M368.19 541.367C368.937 540.935 369.617 541.25 370.219 541.61C377.471 545.774 384.715 549.955 391.95 554.153C392.871 554.687 393.306 555.397 392.742 556.456C392.135 557.588 391.257 557.412 390.37 556.903C382.997 552.656 375.632 548.399 368.277 544.131C368.019 544.008 367.801 543.816 367.645 543.577C367.489 543.338 367.402 543.06 367.393 542.775C367.384 542.49 367.453 542.208 367.594 541.959C367.735 541.711 367.941 541.506 368.19 541.367Z" fill="#D6E4FF"/>
<path d="M502.517 493.411C501.181 494.057 500.079 493.14 500.066 491.374C500.026 486.595 500.032 481.825 500.046 477.035C500.047 473.682 500.066 470.324 500.058 466.971C500.053 465.729 500.218 464.523 501.798 464.592C503.28 464.658 503.242 465.885 503.244 466.995C503.244 474.988 503.246 482.983 503.25 490.98C503.243 491.9 503.354 492.878 502.517 493.411Z" fill="#D6E4FF"/>
<path d="M635.563 694.919C636.014 695.7 635.963 696.302 635.494 696.852C634.815 697.642 634.052 697.615 633.194 697.114C630.3 695.424 627.397 693.744 624.487 692.074C620.343 689.688 616.198 687.308 612.051 684.934C611.868 684.825 611.691 684.708 611.509 684.599C610.548 684.038 609.89 683.322 610.559 682.159C611.227 680.996 612.239 681.333 613.149 681.858C617.977 684.63 622.789 687.426 627.608 690.207C629.894 691.527 632.179 692.848 634.463 694.169C634.894 694.424 635.294 694.746 635.563 694.919Z" fill="#D6E4FF"/>
<path d="M512.746 578.672C511.872 579.082 511.3 579.049 510.819 578.664C510.037 578.035 510.083 577.226 510.332 576.32C511.433 572.308 512.49 568.281 513.564 564.258C514.397 561.137 515.25 558.025 516.066 554.899C516.382 553.72 516.806 552.549 518.313 552.959C519.69 553.334 519.541 554.482 519.235 555.609C517.288 562.814 515.351 570.022 513.425 577.234C513.258 577.859 513.116 578.494 512.746 578.672Z" fill="#FA8C16"/>
<path d="M490.388 662.293C490.591 662.594 490.393 663.217 490.228 663.845C488.298 671.046 486.369 678.248 484.441 685.451C484.14 686.587 483.706 687.629 482.3 687.246C480.893 686.863 481.004 685.778 481.313 684.623C483.262 677.427 485.191 670.225 487.099 663.016C487.344 662.103 487.735 661.399 488.72 661.259C489.331 661.17 489.831 661.459 490.388 662.293Z" fill="#FA8C16"/>
<path d="M457.936 633.107L450.014 635.225C445.199 636.514 440.382 637.801 435.561 639.086C434.489 639.377 433.485 639.388 433.134 638.117C432.783 636.845 433.48 636.343 434.646 636.033C441.999 634.104 449.368 632.096 456.725 630.12C457.701 629.86 458.625 629.865 459.03 630.99C459.386 631.961 459.032 632.683 457.936 633.107Z" fill="#FA8C16"/>
<path d="M566.772 603.843C566.241 604.045 565.917 604.207 565.576 604.299C558.42 606.209 551.263 608.113 544.104 610.012C543.046 610.294 541.866 610.562 541.488 609.121C541.109 607.681 542.131 607.226 543.256 606.93C550.485 605.008 557.714 603.105 564.937 601.157C566.023 600.863 566.952 600.79 567.42 602.005C567.502 602.167 567.55 602.345 567.562 602.526C567.573 602.708 567.548 602.89 567.488 603.062C567.427 603.234 567.333 603.391 567.21 603.525C567.087 603.66 566.938 603.768 566.772 603.843Z" fill="#FA8C16"/>
<path d="M530.095 651.98C529.701 651.505 529.922 650.705 530.534 650.152C531.398 649.379 532.208 649.798 532.952 650.544C536.732 654.339 540.526 658.081 544.31 661.849C545.972 663.51 547.613 665.197 549.271 666.86C550.024 667.621 550.306 668.454 549.478 669.29C548.651 670.126 547.801 669.835 547.044 669.102C541.586 663.676 536.14 658.239 530.704 652.794C530.551 652.648 530.444 652.455 530.095 651.98Z" fill="#FA8C16"/>
<path d="M470.077 587.644C470.886 588.77 470.689 589.497 470.003 590.052C469.197 590.702 468.442 590.455 467.745 589.757C464.93 586.934 462.091 584.13 459.263 581.32C456.731 578.797 454.202 576.307 451.691 573.787C450.872 572.964 449.947 572.044 451.161 570.919C452.22 569.94 453.044 570.634 453.891 571.48C459.166 576.778 464.472 582.043 469.788 587.307C469.901 587.404 469.998 587.517 470.077 587.644Z" fill="#FA8C16"/>
<path d="M608.438 647.823C608.992 647.638 609.592 647.642 610.143 647.835C612.759 648.546 615.376 649.25 617.996 649.946C619.164 650.243 620.047 650.754 619.624 652.169C619.232 653.466 618.224 653.385 617.182 653.116C614.426 652.38 611.662 651.665 608.919 650.883C608.244 650.689 607.571 650.361 607.621 649.42C607.611 649.107 607.681 648.796 607.824 648.516C607.966 648.237 608.178 647.999 608.438 647.823Z" fill="#FA8C16"/>
<path d="M392.772 590.011C393.345 591.175 392.398 592.718 391.25 592.464C388.048 591.723 384.881 590.811 381.715 589.9C380.897 589.665 380.758 588.958 380.951 588.144C381.143 587.331 381.668 586.799 382.474 586.961C385.765 587.631 389.01 588.515 392.186 589.608C392.403 589.707 392.602 589.844 392.772 590.011Z" fill="#FA8C16"/>
<path d="M415.032 707.644C414.746 707.885 414.379 708.009 414.005 707.991C413.632 707.973 413.279 707.814 413.018 707.546C412.396 706.969 412.085 706.182 412.779 705.467C415.009 703.164 417.267 700.889 419.553 698.643C420.228 697.984 421.072 698.159 421.689 698.744C421.847 698.867 421.976 699.024 422.066 699.202C422.157 699.381 422.206 699.578 422.211 699.778C422.216 699.978 422.177 700.177 422.095 700.36C422.014 700.543 421.893 700.706 421.741 700.836C419.501 703.126 417.242 705.406 415.032 707.644Z" fill="#FA8C16"/>
<path d="M469.511 511.44C468.775 508.637 468 505.673 467.217 502.713C466.938 501.659 467.426 501.003 468.372 500.771C469.319 500.538 470.05 500.958 470.313 501.966C471.072 504.86 471.815 507.759 472.576 510.657C472.833 511.629 472.628 512.43 471.613 512.707C470.683 512.925 469.906 512.597 469.511 511.44Z" fill="#FA8C16"/>
<path d="M581.021 541.661C580.697 541.903 580.293 542.013 579.891 541.968C579.489 541.922 579.119 541.725 578.857 541.416C578.333 540.852 578.148 540.117 578.742 539.49C580.985 537.198 583.229 534.907 585.515 532.655C585.654 532.51 585.822 532.396 586.009 532.32C586.195 532.245 586.395 532.209 586.596 532.217C586.797 532.224 586.994 532.274 587.174 532.363C587.354 532.452 587.514 532.578 587.642 532.733C588.239 533.344 588.44 534.115 587.735 534.836C585.525 537.108 583.253 539.401 581.021 541.661Z" fill="#FA8C16"/>
<path d="M490.644 163.854C490.68 163.79 490.439 163.943 490.127 163.943C489.954 163.954 489.782 163.906 489.64 163.806C489.498 163.706 489.395 163.561 489.347 163.394C489.131 162.692 488.947 161.981 488.755 161.272C484.99 147.232 481.227 133.193 477.467 119.153C477.291 118.505 476.928 117.687 477.884 117.431C478.84 117.174 478.951 118.047 479.126 118.708L490.803 162.254C490.913 162.675 491.114 163.093 490.644 163.854Z" fill="#FFD591"/>
<path d="M510.205 235.755C510.693 236.251 510.788 236.839 510.949 237.408L521.649 277.363L522.522 280.622C522.704 281.294 522.961 282.078 521.993 282.29C521.111 282.483 521.023 281.665 520.862 281.066C518.894 273.794 516.938 266.525 514.995 259.258C513.057 252.026 511.125 244.798 509.2 237.573C509.041 236.982 508.667 236.318 509.415 235.863C509.639 235.724 509.973 235.781 510.205 235.755Z" fill="#FFD591"/>
<path d="M553.598 229.841C560.036 233.558 566.474 237.275 572.913 240.992C573.479 241.319 574.36 241.58 573.884 242.47C573.362 243.445 572.655 242.833 572.024 242.469L533.139 220.019C532.545 219.676 531.752 219.35 532.17 218.509C532.612 217.619 533.304 218.11 533.9 218.454L553.598 229.841Z" fill="#FFD591"/>
<path d="M447.434 168.548L466.624 179.627C466.919 179.798 467.217 179.97 467.513 180.141C467.686 180.24 467.813 180.403 467.868 180.595C467.922 180.787 467.899 180.992 467.803 181.167C467.766 181.272 467.707 181.368 467.631 181.449C467.555 181.53 467.463 181.594 467.361 181.638C467.259 181.682 467.149 181.704 467.038 181.703C466.927 181.702 466.817 181.678 466.715 181.633C466.357 181.472 466.012 181.284 465.682 181.07L427.052 158.767C426.423 158.404 425.543 158.063 426.091 157.15C426.595 156.313 427.285 156.905 427.866 157.24L447.434 168.548Z" fill="#FFD591"/>
<path d="M529.831 146.403L540.913 127.208C541.109 126.869 541.288 126.517 541.517 126.198C541.571 126.101 541.645 126.016 541.734 125.949C541.823 125.883 541.925 125.835 542.033 125.809C542.141 125.784 542.254 125.781 542.363 125.801C542.473 125.821 542.577 125.863 542.669 125.925C542.863 126.037 543.006 126.22 543.067 126.436C543.128 126.651 543.104 126.882 542.997 127.08C542.871 127.346 542.703 127.589 542.556 127.844C535.096 140.766 527.635 153.689 520.174 166.611C520.02 166.917 519.838 167.207 519.632 167.48C519.495 167.618 519.317 167.707 519.124 167.732C518.931 167.756 518.736 167.716 518.569 167.616C518.402 167.517 518.274 167.364 518.204 167.183C518.134 167.002 518.127 166.803 518.184 166.617C518.349 166.26 518.537 165.916 518.749 165.585L529.831 146.403Z" fill="#FFD591"/>
<path d="M468.619 252.424C472.311 246.029 476.004 239.632 479.698 233.234C479.877 232.884 480.083 232.548 480.314 232.231C480.436 232.075 480.611 231.968 480.806 231.932C481.001 231.895 481.202 231.932 481.373 232.034C481.548 232.128 481.684 232.28 481.758 232.465C481.831 232.65 481.837 232.855 481.774 233.043C481.629 233.409 481.444 233.758 481.224 234.084L458.992 272.592C458.821 272.887 458.649 273.185 458.466 273.473C458.414 273.572 458.341 273.657 458.253 273.726C458.165 273.794 458.064 273.842 457.956 273.868C457.848 273.895 457.735 273.898 457.626 273.877C457.517 273.857 457.413 273.813 457.322 273.75C457.217 273.709 457.122 273.645 457.045 273.564C456.967 273.482 456.909 273.385 456.873 273.278C456.838 273.171 456.826 273.058 456.839 272.946C456.852 272.834 456.889 272.727 456.949 272.631C457.124 272.281 457.34 271.954 457.537 271.612L468.619 252.424Z" fill="#FFD591"/>
<path d="M418.059 222.515C417.906 222.464 417.772 222.368 417.675 222.238C417.578 222.109 417.524 221.953 417.519 221.792C417.497 221.62 417.532 221.445 417.619 221.295C417.706 221.144 417.84 221.026 417.999 220.959C418.406 220.797 418.823 220.665 419.247 220.562L462.199 209.079C462.434 209.014 462.67 208.94 462.908 208.887C463.447 208.77 463.921 208.898 464.056 209.475C464.191 210.052 463.869 210.386 463.332 210.552C462.011 210.916 460.688 211.267 459.365 211.623C446.094 215.173 432.824 218.726 419.553 222.28C419.037 222.414 418.531 222.655 418.059 222.515Z" fill="#FFD591"/>
<path d="M536.257 190.731C535.752 190.236 535.647 189.717 536.311 189.292C536.657 189.108 537.03 188.98 537.417 188.911C551.743 185.07 566.073 181.23 580.406 177.392C580.778 177.271 581.16 177.186 581.548 177.138C581.747 177.112 581.947 177.163 582.11 177.28C582.273 177.396 582.385 177.57 582.425 177.766C582.489 177.956 582.475 178.163 582.388 178.342C582.3 178.522 582.145 178.659 581.956 178.725C581.637 178.848 581.309 178.948 580.975 179.025C566.652 182.864 552.322 186.704 537.985 190.544C537.424 190.698 536.881 190.986 536.257 190.731Z" fill="#FFD591"/>
<path d="M577.568 164.889C577.341 165.247 576.965 165.346 576.601 165.506C568.909 169.06 561.208 172.612 553.498 176.162C553.28 176.263 553.033 176.321 552.82 176.449C552.293 176.773 551.741 176.794 551.432 176.212C551.052 175.5 551.579 175.152 552.152 174.888C555.426 173.382 558.701 171.877 561.976 170.372C566.499 168.292 571.015 166.211 575.524 164.13C575.918 163.937 576.329 163.777 576.75 163.653C576.919 163.609 577.098 163.626 577.255 163.701C577.413 163.775 577.539 163.903 577.611 164.062C577.685 164.189 577.72 164.335 577.713 164.482C577.705 164.629 577.655 164.77 577.568 164.889Z" fill="#597EF7"/>
<path d="M520.609 146.481C520.491 146.715 520.084 146.942 519.552 146.699C518.905 146.408 519.006 145.909 519.218 145.342C520.312 142.424 521.373 139.492 522.455 136.571C524.416 131.274 526.394 125.983 528.345 120.681C528.578 120.054 528.758 119.377 529.599 119.656C530.526 119.963 530.117 120.671 529.906 121.242C527.79 127.001 525.667 132.758 523.535 138.512C522.593 141.068 521.653 143.63 520.609 146.481Z" fill="#597EF7"/>
<path d="M420.544 171.376C419.998 171.18 419.502 170.88 419.761 170.214C420.105 169.323 420.845 169.719 421.39 169.916C424.831 171.155 428.254 172.445 431.684 173.716L445.677 178.891C446.306 179.125 447.174 179.239 446.816 180.207C446.457 181.175 445.752 180.714 445.093 180.473C437.18 177.555 429.263 174.646 421.341 171.748C421.07 171.646 420.81 171.503 420.544 171.376Z" fill="#597EF7"/>
<path d="M448.579 224.199C448.374 224.642 448.012 224.711 447.711 224.849C439.788 228.512 431.864 232.166 423.936 235.81C423.393 236.057 422.682 236.495 422.317 235.615C421.982 234.807 422.651 234.525 423.251 234.25C431.187 230.606 439.114 226.953 447.032 223.289C447.494 223.077 447.94 222.893 448.361 223.34C448.477 223.447 448.559 223.585 448.598 223.737C448.636 223.89 448.63 224.05 448.579 224.199Z" fill="#597EF7"/>
<path d="M471.369 279.643C471.326 279.749 471.26 279.845 471.178 279.925C471.095 280.004 470.996 280.065 470.888 280.104C470.779 280.142 470.664 280.158 470.55 280.149C470.435 280.14 470.324 280.106 470.223 280.051C469.666 279.787 469.748 279.291 469.932 278.79C471.023 275.813 472.092 272.826 473.186 269.848C475.15 264.529 477.119 259.237 479.076 253.924C479.288 253.344 479.481 252.752 480.283 253.008C480.937 253.212 481.016 253.686 480.79 254.296C477.712 262.572 474.64 270.85 471.572 279.132C471.51 279.263 471.459 279.399 471.369 279.643Z" fill="#597EF7"/>
<path d="M553.372 220.498C553.219 220.398 553.108 220.244 553.061 220.066C553.014 219.889 553.035 219.7 553.119 219.537C553.365 218.888 553.807 218.858 554.404 219.077C556.918 220.015 559.446 220.891 561.954 221.823C567.707 223.959 573.448 226.132 579.207 228.245C579.902 228.5 580.449 228.771 580.159 229.538C579.869 230.305 579.236 230.024 578.669 229.812C572.868 227.672 567.064 225.536 561.258 223.404L553.372 220.498Z" fill="#597EF7"/>
<path d="M536.03 277.348C535.35 277.866 534.848 277.63 534.488 276.859C533.687 275.133 532.89 273.407 532.098 271.682L523.55 253.08C523.266 252.461 522.784 251.748 523.686 251.328C524.587 250.908 524.815 251.79 525.089 252.38C528.646 260.078 532.194 267.778 535.732 275.481C535.982 276.03 536.431 276.581 536.03 277.348Z" fill="#597EF7"/>
<path d="M476.666 148.01C476.602 148.171 476.487 148.307 476.339 148.398C476.191 148.488 476.018 148.529 475.845 148.514C475.277 148.505 475.168 148.018 474.993 147.638C473.716 144.897 472.447 142.154 471.186 139.409C468.884 134.403 466.587 129.395 464.295 124.386C464.195 124.165 464.057 123.956 463.97 123.73C463.765 123.18 463.473 122.556 464.227 122.214C464.982 121.872 465.245 122.404 465.514 122.997C466.561 125.3 467.63 127.615 468.696 129.909C471.284 135.537 473.873 141.164 476.464 146.79C476.642 147.181 476.938 147.545 476.666 148.01Z" fill="#597EF7"/>
<path d="M474.696 103.241C474.295 103.811 473.775 103.871 473.313 103.282C473.116 102.944 472.985 102.572 472.927 102.186C471.154 95.6103 469.386 89.0404 467.625 82.4762C467.548 82.1909 467.466 81.9093 467.415 81.6216C467.326 81.1221 467.492 80.742 468.003 80.6027C468.109 80.5698 468.22 80.5591 468.33 80.5713C468.44 80.5835 468.546 80.6183 468.642 80.6736C468.737 80.7288 468.821 80.8033 468.886 80.8924C468.952 80.9814 468.998 81.0831 469.022 81.1909C469.243 81.838 469.411 82.5056 469.582 83.1616C471.242 89.3569 472.901 95.5513 474.557 101.745C474.703 102.209 474.944 102.664 474.696 103.241Z" fill="#FFC069"/>
<path d="M526.375 296.2C526.766 296.405 526.851 296.793 526.954 297.173C528.776 303.982 530.598 310.789 532.42 317.594C532.588 318.221 532.793 318.9 531.875 319.127C531.016 319.338 530.926 318.64 530.776 318.089C528.931 311.236 527.092 304.383 525.258 297.528C525.128 297.042 525.029 296.554 525.541 296.214C525.664 296.131 525.808 296.085 525.956 296.082C526.104 296.08 526.25 296.12 526.375 296.2Z" fill="#FFC069"/>
<path d="M555.019 102.776L560.222 93.7639C560.538 93.2162 560.828 92.5076 561.642 92.9504C562.553 93.4426 562.051 94.0898 561.707 94.6858C558.239 100.692 554.771 106.699 551.302 112.707C550.954 113.31 550.599 114.067 549.767 113.559C548.936 113.052 549.477 112.373 549.816 111.787C551.55 108.783 553.284 105.78 555.019 102.776Z" fill="#FFC069"/>
<path d="M596.991 254.895C600.002 256.633 603.013 258.371 606.023 260.11C606.599 260.442 607.418 260.724 606.844 261.629C606.348 262.406 605.742 261.938 605.195 261.621L587.12 251.186C586.524 250.842 585.774 250.507 586.314 249.641C586.815 248.839 587.424 249.371 587.957 249.679C590.97 251.412 593.978 253.155 596.991 254.895Z" fill="#FFC069"/>
<path d="M444.879 297.038C443.166 300.005 441.451 302.976 439.732 305.953C439.388 306.549 439.057 307.299 438.186 306.731C437.403 306.222 437.917 305.615 438.223 305.078C441.701 299.054 445.179 293.031 448.655 287.009C448.964 286.474 449.23 285.725 450.067 286.153C450.988 286.627 450.509 287.281 450.162 287.882L444.879 297.038Z" fill="#FFC069"/>
<path d="M403.824 143.37L412.834 148.571C413.374 148.883 414.126 149.168 413.717 149.981C413.262 150.853 412.576 150.423 411.967 150.071L393.817 139.592C393.254 139.267 392.603 138.952 393.073 138.144C393.543 137.335 394.138 137.777 394.69 138.096L403.824 143.37Z" fill="#FFC069"/>
<path d="M596.511 174.55C595.971 174.068 596.048 173.546 596.643 173.145C596.988 172.958 597.362 172.83 597.749 172.765C604.229 171.024 610.707 169.287 617.186 167.552C617.469 167.478 617.752 167.401 618.039 167.339C618.645 167.206 619.135 167.34 619.266 168.02C619.396 168.7 618.936 168.868 618.432 169.006L613.745 170.236C608.494 171.64 603.243 173.042 597.992 174.444C597.541 174.584 597.058 174.832 596.511 174.55Z" fill="#FFC069"/>
<path d="M403.692 226.222C403.501 226.641 403.096 226.696 402.72 226.794C395.863 228.634 389.008 230.473 382.152 232.312C381.578 232.466 380.943 232.683 380.732 231.831C380.542 231.042 381.095 230.808 381.704 230.647L402.271 225.13C402.766 224.997 403.248 224.926 403.606 225.394C403.702 225.508 403.761 225.647 403.776 225.795C403.791 225.942 403.762 226.091 403.692 226.222Z" fill="#FFC069"/>
<path d="M418.773 202.142C418.375 202.591 417.961 202.59 417.507 202.6C411.04 202.738 404.57 202.888 398.097 203.049C397.453 203.064 396.709 203.141 396.678 202.23C396.647 201.319 397.417 201.373 398.047 201.359C404.519 201.208 410.991 201.06 417.462 200.913C417.928 200.9 418.493 200.758 418.713 201.37C418.771 201.623 418.791 201.883 418.773 202.142Z" fill="#597EF7"/>
<path d="M439.885 143.647L429.12 133.356C427.925 132.215 426.723 131.072 425.531 129.926C425.139 129.546 424.682 129.096 425.166 128.557C425.651 128.018 426.173 128.214 426.675 128.698C431.457 133.286 436.247 137.863 441.046 142.429C441.484 142.848 441.782 143.295 441.281 143.787C440.92 144.153 440.418 144.253 439.885 143.647Z" fill="#597EF7"/>
<path d="M502.296 281.076C502.66 281.388 502.698 281.821 502.709 282.262C502.858 288.785 503.01 295.307 503.166 301.83C503.18 302.517 503.135 303.17 502.231 303.148C501.327 303.125 501.489 302.38 501.475 301.835C501.31 295.314 501.173 288.793 501.002 282.271C500.976 281.316 501.291 280.893 502.296 281.076Z" fill="#597EF7"/>
<path d="M573.153 270.944L567.967 265.973C565.011 263.146 562.064 260.314 559.098 257.494C558.62 257.038 558.029 256.574 558.643 255.927C559.23 255.318 559.75 255.775 560.252 256.259C564.891 260.706 569.551 265.135 574.198 269.574C574.649 270.005 575.252 270.455 574.749 271.173C574.428 271.677 573.926 271.546 573.153 270.944Z" fill="#597EF7"/>
<path d="M498.885 118.291C498.797 118.428 498.673 118.538 498.527 118.611C498.382 118.683 498.219 118.715 498.056 118.702C497.883 118.711 497.713 118.656 497.577 118.548C497.441 118.441 497.349 118.287 497.318 118.117C497.26 117.781 497.229 117.442 497.225 117.102C497.076 110.823 496.928 104.547 496.783 98.2728C496.753 97.9371 496.759 97.5991 496.801 97.2646C496.821 97.0666 496.914 96.8832 497.062 96.7511C497.211 96.6191 497.404 96.5481 497.603 96.5524C497.701 96.5427 497.8 96.5531 497.894 96.583C497.988 96.6129 498.074 96.6615 498.149 96.7261C498.223 96.7906 498.283 96.8696 498.326 96.9583C498.369 97.047 498.393 97.1434 498.397 97.2418C498.458 97.7725 498.488 98.3133 498.495 98.8368C498.639 104.917 498.778 110.998 498.913 117.078C498.942 117.509 498.899 117.943 498.885 118.291Z" fill="#597EF7"/>
<path d="M428.857 273.076C430.351 271.524 432.142 269.664 433.937 267.807C436.766 264.855 439.602 261.908 442.413 258.939C442.847 258.48 443.298 257.993 443.874 258.513C444.451 259.032 444.146 259.559 443.632 260.108C439.145 264.775 434.696 269.481 430.221 274.162C429.839 274.563 429.41 275.154 428.739 274.705C428.242 274.378 428.236 273.882 428.857 273.076Z" fill="#597EF7"/>
<path d="M581.561 198.803C581.41 198.696 581.292 198.55 581.217 198.381C581.143 198.212 581.117 198.026 581.14 197.843C581.161 197.325 581.561 197.19 581.944 197.156C582.721 197.088 583.502 197.088 584.281 197.069C590.019 196.933 595.763 196.806 601.513 196.686C601.898 196.661 602.285 196.679 602.666 196.741C602.862 196.777 603.036 196.887 603.153 197.049C603.269 197.21 603.318 197.41 603.29 197.607C603.293 197.781 603.229 197.949 603.112 198.077C602.994 198.205 602.832 198.283 602.659 198.296C602.275 198.353 601.887 198.386 601.499 198.393C595.219 198.537 588.937 198.677 582.653 198.812C582.267 198.82 581.882 198.805 581.561 198.803Z" fill="#597EF7"/>
<path d="M571.102 126.632C569.577 128.22 567.822 130.043 566.067 131.876C563.24 134.825 560.405 137.776 557.599 140.737C557.135 141.224 556.663 141.77 556.046 141.162C555.429 140.555 555.892 140.082 556.389 139.567C560.837 134.935 565.251 130.27 569.69 125.63C570.106 125.191 570.554 124.539 571.28 125.081C571.76 125.432 571.631 125.932 571.102 126.632Z" fill="#597EF7"/>
<path d="M407.983 243.055C407.767 243.206 407.542 243.342 407.309 243.464C403.633 245.149 399.962 246.843 396.307 248.526C395.713 248.802 395.173 248.966 394.838 248.235C394.502 247.505 395.085 247.22 395.623 246.963C399.291 245.277 402.959 243.59 406.628 241.902C407.063 241.702 407.535 241.407 407.955 241.898C408.098 242.055 408.18 242.258 408.185 242.471C408.191 242.684 408.119 242.891 407.983 243.055Z" fill="#597EF7"/>
<path d="M458.111 107.631C458.039 107.754 457.938 107.858 457.818 107.934C457.697 108.01 457.56 108.055 457.418 108.067C457.22 108.075 457.024 108.021 456.859 107.91C456.694 107.8 456.569 107.64 456.502 107.453C455.99 106.346 455.486 105.236 454.974 104.129C453.767 101.513 452.565 98.89 451.346 96.2948C451.043 95.6441 450.875 95.041 451.668 94.7078C452.462 94.3746 452.665 95.0628 452.908 95.59C454.587 99.2222 456.264 102.856 457.937 106.491C458.086 106.856 458.254 107.201 458.111 107.631Z" fill="#597EF7"/>
<path d="M543.165 291.766C543.317 292.05 543.494 292.343 543.639 292.651C545.292 296.231 546.941 299.811 548.588 303.391C548.867 303.99 549.168 304.615 548.34 304.997C547.556 305.349 547.34 304.711 547.093 304.175C545.401 300.508 543.713 296.841 542.026 293.173C541.821 292.746 541.487 292.261 542.056 291.863C542.21 291.738 542.398 291.661 542.596 291.644C542.793 291.627 542.992 291.669 543.165 291.766Z" fill="#597EF7"/>
<path d="M605.201 152.241C604.901 152.408 604.619 152.585 604.306 152.744C600.669 154.42 597.036 156.098 593.408 157.778C592.812 158.052 592.152 158.343 591.807 157.492C591.502 156.732 592.142 156.483 592.679 156.236L603.593 151.208C604.057 150.993 604.494 150.824 604.936 151.236C605.247 151.521 605.166 151.861 605.201 152.241Z" fill="#597EF7"/>
<path d="M595.571 236.079C595.007 235.832 594.618 235.529 594.82 234.933C595.057 234.241 595.652 234.286 596.165 234.473C600.061 235.89 603.945 237.334 607.827 238.781C608.307 238.96 608.721 239.243 608.551 239.879C608.387 240.463 607.969 240.687 607.427 240.486C603.443 239.004 599.466 237.527 595.571 236.079Z" fill="#597EF7"/>
<path d="M404.303 163.605C404.849 163.835 405.332 164.141 405.131 164.789C404.883 165.583 404.2 165.39 403.656 165.191C399.763 163.777 395.875 162.347 391.993 160.903C391.456 160.704 391.21 160.312 391.452 159.752C391.694 159.192 392.079 159.095 392.649 159.302C396.529 160.747 400.416 162.173 404.303 163.605Z" fill="#597EF7"/>
<path d="M463.64 295.748C464.023 294.914 464.337 294.453 464.999 294.77C465.725 295.132 465.459 295.786 465.263 296.319C464.006 299.75 462.717 303.17 461.441 306.593C461.306 306.956 461.195 307.33 461.066 307.701C460.871 308.268 460.532 308.666 459.866 308.408C459.201 308.149 459.225 307.671 459.445 307.084C460.457 304.391 461.441 301.692 462.434 298.995C462.886 297.813 463.318 296.618 463.64 295.748Z" fill="#597EF7"/>
<path d="M536.079 104.474C535.892 104.951 535.492 105.249 534.96 104.99C534.258 104.646 534.451 104.017 534.656 103.456C535.495 101.169 536.359 98.8895 537.205 96.6066C537.763 95.0984 538.307 93.5854 538.86 92.0743C539.065 91.5134 539.376 91.088 540.05 91.3248C540.614 91.5247 540.75 91.9835 540.552 92.5145C539.117 96.3999 537.677 100.283 536.231 104.164C536.201 104.246 536.148 104.331 536.079 104.474Z" fill="#597EF7"/>
<path d="M550.62 148.055C548.866 149.916 546.986 151.89 545.108 153.866C544.336 154.68 543.548 155.475 542.786 156.295C542.359 156.751 541.925 157.197 541.305 156.683C540.685 156.168 541.043 155.607 541.459 155.169C544.076 152.416 546.703 149.673 549.341 146.94C549.74 146.525 550.198 146.249 550.732 146.748C551.155 147.121 551.018 147.517 550.62 148.055Z" fill="#597EF7"/>
<path d="M449.31 251.686L454.882 245.794C455.685 244.95 456.479 244.098 457.302 243.272C457.695 242.881 458.191 242.556 458.696 243.058C459.201 243.56 458.951 244.051 458.554 244.481C455.902 247.251 453.246 250.02 450.587 252.786C450.192 253.2 449.731 253.504 449.201 253.005C448.811 252.651 448.886 252.232 449.31 251.686Z" fill="#597EF7"/>
<path d="M573.379 198.552C573.286 198.713 573.149 198.844 572.984 198.929C572.819 199.015 572.633 199.051 572.448 199.033C568.549 199.121 564.655 199.215 560.768 199.317C560.102 199.336 559.747 199.05 559.73 198.398C559.712 197.746 560.212 197.633 560.728 197.616C564.623 197.517 568.518 197.422 572.412 197.331C573.326 197.326 573.629 197.765 573.379 198.552Z" fill="#597EF7"/>
<path d="M440.139 201.734C440.002 201.867 439.838 201.969 439.659 202.033C439.479 202.097 439.287 202.121 439.097 202.104C435.31 202.182 431.519 202.267 427.725 202.361C427.07 202.377 426.499 202.278 426.508 201.492C426.514 200.793 427.083 200.673 427.664 200.665C431.503 200.576 435.343 200.477 439.182 200.411C440 200.394 440.508 201.132 440.139 201.734Z" fill="#597EF7"/>
<path d="M455.57 158.648C452.619 155.807 449.791 153.077 446.951 150.36C446.513 149.941 446.451 149.525 446.849 149.089C447.247 148.653 447.703 148.787 448.105 149.172C450.958 151.879 453.819 154.57 456.661 157.294C457.025 157.64 457.197 158.13 456.751 158.579C456.681 158.665 456.593 158.735 456.494 158.786C456.395 158.836 456.287 158.865 456.176 158.872C456.065 158.878 455.954 158.862 455.85 158.823C455.745 158.785 455.65 158.725 455.57 158.648Z" fill="#597EF7"/>
<path d="M502.426 272.815C502.351 272.989 502.223 273.134 502.06 273.229C501.897 273.325 501.707 273.365 501.519 273.344C501.37 273.34 501.227 273.286 501.113 273.19C500.999 273.095 500.92 272.963 500.889 272.818C500.821 272.436 500.782 272.049 500.773 271.66C500.685 268.111 500.603 264.561 500.527 261.011C500.512 260.371 500.381 259.663 501.333 259.615C502.284 259.566 502.2 260.36 502.215 260.956C502.316 264.652 502.39 268.349 502.467 272.044C502.47 272.328 502.437 272.614 502.426 272.815Z" fill="#597EF7"/>
<path d="M551.773 250.504L548.095 247.022C546.576 245.578 545.057 244.136 543.54 242.694C543.101 242.277 542.617 241.821 543.132 241.205C543.648 240.589 544.218 240.959 544.656 241.372C547.415 243.986 550.163 246.612 552.9 249.252C553.306 249.643 553.597 250.12 553.105 250.661C552.715 251.048 552.321 250.902 551.773 250.504Z" fill="#597EF7"/>
<path d="M498.594 126.429C499.158 126.71 499.155 127.181 499.167 127.612C499.266 131.405 499.36 135.2 499.447 138.998C499.462 139.608 499.326 140.055 498.609 140.103C497.809 140.158 497.763 139.615 497.754 139.049C497.645 135.155 497.533 131.26 497.455 127.367C497.437 126.579 497.846 126.194 498.594 126.429Z" fill="#597EF7"/>
<path d="M545.198 264.215C544.439 264.941 543.95 264.612 543.477 263.955C542.014 261.885 540.546 259.817 539.074 257.752L521.377 232.832C521.292 232.715 521.212 232.595 521.125 232.476C520.728 231.951 520.531 231.393 521.182 230.964C521.781 230.569 522.161 230.993 522.497 231.469C524.046 233.657 525.614 235.835 527.164 238.021C533.006 246.248 538.845 254.477 544.682 262.708C545.014 263.175 545.458 263.618 545.198 264.215Z" fill="#FFA940"/>
<path d="M421.814 187.823C421.396 187.582 421.196 187.276 421.329 186.833C421.353 186.725 421.4 186.623 421.465 186.533C421.531 186.443 421.614 186.368 421.71 186.312C421.806 186.256 421.913 186.221 422.023 186.208C422.134 186.196 422.245 186.206 422.352 186.238C423.593 186.442 424.848 186.62 426.103 186.835L460.086 192.592C460.326 192.636 460.563 192.701 460.803 192.727C461.415 192.796 461.88 193.05 461.757 193.74C461.634 194.43 461.114 194.524 460.515 194.419C457.874 193.964 455.239 193.506 452.596 193.06C442.752 191.395 432.91 189.735 423.069 188.079C422.632 188 422.203 187.902 421.814 187.823Z" fill="#FFA940"/>
<path d="M477.488 168.899C476.775 169.615 476.278 169.365 475.751 168.613C473.825 165.861 471.852 163.142 469.908 160.403C464.531 152.823 459.151 145.237 453.768 137.646C453.599 137.41 453.418 137.176 453.266 136.928C452.978 136.474 452.849 136.009 453.439 135.694C453.93 135.431 454.312 135.464 454.678 135.995C456.029 137.96 457.43 139.893 458.812 141.835C464.852 150.326 470.891 158.817 476.93 167.307C477.254 167.762 477.731 168.201 477.488 168.899Z" fill="#FFA940"/>
<path d="M468.254 223.044C468.048 223.207 467.785 223.425 467.504 223.63C457.313 230.878 447.118 238.124 436.92 245.368C436.651 245.552 436.358 245.753 436.072 245.938C435.634 246.225 435.194 246.429 434.81 245.865C434.426 245.3 434.585 244.906 435.134 244.527C436.891 243.307 438.625 242.046 440.372 240.806L466.096 222.535C466.452 222.282 466.81 222.027 467.181 221.803C467.349 221.695 467.553 221.659 467.748 221.703C467.942 221.746 468.112 221.864 468.22 222.032C468.34 222.172 468.409 222.348 468.415 222.532C468.421 222.716 468.364 222.897 468.254 223.044Z" fill="#FFA940"/>
<path d="M512.49 122.267C513.269 122.682 513.021 123.306 512.928 123.861C512.053 129.052 511.173 134.239 510.288 139.423C509.072 146.579 507.859 153.737 506.649 160.895C506.593 161.132 506.549 161.372 506.519 161.614C506.48 162.271 506.27 162.829 505.476 162.656C504.683 162.483 504.76 161.903 504.871 161.264C505.372 158.384 505.823 155.497 506.311 152.616C507.946 142.957 509.586 133.301 511.232 123.646C511.356 122.926 511.288 121.949 512.49 122.267Z" fill="#FFA940"/>
<path d="M530.317 178.389C529.692 177.76 529.814 177.253 530.535 176.745C533.046 174.985 535.538 173.198 538.027 171.416C545.925 165.807 553.822 160.2 561.719 154.593C562.189 154.26 562.702 153.649 563.252 154.055C564.063 154.649 563.714 155.273 562.987 155.784C559.605 158.164 556.23 160.556 552.863 162.96C545.919 167.894 538.974 172.827 532.028 177.76C531.545 178.113 531.088 178.647 530.317 178.389Z" fill="#FFA940"/>
<path d="M576.964 213.466C576.503 214.263 575.83 213.912 575.253 213.816C569.533 212.866 563.815 211.903 558.1 210.926C551.368 209.783 544.642 208.643 537.922 207.505C537.301 207.405 536.376 207.455 536.599 206.402C536.808 205.405 537.639 205.719 538.287 205.831C550.775 207.931 563.266 210.038 575.759 212.152C576.472 212.282 577.304 212.365 576.964 213.466Z" fill="#FFA940"/>
<path d="M486.915 277.428C486.84 277.614 486.702 277.766 486.524 277.858C486.346 277.95 486.141 277.975 485.947 277.929C485.848 277.921 485.751 277.893 485.663 277.847C485.575 277.8 485.498 277.736 485.436 277.659C485.374 277.581 485.328 277.491 485.302 277.396C485.276 277.3 485.269 277.199 485.284 277.101C485.358 276.424 485.487 275.755 485.6 275.083C487.623 263.119 489.644 251.164 491.662 239.218C491.71 238.929 491.757 238.641 491.8 238.35C491.881 237.802 492.133 237.391 492.748 237.484C493.363 237.578 493.594 238.048 493.485 238.677C493.128 240.735 492.775 242.796 492.426 244.859L487.086 276.426C487.034 276.757 486.972 277.094 486.915 277.428Z" fill="#FFA940"/>
<path d="M514.488 114.706C514.216 115.354 513.926 115.543 513.464 115.473C513.353 115.466 513.244 115.434 513.147 115.379C513.05 115.325 512.966 115.249 512.902 115.157C512.838 115.066 512.796 114.961 512.777 114.851C512.759 114.741 512.766 114.629 512.798 114.521C513.202 111.927 513.632 109.336 514.089 106.749C514.103 106.638 514.14 106.532 514.198 106.436C514.257 106.341 514.335 106.259 514.428 106.197C514.52 106.135 514.625 106.093 514.736 106.075C514.846 106.056 514.959 106.062 515.067 106.091C515.528 106.164 515.816 106.459 515.75 106.89C515.337 109.582 514.885 112.266 514.488 114.706Z" fill="#FFD591"/>
<path d="M414.522 186.041C414.275 186.469 413.835 186.514 413.386 186.438C410.907 186.026 408.422 185.589 405.938 185.174C405.343 185.075 405.083 184.755 405.164 184.16C405.174 184.049 405.208 183.941 405.263 183.844C405.318 183.747 405.394 183.663 405.484 183.597C405.574 183.532 405.678 183.486 405.787 183.464C405.896 183.442 406.009 183.443 406.118 183.468C408.697 183.883 411.271 184.327 413.84 184.798C414.489 184.928 414.716 185.399 414.522 186.041Z" fill="#FFD591"/>
<path d="M483.852 285.428C484.113 284.794 484.396 284.574 484.845 284.643C485.413 284.713 485.586 285.125 485.516 285.587C485.102 288.221 484.669 290.852 484.216 293.48C484.204 293.578 484.171 293.673 484.121 293.758C484.07 293.843 484.002 293.917 483.921 293.975C483.84 294.032 483.749 294.072 483.651 294.092C483.554 294.112 483.454 294.112 483.357 294.091C482.884 294.028 482.477 293.763 482.56 293.23C482.982 290.546 483.442 287.874 483.852 285.428Z" fill="#FFD591"/>
<path d="M576.989 145.78C576.885 145.86 576.775 145.956 576.657 146.037C574.559 147.542 572.48 149.032 570.373 150.509C569.964 150.795 569.474 150.978 569.092 150.428C568.741 149.92 568.951 149.46 569.372 149.156C571.451 147.64 573.543 146.15 575.647 144.686C575.734 144.617 575.833 144.565 575.94 144.533C576.046 144.502 576.158 144.492 576.268 144.504C576.379 144.516 576.486 144.55 576.583 144.603C576.681 144.657 576.766 144.729 576.836 144.816C576.954 144.944 577.031 145.103 577.058 145.275C577.085 145.447 577.061 145.622 576.989 145.78Z" fill="#FFD591"/>
<path d="M421.553 255.415C421.113 255.002 421.052 254.518 421.701 254.071C423.755 252.608 425.799 251.132 427.864 249.689C428.323 249.366 428.88 249.196 429.259 249.815C429.638 250.435 429.236 250.797 428.765 251.13C426.784 252.526 424.799 253.934 422.84 255.34C422.458 255.612 422.105 255.806 421.553 255.415Z" fill="#FFD591"/>
<path d="M583.926 215.136C583.728 215.049 583.671 214.649 583.75 214.264C583.877 213.709 584.376 213.657 584.799 213.718C586.052 213.901 587.278 214.13 588.512 214.346C589.799 214.563 591.091 214.749 592.378 214.986C592.912 215.084 593.268 215.402 593.138 216.022C593.123 216.132 593.084 216.237 593.026 216.331C592.967 216.425 592.889 216.506 592.797 216.567C592.705 216.629 592.601 216.671 592.491 216.689C592.382 216.708 592.27 216.703 592.163 216.675C589.586 216.249 587.007 215.814 584.426 215.37C584.253 215.305 584.086 215.227 583.926 215.136Z" fill="#FFD591"/>
<path d="M554.593 277.566C554.195 278.015 553.724 278.307 553.213 277.604C551.689 275.479 550.178 273.345 548.681 271.201C548.396 270.799 548.363 270.339 548.775 270.026C549.247 269.667 549.742 269.834 550.058 270.268C551.574 272.349 553.045 274.441 554.534 276.533C554.649 276.678 554.717 276.856 554.727 277.04C554.738 277.225 554.691 277.409 554.593 277.566Z" fill="#FFD591"/>
<path d="M444.953 122.366C445.047 122.492 445.195 122.682 445.336 122.879L449.369 128.577C449.703 129.051 450.198 129.571 449.56 130.093C448.923 130.615 448.44 130.18 448.033 129.591C446.675 127.643 445.294 125.711 443.911 123.789C443.59 123.345 443.439 122.925 443.845 122.487C443.909 122.405 443.989 122.337 444.079 122.286C444.17 122.236 444.27 122.204 444.374 122.193C444.477 122.182 444.581 122.191 444.681 122.221C444.781 122.251 444.873 122.3 444.953 122.366Z" fill="#FFD591"/>
</svg>
