<svg width="68" height="1024" viewBox="0 0 68 1024" fill="none" xmlns="http://www.w3.org/2000/svg">
<path fill-rule="evenodd" clip-rule="evenodd" d="M17.0747 33.0322L33.5908 16.5161L17.0747 -3.19615e-05L0.558592 16.5161L17.0747 33.0322Z" fill="#85A5FF"/>
<path fill-rule="evenodd" clip-rule="evenodd" d="M57.5386 218.013L67.4483 208.103L57.5386 198.194L47.6289 208.103L57.5386 218.013Z" fill="#597EF7"/>
<path fill-rule="evenodd" clip-rule="evenodd" d="M57.5386 587.974L67.4483 578.064L57.5386 568.155L47.6289 578.064L57.5386 587.974Z" fill="#597EF7"/>
<path fill-rule="evenodd" clip-rule="evenodd" d="M57.5386 957.935L67.4483 948.026L57.5386 938.116L47.6289 948.026L57.5386 957.935Z" fill="#597EF7"/>
<path fill-rule="evenodd" clip-rule="evenodd" d="M17.0747 165.161L33.5908 148.645L17.0747 132.129L0.558592 148.645L17.0747 165.161Z" fill="#FFC069"/>
<path fill-rule="evenodd" clip-rule="evenodd" d="M17.0747 772.954L33.5908 756.438L17.0747 739.922L0.558592 756.438L17.0747 772.954Z" fill="#85A5FF"/>
<path fill-rule="evenodd" clip-rule="evenodd" d="M17.0747 402.993L33.5908 386.477L17.0747 369.961L0.558592 386.477L17.0747 402.993Z" fill="#85A5FF"/>
<path fill-rule="evenodd" clip-rule="evenodd" d="M17.0747 535.122L33.5908 518.606L17.0747 502.09L0.558592 518.606L17.0747 535.122Z" fill="#FFC069"/>
<path fill-rule="evenodd" clip-rule="evenodd" d="M17.0747 905.084L33.5908 888.568L17.0747 872.052L0.558592 888.568L17.0747 905.084Z" fill="#FFC069"/>
<path fill-rule="evenodd" clip-rule="evenodd" d="M17.0747 621.007C26.1963 621.007 33.5908 628.401 33.5908 637.523C33.5909 646.644 26.1963 654.039 17.0747 654.039C7.95312 654.039 0.558593 646.644 0.558592 637.523C0.558592 628.401 7.95311 621.007 17.0747 621.007Z" fill="#FFE7BA"/>
<path fill-rule="evenodd" clip-rule="evenodd" d="M17.0747 990.968C26.1963 990.968 33.5908 998.362 33.5908 1007.48C33.5909 1016.61 26.1963 1024 17.0747 1024C7.95312 1024 0.558593 1016.61 0.558592 1007.48C0.558592 998.362 7.95311 990.968 17.0747 990.968Z" fill="#FFE7BA"/>
<path fill-rule="evenodd" clip-rule="evenodd" d="M17.0747 251.045C26.1963 251.045 33.5908 258.44 33.5908 267.561C33.5909 276.683 26.1963 284.077 17.0747 284.077C7.95312 284.077 0.558593 276.683 0.558592 267.561C0.558592 258.44 7.95311 251.045 17.0747 251.045Z" fill="#FFE7BA"/>
<path fill-rule="evenodd" clip-rule="evenodd" d="M50.9321 436.026C60.0537 436.026 67.4483 443.42 67.4483 452.542C67.4483 461.663 60.0537 469.058 50.9321 469.058C41.8105 469.058 34.416 461.663 34.416 452.542C34.416 443.42 41.8105 436.026 50.9321 436.026Z" fill="#D6E4FF"/>
<path fill-rule="evenodd" clip-rule="evenodd" d="M50.9321 66.0647C60.0537 66.0647 67.4483 73.4592 67.4483 82.5808C67.4483 91.7024 60.0537 99.0969 50.9321 99.0969C41.8105 99.0969 34.416 91.7024 34.416 82.5808C34.416 73.4592 41.8105 66.0647 50.9321 66.0647Z" fill="#D6E4FF"/>
<path fill-rule="evenodd" clip-rule="evenodd" d="M50.9321 805.987C60.0537 805.987 67.4483 813.382 67.4483 822.503C67.4483 831.625 60.0537 839.019 50.9321 839.019C41.8105 839.019 34.416 831.625 34.416 822.503C34.416 813.382 41.8105 805.987 50.9321 805.987Z" fill="#D6E4FF"/>
<path fill-rule="evenodd" clip-rule="evenodd" d="M57.5386 687.071C63.0115 687.071 67.4483 691.507 67.4483 696.98C67.4483 702.453 63.0115 706.89 57.5386 706.89C52.0656 706.89 47.6289 702.453 47.6289 696.98C47.6289 691.507 52.0656 687.071 57.5386 687.071Z" fill="#FFA940"/>
<path fill-rule="evenodd" clip-rule="evenodd" d="M57.5386 317.109C63.0115 317.109 67.4483 321.546 67.4483 327.019C67.4483 332.492 63.0115 336.929 57.5386 336.929C52.0656 336.929 47.6289 332.492 47.6289 327.019C47.6289 321.546 52.0656 317.109 57.5386 317.109Z" fill="#FFA940"/>
</svg>
