<svg width="320" height="214" viewBox="0 0 320 214" fill="none" xmlns="http://www.w3.org/2000/svg">
<path d="M-4.82862 130.662C-4.46627 130.644 -4.29125 130.909 -4.09361 131.146L6.24168 143.499C10.3003 148.349 14.3562 153.201 18.4093 158.055C18.5843 158.261 18.747 158.487 18.9281 158.691C19.2884 159.103 19.4676 159.514 18.9281 159.906C18.4402 160.274 18.1046 159.988 17.804 159.617C16.7746 158.382 15.7452 157.147 14.7158 155.912L-1.60244 136.396C-2.83773 134.926 -4.06617 133.457 -5.28773 131.99C-5.51009 131.724 -5.74273 131.43 -5.49362 131.076C-5.34126 130.858 -5.15803 130.625 -4.82862 130.662Z" fill="#ADC6FF"/>
<path d="M41.079 96.2455C41.5958 96.159 42.0096 96.3093 42.0899 96.8487C42.1702 97.3881 41.7481 97.6208 41.2664 97.7052C36.0507 98.6111 30.8391 99.5149 25.6317 100.417C19.1423 101.544 12.6556 102.674 6.1717 103.808C6.00287 103.836 5.83815 103.878 5.66933 103.904C5.56902 103.931 5.46404 103.936 5.36161 103.919C5.25918 103.902 5.16176 103.862 5.07604 103.803C4.99032 103.745 4.91835 103.668 4.8651 103.579C4.81185 103.49 4.77856 103.39 4.76756 103.287C4.68933 102.817 4.97345 102.552 5.46963 102.463C7.75698 102.068 10.0402 101.64 12.3276 101.248C18.8499 100.111 25.3736 98.9755 31.8987 97.8431L41.079 96.2455Z" fill="#ADC6FF"/>
<path d="M31.7073 43.4699C31.6805 43.8632 31.3284 44.1329 31.0732 44.4355C28.2498 47.7832 25.4183 51.1226 22.5785 54.4537L10.4314 68.7749C9.78905 69.5326 9.13436 70.2779 8.49406 71.0396C8.16259 71.4308 7.80846 71.7829 7.29582 71.3608C6.72552 70.8914 7.08993 70.4467 7.4214 70.0452C9.03964 68.1408 10.6682 66.2487 12.2823 64.3443C17.1054 58.6537 21.9265 52.9625 26.7455 47.2705C27.919 45.887 29.0864 44.4993 30.2641 43.1199C30.5049 42.8379 30.752 42.5023 31.2029 42.7082C31.3556 42.7671 31.4863 42.872 31.5767 43.0085C31.667 43.145 31.7127 43.3063 31.7073 43.4699Z" fill="#ADC6FF"/>
<path d="M5.30699 188.353C5.35846 188.901 5.10109 189.177 4.70374 189.255C4.24462 189.35 4.02227 189.018 3.88021 188.637C3.39845 187.326 2.92285 186.013 2.45343 184.697C-1.02461 174.979 -4.50126 165.26 -7.97655 155.54C-8.02059 155.375 -8.07563 155.213 -8.14127 155.056C-8.4048 154.531 -8.19068 154.179 -7.70686 153.998C-7.22303 153.816 -6.94714 154.131 -6.79067 154.562C-6.1538 156.323 -5.51831 158.084 -4.88419 159.847C-1.5736 169.085 1.73561 178.323 5.04345 187.558C5.15051 187.853 5.23905 188.147 5.30699 188.353Z" fill="#ADC6FF"/>
<path d="M24.6744 116.47L29.7061 117.39L54.0002 121.808C55.7811 122.131 57.5579 122.473 59.3408 122.788C59.8967 122.887 60.5576 122.93 60.4073 123.696C60.2446 124.52 59.5487 124.299 58.9805 124.196C54.2109 123.334 49.4406 122.468 44.6696 121.596C37.951 120.369 31.2338 119.143 24.5179 117.917C24.0341 117.828 23.6305 117.701 23.6408 117.126C23.6449 116.603 23.9805 116.424 24.6744 116.47Z" fill="#ADC6FF"/>
<path d="M33.6899 75.5303C33.5932 76.0388 33.1526 76.1994 32.7758 76.4176L20.357 83.5926C16.8694 85.6061 13.3831 87.6231 9.89817 89.6435C9.42052 89.9214 8.98198 90.0553 8.6814 89.4973C8.38081 88.9394 8.69994 88.6306 9.1817 88.3547C16.8748 83.9268 24.5652 79.4935 32.2529 75.0547C32.5596 74.8776 32.8561 74.5647 33.2823 74.8488C33.3951 74.9265 33.4899 75.0276 33.5603 75.1452C33.6306 75.2627 33.6748 75.3941 33.6899 75.5303Z" fill="#ADC6FF"/>
<path d="M33.6858 141.311C33.6735 141.443 33.6313 141.569 33.5625 141.682C33.4936 141.794 33.3998 141.889 33.2884 141.96C32.9343 142.19 32.6379 142.007 32.3414 141.836C30.4761 140.766 28.6122 139.694 26.7496 138.622C21.0728 135.348 15.3987 132.071 9.7273 128.792C9.46171 128.639 9.192 128.489 8.93053 128.328C8.84634 128.284 8.77227 128.222 8.71297 128.147C8.65366 128.072 8.61038 127.986 8.58585 127.894C8.56131 127.802 8.55605 127.706 8.57037 127.612C8.58468 127.517 8.61828 127.427 8.66906 127.346C8.86259 126.957 9.21671 126.848 9.62436 127.046C9.80759 127.136 9.97434 127.252 10.1514 127.359L32.8479 140.461C33.1917 140.663 33.6179 140.792 33.6858 141.311Z" fill="#ADC6FF"/>
<path d="M56.9423 154.745C56.9588 155.393 56.2958 155.665 55.5979 155.266C53.082 153.824 50.5723 152.363 48.0585 150.911C47.1423 150.382 46.22 149.863 45.3058 149.33C44.8611 149.071 44.4823 148.741 44.8611 148.181C45.1802 147.697 45.5858 147.806 46.0202 148.058C49.4516 150.042 52.883 152.023 56.3143 153.999C56.6067 154.168 56.9299 154.333 56.9423 154.745Z" fill="#ADC6FF"/>
<path d="M56.9464 62.1268C56.9609 62.4356 56.6624 62.6312 56.368 62.8001C52.9132 64.8012 49.4558 66.7976 45.9956 68.7892C45.5591 69.0404 45.1329 69.1145 44.8385 68.6265C44.5441 68.1386 44.7994 67.803 45.2503 67.5457C48.7379 65.5342 52.2194 63.5124 55.7132 61.5112C56.3062 61.1674 56.895 61.4433 56.9464 62.1268Z" fill="#ADC6FF"/>
<path d="M-5.53684 87.2509C-5.67352 87.2643 -5.81112 87.2373 -5.93262 87.1733C-6.05411 87.1092 -6.15418 87.011 -6.22038 86.8906C-6.48185 86.5283 -6.29656 86.2544 -6.06597 85.9786C-5.00979 84.7227 -3.95979 83.4586 -2.89744 82.2068C-1.50155 80.5597 -0.0892024 78.9353 1.29639 77.2821C1.6608 76.8477 2.04582 76.473 2.57699 76.8971C3.13905 77.3459 2.77052 77.803 2.42258 78.2127C-0.0109482 81.0827 -2.44449 83.9541 -4.87802 86.8268C-5.05096 87.0306 -5.2136 87.2715 -5.53684 87.2509Z" fill="#ADC6FF"/>
<path d="M15.5435 116.284C13.062 115.84 10.5818 115.393 8.10294 114.946C6.79764 114.709 5.49647 114.44 4.19118 114.219C3.64971 114.129 3.22147 113.927 3.33676 113.328C3.45206 112.729 3.96883 112.69 4.47942 112.782C8.23333 113.462 11.9859 114.144 15.737 114.829C16.2291 114.919 16.5791 115.15 16.4762 115.718C16.3794 116.233 16.0109 116.348 15.5435 116.284Z" fill="#ADC6FF"/>
<path d="M4.8911 31.248C4.8664 31.32 4.80051 31.5115 4.73051 31.7009L2.24756 38.5135C2.0705 38.9994 1.91815 39.5759 1.21815 39.3577C0.44815 39.1168 0.682873 38.5341 0.876402 38.0133C1.73562 35.6799 2.59415 33.3466 3.45199 31.0133C3.6064 30.6015 3.81844 30.2536 4.33315 30.3956C4.68726 30.48 4.95287 30.69 4.8911 31.248Z" fill="#ADC6FF"/>
<path d="M49.2691 96.2935C48.672 96.3326 48.3488 96.2112 48.2952 95.7273C48.2417 95.2435 48.4496 94.9512 48.9458 94.8667C51.5317 94.42 54.1176 93.9773 56.6993 93.5162C57.1832 93.4297 57.5229 93.5491 57.6464 94.0329C57.7988 94.6135 57.4405 94.8565 56.9484 94.9367C55.1717 95.262 53.3949 95.575 51.6161 95.8879C50.7782 96.0362 49.9382 96.1782 49.2691 96.2935Z" fill="#ADC6FF"/>
<path d="M29.3849 171.394C29.4046 171.558 29.3674 171.723 29.2797 171.863C29.192 172.002 29.0591 172.107 28.9032 172.16C28.5717 172.302 28.3143 172.146 28.0982 171.888C27.1491 170.764 26.1938 169.646 25.2488 168.522C24.522 167.658 23.8076 166.787 23.0849 165.918C22.7782 165.547 22.562 165.123 22.9943 164.742C23.4596 164.331 23.8529 164.578 24.2049 165.002C25.8273 166.945 27.462 168.874 29.0905 170.812C29.2562 170.964 29.3609 171.171 29.3849 171.394Z" fill="#ADC6FF"/>
<path d="M121.387 21.1049C121.257 21.1126 121.128 21.0781 121.02 21.0066C120.911 20.9351 120.829 20.8304 120.785 20.7082C120.63 20.2984 120.822 20.0134 121.109 19.7302C122.389 18.4673 123.654 17.1895 124.924 15.9191L141.502 -0.659357C141.858 -1.01514 142.227 -1.45475 142.743 -0.961121C143.302 -0.420925 142.842 -0.02976 142.462 0.353965C135.711 7.10331 128.961 13.852 122.21 20.6002C121.962 20.8349 121.763 21.1403 121.387 21.1049Z" fill="#597EF7"/>
<path d="M62.7158 79.8063C62.7158 80.2031 62.4048 80.395 62.17 80.6297C56.3012 86.5036 50.431 92.3755 44.5597 98.2457C43.6618 99.1435 42.764 100.042 41.8661 100.941C41.5122 101.299 41.121 101.58 40.6758 101.127C40.2306 100.675 40.538 100.293 40.8882 99.9445C47.7021 93.1306 54.5142 86.316 61.3244 79.5009C61.6056 79.2196 61.8832 79.0072 62.2986 79.1525C62.4333 79.196 62.5486 79.2851 62.6247 79.4045C62.7009 79.5238 62.7331 79.6659 62.7158 79.8063Z" fill="#597EF7"/>
<path d="M81.4998 9.32042C81.5594 9.91463 81.334 10.1847 80.9708 10.2518C80.479 10.3337 80.2741 10.0022 80.1586 9.56072C79.5905 7.41297 79 5.2764 78.4263 3.12679C76.5114 -4.02491 74.5983 -11.1772 72.6871 -18.3302C72.6443 -18.4461 72.6076 -18.5643 72.5772 -18.6841C72.5064 -19.1181 72.566 -19.5316 73.0597 -19.6471C73.5533 -19.7626 73.7843 -19.4609 73.9072 -19.0101C74.4325 -17.043 74.9858 -15.0834 75.5111 -13.1163C77.4719 -5.78954 79.4296 1.54159 81.3843 8.87708C81.4383 9.07826 81.4905 9.28689 81.4998 9.32042Z" fill="#597EF7"/>
<path d="M132.513 60.3321C133.912 60.7047 135.467 61.0922 137.017 61.5076C144.795 63.5988 152.57 65.6925 160.344 67.7888C160.493 67.8297 160.646 67.8558 160.791 67.9024C161.231 68.0402 161.657 68.2321 161.467 68.8002C161.296 69.3087 160.879 69.359 160.398 69.2268C158.522 68.7145 156.645 68.2134 154.767 67.7105L132.861 61.8391C132.589 61.7843 132.321 61.7109 132.058 61.6193C131.723 61.4759 131.481 61.2207 131.585 60.8202C131.69 60.4197 131.952 60.2632 132.513 60.3321Z" fill="#597EF7"/>
<path d="M22.9221 30.9633C23.5424 31.1216 24.3508 31.321 25.1574 31.537L50.8055 38.4143C51.0163 38.4597 51.2231 38.522 51.4239 38.6006C51.7276 38.7365 51.9492 38.9731 51.871 39.327C51.7928 39.6809 51.5469 39.9399 51.1389 39.8858C50.803 39.8401 50.4706 39.771 50.1442 39.6791C41.0876 37.2538 32.0315 34.8266 22.9761 32.3976C22.7958 32.3529 22.618 32.2988 22.4434 32.2356C22.0857 32.0977 21.8678 31.8407 21.9628 31.4476C22.0578 31.0546 22.326 30.8869 22.9221 30.9633Z" fill="#597EF7"/>
<path d="M138.846 96.5117C139.126 96.5678 139.379 96.7192 139.56 96.9402C143.11 100.492 146.661 104.042 150.213 107.591C150.585 107.964 150.794 108.381 150.351 108.789C149.95 109.162 149.559 108.94 149.218 108.603C145.669 105.049 142.119 101.497 138.569 97.9479C138.31 97.689 138.01 97.4338 138.219 96.9886C138.276 96.8634 138.363 96.7544 138.472 96.6712C138.582 96.5879 138.71 96.5332 138.846 96.5117Z" fill="#597EF7"/>
<path d="M45.3085 2.96527C45.2931 3.10057 45.2446 3.22997 45.1673 3.34205C45.0899 3.45414 44.9862 3.54545 44.8652 3.60791C44.7398 3.67256 44.5963 3.69284 44.4579 3.66544C44.3196 3.63804 44.1946 3.56459 44.1033 3.45704C43.4942 2.88332 42.9056 2.28911 42.3151 1.69676L33.5136 -7.11403C33.4708 -7.15687 33.4224 -7.196 33.3795 -7.24071C33.007 -7.6263 32.5506 -8.051 33.102 -8.56698C33.5881 -9.02522 33.9961 -8.63777 34.3612 -8.26708C35.2311 -7.38414 36.1103 -6.51051 36.9876 -5.63502C39.5508 -3.07189 42.1139 -0.508746 44.6771 2.05439C44.936 2.31331 45.2527 2.53871 45.3085 2.96527Z" fill="#597EF7"/>
<path d="M156.213 33.5441C156.036 33.5751 155.854 33.5352 155.706 33.4331C155.558 33.331 155.456 33.1748 155.423 32.9983C155.305 32.5586 155.563 32.3016 155.982 32.1898L159.465 31.2585L170.714 28.224C171.204 28.0918 171.69 28.062 171.867 28.6413C172.053 29.2653 171.558 29.4292 171.094 29.554C166.211 30.8679 161.329 32.178 156.447 33.4844L156.213 33.5441Z" fill="#597EF7"/>
<path d="M75.2075 114.43C74.5313 116.976 73.9166 119.299 73.2963 121.62C72.6195 124.151 71.9402 126.681 71.2584 129.211C71.2268 129.328 71.1783 129.443 71.1485 129.563C71.0293 130.026 70.817 130.407 70.2581 130.239C69.6993 130.071 69.6993 129.639 69.8223 129.179C70.5189 126.592 71.2168 124.004 71.916 121.415C72.5307 119.122 73.1324 116.825 73.7527 114.534C73.87 114.106 74.0544 113.66 74.63 113.811C75.0212 113.91 75.2484 114.199 75.2075 114.43Z" fill="#597EF7"/>
<path d="M12.3267 72.0813C11.902 72.139 11.6636 71.8801 11.5704 71.5374C11.4512 71.094 11.7269 70.8519 12.1386 70.7401C13.5654 70.3508 14.9904 69.9578 16.4229 69.574C19.9062 68.6427 23.3914 67.7113 26.871 66.7632C27.3796 66.6254 27.8378 66.6123 28.0203 67.1749C28.2271 67.8082 27.6981 67.974 27.251 68.095C22.3706 69.4139 17.4878 70.7258 12.6024 72.031C12.5111 72.0552 12.418 72.0645 12.3267 72.0813Z" fill="#597EF7"/>
<path d="M110.862 118.875C110.974 119.517 110.723 119.769 110.38 119.858C109.873 119.99 109.661 119.636 109.543 119.208C109.009 117.245 108.467 115.283 107.941 113.316C105.987 106.014 104.037 98.711 102.092 91.4066C102.044 91.2203 101.992 91.0508 101.958 90.8682C101.884 90.464 101.945 90.0989 102.402 89.9816C102.858 89.8642 103.147 90.1194 103.277 90.5721C103.677 92.0622 104.078 93.5524 104.479 95.0426C106.576 102.881 108.673 110.72 110.769 118.558C110.818 118.735 110.872 118.912 110.862 118.875Z" fill="#597EF7"/>
<path d="M121.614 49.3892H135.933C136.181 49.3759 136.431 49.3834 136.678 49.4116C136.838 49.4422 136.982 49.5279 137.085 49.6538C137.188 49.7798 137.244 49.9379 137.242 50.1007C137.241 50.2634 137.182 50.4205 137.077 50.5444C136.971 50.6684 136.825 50.7513 136.665 50.7789C136.418 50.808 136.168 50.8155 135.92 50.8012H106.911C106.429 50.8012 105.911 50.7807 105.894 50.1362C105.878 49.4544 106.386 49.3911 106.924 49.3911C111.542 49.3911 116.159 49.3911 120.776 49.3911L121.614 49.3892Z" fill="#FFC069"/>
<path d="M63.2597 50.8057H48.9427C48.6645 50.8193 48.3856 50.8056 48.11 50.7647C47.9541 50.7407 47.8135 50.6573 47.7176 50.5319C47.6218 50.4066 47.5782 50.249 47.5959 50.0923C47.5841 49.9353 47.6318 49.7795 47.7294 49.656C47.8271 49.5325 47.9676 49.4502 48.1231 49.4254C48.3996 49.3887 48.679 49.3781 48.9576 49.3937H77.506C77.6923 49.3937 77.8786 49.3937 78.0648 49.3937C78.5137 49.4031 78.8733 49.5521 78.8975 50.0643C78.9235 50.6399 78.5398 50.8094 78.0499 50.8094C76.7795 50.8094 75.5073 50.8094 74.2369 50.8094L63.2597 50.8057Z" fill="#FFC069"/>
<path d="M85.9704 62.5546C85.9127 62.6682 85.8102 62.8899 85.6891 63.1004L71.2417 88.145C71.1634 88.2772 71.0778 88.4076 71.0051 88.5417C70.7853 88.9478 70.4463 89.1807 70.0197 88.9478C69.554 88.7001 69.5242 88.3145 69.7981 87.8544C70.5879 86.5263 71.3534 85.1851 72.1265 83.8476C76.2357 76.7344 80.3455 69.62 84.456 62.5043C84.5601 62.3124 84.6739 62.1259 84.7969 61.9455C84.9738 61.6959 85.2197 61.5729 85.5196 61.6977C85.8195 61.8225 86.0207 62.0666 85.9704 62.5546Z" fill="#FFC069"/>
<path d="M99.5908 38.5538C98.9668 38.5762 98.6594 37.9726 98.9537 37.412C99.5442 36.326 100.174 35.2623 100.79 34.1931C105.05 26.8092 109.311 19.4259 113.573 12.0432C113.666 11.883 113.759 11.7247 113.858 11.5645C114.087 11.1752 114.437 11.0746 114.806 11.2795C115.229 11.5161 115.275 11.8737 115.02 12.304C114.42 13.3136 113.846 14.34 113.26 15.3552C108.946 22.8173 104.632 30.2795 100.319 37.7416C100.118 38.09 99.9503 38.4588 99.5908 38.5538Z" fill="#FFC069"/>
<path d="M85.9945 37.8545C85.9945 38.1861 85.7841 38.3537 85.5307 38.4935C85.4216 38.5572 85.2918 38.576 85.1691 38.5458C85.0463 38.5155 84.9402 38.4386 84.8732 38.3314C84.7187 38.1399 84.5809 37.9355 84.4615 37.7204C79.6743 29.4312 74.8889 21.142 70.1053 12.8528C70.042 12.7466 69.988 12.6348 69.919 12.5305C69.6247 12.089 69.377 11.6122 70.0029 11.2806C70.6288 10.9491 70.8821 11.4557 71.1391 11.8972C72.7908 14.7534 74.4449 17.6133 76.1015 20.477C79.2793 25.9882 82.4553 31.502 85.6295 37.0182C85.7822 37.2845 85.9796 37.5286 85.9945 37.8545Z" fill="#FFC069"/>
<path d="M99.479 61.6523C99.9801 61.7157 100.123 62.1162 100.321 62.4589L107.412 74.74L114.884 87.6637C115.07 87.9785 115.346 88.271 115.087 88.6752C114.739 89.221 114.141 89.1111 113.736 88.4144C111.232 84.0817 108.728 79.7483 106.226 75.4143C103.892 71.3734 101.56 67.3331 99.2275 63.2934C99.0718 63.0621 98.9466 62.8117 98.855 62.5483C98.691 62.0118 99.0133 61.7622 99.479 61.6523Z" fill="#FFC069"/>
<path d="M92.4211 -11.5455C92.4211 -7.14198 92.4211 -2.73907 92.4211 1.66322C92.4299 1.91173 92.4237 2.16055 92.4025 2.40832C92.3933 2.56596 92.3255 2.71448 92.2125 2.82475C92.0994 2.93502 91.9493 2.99908 91.7915 3.00439C91.7058 3.01676 91.6186 3.01211 91.5348 2.9907C91.4509 2.96929 91.3722 2.93156 91.3029 2.87964C91.2337 2.82773 91.1754 2.76267 91.1314 2.68818C91.0874 2.6137 91.0585 2.53124 91.0464 2.44556C91.0087 2.16909 90.9981 1.8896 91.0147 1.61106C91.0147 -7.16247 91.0147 -15.9366 91.0147 -24.7114C91.0147 -24.8045 91.0147 -24.8977 91.0147 -24.9908C90.9961 -25.5496 91.0147 -26.1438 91.7486 -26.1327C92.4248 -26.1196 92.4192 -25.5384 92.4192 -25.015C92.4192 -20.984 92.4192 -16.9537 92.4192 -12.9239L92.4211 -11.5455Z" fill="#FFC069"/>
<path d="M91.0203 111.716V98.6133C91.0017 98.3354 91.0123 98.0564 91.0519 97.7807C91.0638 97.6949 91.0926 97.6123 91.1365 97.5377C91.1805 97.4631 91.2388 97.3979 91.308 97.346C91.3773 97.294 91.4562 97.2563 91.5401 97.235C91.6241 97.2137 91.7114 97.2092 91.797 97.2219C91.9544 97.2283 92.1038 97.2924 92.2168 97.402C92.3299 97.5116 92.3986 97.659 92.4099 97.8161C92.4329 98.0942 92.4391 98.3735 92.4285 98.6524V125.048C92.4368 125.296 92.4262 125.545 92.3969 125.793C92.38 125.95 92.3044 126.095 92.1852 126.198C92.066 126.302 91.9121 126.357 91.7542 126.351C91.6687 126.36 91.5823 126.352 91.5001 126.326C91.418 126.301 91.3418 126.259 91.2761 126.204C91.2104 126.148 91.1566 126.08 91.1177 126.003C91.0789 125.927 91.0559 125.843 91.0501 125.757C91.0254 125.51 91.0167 125.261 91.024 125.012V111.721L91.0203 111.716Z" fill="#FFC069"/>
<path d="M133.282 26.862C132.846 26.8899 132.601 26.7819 132.506 26.4727C132.432 26.2997 132.429 26.1045 132.499 25.9299C132.569 25.7552 132.705 25.6155 132.878 25.5413C133.823 25.016 134.741 24.4572 135.682 23.917C142.497 19.9828 149.314 16.0531 156.135 12.1277C156.602 11.8594 157.198 11.1236 157.699 11.9749C158.184 12.7964 157.327 13.0032 156.831 13.29C149.247 17.6849 141.661 22.0716 134.072 26.4503C133.789 26.6235 133.48 26.7614 133.282 26.862Z" fill="#FFC069"/>
<path d="M50.9918 26.1723C51.0048 26.813 50.4777 27.0627 49.794 26.6789C48.0151 25.6805 46.2548 24.6578 44.4852 23.6371C38.5443 20.2084 32.6071 16.7735 26.6736 13.3324C26.1726 13.0418 25.2244 12.8481 25.7628 11.9633C26.275 11.1213 26.8804 11.8832 27.3349 12.1495C34.9722 16.5344 42.6001 20.9355 50.2187 25.3527C50.5559 25.5427 51.0011 25.6544 50.9918 26.1723Z" fill="#FFC069"/>
<path d="M50.3119 73.3328C50.452 73.3151 50.5939 73.3481 50.712 73.4255C50.8301 73.503 50.9167 73.62 50.9564 73.7556C51.0868 74.1691 50.934 74.4579 50.5503 74.6758C49.0992 75.4973 47.6593 76.3393 46.2138 77.1719L27.1952 88.1621C27.0332 88.2552 26.8711 88.3484 26.7128 88.4415C26.3402 88.6762 25.9882 88.6278 25.746 88.2646C25.4666 87.8399 25.6398 87.4841 26.0347 87.2457C26.8003 86.7818 27.5789 86.3385 28.3557 85.8896L49.4755 73.7109C49.74 73.5544 49.9822 73.3458 50.3119 73.3328Z" fill="#FFC069"/>
<path d="M157.826 87.8671C157.841 88.48 157.278 88.7333 156.63 88.3664C155.017 87.4536 153.417 86.5203 151.811 85.5927L133.273 74.8819C133.052 74.7721 132.842 74.6405 132.647 74.4889C132.377 74.2505 132.403 73.9301 132.558 73.6395C132.619 73.511 132.728 73.4109 132.861 73.3597C132.994 73.3084 133.141 73.3099 133.273 73.3638C133.532 73.4625 133.781 73.5841 134.018 73.727C141.7 78.1591 149.38 82.5931 157.058 87.0289C157.397 87.2338 157.811 87.3698 157.826 87.8671Z" fill="#FFC069"/>
<path d="M92.421 73.3017C92.421 77.4829 92.421 81.6642 92.421 85.8454C92.436 86.1562 92.4254 86.4677 92.3894 86.7768C92.3721 86.9337 92.2964 87.0783 92.1773 87.1819C92.0582 87.2854 91.9045 87.3403 91.7467 87.3356C91.5896 87.344 91.4346 87.2961 91.3097 87.2005C91.1847 87.1049 91.098 86.9679 91.0649 86.814C91.0181 86.5686 91.0037 86.3181 91.0221 86.0689C91.0221 77.4891 91.0221 68.9087 91.0221 60.3276C91.0054 60.0782 91.0217 59.8277 91.0705 59.5825C91.1038 59.4285 91.1918 59.2917 91.3182 59.1976C91.4445 59.1034 91.6007 59.0582 91.7579 59.0703C91.9148 59.0682 92.0669 59.124 92.1851 59.2272C92.3034 59.3303 92.3794 59.4734 92.3987 59.6291C92.4316 59.9054 92.4403 60.184 92.4247 60.4618C92.4247 64.7473 92.4235 69.0273 92.421 73.3017Z" fill="#FA8C16"/>
<path d="M92.4229 27.041C92.4229 31.2284 92.4229 35.4159 92.4229 39.6033C92.4366 39.9138 92.4317 40.2248 92.408 40.5347C92.3948 40.692 92.3244 40.839 92.2101 40.9479C92.0957 41.0567 91.9454 41.1198 91.7877 41.1252C91.6154 41.1457 91.4419 41.0991 91.3032 40.9951C91.1644 40.891 91.0711 40.7374 91.0426 40.5663C91.0084 40.3195 91.0015 40.0696 91.0221 39.8212V14.2327C91.0221 14.0464 91.0109 13.8602 91.0221 13.6739C91.0575 13.2231 91.2382 12.8897 91.7541 12.9027C92.2198 12.9158 92.3912 13.2287 92.4191 13.6478C92.4378 13.8956 92.4191 14.1433 92.4191 14.3929L92.4229 27.041Z" fill="#FA8C16"/>
<path d="M84.0611 54.9566C84.0443 55.3645 83.7016 55.5378 83.3812 55.7222L70.0551 63.406C66.9505 65.1955 63.8459 66.9881 60.7414 68.7837C60.2757 69.0557 59.8547 69.3072 59.4952 68.6869C59.1357 68.0666 59.6125 67.8468 60.0168 67.6139C67.6105 63.2253 75.2068 58.8404 82.8056 54.4593C83.4333 54.0979 84.0313 54.3344 84.0611 54.9566Z" fill="#FA8C16"/>
<path d="M60.1862 31.131C60.3631 31.226 60.5829 31.3359 60.7934 31.4589C68.3077 35.7929 75.8208 40.1293 83.3326 44.4683C83.7573 44.7142 84.3087 44.9265 83.938 45.5859C83.5897 46.2006 83.1538 45.9473 82.6881 45.6791C75.2036 41.3538 67.7166 37.0334 60.2271 32.7181C60.0073 32.6058 59.8005 32.4697 59.6106 32.312C59.4951 32.2304 59.4156 32.1072 59.3889 31.9683C59.3622 31.8294 59.3902 31.6856 59.4671 31.5669C59.5332 31.4335 59.636 31.3217 59.7633 31.2445C59.8906 31.1673 60.0373 31.1279 60.1862 31.131Z" fill="#FA8C16"/>
<path d="M100.179 45.9851C100.017 45.9852 99.8582 45.9354 99.725 45.8425C99.5917 45.7495 99.4902 45.6179 99.4342 45.4654C99.2814 45.0743 99.4975 44.8228 99.8216 44.6347L103.031 42.7719L122.284 31.6569C122.445 31.5638 122.61 31.4706 122.767 31.3794C123.197 31.1055 123.62 30.9435 123.95 31.506C124.306 32.1095 123.814 32.3461 123.43 32.5827C122.685 33.0372 121.94 33.4582 121.195 33.8866L100.891 45.5995C100.652 45.7504 100.403 45.8697 100.179 45.9851Z" fill="#FA8C16"/>
<path d="M124.082 68.3505C124.058 68.9708 123.452 69.2111 122.832 68.8572C120.82 67.706 118.812 66.5499 116.806 65.3888L100.354 55.8776C100.194 55.7863 100.03 55.6913 99.872 55.6C99.4994 55.3709 99.2144 55.0971 99.4994 54.6221C99.7844 54.1471 100.153 54.1583 100.598 54.4209C102.251 55.3914 103.91 56.347 105.568 57.3044L123.229 67.4881C123.598 67.7079 124.032 67.8606 124.082 68.3505Z" fill="#FA8C16"/>
<path d="M121.718 79.4311C121.726 79.5574 121.695 79.683 121.628 79.7905C121.561 79.898 121.462 79.982 121.346 80.0309C120.996 80.1893 120.679 80.0719 120.414 79.8092C119.6 79.0008 118.788 78.1905 117.978 77.3784C113.859 73.2555 109.739 69.1339 105.619 65.0135C105.466 64.8589 105.309 64.708 105.16 64.5497C104.827 64.1957 104.669 63.825 105.09 63.432C105.473 63.0595 105.814 63.2215 106.136 63.5326C106.248 63.6406 106.358 63.7505 106.468 63.8604C111.356 68.7483 116.244 73.638 121.132 78.5296C121.404 78.781 121.733 78.9971 121.718 79.4311Z" fill="#2F54EB"/>
<path d="M78.6032 36.3379C78.5886 36.4535 78.5459 36.5638 78.4786 36.659C78.4114 36.7542 78.3217 36.8313 78.2176 36.8836C77.8581 37.0513 77.5507 36.9265 77.2862 36.6676C76.4728 35.8629 75.6606 35.0557 74.8497 34.246L62.3693 21.7656L62.1719 21.5681C61.7993 21.1956 61.4678 20.7616 61.9558 20.3015C62.3917 19.8917 62.8015 20.1823 63.1554 20.5436C63.8502 21.2533 64.5562 21.9482 65.2566 22.6485C69.5074 26.8993 73.7582 31.1501 78.0089 35.4009C78.2679 35.6468 78.5827 35.8759 78.6032 36.3379Z" fill="#2F54EB"/>
<path d="M103.102 10.2739C102.73 11.684 102.327 13.2356 101.914 14.7855C100.494 20.093 99.0736 25.3981 97.6517 30.7008C97.6126 30.8498 97.5399 30.9932 97.5157 31.1422C97.4226 31.701 97.1134 32.0233 96.5545 31.8519C95.9957 31.6805 96.0646 31.2465 96.182 30.7827C97.2102 26.9703 98.2316 23.1542 99.2462 19.3343C100.035 16.3837 100.823 13.4325 101.61 10.4807C101.66 10.2706 101.723 10.0635 101.796 9.86036C101.932 9.50458 102.191 9.29223 102.586 9.37233C102.981 9.45242 103.149 9.7281 103.102 10.2739Z" fill="#2F54EB"/>
<path d="M110.732 45.7109C110.322 45.7295 110.03 45.6066 109.961 45.1893C109.881 44.705 110.106 44.4647 110.585 44.3399C112.854 43.7438 115.113 43.1161 117.38 42.5088C121.94 41.2844 126.501 40.0649 131.062 38.8504C131.211 38.8113 131.366 38.7889 131.513 38.7461C131.976 38.6175 132.338 38.7461 132.453 39.223C132.569 39.6998 132.252 39.9531 131.814 40.0724C130.028 40.5548 128.242 41.0466 126.453 41.5253C121.445 42.8628 116.436 44.1971 111.425 45.5283L110.732 45.7109Z" fill="#2F54EB"/>
<path d="M80.3617 89.8789C80.5237 89.268 80.7342 88.4614 80.9484 87.6567C82.6063 81.4885 84.2635 75.3203 85.9201 69.1521C86.0523 68.6585 86.1734 68.2115 86.7974 68.3382C87.5239 68.4872 87.3693 69.0516 87.2426 69.5247C85.406 76.3771 83.5637 83.2302 81.7159 90.0839C81.5929 90.5458 81.4234 90.9407 80.8646 90.829C80.5032 90.7712 80.2834 90.4918 80.3617 89.8789Z" fill="#2F54EB"/>
<path d="M51.9231 61.4694C51.3643 61.542 51.0793 61.3651 50.9917 60.9869C50.8855 60.4989 51.178 60.2679 51.6288 60.145C53.6256 59.6141 55.6169 59.0571 57.6119 58.5207C62.4377 57.2205 67.2653 55.9252 72.0948 54.635C72.3551 54.5386 72.6295 54.4858 72.9069 54.4785C73.0646 54.4843 73.2138 54.551 73.3233 54.6646C73.4327 54.7782 73.4938 54.9299 73.4937 55.0876C73.5272 55.5999 73.2124 55.7806 72.7784 55.8942C70.9883 56.3692 69.2056 56.8628 67.4155 57.3397C62.3812 58.6871 57.3443 60.0314 52.305 61.3725C52.1373 61.421 51.9585 61.4619 51.9231 61.4694Z" fill="#2F54EB"/>
<path d="M153.07 49.3905C154.774 49.3905 156.479 49.3998 158.183 49.3905C158.742 49.3905 159.238 49.493 159.221 50.1356C159.206 50.7373 158.701 50.8062 158.198 50.8062C154.699 50.7987 151.198 50.7987 147.696 50.8062C147.186 50.8062 146.703 50.7168 146.703 50.1095C146.703 49.5023 147.154 49.3831 147.679 49.3868C149.467 49.398 151.265 49.3905 153.07 49.3905Z" fill="#FFE7BA"/>
<path d="M31.8594 49.3904C33.5918 49.3904 35.3241 49.3904 37.0565 49.3904C37.6023 49.3904 38.1108 49.4854 38.1034 50.1355C38.1034 50.7502 37.5855 50.8043 37.09 50.8043C33.5943 50.8043 30.0979 50.8043 26.6009 50.8043C26.1035 50.8043 25.6211 50.7558 25.6174 50.1132C25.6174 49.4091 26.1371 49.3867 26.6605 49.3867C28.3947 49.3942 30.1289 49.3904 31.8594 49.3904Z" fill="#FFE7BA"/>
<path d="M59.3256 -7.86321C59.6982 -7.86321 59.8844 -7.59871 60.0316 -7.3342C61.8447 -4.211 63.6509 -1.08345 65.4503 2.04845C65.6794 2.44708 65.6887 2.80659 65.2491 3.08042C64.7779 3.37287 64.4873 3.11768 64.2656 2.73581C62.4252 -0.444514 60.5904 -3.6267 58.7612 -6.81076C58.6915 -6.91244 58.6512 -7.03131 58.6445 -7.15438C58.6378 -7.27746 58.6651 -7.4 58.7233 -7.50863C58.7816 -7.61725 58.8686 -7.70777 58.9748 -7.7703C59.081 -7.83283 59.2024 -7.86498 59.3256 -7.86321Z" fill="#FFE7BA"/>
<path d="M119.913 3.20387C119.274 3.1573 119.06 2.57612 119.436 1.91298C120.454 0.117295 121.485 -1.66534 122.525 -3.45358C123.249 -4.7072 123.982 -5.95898 124.702 -7.21447C124.969 -7.68016 125.291 -8.09555 125.867 -7.72859C126.407 -7.38398 126.127 -6.9332 125.889 -6.5178C124.163 -3.52872 122.437 -0.538387 120.712 2.45318C120.511 2.79593 120.342 3.18525 119.913 3.20387Z" fill="#FFE7BA"/>
<path d="M126.161 107.287C126.161 107.676 126.012 107.89 125.718 107.994C125.293 108.143 125.013 107.968 124.801 107.596C124.083 106.339 123.361 105.084 122.633 103.831C121.598 102.044 120.562 100.259 119.524 98.4758C119.479 98.3957 119.438 98.3137 119.394 98.2336C119.155 97.8164 119.064 97.4066 119.565 97.116C120.066 96.8254 120.371 97.17 120.599 97.563C121.806 99.6418 123.002 101.726 124.203 103.807C124.773 104.794 125.342 105.781 125.911 106.769C126.017 106.957 126.098 107.164 126.161 107.287Z" fill="#FFE7BA"/>
<path d="M64.9418 97.0252C65.5453 97.0662 65.7521 97.6045 65.3721 98.2714C64.1222 100.468 62.8518 102.654 61.5907 104.843C61.0822 105.724 60.5792 106.607 60.067 107.486C59.8136 107.924 59.4914 108.258 58.9493 107.92C58.4371 107.602 58.6327 107.205 58.8655 106.803C60.6401 103.734 62.4128 100.664 64.1836 97.5934C64.3532 97.3009 64.5264 96.9973 64.9418 97.0252Z" fill="#FFE7BA"/>
<path d="M105.33 37.2981C104.914 37.2627 104.708 37.1267 104.611 36.879C104.454 36.4748 104.646 36.1823 104.935 35.8973C106.213 34.6344 107.478 33.3565 108.748 32.0842C109.733 31.097 110.724 30.1172 111.704 29.1244C112.077 28.7518 112.488 28.4053 112.963 28.8841C113.397 29.3218 113.094 29.7186 112.736 30.0744C110.452 32.3481 108.172 34.6257 105.894 36.9069C105.697 37.1043 105.507 37.3111 105.33 37.2981Z" fill="#2F54EB"/>
<path d="M78.9143 63.7408C78.9255 63.8973 78.7168 64.0873 78.5194 64.2866C76.2431 66.5629 73.9668 68.8397 71.6906 71.1173C71.3329 71.4768 70.9455 71.773 70.5021 71.3259C70.0588 70.8788 70.3345 70.497 70.6996 70.1319C72.9821 67.8618 75.2584 65.5849 77.5284 63.3012C77.8171 63.0125 78.1152 62.8336 78.5138 62.9938C78.7615 63.0925 78.8864 63.3086 78.9143 63.7408Z" fill="#2F54EB"/>
<path d="M73.0802 45.8208L69.6602 44.9025C67.5814 44.3449 65.5019 43.7861 63.4219 43.226C62.958 43.1031 62.5799 42.8907 62.7233 42.3394C62.8668 41.788 63.2356 41.7507 63.7385 41.8867C66.9052 42.7529 70.0942 43.593 73.2721 44.4424C73.693 44.556 74.0376 44.7572 73.9464 45.2657C73.87 45.7053 73.5813 45.8991 73.0802 45.8208Z" fill="#2F54EB"/>
<path d="M120.1 58.3737C119.857 58.3345 119.701 58.3252 119.554 58.2861C116.465 57.4553 113.378 56.622 110.29 55.7863C109.834 55.6634 109.335 55.5088 109.504 54.8885C109.674 54.2682 110.154 54.3185 110.639 54.4507C113.757 55.2927 116.871 56.1421 119.993 56.9729C120.463 57.0977 120.826 57.2709 120.739 57.826C120.734 57.9045 120.714 57.9813 120.679 58.0517C120.644 58.1222 120.596 58.1849 120.536 58.2361C120.476 58.2872 120.407 58.3258 120.332 58.3494C120.257 58.3731 120.178 58.3813 120.1 58.3737Z" fill="#2F54EB"/>
<path d="M95.9901 68.4589C95.9454 68.1962 96.2006 67.9448 96.549 67.8703C97.0388 67.7678 97.2512 68.0994 97.3685 68.539C97.9628 70.7743 98.5737 72.9928 99.1754 75.2188C99.438 76.1986 99.6877 77.184 99.9484 78.1638C100.066 78.6109 99.9913 78.9834 99.5014 79.1175C99.0115 79.2516 98.7563 78.9592 98.6315 78.5214C97.7622 75.3138 96.8991 72.1049 96.0423 68.8948C96.0162 68.8072 96.0181 68.7122 95.9901 68.4589Z" fill="#2F54EB"/>
<path d="M87.4363 31.4382C87.4959 32.0343 87.265 32.2634 86.8887 32.323C86.4472 32.3919 86.2181 32.1367 86.1082 31.725C85.6649 30.0616 85.2085 28.4 84.7577 26.7385C84.3554 25.2483 83.9474 23.7711 83.5525 22.2865C83.424 21.8022 83.2768 21.2583 83.9735 21.0999C84.5807 20.9621 84.7391 21.3998 84.8732 21.8991C85.7021 25.0192 86.5497 28.1337 87.4009 31.25C87.4223 31.3106 87.4342 31.374 87.4363 31.4382Z" fill="#2F54EB"/>
<path d="M126.185 83.8184C126.432 83.8686 126.656 83.9997 126.82 84.1909C127.645 85.0217 128.472 85.85 129.302 86.6758C129.674 87.0391 129.894 87.4209 129.43 87.8587C129.004 88.2592 128.644 88.0114 128.312 87.6854C127.441 86.8155 126.562 85.9512 125.705 85.0664C125.494 84.8485 125.313 84.5802 125.535 84.2393C125.599 84.1199 125.692 84.0187 125.806 83.9451C125.92 83.8714 126.05 83.8278 126.185 83.8184Z" fill="#2F54EB"/>
<path d="M58.0162 15.634C57.9789 16.1928 57.2915 16.5654 56.9171 16.2226C55.8796 15.254 54.8923 14.2295 53.9051 13.2049C53.6499 12.9404 53.7505 12.6461 53.9982 12.3835C54.246 12.1208 54.557 12.0351 54.8234 12.2698C55.9097 13.231 56.932 14.2621 57.8839 15.3564C57.9437 15.4406 57.9885 15.5345 58.0162 15.634Z" fill="#2F54EB"/>
<path d="M79.3818 96.5055C79.6445 96.5651 79.9202 96.8445 79.7823 97.3754C79.4619 98.5955 79.1173 99.81 78.7895 101.028C78.6703 101.475 78.417 101.773 77.9345 101.647C77.4167 101.503 77.3272 101.107 77.4632 100.617C77.7855 99.4598 78.0872 98.2975 78.4076 97.1425C78.5101 96.7756 78.6423 96.4105 79.3818 96.5055Z" fill="#2F54EB"/>
<path d="M40.9423 64.432C40.7833 64.4606 40.6194 64.4278 40.4836 64.3403C40.3477 64.2529 40.2501 64.1173 40.2102 63.9608C40.1022 63.6106 40.1562 63.2492 40.5697 63.1318C41.901 62.7518 43.2366 62.3886 44.5765 62.0421C44.9714 61.9415 45.249 62.1893 45.3533 62.5413C45.386 62.6214 45.4005 62.7078 45.3957 62.7941C45.3909 62.8805 45.3669 62.9647 45.3256 63.0407C45.2842 63.1166 45.2264 63.1825 45.1565 63.2333C45.0865 63.2842 45.0061 63.3189 44.9211 63.3348C43.5893 63.7074 42.2518 64.0725 40.9423 64.432Z" fill="#2F54EB"/>
<path d="M103.678 2.82031C104.007 1.61326 104.358 0.337291 104.704 -0.938688C104.827 -1.3932 105.151 -1.53291 105.555 -1.41556C105.959 -1.29821 106.142 -0.9834 106.023 -0.549381C105.682 0.696794 105.334 1.9411 104.993 3.18913C104.879 3.60825 104.63 3.86345 104.19 3.74796C103.795 3.62874 103.575 3.33816 103.678 2.82031Z" fill="#2F54EB"/>
<path d="M138.854 38.1974C138.68 38.2183 138.505 38.172 138.365 38.0681C138.224 37.9643 138.129 37.8106 138.097 37.6386C138.023 37.3145 138.112 36.9997 138.47 36.8935C139.804 36.5209 141.137 36.1484 142.479 35.8001C142.562 35.7757 142.65 35.7693 142.735 35.7812C142.821 35.7931 142.904 35.8231 142.978 35.8692C143.051 35.9153 143.114 35.9765 143.162 36.0487C143.21 36.1209 143.243 36.2025 143.257 36.2881C143.349 36.6458 143.257 36.9773 142.838 37.0947C141.521 37.4672 140.176 37.8342 138.854 38.1974Z" fill="#2F54EB"/>
<path d="M258.357 19.9297C258.693 20.0223 258.881 20.2532 259.093 20.4591L273.715 35.0856L274.907 36.2782C275.154 36.5238 275.462 36.7988 275.095 37.1326C274.762 37.437 274.519 37.1047 274.3 36.8856C271.629 34.2287 268.965 31.5699 266.307 28.9091C263.66 26.262 261.017 23.615 258.376 20.9679C258.16 20.7517 257.832 20.5576 258.043 20.1738C258.104 20.0576 258.263 19.9988 258.357 19.9297Z" fill="#FFD591"/>
<path d="M275.669 6.52129C279.386 6.52129 283.103 6.52129 286.82 6.52129C287.147 6.52129 287.594 6.41394 287.61 6.91834C287.628 7.47128 287.169 7.38304 286.804 7.38304H264.354C264.012 7.38304 263.587 7.4404 263.557 6.97128C263.526 6.4757 263.948 6.5154 264.292 6.5154L275.669 6.52129Z" fill="#FFD591"/>
<path d="M214.375 6.52161H225.454C225.625 6.52161 225.797 6.52161 225.968 6.52161C226.067 6.5212 226.163 6.55994 226.235 6.62952C226.306 6.69909 226.348 6.79393 226.35 6.89366C226.36 6.94828 226.359 7.0044 226.346 7.05847C226.333 7.11254 226.309 7.16341 226.276 7.20787C226.243 7.25234 226.201 7.28944 226.152 7.31686C226.104 7.34427 226.051 7.36141 225.995 7.36718C225.8 7.38688 225.603 7.3918 225.407 7.38188H203.104C202.741 7.38188 202.275 7.45394 202.284 6.9216C202.293 6.43337 202.74 6.5172 203.075 6.5172L214.375 6.52161Z" fill="#FFD591"/>
<path d="M244.518 37.5432C244.518 33.8511 244.518 30.1579 244.518 26.4638C244.507 26.2676 244.513 26.0709 244.534 25.8756C244.547 25.7774 244.596 25.6876 244.672 25.6231C244.747 25.5586 244.843 25.5239 244.943 25.5256C245.042 25.5225 245.139 25.5546 245.217 25.6162C245.295 25.6778 245.349 25.765 245.369 25.8624C245.397 26.0571 245.405 26.2543 245.391 26.4506V48.6829C245.391 48.8535 245.391 49.0256 245.384 49.1962C245.386 49.2518 245.376 49.3071 245.355 49.3585C245.333 49.41 245.302 49.4564 245.261 49.4948C245.221 49.5331 245.173 49.5625 245.121 49.581C245.068 49.5995 245.013 49.6066 244.957 49.6021C244.902 49.6105 244.845 49.6066 244.791 49.5906C244.737 49.5747 244.687 49.5471 244.645 49.5098C244.603 49.4724 244.57 49.4263 244.547 49.3747C244.525 49.323 244.514 49.2671 244.516 49.2109C244.504 49.0153 244.516 48.8197 244.516 48.6226L244.518 37.5432Z" fill="#FFD591"/>
<path d="M215.147 37.2313C215.068 37.2476 214.986 37.2394 214.912 37.2075C214.837 37.1757 214.775 37.1219 214.732 37.0533C214.68 36.9841 214.651 36.8997 214.651 36.8129C214.651 36.7261 214.68 36.6417 214.732 36.5725C214.868 36.401 215.015 36.2393 215.173 36.0886L230.901 20.3783C230.987 20.2916 231.07 20.2004 231.16 20.118C231.365 19.9328 231.601 19.8695 231.804 20.0857C232.007 20.3019 231.951 20.5269 231.76 20.7328C231.279 21.221 230.794 21.7033 230.31 22.1886C225.451 27.0435 220.593 31.8994 215.735 36.7563C215.545 36.943 215.387 37.1739 215.147 37.2313Z" fill="#FFD591"/>
<path d="M203.438 14.4681C203.153 14.5196 202.863 14.5137 202.809 14.1608C202.735 13.6887 203.154 13.6755 203.44 13.624C205.24 13.3005 207.044 13.0034 208.847 12.6961L216.2 11.4387C216.531 11.3828 216.935 11.2152 217.022 11.724C217.109 12.2328 216.688 12.2093 216.343 12.2696C212.187 12.9843 208.031 13.7044 203.876 14.4299C203.734 14.4534 203.585 14.4564 203.438 14.4681Z" fill="#597EF7"/>
<path d="M228.784 30.3319C228.806 30.5745 228.666 30.6951 228.57 30.8304C226.056 34.3971 223.538 37.9603 221.016 41.5202C220.842 41.7628 220.644 42.1304 220.266 41.8407C219.919 41.5746 220.138 41.2849 220.329 41.0157C222.855 37.454 225.374 33.8902 227.887 30.3246C228.034 30.1172 228.181 29.926 228.475 30.0143C228.552 30.0316 228.622 30.0708 228.676 30.1272C228.731 30.1836 228.768 30.2547 228.784 30.3319Z" fill="#597EF7"/>
<path d="M252.513 48.6417C252.521 48.6985 252.517 48.7565 252.501 48.8116C252.485 48.8667 252.457 48.9179 252.42 48.9616C252.383 49.0053 252.337 49.0407 252.285 49.0654C252.233 49.0901 252.176 49.1036 252.119 49.1049C251.812 49.1299 251.723 48.8946 251.678 48.6314C251.406 47.0696 251.122 45.5093 250.851 43.9461C250.372 41.1519 249.901 38.3681 249.42 35.5784C249.368 35.274 249.303 34.9696 249.715 34.8799C250.048 34.8049 250.201 34.9902 250.256 35.3108C250.992 39.6637 251.731 44.0167 252.473 48.3696C252.479 48.4417 252.491 48.5137 252.513 48.6417Z" fill="#597EF7"/>
<path d="M273.235 2.53178C273.143 2.52677 273.057 2.4879 272.992 2.42269C272.928 2.35747 272.889 2.27057 272.885 2.17883C272.829 1.83619 273.013 1.71266 273.326 1.65825C274.65 1.43619 275.963 1.18325 277.282 0.959719C280.307 0.446484 283.337 -0.0476345 286.359 -0.572634C286.723 -0.635869 287.028 -0.654986 287.094 -0.250575C287.16 0.153836 286.816 0.1906 286.518 0.2406C283.471 0.764129 280.423 1.29011 277.376 1.81855L273.235 2.53178Z" fill="#597EF7"/>
<path d="M279.938 31.4842C279.773 31.8783 279.497 31.9019 279.148 31.6577C278.37 31.1107 277.594 30.5626 276.819 30.0136L268.468 24.096C268.19 23.8989 267.803 23.7107 268.088 23.3033C268.373 22.896 268.693 23.221 268.959 23.4077C272.423 25.8519 275.885 28.2994 279.343 30.7504C279.588 30.9254 279.921 31.0519 279.938 31.4842Z" fill="#597EF7"/>
<path d="M280.47 42.0609C280.691 42.0521 280.825 42.1992 280.965 42.3374C283.456 44.8305 285.946 47.3227 288.437 49.8139C288.666 50.0433 288.925 50.2859 288.584 50.6139C288.265 50.9197 288.051 50.6403 287.848 50.4389C285.337 47.933 282.827 45.4251 280.319 42.9153C280.141 42.7374 279.976 42.5506 280.113 42.2756C280.145 42.2089 280.196 42.153 280.26 42.1148C280.323 42.0766 280.396 42.0579 280.47 42.0609Z" fill="#FFC069"/>
<path d="M300.722 6.52043C302.46 6.52043 304.198 6.52043 305.937 6.52043C306.269 6.52043 306.694 6.43808 306.672 6.97338C306.651 7.43368 306.272 7.38221 305.956 7.38221H295.52C295.176 7.38221 294.768 7.42486 294.785 6.91455C294.801 6.44248 295.198 6.52043 295.506 6.52043C297.244 6.51749 298.982 6.52043 300.722 6.52043Z" fill="#FFC069"/>
<path d="M245.391 62.7966C245.391 64.5093 245.391 66.225 245.391 67.9436C245.391 68.2877 245.435 68.6951 244.916 68.6671C244.45 68.6421 244.521 68.251 244.519 67.9421C244.519 64.4637 244.519 60.9863 244.519 57.5098C244.519 57.201 244.447 56.8098 244.916 56.7863C245.434 56.7613 245.39 57.1642 245.39 57.5113L245.391 62.7966Z" fill="#FFC069"/>
<path d="M189.197 6.52076H194.398C194.71 6.52076 195.107 6.45605 195.134 6.91045C195.154 7.40162 194.75 7.38693 194.398 7.38693H183.919C183.594 7.38693 183.234 7.4134 183.235 6.94575C183.237 6.47811 183.604 6.52076 183.923 6.52076H189.197Z" fill="#FFC069"/>
<path d="M209.853 42.4305C209.875 42.6599 209.713 42.7849 209.575 42.9217C207.066 45.4325 204.557 47.9427 202.048 50.4525C201.838 50.6628 201.618 50.9158 201.313 50.5996C201.034 50.3055 201.215 50.0658 201.438 49.8437L208.965 42.3128C209.145 42.132 209.337 41.9805 209.609 42.0937C209.678 42.119 209.739 42.1646 209.782 42.2246C209.826 42.2847 209.851 42.3564 209.853 42.4305Z" fill="#FFC069"/>
<path d="M210.363 28.2326C210.303 28.5267 210.123 28.6296 209.929 28.7473C207.164 30.4237 204.399 32.1061 201.637 33.7943C201.362 33.9619 201.059 34.1811 200.818 33.7943C200.576 33.4075 200.923 33.2384 201.193 33.0752C203.957 31.3919 206.722 29.7095 209.488 28.0281C209.687 27.9061 209.895 27.7031 210.144 27.9134C210.232 28.0085 210.306 28.116 210.363 28.2326Z" fill="#597EF7"/>
<path d="M266.263 41.5312C266.498 41.5754 266.623 41.7533 266.738 41.9415C268.433 44.7288 270.13 47.5151 271.828 50.3004C272.006 50.5945 272.15 50.8886 271.753 51.1048C271.356 51.3209 271.24 50.9577 271.097 50.7254C269.395 47.943 267.706 45.1533 266.001 42.3724C265.751 41.9651 265.782 41.7033 266.263 41.5312Z" fill="#597EF7"/>
<path d="M294.412 19.4296L290.923 18.5737C288.937 18.0884 286.953 17.5987 284.963 17.1193C284.643 17.0413 284.27 16.9884 284.375 16.5546C284.476 16.1443 284.816 16.2119 285.154 16.2957C288.275 17.0619 291.4 17.8148 294.522 18.5751C294.825 18.6487 295.198 18.6928 295.16 19.1296C295.147 19.4281 294.897 19.4972 294.412 19.4296Z" fill="#597EF7"/>
<path d="M232.463 56.4283C232.722 55.3828 233.032 54.1298 233.345 52.8769C233.832 50.8916 234.323 48.9063 234.798 46.9181C234.872 46.6107 234.945 46.2872 235.325 46.3681C235.704 46.4489 235.704 46.7534 235.619 47.1195C234.843 50.2622 234.093 53.4122 233.325 56.5578C233.26 56.8269 233.222 57.1901 232.819 57.1636C232.522 57.146 232.395 56.9328 232.463 56.4283Z" fill="#597EF7"/>
<path d="M215.919 48.6453C215.863 48.7644 215.8 48.8799 215.729 48.9908C214.559 50.6394 213.393 52.2908 212.231 53.9335C212.043 54.2011 211.85 54.407 211.522 54.1747C211.194 53.9423 211.375 53.6732 211.544 53.4276C212.711 51.7805 213.877 50.133 215.044 48.485C215.182 48.2894 215.313 48.0438 215.618 48.1511C215.719 48.1833 215.805 48.251 215.861 48.3418C215.916 48.4326 215.937 48.5404 215.919 48.6453Z" fill="#597EF7"/>
<path d="M286.632 35.9434C286.769 36.0287 286.919 36.111 287.059 36.2081C288.67 37.3453 290.279 38.4831 291.887 39.6213C292.157 39.811 292.444 40.0066 292.181 40.3786C291.929 40.7272 291.676 40.5051 291.435 40.3345C289.786 39.1698 288.138 38.0041 286.491 36.8375C286.295 36.7036 286.029 36.5772 286.176 36.2625C286.212 36.1698 286.274 36.0898 286.355 36.0329C286.437 35.976 286.533 35.9448 286.632 35.9434Z" fill="#597EF7"/>
<path d="M194.463 15.1628C194.757 15.126 195.043 15.1378 195.118 15.4687C195.209 15.8746 194.865 15.9613 194.579 16.0113C192.54 16.3721 190.499 16.7251 188.457 17.0702C188.175 17.1187 187.97 17.0099 187.935 16.7069C187.9 16.404 188.043 16.2657 188.341 16.2128C190.382 15.8687 192.422 15.5143 194.463 15.1628Z" fill="#597EF7"/>
<path d="M253.193 57.5497C253.15 57.0923 253.17 56.8144 253.537 56.7864C253.941 56.7614 253.99 57.1114 254.038 57.3908C254.351 59.1908 254.648 60.9938 254.951 62.7953C254.984 62.9864 255.029 63.1761 255.066 63.3688C255.123 63.6629 255.076 63.9203 254.723 63.9747C254.37 64.0291 254.262 63.8158 254.21 63.507C253.975 62.0879 253.726 60.6732 253.482 59.257C253.382 58.632 253.27 58.007 253.193 57.5497Z" fill="#597EF7"/>
<path d="M235.972 42.0519L236.912 38.1077C237.048 37.5416 237.179 36.9739 237.329 36.4107C237.401 36.143 237.535 35.8783 237.879 35.9695C238.223 36.0607 238.238 36.3357 238.173 36.621C237.718 38.4837 237.26 40.3465 236.8 42.2092C236.732 42.4872 236.609 42.7342 236.254 42.6504C235.997 42.5945 235.925 42.3945 235.972 42.0519Z" fill="#597EF7"/>
<path d="M219.513 22.715C219.487 22.8067 219.441 22.8918 219.38 22.9643C219.318 23.0369 219.241 23.0953 219.154 23.1356C217.534 24.1159 215.914 25.1008 214.294 26.09C214.015 26.2606 213.743 26.3606 213.55 26.0179C213.378 25.7135 213.594 25.5194 213.844 25.3709C215.484 24.3723 217.122 23.3694 218.768 22.3811C219.118 22.1694 219.522 22.362 219.513 22.715Z" fill="#597EF7"/>
<path d="M215.423 0.199304C213.435 -0.293343 211.528 -0.768344 209.619 -1.23452C209.325 -1.30658 209.194 -1.47129 209.257 -1.75952C209.32 -2.04776 209.551 -2.10364 209.822 -2.03746C211.734 -1.57864 213.645 -1.12864 215.557 -0.659519C215.801 -0.600696 215.998 -0.431577 215.918 -0.125695C215.908 -0.070914 215.888 -0.0186095 215.858 0.0279346C215.827 0.0744786 215.788 0.114254 215.741 0.144772C215.695 0.17529 215.643 0.195889 215.588 0.205273C215.533 0.214657 215.477 0.212625 215.423 0.199304Z" fill="#597EF7"/>
<path d="M264.254 37.922C264.265 38.0159 264.246 38.1108 264.199 38.1929C264.152 38.275 264.081 38.3398 263.994 38.3779C263.928 38.4131 263.853 38.4253 263.78 38.4125C263.706 38.3997 263.639 38.3627 263.59 38.3073C263.465 38.1588 263.351 38.001 263.25 37.8353C262.324 36.3206 261.401 34.8039 260.481 33.2853C260.315 33.0117 260.081 32.7382 260.481 32.4794C260.881 32.2206 261.043 32.5853 261.198 32.8397C262.166 34.4147 263.122 35.997 264.079 37.5779C264.151 37.7 264.209 37.8323 264.254 37.922Z" fill="#597EF7"/>
<path d="M280.044 15.9246L277.581 15.3364C276.562 15.0913 275.544 14.8462 274.526 14.6011C274.232 14.5305 273.909 14.454 273.978 14.0585C274.047 13.6629 274.387 13.6805 274.679 13.7496C276.527 14.1918 278.374 14.6423 280.219 15.1011C280.493 15.1688 280.738 15.3026 280.66 15.6599C280.588 15.9247 280.381 15.9599 280.044 15.9246Z" fill="#597EF7"/>
<path d="M280.625 23.506C280.478 24.0104 280.184 23.9898 279.815 23.8236C278.664 23.2932 277.511 22.7648 276.357 22.2383L262.465 15.8722C262.398 15.8428 262.334 15.8104 262.266 15.781C261.963 15.653 261.738 15.4604 261.913 15.1119C262.073 14.7913 262.344 14.8795 262.609 15.0016C263.826 15.5619 265.05 16.1133 266.267 16.6722C270.854 18.7741 275.44 20.8776 280.025 22.9825C280.285 23.1016 280.588 23.1825 280.625 23.506Z" fill="#FFA940"/>
<path d="M208.1 21.2718C207.859 21.2718 207.696 21.1894 207.643 20.9644C207.626 20.9114 207.621 20.8556 207.627 20.8003C207.633 20.7451 207.65 20.6917 207.677 20.6435C207.705 20.5953 207.742 20.5534 207.787 20.5203C207.832 20.4872 207.883 20.4636 207.937 20.4512C208.525 20.2291 209.113 19.9924 209.71 19.7718L225.865 13.7688C225.979 13.7277 226.098 13.6968 226.209 13.6483C226.491 13.5247 226.756 13.5188 226.875 13.8483C226.994 14.1777 226.793 14.3483 226.507 14.4527C225.25 14.9159 223.994 15.3762 222.738 15.8438C218.06 17.584 213.383 19.3257 208.707 21.0688C208.498 21.1438 208.288 21.2085 208.1 21.2718Z" fill="#FFA940"/>
<path d="M237.015 24.9131C236.966 25.0352 236.907 25.1955 236.837 25.3543C234.236 31.0406 231.633 36.7269 229.028 42.4131C228.957 42.5602 228.881 42.7205 228.803 42.872C228.685 43.1058 228.545 43.3043 228.238 43.1558C227.931 43.0073 227.901 42.797 228.044 42.4955C228.5 41.5278 228.935 40.5484 229.382 39.5749L235.953 25.2323C236.044 25.0337 236.135 24.8337 236.24 24.644C236.286 24.5555 236.365 24.489 236.46 24.4589C236.555 24.4288 236.658 24.4378 236.747 24.4837C236.834 24.514 236.908 24.5731 236.957 24.6512C237.005 24.7293 237.026 24.8218 237.015 24.9131Z" fill="#FFA940"/>
<path d="M281.693 -6.41119C281.693 -5.95089 281.313 -5.93472 281.04 -5.83178C278.325 -4.81315 275.608 -3.8009 272.89 -2.79501C269.689 -1.60678 266.491 -0.419034 263.297 0.768221C263.003 0.879986 262.615 1.13293 262.448 0.621162C262.29 0.137339 262.728 0.0652776 263.037 -0.0479579C268.969 -2.2607 274.904 -4.47099 280.843 -6.67884C281.184 -6.8009 281.565 -6.97295 281.693 -6.41119Z" fill="#FFA940"/>
<path d="M258.691 43.7966C258.705 43.8957 258.683 43.9965 258.629 44.0807C258.575 44.1649 258.493 44.2269 258.397 44.2555C258.352 44.2769 258.303 44.289 258.254 44.2908C258.204 44.2927 258.154 44.2843 258.108 44.2663C258.062 44.2482 258.02 44.2209 257.984 44.1859C257.949 44.1509 257.921 44.109 257.903 44.0628C257.766 43.7511 257.654 43.429 257.535 43.1099C255.42 37.4236 253.307 31.7417 251.194 26.0643C251.143 25.9275 251.091 25.7908 251.037 25.654C250.935 25.3966 250.941 25.1555 251.231 25.0422C251.52 24.929 251.738 25.0746 251.848 25.3746C252.208 26.355 252.57 27.3354 252.935 28.3158L258.515 43.3202C258.575 43.4761 258.632 43.6378 258.691 43.7966Z" fill="#FFA940"/>
<path d="M204.497 22.3235C204.497 22.5705 204.318 22.6999 204.104 22.7794C202.928 23.2205 201.743 23.6529 200.563 24.094C200.281 24.1999 200.088 24.1264 199.975 23.8485C199.951 23.7978 199.939 23.7427 199.939 23.6869C199.938 23.6311 199.95 23.5759 199.972 23.5249C199.995 23.4739 200.029 23.4284 200.07 23.3914C200.112 23.3543 200.161 23.3267 200.215 23.3102C201.435 22.8455 202.661 22.3941 203.891 21.9558C204.204 21.8499 204.42 21.997 204.497 22.3235Z" fill="#FFD591"/>
<path d="M259.365 48.0268C259.319 47.687 259.387 47.5209 259.598 47.4385C259.862 47.3268 260.04 47.4621 260.125 47.6797C260.604 48.9238 261.074 50.1714 261.535 51.4224C261.555 51.468 261.564 51.5172 261.563 51.5667C261.563 51.6163 261.552 51.6652 261.531 51.7103C261.511 51.7554 261.481 51.7957 261.444 51.8287C261.407 51.8616 261.363 51.8865 261.316 51.9018C261.095 51.9929 260.853 51.9797 260.756 51.7282C260.268 50.4606 259.798 49.1885 259.365 48.0268Z" fill="#FFD591"/>
<path d="M224.885 50.6059C224.591 50.5368 224.444 50.3427 224.613 49.9868C225.137 48.8397 225.653 47.6897 226.187 46.5486C226.304 46.2941 226.503 46.0809 226.822 46.2544C227.141 46.428 227.057 46.6853 226.937 46.9471C226.428 48.0471 225.92 49.153 225.423 50.2515C225.326 50.4647 225.222 50.6368 224.885 50.6059Z" fill="#FFD591"/>
<path d="M288.031 26.9371C287.97 27.2312 287.84 27.4753 287.443 27.2988C286.251 26.7596 285.064 26.2131 283.879 25.6592C283.656 25.5562 283.526 25.365 283.626 25.1268C283.741 24.8533 283.997 24.8018 284.243 24.9106C285.419 25.4327 286.579 25.9709 287.747 26.5047C287.833 26.5387 287.907 26.5985 287.957 26.6759C288.008 26.7533 288.034 26.8445 288.031 26.9371Z" fill="#FFD591"/>
</svg>
