<svg width="364" height="275" viewBox="0 0 364 275" fill="none" xmlns="http://www.w3.org/2000/svg">
<path d="M579.049 354.045L575.49 353.245C589.338 291.134 582.562 227.674 555.87 169.706C514.52 79.9048 431.299 18.091 333.247 4.35328L333.76 0.739258C433.043 14.6233 517.306 77.2334 559.183 168.18C586.203 226.86 593.06 291.147 579.049 354.045Z" fill="#BEEAEC"/>
<path d="M415.816 556.251C269.285 623.722 95.1718 559.398 27.7007 412.868C-39.7704 266.338 24.553 92.224 171.083 24.7529L172.609 28.0662C27.9057 94.696 -35.5849 266.625 31.0307 411.297C97.6606 556.001 269.589 619.491 414.262 552.876C457.985 532.743 496.228 501.847 524.825 463.534L527.745 465.717C498.809 504.6 460.066 535.875 415.816 556.251Z" fill="#BEEAEC"/>
<path d="M261.89 552.965C169.992 541.836 92.0411 485.027 53.3721 401.047L60.0298 397.982C97.6294 479.639 173.42 534.853 262.779 545.687L261.89 552.965Z" fill="#BEEAEC"/>
<path d="M404.012 530.61C377.691 542.73 349.881 550.393 321.335 553.442L320.577 546.172C348.343 543.22 375.383 535.761 400.992 523.969C521.232 468.604 579.619 332.54 536.718 207.499L543.658 205.129C587.697 333.7 527.69 473.662 404.012 530.61Z" fill="#BEEAEC"/>
<path d="M506.732 147.107C473.093 96.9542 422.429 60.1201 364.04 43.4319C305.033 26.5408 241.786 31.4178 185.986 57.1116C140.93 77.8577 103.124 110.842 76.6455 152.533C45.7967 201.116 31.9683 259.277 37.7009 316.312L30.4168 317.039C24.507 258.397 38.7392 198.586 70.456 148.628C97.7044 105.756 136.578 71.8299 182.903 50.4992C240.314 24.064 305.349 19.0766 366.035 36.4334C426.071 53.6017 478.196 91.4896 512.796 143.076L506.732 147.107Z" fill="#BEEAEC"/>
<path d="M373.301 463.909C277.678 507.939 164.074 465.97 120.044 370.348C102.221 331.64 97.8469 289.292 107.353 247.909L114.485 249.542C105.349 289.366 109.563 330.061 126.702 367.282C169.035 459.22 278.297 499.585 370.235 457.251C386.554 449.737 401.604 439.955 414.917 428.195L419.774 433.69C405.91 445.966 390.239 456.109 373.301 463.909Z" fill="#BEEAEC"/>
<path d="M469.454 364.463L462.711 361.638C482.599 314.273 481.693 260.383 460.219 213.748C445.105 180.925 420.939 153.545 390.355 134.563L394.215 128.357C426.041 148.081 451.164 176.558 466.891 210.714C489.175 259.19 490.134 315.232 469.454 364.463Z" fill="#BEEAEC"/>
<path d="M337.071 112.184C296.405 102.197 254.755 106.213 216.667 123.75C183.255 139.135 155.554 163.826 136.547 195.171L130.293 191.37C150.042 158.783 178.872 133.122 213.616 117.124C253.252 98.873 296.555 94.6972 338.84 105.102L337.071 112.184Z" fill="#BEEAEC"/>
<path d="M359.58 434.122C336.231 444.873 310.4 449.824 284.91 448.425L285.104 444.77C310.015 446.135 335.232 441.317 358.023 430.823C420.977 401.835 457.1 333.897 445.872 265.58L449.475 265.01C461.018 334.907 424.02 404.45 359.58 434.122Z" fill="#BEEAEC"/>
<path d="M238.695 438.854C199.079 424.219 167.511 395.03 149.845 356.664C113.386 277.484 148.123 183.386 227.334 146.913C306.514 110.454 400.625 145.222 437.084 224.402L433.771 225.928C398.153 148.575 306.257 114.625 228.905 150.243C151.552 185.861 117.603 277.757 153.22 355.109C170.473 392.578 201.284 421.102 240.027 435.389L238.695 438.854Z" fill="#BEEAEC"/>
<path d="M334.586 379.838C285.319 402.523 226.798 380.904 204.113 331.637C181.428 282.371 203.047 223.85 252.314 201.165L255.38 207.823C209.798 228.811 189.782 282.99 210.771 328.572C231.759 374.153 285.938 394.169 331.52 373.18C377.102 352.192 397.117 298.013 376.129 252.431L382.786 249.366C405.441 298.647 383.821 357.167 334.586 379.838Z" fill="#BEEAEC"/>
<path d="M313.897 334.906C289.403 346.185 260.324 335.442 249.046 310.948L252.359 309.422C262.782 332.058 289.69 341.999 312.326 331.576C334.962 321.154 344.903 294.245 334.48 271.609C324.057 248.973 297.149 239.032 274.513 249.455C261.941 255.244 252.831 266.269 249.5 279.738L245.943 278.861C249.523 264.302 259.379 252.37 272.973 246.111C297.467 234.832 326.546 245.575 337.825 270.069C349.103 294.563 338.36 323.642 313.897 334.906Z" fill="#BEEAEC"/>
</svg>
