<svg width="366" height="389" viewBox="0 0 366 389" fill="none" xmlns="http://www.w3.org/2000/svg">
<path d="M283.96 229.902L279.977 226.857C332.968 157.28 360.986 74.1624 360.986 -13.5468C360.986 -149.421 292.628 -274.425 178.118 -347.938L180.836 -352.155C296.798 -277.752 366 -151.155 366 -13.5468C366 75.24 337.607 159.435 283.96 229.902Z" fill="#F0F5FF"/>
<path d="M-36.0487 388.5C-257.758 388.5 -438.143 208.116 -438.143 -13.5937C-438.143 -235.303 -257.758 -415.688 -36.0487 -415.688V-410.674C-254.994 -410.674 -433.082 -232.539 -433.082 -13.6406C-433.082 205.304 -254.947 383.393 -36.0487 383.393C30.108 383.393 95.6086 366.807 153.332 335.416L155.721 339.82C97.2485 371.727 30.9044 388.5 -36.0487 388.5Z" fill="#F0F5FF"/>
<path d="M-226.318 295.918C-334.643 229.199 -399.3 113.472 -399.3 -13.5939H-389.227C-389.227 109.958 -326.35 222.452 -221.024 287.344L-226.318 295.918Z" fill="#F0F5FF"/>
<path d="M-36.0474 349.706C-75.8726 349.706 -114.995 343.287 -152.384 330.684L-149.151 321.173C-112.793 333.448 -74.7482 339.679 -36.0007 339.679C145.93 339.679 297.032 203.384 315.351 22.6241L325.378 23.6549C306.449 209.475 151.084 349.706 -36.0474 349.706Z" fill="#F0F5FF"/>
<path d="M312.636 -70.0047C299.471 -151.951 257.397 -227.056 194.098 -281.453C130.143 -336.458 48.3847 -366.726 -36.0447 -366.726C-104.216 -366.726 -170.373 -347.282 -227.393 -310.455C-293.831 -267.538 -344.526 -202.88 -370.155 -128.384L-379.666 -131.663C-353.334 -208.268 -301.187 -274.753 -232.875 -318.889C-174.215 -356.746 -106.184 -376.752 -36.0916 -376.752C50.7742 -376.752 134.829 -345.595 200.611 -289.043C265.69 -233.101 308.982 -155.84 322.523 -71.5508L312.636 -70.0047Z" fill="#F0F5FF"/>
<path d="M-36.0471 248.784C-180.73 248.784 -298.425 131.089 -298.425 -13.5938C-298.425 -72.1602 -279.543 -127.541 -243.888 -173.738L-235.923 -167.6C-270.219 -123.136 -288.352 -69.9113 -288.352 -13.5938C-288.352 125.513 -175.154 238.711 -36.0471 238.711C-11.3555 238.711 13.055 235.15 36.4347 228.122L39.3396 237.773C14.9759 245.129 -10.4185 248.784 -36.0471 248.784Z" fill="#F0F5FF"/>
<path d="M141.153 179.91L134.36 172.507C186.414 124.811 216.259 57.0141 216.259 -13.5468C216.259 -63.2111 201.828 -111.283 174.56 -152.56L182.946 -158.089C211.339 -115.171 226.332 -65.179 226.332 -13.5C226.286 59.8252 195.269 130.339 141.153 179.91Z" fill="#F0F5FF"/>
<path d="M120.909 -211.127C75.8826 -246.969 21.5798 -265.898 -36.0496 -265.898C-86.6042 -265.898 -135.378 -250.999 -177.124 -222.793L-182.747 -231.133C-139.361 -260.463 -88.6188 -275.925 -36.0496 -275.925C23.9225 -275.925 80.3805 -256.246 127.187 -218.951L120.909 -211.127Z" fill="#F0F5FF"/>
<path d="M-36.0481 203.711C-71.3754 203.711 -106.469 195.043 -137.485 178.645L-135.143 174.194C-104.829 190.217 -70.579 198.698 -36.095 198.698C59.1575 198.698 143.306 134.65 168.56 42.911L173.385 44.2698C147.616 138.164 61.4533 203.711 -36.0481 203.711Z" fill="#F0F5FF"/>
<path d="M-189.679 140.132C-230.722 99.0884 -253.352 44.5045 -253.352 -13.5465C-253.352 -133.35 -155.898 -230.851 -36.0473 -230.851C83.7562 -230.851 181.258 -133.35 181.258 -13.5465H176.244C176.244 -130.586 81.0386 -225.791 -36.0006 -225.791C-153.04 -225.791 -248.245 -130.586 -248.245 -13.5465C-248.245 43.1458 -226.178 96.4647 -186.024 136.571L-189.679 140.132Z" fill="#F0F5FF"/>
<path d="M-36.0498 121.578C-110.593 121.578 -171.221 60.9496 -171.221 -13.5938C-171.221 -88.1372 -110.593 -148.765 -36.0498 -148.765V-138.692C-105.018 -138.692 -161.148 -82.5617 -161.148 -13.5938C-161.148 55.3741 -105.018 111.504 -36.0498 111.504C32.9181 111.504 89.048 55.3741 89.048 -13.5938H99.1216C99.0747 60.9496 38.4467 121.578 -36.0498 121.578Z" fill="#F0F5FF"/>
<path d="M-36.0486 53.5936C-73.1095 53.5936 -103.236 23.467 -103.236 -13.5938H-98.2229C-98.2229 20.6558 -70.3452 48.5335 -36.0955 48.5335C-1.84586 48.5335 26.0318 20.6558 26.0318 -13.5938C26.0318 -47.8435 -1.84586 -75.7212 -36.0955 -75.7212C-55.1179 -75.7212 -72.8284 -67.1939 -84.7291 -52.2946L-88.6648 -55.4337C-75.827 -71.5512 -56.6641 -80.7813 -36.0955 -80.7813C0.965332 -80.7813 31.0919 -50.6547 31.0919 -13.5938C31.0919 23.467 0.965393 53.5936 -36.0486 53.5936Z" fill="#F0F5FF"/>
</svg>
