<svg width="640" height="720" viewBox="0 0 640 720" fill="none" xmlns="http://www.w3.org/2000/svg">
<g clip-path="url(#clip0)">
<path d="M433.639 658.5L710 271.5H638.632L362.271 658.5H433.639Z" fill="#FFF0F6"/>
<path d="M227.476 868L801.621 64H653.353L79.207 868H227.476Z" fill="#FFF0F6"/>
<path d="M251.269 1310L825.415 506H677.146L103 1310H251.269Z" fill="#FFF0F6"/>
<path d="M293.624 336L569.985 -51H498.617L222.256 336H293.624Z" fill="#FFF0F6"/>
<path d="M157.624 466L433.985 79H362.617L86.2559 466H157.624Z" fill="#FFF0F6"/>
<path d="M185.624 678.5L461.985 291.5H390.617L114.256 678.5H185.624Z" fill="#FFF0F6"/>
<path d="M-45.2257 430L231.136 43H159.768L-116.594 430H-45.2257Z" fill="#FFF0F6"/>
<path d="M0.502777 311L276.864 -76H205.496L-70.8652 311H0.502777Z" fill="#FFF0F6"/>
<path d="M-44.3761 574.5L231.985 187.5H160.617L-115.744 574.5H-44.3761Z" fill="#FFF0F6"/>
</g>
<defs>
<clipPath id="clip0">
<rect width="640" height="720" fill="white"/>
</clipPath>
</defs>
</svg>
